<svg xmlns="http://www.w3.org/2000/svg" viewBox="0 0 800 450" width="800" height="450">
  <defs>
    <linearGradient id="bg" x1="0" y1="0" x2="0" y2="1">
      <stop offset="0%" stop-color="#1d1d36"/>
      <stop offset="100%" stop-color="#0e0e1a"/>
    </linearGradient>
    <pattern id="grid" width="40" height="40" patternUnits="userSpaceOnUse">
      <circle cx="2" cy="2" r="0.8" fill="#252548" opacity="0.6"/>
    </pattern>
    <filter id="glow">
      <feGaussianBlur stdDeviation="3.5"/>
    </filter>
  </defs>
  <rect width="800" height="450" fill="url(#bg)"/>
  <rect width="800" height="450" fill="url(#grid)"/>
  <path d="M 125.4 281.5 L 128.5 284.0 L 136.2 289.9 L 146.1 297.5 L 151.6 301.7 L 162.1 309.7 L 172.0 317.3 L 177.9 321.8 L 186.4 328.3 L 198.5 337.6 L 204.2 341.9 L 213.9 349.3 L 221.0 354.8 L 230.1 361.8 L 238.2 367.9 L 245.9 373.8 L 249.4 376.6 L 260.2 385.0 L 269.2 391.9 L 275.9 397.6 L 284.4 404.5 L 290.8 408.8 L 294.6 409.8 L 298.5 409.9 L 303.3 407.0 L 304.0 405.8 L 304.9 401.7 L 304.7 398.6 L 304.4 395.7 L 303.4 389.9 L 301.6 383.7 L 299.9 379.9 L 296.5 372.5 L 293.0 364.6 L 291.0 359.2 L 288.6 350.5 L 288.2 338.1 L 288.8 334.3 L 292.0 323.6 L 299.1 311.8 L 303.6 307.2 L 313.2 299.9 L 324.0 293.8 L 329.6 290.8 L 342.9 283.2 L 349.8 278.0 L 358.1 271.3 L 365.9 259.7 L 372.8 247.7 L 376.8 242.1 L 389.9 232.6 L 401.1 225.0 L 406.3 215.7 L 409.0 205.3 L 415.9 187.8 L 418.8 184.2 L 432.1 174.2 L 438.5 171.3 L 443.4 169.9 L 452.1 169.8 L 460.4 171.9 L 466.1 174.2 L 485.5 183.2 L 494.0 184.6 L 496.3 184.4 L 504.2 180.9 L 511.1 176.1 L 513.3 174.0 L 521.1 164.4 L 527.1 157.9 L 531.1 154.6 L 536.3 152.1 L 550.8 153.9 L 557.6 158.8 L 561.5 163.0 L 566.8 166.3 L 578.6 167.3 L 586.4 166.4 L 601.6 162.9 L 614.0 159.6 L 618.3 158.2 L 635.8 150.2 L 651.4 135.8 L 656.3 129.9 L 661.5 123.4 L 671.1 111.4 L 678.4 102.6 L 691.2 86.7 L 697.1 79.5 L 700.3 75.7 L 709.0 65.6 L 715.3 57.7 L 716.6 55.6 L 718.5 51.3 L 719.2 46.4 L 718.0 43.6 L 715.1 41.2 L 711.0 40.1 L 708.9 40.0 L 695.2 42.4 L 690.1 44.1 L 688.7 44.6 L 683.4 46.6 L 674.7 49.8 L 669.9 51.5 L 659.8 55.1 L 650.7 58.3 L 647.2 59.5 L 637.9 62.7 L 628.7 65.7 L 623.4 67.2 L 605.7 72.2 L 597.5 74.5 L 592.6 75.8 L 575.0 80.4 L 557.7 84.6 L 551.7 86.1 L 540.6 88.7 L 522.7 92.6 L 516.1 94.0 L 497.8 97.7 L 477.5 101.5 L 468.1 103.2 L 453.3 105.7 L 441.5 107.6 L 434.3 108.5 L 414.5 110.8 L 394.5 112.8 L 387.3 113.5 L 376.3 114.6 L 363.1 115.9 L 354.4 116.8 L 346.3 117.6 L 332.0 118.9 L 329.2 119.2 L 320.8 120.4 L 315.5 123.0 L 313.3 124.8 L 311.2 129.3 L 311.2 133.2 L 312.1 136.0 L 313.6 139.0 L 316.3 143.3 L 317.5 144.8 L 322.8 150.4 L 328.0 155.4 L 334.4 161.5 L 338.7 165.9 L 343.4 172.0 L 346.0 176.5 L 347.6 182.7 L 347.5 188.1 L 344.6 194.3 L 342.0 196.8 L 336.8 198.4 L 328.1 198.1 L 324.5 196.7 L 319.1 193.1 L 314.8 188.7 L 313.0 186.4 L 307.4 176.3 L 300.7 165.7 L 297.8 162.7 L 293.5 158.8 L 287.2 155.3 L 283.6 154.5 L 278.1 154.9 L 273.7 157.1 L 272.2 158.5 L 270.4 163.8 L 270.9 166.9 L 271.4 168.2 L 273.9 173.0 L 277.2 177.8 L 279.0 180.1 L 284.2 186.8 L 290.0 194.0 L 293.0 198.0 L 298.4 208.0 L 301.0 217.1 L 301.7 221.6 L 301.5 234.6 L 298.9 243.5 L 294.1 252.5 L 287.5 259.3 L 280.6 263.2 L 275.6 265.6 L 263.6 269.1 L 246.0 268.1 L 236.6 265.4 L 227.6 261.1 L 216.0 252.0 L 213.6 249.0 L 206.3 238.6 L 200.8 228.7 L 196.1 220.7 L 185.3 207.9 L 177.4 202.3 L 171.3 199.9 L 165.3 199.3 L 157.1 200.3 L 153.5 201.4 L 140.7 207.3 L 128.2 213.1 L 124.4 214.9 L 105.8 222.5 L 93.7 227.7 L 91.7 228.7 L 86.4 232.3 L 82.7 236.4 L 81.7 238.3 L 80.8 241.6 L 82.3 248.0 L 84.0 250.7 L 87.1 254.4 L 89.6 256.9 L 92.0 258.8 L 99.2 263.9 L 108.5 269.7 L 119.2 276.8 L 125.4 281.5 Z" fill="none" stroke="#2c2c4a" stroke-width="14" stroke-linejoin="round" stroke-linecap="round"/>
  <path d="M 125.4 281.5 L 128.5 284.0 L 136.2 289.9 L 146.1 297.5 L 151.6 301.7 L 162.1 309.7 L 172.0 317.3 L 177.9 321.8 L 186.4 328.3 L 198.5 337.6 L 204.2 341.9 L 213.9 349.3 L 221.0 354.8 L 230.1 361.8 L 238.2 367.9 L 245.9 373.8 L 249.4 376.6 L 260.2 385.0 L 269.2 391.9 L 275.9 397.6 L 284.4 404.5 L 290.8 408.8 L 294.6 409.8 L 298.5 409.9 L 303.3 407.0 L 304.0 405.8 L 304.9 401.7 L 304.7 398.6 L 304.4 395.7 L 303.4 389.9 L 301.6 383.7 L 299.9 379.9 L 296.5 372.5 L 293.0 364.6 L 291.0 359.2 L 288.6 350.5 L 288.2 338.1 L 288.8 334.3 L 292.0 323.6 L 299.1 311.8 L 303.6 307.2 L 313.2 299.9 L 324.0 293.8 L 329.6 290.8 L 342.9 283.2 L 349.8 278.0 L 358.1 271.3 L 365.9 259.7 L 372.8 247.7 L 376.8 242.1 L 389.9 232.6 L 401.1 225.0 L 406.3 215.7 L 409.0 205.3 L 415.9 187.8 L 418.8 184.2 L 432.1 174.2 L 438.5 171.3 L 443.4 169.9 L 452.1 169.8 L 460.4 171.9 L 466.1 174.2 L 485.5 183.2 L 494.0 184.6 L 496.3 184.4 L 504.2 180.9 L 511.1 176.1 L 513.3 174.0 L 521.1 164.4 L 527.1 157.9 L 531.1 154.6 L 536.3 152.1 L 550.8 153.9 L 557.6 158.8 L 561.5 163.0 L 566.8 166.3 L 578.6 167.3 L 586.4 166.4 L 601.6 162.9 L 614.0 159.6 L 618.3 158.2 L 635.8 150.2 L 651.4 135.8 L 656.3 129.9 L 661.5 123.4 L 671.1 111.4 L 678.4 102.6 L 691.2 86.7 L 697.1 79.5 L 700.3 75.7 L 709.0 65.6 L 715.3 57.7 L 716.6 55.6 L 718.5 51.3 L 719.2 46.4 L 718.0 43.6 L 715.1 41.2 L 711.0 40.1 L 708.9 40.0 L 695.2 42.4 L 690.1 44.1 L 688.7 44.6 L 683.4 46.6 L 674.7 49.8 L 669.9 51.5 L 659.8 55.1 L 650.7 58.3 L 647.2 59.5 L 637.9 62.7 L 628.7 65.7 L 623.4 67.2 L 605.7 72.2 L 597.5 74.5 L 592.6 75.8 L 575.0 80.4 L 557.7 84.6 L 551.7 86.1 L 540.6 88.7 L 522.7 92.6 L 516.1 94.0 L 497.8 97.7 L 477.5 101.5 L 468.1 103.2 L 453.3 105.7 L 441.5 107.6 L 434.3 108.5 L 414.5 110.8 L 394.5 112.8 L 387.3 113.5 L 376.3 114.6 L 363.1 115.9 L 354.4 116.8 L 346.3 117.6 L 332.0 118.9 L 329.2 119.2 L 320.8 120.4 L 315.5 123.0 L 313.3 124.8 L 311.2 129.3 L 311.2 133.2 L 312.1 136.0 L 313.6 139.0 L 316.3 143.3 L 317.5 144.8 L 322.8 150.4 L 328.0 155.4 L 334.4 161.5 L 338.7 165.9 L 343.4 172.0 L 346.0 176.5 L 347.6 182.7 L 347.5 188.1 L 344.6 194.3 L 342.0 196.8 L 336.8 198.4 L 328.1 198.1 L 324.5 196.7 L 319.1 193.1 L 314.8 188.7 L 313.0 186.4 L 307.4 176.3 L 300.7 165.7 L 297.8 162.7 L 293.5 158.8 L 287.2 155.3 L 283.6 154.5 L 278.1 154.9 L 273.7 157.1 L 272.2 158.5 L 270.4 163.8 L 270.9 166.9 L 271.4 168.2 L 273.9 173.0 L 277.2 177.8 L 279.0 180.1 L 284.2 186.8 L 290.0 194.0 L 293.0 198.0 L 298.4 208.0 L 301.0 217.1 L 301.7 221.6 L 301.5 234.6 L 298.9 243.5 L 294.1 252.5 L 287.5 259.3 L 280.6 263.2 L 275.6 265.6 L 263.6 269.1 L 246.0 268.1 L 236.6 265.4 L 227.6 261.1 L 216.0 252.0 L 213.6 249.0 L 206.3 238.6 L 200.8 228.7 L 196.1 220.7 L 185.3 207.9 L 177.4 202.3 L 171.3 199.9 L 165.3 199.3 L 157.1 200.3 L 153.5 201.4 L 140.7 207.3 L 128.2 213.1 L 124.4 214.9 L 105.8 222.5 L 93.7 227.7 L 91.7 228.7 L 86.4 232.3 L 82.7 236.4 L 81.7 238.3 L 80.8 241.6 L 82.3 248.0 L 84.0 250.7 L 87.1 254.4 L 89.6 256.9 L 92.0 258.8 L 99.2 263.9 L 108.5 269.7 L 119.2 276.8 L 125.4 281.5 Z" fill="none" stroke="#e10600" stroke-width="3" stroke-linejoin="round" filter="url(#glow)" opacity="0.85"/>
  <path d="M 125.4 281.5 L 128.5 284.0 L 136.2 289.9 L 146.1 297.5 L 151.6 301.7 L 162.1 309.7 L 172.0 317.3 L 177.9 321.8 L 186.4 328.3 L 198.5 337.6 L 204.2 341.9 L 213.9 349.3 L 221.0 354.8 L 230.1 361.8 L 238.2 367.9 L 245.9 373.8 L 249.4 376.6 L 260.2 385.0 L 269.2 391.9 L 275.9 397.6 L 284.4 404.5 L 290.8 408.8 L 294.6 409.8 L 298.5 409.9 L 303.3 407.0 L 304.0 405.8 L 304.9 401.7 L 304.7 398.6 L 304.4 395.7 L 303.4 389.9 L 301.6 383.7 L 299.9 379.9 L 296.5 372.5 L 293.0 364.6 L 291.0 359.2 L 288.6 350.5 L 288.2 338.1 L 288.8 334.3 L 292.0 323.6 L 299.1 311.8 L 303.6 307.2 L 313.2 299.9 L 324.0 293.8 L 329.6 290.8 L 342.9 283.2 L 349.8 278.0 L 358.1 271.3 L 365.9 259.7 L 372.8 247.7 L 376.8 242.1 L 389.9 232.6 L 401.1 225.0 L 406.3 215.7 L 409.0 205.3 L 415.9 187.8 L 418.8 184.2 L 432.1 174.2 L 438.5 171.3 L 443.4 169.9 L 452.1 169.8 L 460.4 171.9 L 466.1 174.2 L 485.5 183.2 L 494.0 184.6 L 496.3 184.4 L 504.2 180.9 L 511.1 176.1 L 513.3 174.0 L 521.1 164.4 L 527.1 157.9 L 531.1 154.6 L 536.3 152.1 L 550.8 153.9 L 557.6 158.8 L 561.5 163.0 L 566.8 166.3 L 578.6 167.3 L 586.4 166.4 L 601.6 162.9 L 614.0 159.6 L 618.3 158.2 L 635.8 150.2 L 651.4 135.8 L 656.3 129.9 L 661.5 123.4 L 671.1 111.4 L 678.4 102.6 L 691.2 86.7 L 697.1 79.5 L 700.3 75.7 L 709.0 65.6 L 715.3 57.7 L 716.6 55.6 L 718.5 51.3 L 719.2 46.4 L 718.0 43.6 L 715.1 41.2 L 711.0 40.1 L 708.9 40.0 L 695.2 42.4 L 690.1 44.1 L 688.7 44.6 L 683.4 46.6 L 674.7 49.8 L 669.9 51.5 L 659.8 55.1 L 650.7 58.3 L 647.2 59.5 L 637.9 62.7 L 628.7 65.7 L 623.4 67.2 L 605.7 72.2 L 597.5 74.5 L 592.6 75.8 L 575.0 80.4 L 557.7 84.6 L 551.7 86.1 L 540.6 88.7 L 522.7 92.6 L 516.1 94.0 L 497.8 97.7 L 477.5 101.5 L 468.1 103.2 L 453.3 105.7 L 441.5 107.6 L 434.3 108.5 L 414.5 110.8 L 394.5 112.8 L 387.3 113.5 L 376.3 114.6 L 363.1 115.9 L 354.4 116.8 L 346.3 117.6 L 332.0 118.9 L 329.2 119.2 L 320.8 120.4 L 315.5 123.0 L 313.3 124.8 L 311.2 129.3 L 311.2 133.2 L 312.1 136.0 L 313.6 139.0 L 316.3 143.3 L 317.5 144.8 L 322.8 150.4 L 328.0 155.4 L 334.4 161.5 L 338.7 165.9 L 343.4 172.0 L 346.0 176.5 L 347.6 182.7 L 347.5 188.1 L 344.6 194.3 L 342.0 196.8 L 336.8 198.4 L 328.1 198.1 L 324.5 196.7 L 319.1 193.1 L 314.8 188.7 L 313.0 186.4 L 307.4 176.3 L 300.7 165.7 L 297.8 162.7 L 293.5 158.8 L 287.2 155.3 L 283.6 154.5 L 278.1 154.9 L 273.7 157.1 L 272.2 158.5 L 270.4 163.8 L 270.9 166.9 L 271.4 168.2 L 273.9 173.0 L 277.2 177.8 L 279.0 180.1 L 284.2 186.8 L 290.0 194.0 L 293.0 198.0 L 298.4 208.0 L 301.0 217.1 L 301.7 221.6 L 301.5 234.6 L 298.9 243.5 L 294.1 252.5 L 287.5 259.3 L 280.6 263.2 L 275.6 265.6 L 263.6 269.1 L 246.0 268.1 L 236.6 265.4 L 227.6 261.1 L 216.0 252.0 L 213.6 249.0 L 206.3 238.6 L 200.8 228.7 L 196.1 220.7 L 185.3 207.9 L 177.4 202.3 L 171.3 199.9 L 165.3 199.3 L 157.1 200.3 L 153.5 201.4 L 140.7 207.3 L 128.2 213.1 L 124.4 214.9 L 105.8 222.5 L 93.7 227.7 L 91.7 228.7 L 86.4 232.3 L 82.7 236.4 L 81.7 238.3 L 80.8 241.6 L 82.3 248.0 L 84.0 250.7 L 87.1 254.4 L 89.6 256.9 L 92.0 258.8 L 99.2 263.9 L 108.5 269.7 L 119.2 276.8 L 125.4 281.5 Z" fill="none" stroke="#ffffff" stroke-width="0.7" stroke-dasharray="3 6"/>
  <text x="20" y="34" font-family="Inter,system-ui,sans-serif" font-size="14" font-weight="600" fill="#8a8aa3" letter-spacing="2">CIRCUIT OF THE AMERICAS</text>
</svg>
