<svg xmlns="http://www.w3.org/2000/svg" viewBox="0 0 800 450" width="800" height="450">
  <defs>
    <linearGradient id="bg" x1="0" y1="0" x2="0" y2="1">
      <stop offset="0%" stop-color="#1d1d36"/>
      <stop offset="100%" stop-color="#0e0e1a"/>
    </linearGradient>
    <pattern id="grid" width="40" height="40" patternUnits="userSpaceOnUse">
      <circle cx="2" cy="2" r="0.8" fill="#252548" opacity="0.6"/>
    </pattern>
    <filter id="glow">
      <feGaussianBlur stdDeviation="3.5"/>
    </filter>
  </defs>
  <rect width="800" height="450" fill="url(#bg)"/>
  <rect width="800" height="450" fill="url(#grid)"/>
  <path d="M 281.0 255.9 L 281.4 247.0 L 281.8 235.5 L 282.2 227.4 L 282.8 212.8 L 283.2 203.0 L 283.4 197.0 L 284.0 183.7 L 284.7 167.3 L 285.0 160.6 L 285.4 151.8 L 285.9 139.5 L 286.1 134.4 L 286.4 126.6 L 286.7 120.5 L 287.2 109.6 L 287.7 96.0 L 287.8 91.0 L 287.9 80.7 L 287.9 68.9 L 287.9 64.8 L 288.0 53.0 L 288.4 49.9 L 288.9 47.2 L 290.4 43.3 L 292.1 41.3 L 295.5 40.0 L 301.9 43.2 L 303.3 44.6 L 306.0 47.5 L 310.8 52.1 L 311.7 52.7 L 315.8 54.7 L 322.0 55.7 L 324.7 55.4 L 331.7 54.0 L 341.1 51.2 L 342.8 50.7 L 350.4 48.8 L 354.1 48.6 L 361.9 48.8 L 374.7 50.2 L 379.2 51.1 L 391.4 53.6 L 402.8 55.9 L 407.8 56.9 L 415.0 58.4 L 429.9 61.4 L 436.5 62.7 L 447.9 64.9 L 454.2 66.1 L 468.7 68.9 L 478.4 70.7 L 484.8 71.9 L 492.3 73.2 L 506.1 75.8 L 509.1 76.3 L 517.2 78.9 L 522.3 82.0 L 522.9 82.5 L 526.0 88.5 L 526.1 91.8 L 524.8 97.7 L 521.0 104.2 L 519.5 105.8 L 514.0 110.7 L 507.0 115.6 L 504.9 117.1 L 497.9 122.2 L 491.2 127.6 L 486.6 131.9 L 479.3 140.7 L 473.3 149.5 L 471.6 152.4 L 464.3 162.5 L 462.1 164.5 L 447.7 169.9 L 439.3 169.9 L 435.6 169.8 L 423.6 171.4 L 411.5 177.2 L 409.2 179.0 L 403.2 185.4 L 393.9 199.8 L 391.6 203.7 L 384.9 213.9 L 383.4 215.9 L 378.8 221.0 L 376.1 222.9 L 372.8 223.9 L 368.8 223.3 L 366.8 221.2 L 365.8 219.6 L 364.4 216.3 L 363.4 209.4 L 363.5 206.9 L 364.3 200.5 L 365.4 194.0 L 366.4 189.5 L 367.2 186.2 L 368.3 180.9 L 370.5 171.0 L 372.4 162.8 L 373.8 156.6 L 375.9 145.7 L 377.2 136.8 L 377.8 130.4 L 377.7 120.9 L 376.1 113.7 L 375.1 110.9 L 371.5 103.7 L 369.6 101.3 L 366.0 97.7 L 361.8 95.1 L 360.3 94.5 L 356.9 94.2 L 354.0 95.6 L 352.7 97.2 L 351.6 99.6 L 350.6 102.7 L 350.4 103.8 L 349.8 107.1 L 349.6 108.5 L 349.0 112.8 L 348.5 117.5 L 348.0 122.8 L 347.3 132.0 L 346.6 143.9 L 346.5 145.8 L 345.9 156.5 L 345.1 170.9 L 344.9 176.1 L 344.4 187.1 L 344.0 194.7 L 343.6 204.4 L 343.2 212.9 L 343.0 218.6 L 342.2 233.7 L 341.6 246.1 L 341.3 253.5 L 340.8 263.5 L 340.2 273.5 L 339.7 282.5 L 339.4 298.1 L 340.1 303.9 L 340.8 307.4 L 343.6 313.9 L 345.1 315.7 L 350.7 319.2 L 356.1 321.1 L 361.1 321.6 L 372.4 319.2 L 378.7 315.9 L 382.5 312.9 L 386.6 308.9 L 391.6 302.3 L 394.9 296.1 L 398.1 288.2 L 403.2 276.3 L 407.1 270.1 L 413.1 262.8 L 415.6 260.5 L 422.4 256.0 L 436.2 251.0 L 437.8 250.7 L 449.0 250.6 L 457.4 252.8 L 461.1 254.3 L 469.9 258.6 L 478.7 262.9 L 480.6 263.8 L 493.8 271.9 L 494.7 272.7 L 499.7 282.3 L 500.1 288.0 L 499.7 290.7 L 496.2 298.1 L 490.5 303.7 L 485.9 307.0 L 476.4 312.2 L 466.3 317.5 L 460.2 320.6 L 449.2 326.4 L 444.4 329.0 L 434.1 334.7 L 425.1 339.6 L 417.0 344.1 L 408.0 349.1 L 389.2 359.6 L 382.7 363.2 L 367.5 371.6 L 354.8 378.8 L 346.8 383.3 L 333.9 390.6 L 321.5 397.7 L 313.7 402.2 L 305.2 406.7 L 302.1 408.1 L 296.7 409.6 L 290.4 409.9 L 287.3 409.1 L 283.1 406.0 L 279.3 400.9 L 278.9 400.3 L 276.7 395.7 L 275.4 391.6 L 274.7 388.2 L 274.0 381.6 L 273.9 377.6 L 274.2 371.3 L 275.3 360.5 L 275.8 355.4 L 276.6 346.9 L 277.3 338.9 L 277.5 335.5 L 278.0 325.9 L 278.6 310.6 L 278.8 306.9 L 279.3 295.2 L 280.7 262.3 L 281.0 255.9 Z" fill="none" stroke="#2c2c4a" stroke-width="14" stroke-linejoin="round" stroke-linecap="round"/>
  <path d="M 281.0 255.9 L 281.4 247.0 L 281.8 235.5 L 282.2 227.4 L 282.8 212.8 L 283.2 203.0 L 283.4 197.0 L 284.0 183.7 L 284.7 167.3 L 285.0 160.6 L 285.4 151.8 L 285.9 139.5 L 286.1 134.4 L 286.4 126.6 L 286.7 120.5 L 287.2 109.6 L 287.7 96.0 L 287.8 91.0 L 287.9 80.7 L 287.9 68.9 L 287.9 64.8 L 288.0 53.0 L 288.4 49.9 L 288.9 47.2 L 290.4 43.3 L 292.1 41.3 L 295.5 40.0 L 301.9 43.2 L 303.3 44.6 L 306.0 47.5 L 310.8 52.1 L 311.7 52.7 L 315.8 54.7 L 322.0 55.7 L 324.7 55.4 L 331.7 54.0 L 341.1 51.2 L 342.8 50.7 L 350.4 48.8 L 354.1 48.6 L 361.9 48.8 L 374.7 50.2 L 379.2 51.1 L 391.4 53.6 L 402.8 55.9 L 407.8 56.9 L 415.0 58.4 L 429.9 61.4 L 436.5 62.7 L 447.9 64.9 L 454.2 66.1 L 468.7 68.9 L 478.4 70.7 L 484.8 71.9 L 492.3 73.2 L 506.1 75.8 L 509.1 76.3 L 517.2 78.9 L 522.3 82.0 L 522.9 82.5 L 526.0 88.5 L 526.1 91.8 L 524.8 97.7 L 521.0 104.2 L 519.5 105.8 L 514.0 110.7 L 507.0 115.6 L 504.9 117.1 L 497.9 122.2 L 491.2 127.6 L 486.6 131.9 L 479.3 140.7 L 473.3 149.5 L 471.6 152.4 L 464.3 162.5 L 462.1 164.5 L 447.7 169.9 L 439.3 169.9 L 435.6 169.8 L 423.6 171.4 L 411.5 177.2 L 409.2 179.0 L 403.2 185.4 L 393.9 199.8 L 391.6 203.7 L 384.9 213.9 L 383.4 215.9 L 378.8 221.0 L 376.1 222.9 L 372.8 223.9 L 368.8 223.3 L 366.8 221.2 L 365.8 219.6 L 364.4 216.3 L 363.4 209.4 L 363.5 206.9 L 364.3 200.5 L 365.4 194.0 L 366.4 189.5 L 367.2 186.2 L 368.3 180.9 L 370.5 171.0 L 372.4 162.8 L 373.8 156.6 L 375.9 145.7 L 377.2 136.8 L 377.8 130.4 L 377.7 120.9 L 376.1 113.7 L 375.1 110.9 L 371.5 103.7 L 369.6 101.3 L 366.0 97.7 L 361.8 95.1 L 360.3 94.5 L 356.9 94.2 L 354.0 95.6 L 352.7 97.2 L 351.6 99.6 L 350.6 102.7 L 350.4 103.8 L 349.8 107.1 L 349.6 108.5 L 349.0 112.8 L 348.5 117.5 L 348.0 122.8 L 347.3 132.0 L 346.6 143.9 L 346.5 145.8 L 345.9 156.5 L 345.1 170.9 L 344.9 176.1 L 344.4 187.1 L 344.0 194.7 L 343.6 204.4 L 343.2 212.9 L 343.0 218.6 L 342.2 233.7 L 341.6 246.1 L 341.3 253.5 L 340.8 263.5 L 340.2 273.5 L 339.7 282.5 L 339.4 298.1 L 340.1 303.9 L 340.8 307.4 L 343.6 313.9 L 345.1 315.7 L 350.7 319.2 L 356.1 321.1 L 361.1 321.6 L 372.4 319.2 L 378.7 315.9 L 382.5 312.9 L 386.6 308.9 L 391.6 302.3 L 394.9 296.1 L 398.1 288.2 L 403.2 276.3 L 407.1 270.1 L 413.1 262.8 L 415.6 260.5 L 422.4 256.0 L 436.2 251.0 L 437.8 250.7 L 449.0 250.6 L 457.4 252.8 L 461.1 254.3 L 469.9 258.6 L 478.7 262.9 L 480.6 263.8 L 493.8 271.9 L 494.7 272.7 L 499.7 282.3 L 500.1 288.0 L 499.7 290.7 L 496.2 298.1 L 490.5 303.7 L 485.9 307.0 L 476.4 312.2 L 466.3 317.5 L 460.2 320.6 L 449.2 326.4 L 444.4 329.0 L 434.1 334.7 L 425.1 339.6 L 417.0 344.1 L 408.0 349.1 L 389.2 359.6 L 382.7 363.2 L 367.5 371.6 L 354.8 378.8 L 346.8 383.3 L 333.9 390.6 L 321.5 397.7 L 313.7 402.2 L 305.2 406.7 L 302.1 408.1 L 296.7 409.6 L 290.4 409.9 L 287.3 409.1 L 283.1 406.0 L 279.3 400.9 L 278.9 400.3 L 276.7 395.7 L 275.4 391.6 L 274.7 388.2 L 274.0 381.6 L 273.9 377.6 L 274.2 371.3 L 275.3 360.5 L 275.8 355.4 L 276.6 346.9 L 277.3 338.9 L 277.5 335.5 L 278.0 325.9 L 278.6 310.6 L 278.8 306.9 L 279.3 295.2 L 280.7 262.3 L 281.0 255.9 Z" fill="none" stroke="#e10600" stroke-width="3" stroke-linejoin="round" filter="url(#glow)" opacity="0.85"/>
  <path d="M 281.0 255.9 L 281.4 247.0 L 281.8 235.5 L 282.2 227.4 L 282.8 212.8 L 283.2 203.0 L 283.4 197.0 L 284.0 183.7 L 284.7 167.3 L 285.0 160.6 L 285.4 151.8 L 285.9 139.5 L 286.1 134.4 L 286.4 126.6 L 286.7 120.5 L 287.2 109.6 L 287.7 96.0 L 287.8 91.0 L 287.9 80.7 L 287.9 68.9 L 287.9 64.8 L 288.0 53.0 L 288.4 49.9 L 288.9 47.2 L 290.4 43.3 L 292.1 41.3 L 295.5 40.0 L 301.9 43.2 L 303.3 44.6 L 306.0 47.5 L 310.8 52.1 L 311.7 52.7 L 315.8 54.7 L 322.0 55.7 L 324.7 55.4 L 331.7 54.0 L 341.1 51.2 L 342.8 50.7 L 350.4 48.8 L 354.1 48.6 L 361.9 48.8 L 374.7 50.2 L 379.2 51.1 L 391.4 53.6 L 402.8 55.9 L 407.8 56.9 L 415.0 58.4 L 429.9 61.4 L 436.5 62.7 L 447.9 64.9 L 454.2 66.1 L 468.7 68.9 L 478.4 70.7 L 484.8 71.9 L 492.3 73.2 L 506.1 75.8 L 509.1 76.3 L 517.2 78.9 L 522.3 82.0 L 522.9 82.5 L 526.0 88.5 L 526.1 91.8 L 524.8 97.7 L 521.0 104.2 L 519.5 105.8 L 514.0 110.7 L 507.0 115.6 L 504.9 117.1 L 497.9 122.2 L 491.2 127.6 L 486.6 131.9 L 479.3 140.7 L 473.3 149.5 L 471.6 152.4 L 464.3 162.5 L 462.1 164.5 L 447.7 169.9 L 439.3 169.9 L 435.6 169.8 L 423.6 171.4 L 411.5 177.2 L 409.2 179.0 L 403.2 185.4 L 393.9 199.8 L 391.6 203.7 L 384.9 213.9 L 383.4 215.9 L 378.8 221.0 L 376.1 222.9 L 372.8 223.9 L 368.8 223.3 L 366.8 221.2 L 365.8 219.6 L 364.4 216.3 L 363.4 209.4 L 363.5 206.9 L 364.3 200.5 L 365.4 194.0 L 366.4 189.5 L 367.2 186.2 L 368.3 180.9 L 370.5 171.0 L 372.4 162.8 L 373.8 156.6 L 375.9 145.7 L 377.2 136.8 L 377.8 130.4 L 377.7 120.9 L 376.1 113.7 L 375.1 110.9 L 371.5 103.7 L 369.6 101.3 L 366.0 97.7 L 361.8 95.1 L 360.3 94.5 L 356.9 94.2 L 354.0 95.6 L 352.7 97.2 L 351.6 99.6 L 350.6 102.7 L 350.4 103.8 L 349.8 107.1 L 349.6 108.5 L 349.0 112.8 L 348.5 117.5 L 348.0 122.8 L 347.3 132.0 L 346.6 143.9 L 346.5 145.8 L 345.9 156.5 L 345.1 170.9 L 344.9 176.1 L 344.4 187.1 L 344.0 194.7 L 343.6 204.4 L 343.2 212.9 L 343.0 218.6 L 342.2 233.7 L 341.6 246.1 L 341.3 253.5 L 340.8 263.5 L 340.2 273.5 L 339.7 282.5 L 339.4 298.1 L 340.1 303.9 L 340.8 307.4 L 343.6 313.9 L 345.1 315.7 L 350.7 319.2 L 356.1 321.1 L 361.1 321.6 L 372.4 319.2 L 378.7 315.9 L 382.5 312.9 L 386.6 308.9 L 391.6 302.3 L 394.9 296.1 L 398.1 288.2 L 403.2 276.3 L 407.1 270.1 L 413.1 262.8 L 415.6 260.5 L 422.4 256.0 L 436.2 251.0 L 437.8 250.7 L 449.0 250.6 L 457.4 252.8 L 461.1 254.3 L 469.9 258.6 L 478.7 262.9 L 480.6 263.8 L 493.8 271.9 L 494.7 272.7 L 499.7 282.3 L 500.1 288.0 L 499.7 290.7 L 496.2 298.1 L 490.5 303.7 L 485.9 307.0 L 476.4 312.2 L 466.3 317.5 L 460.2 320.6 L 449.2 326.4 L 444.4 329.0 L 434.1 334.7 L 425.1 339.6 L 417.0 344.1 L 408.0 349.1 L 389.2 359.6 L 382.7 363.2 L 367.5 371.6 L 354.8 378.8 L 346.8 383.3 L 333.9 390.6 L 321.5 397.7 L 313.7 402.2 L 305.2 406.7 L 302.1 408.1 L 296.7 409.6 L 290.4 409.9 L 287.3 409.1 L 283.1 406.0 L 279.3 400.9 L 278.9 400.3 L 276.7 395.7 L 275.4 391.6 L 274.7 388.2 L 274.0 381.6 L 273.9 377.6 L 274.2 371.3 L 275.3 360.5 L 275.8 355.4 L 276.6 346.9 L 277.3 338.9 L 277.5 335.5 L 278.0 325.9 L 278.6 310.6 L 278.8 306.9 L 279.3 295.2 L 280.7 262.3 L 281.0 255.9 Z" fill="none" stroke="#ffffff" stroke-width="0.7" stroke-dasharray="3 6"/>
  <text x="20" y="34" font-family="Inter,system-ui,sans-serif" font-size="14" font-weight="600" fill="#8a8aa3" letter-spacing="2">BAHRAIN INTERNATIONAL CIRCUIT</text>
</svg>
