<svg xmlns="http://www.w3.org/2000/svg" viewBox="0 0 800 450" width="800" height="450">
  <defs>
    <linearGradient id="bg" x1="0" y1="0" x2="0" y2="1">
      <stop offset="0%" stop-color="#1d1d36"/>
      <stop offset="100%" stop-color="#0e0e1a"/>
    </linearGradient>
    <pattern id="grid" width="40" height="40" patternUnits="userSpaceOnUse">
      <circle cx="2" cy="2" r="0.8" fill="#252548" opacity="0.6"/>
    </pattern>
    <filter id="glow">
      <feGaussianBlur stdDeviation="3.5"/>
    </filter>
  </defs>
  <rect width="800" height="450" fill="url(#bg)"/>
  <rect width="800" height="450" fill="url(#grid)"/>
  <path d="M 592.5 146.3 L 596.1 144.8 L 611.5 138.3 L 623.8 133.2 L 633.8 128.9 L 642.0 125.5 L 649.7 122.7 L 652.8 120.9 L 654.4 119.4 L 656.7 116.2 L 657.4 111.3 L 655.4 104.9 L 652.8 99.1 L 650.6 94.0 L 647.9 87.6 L 645.5 82.2 L 642.9 76.4 L 639.4 68.5 L 636.5 62.1 L 633.1 54.4 L 630.5 48.4 L 629.1 45.4 L 628.0 43.2 L 624.7 40.2 L 621.7 40.1 L 619.3 40.7 L 616.3 41.7 L 611.0 43.7 L 606.3 45.5 L 601.6 47.3 L 598.3 48.5 L 592.2 50.7 L 583.4 54.0 L 578.3 55.9 L 573.0 57.9 L 565.5 60.7 L 554.8 64.8 L 550.3 66.5 L 544.3 68.8 L 535.8 72.4 L 526.8 76.4 L 516.4 80.8 L 504.7 85.9 L 495.9 89.7 L 489.0 92.7 L 481.3 96.0 L 468.5 101.7 L 459.0 105.9 L 449.1 110.3 L 443.7 112.7 L 434.2 117.0 L 428.9 119.6 L 427.4 120.7 L 425.5 123.0 L 425.4 126.5 L 426.4 129.3 L 427.9 132.3 L 430.2 137.1 L 431.3 140.3 L 432.9 145.2 L 436.1 153.4 L 438.7 159.1 L 441.3 164.7 L 442.8 168.9 L 443.5 173.9 L 442.3 176.6 L 441.2 177.7 L 438.2 179.5 L 436.3 180.4 L 432.4 181.9 L 426.5 184.1 L 421.9 186.1 L 415.8 188.8 L 409.4 191.4 L 406.6 192.7 L 399.3 196.8 L 394.6 199.6 L 387.1 204.0 L 382.2 206.7 L 377.8 209.3 L 373.4 213.2 L 372.4 214.7 L 371.3 218.9 L 372.1 221.8 L 373.3 224.3 L 374.6 228.1 L 373.9 231.2 L 371.0 233.8 L 370.6 234.1 L 368.0 235.8 L 364.2 238.2 L 359.6 241.5 L 353.5 246.4 L 348.1 250.4 L 342.8 254.4 L 339.3 257.1 L 332.5 262.3 L 323.3 269.2 L 314.6 275.9 L 307.4 281.4 L 304.1 284.1 L 300.5 286.6 L 299.1 287.3 L 297.2 287.8 L 295.0 287.1 L 293.6 285.6 L 292.4 283.2 L 291.4 280.8 L 290.6 278.4 L 289.5 275.0 L 288.5 271.4 L 287.3 267.2 L 285.5 261.4 L 283.7 255.7 L 281.8 249.4 L 280.1 243.5 L 278.5 240.7 L 277.3 240.1 L 273.0 238.3 L 269.3 237.1 L 265.6 236.6 L 261.0 236.2 L 257.8 235.7 L 254.8 234.4 L 252.6 232.2 L 252.2 231.2 L 251.8 228.3 L 251.5 224.7 L 249.7 222.3 L 245.3 221.6 L 241.7 221.8 L 235.6 222.9 L 233.7 223.5 L 227.4 226.0 L 220.3 229.2 L 211.0 233.2 L 202.8 237.4 L 193.7 242.0 L 185.5 246.2 L 181.7 248.4 L 174.2 252.8 L 166.2 257.2 L 159.1 262.9 L 155.1 270.8 L 152.0 280.6 L 149.4 289.0 L 145.6 300.9 L 144.4 305.2 L 142.6 320.8 L 143.2 332.2 L 144.1 343.4 L 144.5 348.7 L 144.4 354.9 L 143.7 361.7 L 143.6 363.7 L 143.5 367.7 L 144.0 370.2 L 147.5 373.3 L 150.1 374.6 L 153.4 376.3 L 156.2 377.8 L 159.4 379.4 L 165.9 382.6 L 170.5 384.9 L 177.3 388.4 L 186.3 393.7 L 193.3 397.6 L 203.9 403.2 L 205.0 403.9 L 212.6 408.0 L 218.6 409.9 L 221.4 410.0 L 225.7 407.9 L 228.4 404.1 L 230.6 399.8 L 232.4 396.2 L 234.6 391.8 L 236.4 388.1 L 241.0 378.8 L 243.5 374.5 L 250.4 364.5 L 256.3 358.1 L 262.3 352.8 L 264.5 350.9 L 273.1 343.1 L 283.7 332.3 L 289.8 325.8 L 293.9 317.2 L 296.8 306.2 L 299.1 296.4 L 302.1 290.0 L 308.7 283.1 L 315.9 277.8 L 325.9 270.3 L 337.6 261.3 L 347.1 254.1 L 354.3 248.6 L 365.7 240.1 L 371.3 236.8 L 380.8 232.4 L 395.1 226.7 L 407.3 221.8 L 418.2 217.3 L 428.8 212.9 L 436.2 209.9 L 439.9 208.3 L 452.2 203.1 L 462.0 199.0 L 478.1 192.1 L 486.4 188.7 L 495.5 184.8 L 506.2 180.2 L 512.0 177.8 L 524.6 172.9 L 534.8 169.1 L 543.2 166.0 L 552.9 162.4 L 566.3 157.3 L 581.9 150.6 L 590.5 147.1 L 592.5 146.3 Z" fill="none" stroke="#2c2c4a" stroke-width="14" stroke-linejoin="round" stroke-linecap="round"/>
  <path d="M 592.5 146.3 L 596.1 144.8 L 611.5 138.3 L 623.8 133.2 L 633.8 128.9 L 642.0 125.5 L 649.7 122.7 L 652.8 120.9 L 654.4 119.4 L 656.7 116.2 L 657.4 111.3 L 655.4 104.9 L 652.8 99.1 L 650.6 94.0 L 647.9 87.6 L 645.5 82.2 L 642.9 76.4 L 639.4 68.5 L 636.5 62.1 L 633.1 54.4 L 630.5 48.4 L 629.1 45.4 L 628.0 43.2 L 624.7 40.2 L 621.7 40.1 L 619.3 40.7 L 616.3 41.7 L 611.0 43.7 L 606.3 45.5 L 601.6 47.3 L 598.3 48.5 L 592.2 50.7 L 583.4 54.0 L 578.3 55.9 L 573.0 57.9 L 565.5 60.7 L 554.8 64.8 L 550.3 66.5 L 544.3 68.8 L 535.8 72.4 L 526.8 76.4 L 516.4 80.8 L 504.7 85.9 L 495.9 89.7 L 489.0 92.7 L 481.3 96.0 L 468.5 101.7 L 459.0 105.9 L 449.1 110.3 L 443.7 112.7 L 434.2 117.0 L 428.9 119.6 L 427.4 120.7 L 425.5 123.0 L 425.4 126.5 L 426.4 129.3 L 427.9 132.3 L 430.2 137.1 L 431.3 140.3 L 432.9 145.2 L 436.1 153.4 L 438.7 159.1 L 441.3 164.7 L 442.8 168.9 L 443.5 173.9 L 442.3 176.6 L 441.2 177.7 L 438.2 179.5 L 436.3 180.4 L 432.4 181.9 L 426.5 184.1 L 421.9 186.1 L 415.8 188.8 L 409.4 191.4 L 406.6 192.7 L 399.3 196.8 L 394.6 199.6 L 387.1 204.0 L 382.2 206.7 L 377.8 209.3 L 373.4 213.2 L 372.4 214.7 L 371.3 218.9 L 372.1 221.8 L 373.3 224.3 L 374.6 228.1 L 373.9 231.2 L 371.0 233.8 L 370.6 234.1 L 368.0 235.8 L 364.2 238.2 L 359.6 241.5 L 353.5 246.4 L 348.1 250.4 L 342.8 254.4 L 339.3 257.1 L 332.5 262.3 L 323.3 269.2 L 314.6 275.9 L 307.4 281.4 L 304.1 284.1 L 300.5 286.6 L 299.1 287.3 L 297.2 287.8 L 295.0 287.1 L 293.6 285.6 L 292.4 283.2 L 291.4 280.8 L 290.6 278.4 L 289.5 275.0 L 288.5 271.4 L 287.3 267.2 L 285.5 261.4 L 283.7 255.7 L 281.8 249.4 L 280.1 243.5 L 278.5 240.7 L 277.3 240.1 L 273.0 238.3 L 269.3 237.1 L 265.6 236.6 L 261.0 236.2 L 257.8 235.7 L 254.8 234.4 L 252.6 232.2 L 252.2 231.2 L 251.8 228.3 L 251.5 224.7 L 249.7 222.3 L 245.3 221.6 L 241.7 221.8 L 235.6 222.9 L 233.7 223.5 L 227.4 226.0 L 220.3 229.2 L 211.0 233.2 L 202.8 237.4 L 193.7 242.0 L 185.5 246.2 L 181.7 248.4 L 174.2 252.8 L 166.2 257.2 L 159.1 262.9 L 155.1 270.8 L 152.0 280.6 L 149.4 289.0 L 145.6 300.9 L 144.4 305.2 L 142.6 320.8 L 143.2 332.2 L 144.1 343.4 L 144.5 348.7 L 144.4 354.9 L 143.7 361.7 L 143.6 363.7 L 143.5 367.7 L 144.0 370.2 L 147.5 373.3 L 150.1 374.6 L 153.4 376.3 L 156.2 377.8 L 159.4 379.4 L 165.9 382.6 L 170.5 384.9 L 177.3 388.4 L 186.3 393.7 L 193.3 397.6 L 203.9 403.2 L 205.0 403.9 L 212.6 408.0 L 218.6 409.9 L 221.4 410.0 L 225.7 407.9 L 228.4 404.1 L 230.6 399.8 L 232.4 396.2 L 234.6 391.8 L 236.4 388.1 L 241.0 378.8 L 243.5 374.5 L 250.4 364.5 L 256.3 358.1 L 262.3 352.8 L 264.5 350.9 L 273.1 343.1 L 283.7 332.3 L 289.8 325.8 L 293.9 317.2 L 296.8 306.2 L 299.1 296.4 L 302.1 290.0 L 308.7 283.1 L 315.9 277.8 L 325.9 270.3 L 337.6 261.3 L 347.1 254.1 L 354.3 248.6 L 365.7 240.1 L 371.3 236.8 L 380.8 232.4 L 395.1 226.7 L 407.3 221.8 L 418.2 217.3 L 428.8 212.9 L 436.2 209.9 L 439.9 208.3 L 452.2 203.1 L 462.0 199.0 L 478.1 192.1 L 486.4 188.7 L 495.5 184.8 L 506.2 180.2 L 512.0 177.8 L 524.6 172.9 L 534.8 169.1 L 543.2 166.0 L 552.9 162.4 L 566.3 157.3 L 581.9 150.6 L 590.5 147.1 L 592.5 146.3 Z" fill="none" stroke="#e10600" stroke-width="3" stroke-linejoin="round" filter="url(#glow)" opacity="0.85"/>
  <path d="M 592.5 146.3 L 596.1 144.8 L 611.5 138.3 L 623.8 133.2 L 633.8 128.9 L 642.0 125.5 L 649.7 122.7 L 652.8 120.9 L 654.4 119.4 L 656.7 116.2 L 657.4 111.3 L 655.4 104.9 L 652.8 99.1 L 650.6 94.0 L 647.9 87.6 L 645.5 82.2 L 642.9 76.4 L 639.4 68.5 L 636.5 62.1 L 633.1 54.4 L 630.5 48.4 L 629.1 45.4 L 628.0 43.2 L 624.7 40.2 L 621.7 40.1 L 619.3 40.7 L 616.3 41.7 L 611.0 43.7 L 606.3 45.5 L 601.6 47.3 L 598.3 48.5 L 592.2 50.7 L 583.4 54.0 L 578.3 55.9 L 573.0 57.9 L 565.5 60.7 L 554.8 64.8 L 550.3 66.5 L 544.3 68.8 L 535.8 72.4 L 526.8 76.4 L 516.4 80.8 L 504.7 85.9 L 495.9 89.7 L 489.0 92.7 L 481.3 96.0 L 468.5 101.7 L 459.0 105.9 L 449.1 110.3 L 443.7 112.7 L 434.2 117.0 L 428.9 119.6 L 427.4 120.7 L 425.5 123.0 L 425.4 126.5 L 426.4 129.3 L 427.9 132.3 L 430.2 137.1 L 431.3 140.3 L 432.9 145.2 L 436.1 153.4 L 438.7 159.1 L 441.3 164.7 L 442.8 168.9 L 443.5 173.9 L 442.3 176.6 L 441.2 177.7 L 438.2 179.5 L 436.3 180.4 L 432.4 181.9 L 426.5 184.1 L 421.9 186.1 L 415.8 188.8 L 409.4 191.4 L 406.6 192.7 L 399.3 196.8 L 394.6 199.6 L 387.1 204.0 L 382.2 206.7 L 377.8 209.3 L 373.4 213.2 L 372.4 214.7 L 371.3 218.9 L 372.1 221.8 L 373.3 224.3 L 374.6 228.1 L 373.9 231.2 L 371.0 233.8 L 370.6 234.1 L 368.0 235.8 L 364.2 238.2 L 359.6 241.5 L 353.5 246.4 L 348.1 250.4 L 342.8 254.4 L 339.3 257.1 L 332.5 262.3 L 323.3 269.2 L 314.6 275.9 L 307.4 281.4 L 304.1 284.1 L 300.5 286.6 L 299.1 287.3 L 297.2 287.8 L 295.0 287.1 L 293.6 285.6 L 292.4 283.2 L 291.4 280.8 L 290.6 278.4 L 289.5 275.0 L 288.5 271.4 L 287.3 267.2 L 285.5 261.4 L 283.7 255.7 L 281.8 249.4 L 280.1 243.5 L 278.5 240.7 L 277.3 240.1 L 273.0 238.3 L 269.3 237.1 L 265.6 236.6 L 261.0 236.2 L 257.8 235.7 L 254.8 234.4 L 252.6 232.2 L 252.2 231.2 L 251.8 228.3 L 251.5 224.7 L 249.7 222.3 L 245.3 221.6 L 241.7 221.8 L 235.6 222.9 L 233.7 223.5 L 227.4 226.0 L 220.3 229.2 L 211.0 233.2 L 202.8 237.4 L 193.7 242.0 L 185.5 246.2 L 181.7 248.4 L 174.2 252.8 L 166.2 257.2 L 159.1 262.9 L 155.1 270.8 L 152.0 280.6 L 149.4 289.0 L 145.6 300.9 L 144.4 305.2 L 142.6 320.8 L 143.2 332.2 L 144.1 343.4 L 144.5 348.7 L 144.4 354.9 L 143.7 361.7 L 143.6 363.7 L 143.5 367.7 L 144.0 370.2 L 147.5 373.3 L 150.1 374.6 L 153.4 376.3 L 156.2 377.8 L 159.4 379.4 L 165.9 382.6 L 170.5 384.9 L 177.3 388.4 L 186.3 393.7 L 193.3 397.6 L 203.9 403.2 L 205.0 403.9 L 212.6 408.0 L 218.6 409.9 L 221.4 410.0 L 225.7 407.9 L 228.4 404.1 L 230.6 399.8 L 232.4 396.2 L 234.6 391.8 L 236.4 388.1 L 241.0 378.8 L 243.5 374.5 L 250.4 364.5 L 256.3 358.1 L 262.3 352.8 L 264.5 350.9 L 273.1 343.1 L 283.7 332.3 L 289.8 325.8 L 293.9 317.2 L 296.8 306.2 L 299.1 296.4 L 302.1 290.0 L 308.7 283.1 L 315.9 277.8 L 325.9 270.3 L 337.6 261.3 L 347.1 254.1 L 354.3 248.6 L 365.7 240.1 L 371.3 236.8 L 380.8 232.4 L 395.1 226.7 L 407.3 221.8 L 418.2 217.3 L 428.8 212.9 L 436.2 209.9 L 439.9 208.3 L 452.2 203.1 L 462.0 199.0 L 478.1 192.1 L 486.4 188.7 L 495.5 184.8 L 506.2 180.2 L 512.0 177.8 L 524.6 172.9 L 534.8 169.1 L 543.2 166.0 L 552.9 162.4 L 566.3 157.3 L 581.9 150.6 L 590.5 147.1 L 592.5 146.3 Z" fill="none" stroke="#ffffff" stroke-width="0.7" stroke-dasharray="3 6"/>
  <text x="20" y="34" font-family="Inter,system-ui,sans-serif" font-size="14" font-weight="600" fill="#8a8aa3" letter-spacing="2">BAKU CITY CIRCUIT</text>
</svg>
