<svg xmlns="http://www.w3.org/2000/svg" viewBox="0 0 800 450" width="800" height="450">
  <defs>
    <linearGradient id="bg" x1="0" y1="0" x2="0" y2="1">
      <stop offset="0%" stop-color="#1d1d36"/>
      <stop offset="100%" stop-color="#0e0e1a"/>
    </linearGradient>
    <pattern id="grid" width="40" height="40" patternUnits="userSpaceOnUse">
      <circle cx="2" cy="2" r="0.8" fill="#252548" opacity="0.6"/>
    </pattern>
    <filter id="glow">
      <feGaussianBlur stdDeviation="3.5"/>
    </filter>
  </defs>
  <rect width="800" height="450" fill="url(#bg)"/>
  <rect width="800" height="450" fill="url(#grid)"/>
  <path d="M 502.0 185.4 L 499.4 189.4 L 498.0 191.6 L 490.6 203.3 L 487.5 208.2 L 482.0 216.8 L 469.3 236.8 L 468.2 238.7 L 463.2 246.4 L 457.5 255.4 L 453.0 262.2 L 451.5 264.4 L 445.2 274.0 L 440.0 281.7 L 430.6 295.8 L 425.1 303.9 L 421.7 308.9 L 416.6 316.7 L 414.1 320.3 L 411.3 324.4 L 404.5 335.2 L 400.8 341.3 L 398.0 346.3 L 391.2 358.4 L 385.9 367.9 L 378.7 379.3 L 376.6 382.2 L 372.7 387.0 L 368.7 390.7 L 366.4 392.4 L 361.2 394.8 L 355.5 395.2 L 352.0 394.4 L 347.4 392.5 L 339.3 389.0 L 336.1 388.2 L 330.9 388.3 L 321.6 392.0 L 317.4 394.6 L 312.6 398.0 L 307.5 401.4 L 301.7 404.9 L 293.2 408.5 L 289.5 409.4 L 283.8 410.0 L 273.0 408.6 L 269.1 407.3 L 265.5 405.7 L 258.7 401.0 L 255.9 398.1 L 248.8 385.3 L 247.4 379.6 L 246.7 373.7 L 246.9 362.2 L 247.3 358.9 L 248.4 352.0 L 250.0 345.3 L 251.8 339.3 L 253.7 334.4 L 257.4 327.5 L 260.9 322.2 L 268.0 312.2 L 270.8 308.2 L 274.3 302.1 L 279.9 292.7 L 282.2 289.2 L 285.2 284.7 L 301.5 265.5 L 305.0 263.8 L 310.2 262.7 L 314.9 263.0 L 317.0 263.6 L 322.9 266.9 L 325.5 269.5 L 329.2 274.7 L 331.5 280.0 L 332.3 283.1 L 332.8 286.0 L 332.4 295.2 L 331.6 298.4 L 330.5 301.6 L 326.3 309.5 L 322.8 314.5 L 320.0 318.4 L 315.3 324.9 L 313.0 328.0 L 307.2 336.0 L 304.0 340.4 L 300.0 346.2 L 297.0 351.9 L 295.2 356.8 L 294.6 360.2 L 295.2 364.4 L 296.8 367.6 L 298.2 369.0 L 303.5 371.4 L 307.9 371.5 L 310.1 371.1 L 316.2 369.0 L 320.5 366.9 L 327.4 363.1 L 331.5 360.9 L 334.0 359.7 L 343.1 355.6 L 348.2 353.5 L 351.9 351.9 L 361.8 346.4 L 366.0 343.3 L 371.3 338.7 L 377.3 332.1 L 379.8 328.9 L 385.5 320.9 L 386.4 319.6 L 389.2 315.5 L 394.4 305.3 L 394.7 303.8 L 395.0 299.8 L 394.5 294.1 L 393.9 292.0 L 393.1 290.4 L 385.6 283.1 L 380.7 279.4 L 375.5 273.8 L 373.7 270.8 L 372.4 268.4 L 367.7 258.1 L 366.3 255.3 L 364.2 250.8 L 361.2 244.5 L 359.0 239.8 L 355.8 233.1 L 351.7 223.8 L 349.7 215.6 L 349.6 208.9 L 351.8 197.4 L 354.3 191.5 L 358.6 185.1 L 364.2 180.8 L 372.2 177.2 L 379.4 174.3 L 387.9 170.4 L 392.1 168.4 L 402.1 163.7 L 407.0 161.4 L 415.4 157.4 L 426.8 151.8 L 432.2 149.0 L 445.7 141.8 L 451.6 138.6 L 457.0 135.7 L 465.7 131.1 L 477.2 125.3 L 479.0 124.4 L 489.2 120.2 L 493.4 118.5 L 498.6 116.2 L 502.0 114.3 L 504.3 112.5 L 507.3 108.6 L 508.1 102.7 L 507.4 99.8 L 504.9 94.9 L 503.1 92.8 L 501.5 91.3 L 497.4 89.0 L 492.5 87.6 L 482.9 87.5 L 471.8 91.3 L 469.1 92.8 L 467.7 93.8 L 461.2 98.3 L 458.2 100.1 L 449.8 103.5 L 447.2 104.1 L 443.1 104.4 L 438.3 103.8 L 436.2 103.1 L 433.0 101.1 L 430.1 97.6 L 429.9 97.2 L 428.8 94.8 L 427.9 90.2 L 428.2 85.6 L 429.8 80.1 L 431.0 77.7 L 431.9 76.1 L 438.0 69.1 L 440.1 67.2 L 442.7 65.1 L 452.1 57.7 L 455.0 55.2 L 460.7 50.3 L 467.7 45.1 L 471.6 42.8 L 474.8 41.5 L 488.0 40.3 L 492.0 41.0 L 497.7 42.8 L 504.4 45.9 L 507.6 47.7 L 515.5 52.6 L 518.7 54.6 L 528.4 60.8 L 537.3 66.8 L 544.4 73.0 L 548.7 78.2 L 551.8 84.8 L 552.4 87.0 L 552.7 102.5 L 551.2 107.2 L 547.9 114.1 L 543.1 122.0 L 538.7 128.7 L 537.9 129.8 L 529.3 143.2 L 527.7 145.6 L 525.0 149.8 L 519.0 159.0 L 514.6 165.6 L 506.1 178.9 L 502.0 185.4 Z" fill="none" stroke="#2c2c4a" stroke-width="14" stroke-linejoin="round" stroke-linecap="round"/>
  <path d="M 502.0 185.4 L 499.4 189.4 L 498.0 191.6 L 490.6 203.3 L 487.5 208.2 L 482.0 216.8 L 469.3 236.8 L 468.2 238.7 L 463.2 246.4 L 457.5 255.4 L 453.0 262.2 L 451.5 264.4 L 445.2 274.0 L 440.0 281.7 L 430.6 295.8 L 425.1 303.9 L 421.7 308.9 L 416.6 316.7 L 414.1 320.3 L 411.3 324.4 L 404.5 335.2 L 400.8 341.3 L 398.0 346.3 L 391.2 358.4 L 385.9 367.9 L 378.7 379.3 L 376.6 382.2 L 372.7 387.0 L 368.7 390.7 L 366.4 392.4 L 361.2 394.8 L 355.5 395.2 L 352.0 394.4 L 347.4 392.5 L 339.3 389.0 L 336.1 388.2 L 330.9 388.3 L 321.6 392.0 L 317.4 394.6 L 312.6 398.0 L 307.5 401.4 L 301.7 404.9 L 293.2 408.5 L 289.5 409.4 L 283.8 410.0 L 273.0 408.6 L 269.1 407.3 L 265.5 405.7 L 258.7 401.0 L 255.9 398.1 L 248.8 385.3 L 247.4 379.6 L 246.7 373.7 L 246.9 362.2 L 247.3 358.9 L 248.4 352.0 L 250.0 345.3 L 251.8 339.3 L 253.7 334.4 L 257.4 327.5 L 260.9 322.2 L 268.0 312.2 L 270.8 308.2 L 274.3 302.1 L 279.9 292.7 L 282.2 289.2 L 285.2 284.7 L 301.5 265.5 L 305.0 263.8 L 310.2 262.7 L 314.9 263.0 L 317.0 263.6 L 322.9 266.9 L 325.5 269.5 L 329.2 274.7 L 331.5 280.0 L 332.3 283.1 L 332.8 286.0 L 332.4 295.2 L 331.6 298.4 L 330.5 301.6 L 326.3 309.5 L 322.8 314.5 L 320.0 318.4 L 315.3 324.9 L 313.0 328.0 L 307.2 336.0 L 304.0 340.4 L 300.0 346.2 L 297.0 351.9 L 295.2 356.8 L 294.6 360.2 L 295.2 364.4 L 296.8 367.6 L 298.2 369.0 L 303.5 371.4 L 307.9 371.5 L 310.1 371.1 L 316.2 369.0 L 320.5 366.9 L 327.4 363.1 L 331.5 360.9 L 334.0 359.7 L 343.1 355.6 L 348.2 353.5 L 351.9 351.9 L 361.8 346.4 L 366.0 343.3 L 371.3 338.7 L 377.3 332.1 L 379.8 328.9 L 385.5 320.9 L 386.4 319.6 L 389.2 315.5 L 394.4 305.3 L 394.7 303.8 L 395.0 299.8 L 394.5 294.1 L 393.9 292.0 L 393.1 290.4 L 385.6 283.1 L 380.7 279.4 L 375.5 273.8 L 373.7 270.8 L 372.4 268.4 L 367.7 258.1 L 366.3 255.3 L 364.2 250.8 L 361.2 244.5 L 359.0 239.8 L 355.8 233.1 L 351.7 223.8 L 349.7 215.6 L 349.6 208.9 L 351.8 197.4 L 354.3 191.5 L 358.6 185.1 L 364.2 180.8 L 372.2 177.2 L 379.4 174.3 L 387.9 170.4 L 392.1 168.4 L 402.1 163.7 L 407.0 161.4 L 415.4 157.4 L 426.8 151.8 L 432.2 149.0 L 445.7 141.8 L 451.6 138.6 L 457.0 135.7 L 465.7 131.1 L 477.2 125.3 L 479.0 124.4 L 489.2 120.2 L 493.4 118.5 L 498.6 116.2 L 502.0 114.3 L 504.3 112.5 L 507.3 108.6 L 508.1 102.7 L 507.4 99.8 L 504.9 94.9 L 503.1 92.8 L 501.5 91.3 L 497.4 89.0 L 492.5 87.6 L 482.9 87.5 L 471.8 91.3 L 469.1 92.8 L 467.7 93.8 L 461.2 98.3 L 458.2 100.1 L 449.8 103.5 L 447.2 104.1 L 443.1 104.4 L 438.3 103.8 L 436.2 103.1 L 433.0 101.1 L 430.1 97.6 L 429.9 97.2 L 428.8 94.8 L 427.9 90.2 L 428.2 85.6 L 429.8 80.1 L 431.0 77.7 L 431.9 76.1 L 438.0 69.1 L 440.1 67.2 L 442.7 65.1 L 452.1 57.7 L 455.0 55.2 L 460.7 50.3 L 467.7 45.1 L 471.6 42.8 L 474.8 41.5 L 488.0 40.3 L 492.0 41.0 L 497.7 42.8 L 504.4 45.9 L 507.6 47.7 L 515.5 52.6 L 518.7 54.6 L 528.4 60.8 L 537.3 66.8 L 544.4 73.0 L 548.7 78.2 L 551.8 84.8 L 552.4 87.0 L 552.7 102.5 L 551.2 107.2 L 547.9 114.1 L 543.1 122.0 L 538.7 128.7 L 537.9 129.8 L 529.3 143.2 L 527.7 145.6 L 525.0 149.8 L 519.0 159.0 L 514.6 165.6 L 506.1 178.9 L 502.0 185.4 Z" fill="none" stroke="#e10600" stroke-width="3" stroke-linejoin="round" filter="url(#glow)" opacity="0.85"/>
  <path d="M 502.0 185.4 L 499.4 189.4 L 498.0 191.6 L 490.6 203.3 L 487.5 208.2 L 482.0 216.8 L 469.3 236.8 L 468.2 238.7 L 463.2 246.4 L 457.5 255.4 L 453.0 262.2 L 451.5 264.4 L 445.2 274.0 L 440.0 281.7 L 430.6 295.8 L 425.1 303.9 L 421.7 308.9 L 416.6 316.7 L 414.1 320.3 L 411.3 324.4 L 404.5 335.2 L 400.8 341.3 L 398.0 346.3 L 391.2 358.4 L 385.9 367.9 L 378.7 379.3 L 376.6 382.2 L 372.7 387.0 L 368.7 390.7 L 366.4 392.4 L 361.2 394.8 L 355.5 395.2 L 352.0 394.4 L 347.4 392.5 L 339.3 389.0 L 336.1 388.2 L 330.9 388.3 L 321.6 392.0 L 317.4 394.6 L 312.6 398.0 L 307.5 401.4 L 301.7 404.9 L 293.2 408.5 L 289.5 409.4 L 283.8 410.0 L 273.0 408.6 L 269.1 407.3 L 265.5 405.7 L 258.7 401.0 L 255.9 398.1 L 248.8 385.3 L 247.4 379.6 L 246.7 373.7 L 246.9 362.2 L 247.3 358.9 L 248.4 352.0 L 250.0 345.3 L 251.8 339.3 L 253.7 334.4 L 257.4 327.5 L 260.9 322.2 L 268.0 312.2 L 270.8 308.2 L 274.3 302.1 L 279.9 292.7 L 282.2 289.2 L 285.2 284.7 L 301.5 265.5 L 305.0 263.8 L 310.2 262.7 L 314.9 263.0 L 317.0 263.6 L 322.9 266.9 L 325.5 269.5 L 329.2 274.7 L 331.5 280.0 L 332.3 283.1 L 332.8 286.0 L 332.4 295.2 L 331.6 298.4 L 330.5 301.6 L 326.3 309.5 L 322.8 314.5 L 320.0 318.4 L 315.3 324.9 L 313.0 328.0 L 307.2 336.0 L 304.0 340.4 L 300.0 346.2 L 297.0 351.9 L 295.2 356.8 L 294.6 360.2 L 295.2 364.4 L 296.8 367.6 L 298.2 369.0 L 303.5 371.4 L 307.9 371.5 L 310.1 371.1 L 316.2 369.0 L 320.5 366.9 L 327.4 363.1 L 331.5 360.9 L 334.0 359.7 L 343.1 355.6 L 348.2 353.5 L 351.9 351.9 L 361.8 346.4 L 366.0 343.3 L 371.3 338.7 L 377.3 332.1 L 379.8 328.9 L 385.5 320.9 L 386.4 319.6 L 389.2 315.5 L 394.4 305.3 L 394.7 303.8 L 395.0 299.8 L 394.5 294.1 L 393.9 292.0 L 393.1 290.4 L 385.6 283.1 L 380.7 279.4 L 375.5 273.8 L 373.7 270.8 L 372.4 268.4 L 367.7 258.1 L 366.3 255.3 L 364.2 250.8 L 361.2 244.5 L 359.0 239.8 L 355.8 233.1 L 351.7 223.8 L 349.7 215.6 L 349.6 208.9 L 351.8 197.4 L 354.3 191.5 L 358.6 185.1 L 364.2 180.8 L 372.2 177.2 L 379.4 174.3 L 387.9 170.4 L 392.1 168.4 L 402.1 163.7 L 407.0 161.4 L 415.4 157.4 L 426.8 151.8 L 432.2 149.0 L 445.7 141.8 L 451.6 138.6 L 457.0 135.7 L 465.7 131.1 L 477.2 125.3 L 479.0 124.4 L 489.2 120.2 L 493.4 118.5 L 498.6 116.2 L 502.0 114.3 L 504.3 112.5 L 507.3 108.6 L 508.1 102.7 L 507.4 99.8 L 504.9 94.9 L 503.1 92.8 L 501.5 91.3 L 497.4 89.0 L 492.5 87.6 L 482.9 87.5 L 471.8 91.3 L 469.1 92.8 L 467.7 93.8 L 461.2 98.3 L 458.2 100.1 L 449.8 103.5 L 447.2 104.1 L 443.1 104.4 L 438.3 103.8 L 436.2 103.1 L 433.0 101.1 L 430.1 97.6 L 429.9 97.2 L 428.8 94.8 L 427.9 90.2 L 428.2 85.6 L 429.8 80.1 L 431.0 77.7 L 431.9 76.1 L 438.0 69.1 L 440.1 67.2 L 442.7 65.1 L 452.1 57.7 L 455.0 55.2 L 460.7 50.3 L 467.7 45.1 L 471.6 42.8 L 474.8 41.5 L 488.0 40.3 L 492.0 41.0 L 497.7 42.8 L 504.4 45.9 L 507.6 47.7 L 515.5 52.6 L 518.7 54.6 L 528.4 60.8 L 537.3 66.8 L 544.4 73.0 L 548.7 78.2 L 551.8 84.8 L 552.4 87.0 L 552.7 102.5 L 551.2 107.2 L 547.9 114.1 L 543.1 122.0 L 538.7 128.7 L 537.9 129.8 L 529.3 143.2 L 527.7 145.6 L 525.0 149.8 L 519.0 159.0 L 514.6 165.6 L 506.1 178.9 L 502.0 185.4 Z" fill="none" stroke="#ffffff" stroke-width="0.7" stroke-dasharray="3 6"/>
  <text x="20" y="34" font-family="Inter,system-ui,sans-serif" font-size="14" font-weight="600" fill="#8a8aa3" letter-spacing="2">CIRCUIT DE BARCELONA-CATALUNYA</text>
</svg>
