<svg xmlns="http://www.w3.org/2000/svg" viewBox="0 0 800 450" width="800" height="450">
  <defs>
    <linearGradient id="bg" x1="0" y1="0" x2="0" y2="1">
      <stop offset="0%" stop-color="#1d1d36"/>
      <stop offset="100%" stop-color="#0e0e1a"/>
    </linearGradient>
    <pattern id="grid" width="40" height="40" patternUnits="userSpaceOnUse">
      <circle cx="2" cy="2" r="0.8" fill="#252548" opacity="0.6"/>
    </pattern>
    <filter id="glow">
      <feGaussianBlur stdDeviation="3.5"/>
    </filter>
  </defs>
  <rect width="800" height="450" fill="url(#bg)"/>
  <rect width="800" height="450" fill="url(#grid)"/>
  <path d="M 153.5 317.7 L 150.0 310.4 L 149.0 308.2 L 148.1 306.4 L 147.1 304.2 L 145.7 301.3 L 141.0 291.4 L 136.3 281.6 L 129.4 267.4 L 123.5 255.9 L 117.7 244.7 L 112.2 234.4 L 104.2 213.2 L 107.6 205.9 L 110.1 200.8 L 112.3 196.0 L 115.5 189.4 L 124.9 171.6 L 130.4 163.1 L 134.7 157.2 L 139.0 151.9 L 143.5 146.6 L 148.3 141.2 L 158.2 130.0 L 167.6 119.9 L 177.6 109.9 L 187.9 99.6 L 194.4 93.0 L 200.6 86.6 L 212.8 74.2 L 218.7 68.1 L 224.6 62.0 L 229.1 57.3 L 233.9 52.4 L 241.7 44.2 L 245.0 41.2 L 248.4 40.0 L 252.2 40.9 L 254.7 43.0 L 256.8 45.4 L 259.9 50.2 L 261.3 53.1 L 262.4 56.1 L 263.3 59.3 L 263.8 62.8 L 264.1 70.9 L 264.1 75.0 L 264.5 80.2 L 266.5 86.7 L 274.8 95.9 L 286.2 103.6 L 302.1 113.4 L 308.4 116.9 L 315.2 120.6 L 320.6 123.4 L 327.8 127.0 L 336.2 131.0 L 351.3 137.9 L 359.9 141.5 L 368.2 144.6 L 376.6 147.5 L 385.1 150.2 L 403.1 154.9 L 411.8 156.8 L 425.0 159.1 L 437.8 160.8 L 447.0 161.6 L 456.8 162.3 L 475.8 162.6 L 486.7 162.1 L 496.7 161.2 L 506.4 160.0 L 516.3 158.3 L 532.5 154.5 L 541.0 152.0 L 551.7 148.3 L 561.3 144.9 L 570.8 141.4 L 580.2 137.9 L 599.2 131.0 L 608.7 127.5 L 618.3 124.1 L 628.1 120.4 L 638.0 116.8 L 647.5 113.3 L 661.1 108.3 L 668.0 105.8 L 673.3 103.9 L 678.7 101.9 L 682.8 100.4 L 690.1 98.1 L 693.2 98.9 L 694.9 100.6 L 695.8 102.8 L 695.6 105.2 L 694.7 107.0 L 691.2 109.7 L 689.5 110.8 L 687.4 112.1 L 685.7 113.2 L 683.3 114.7 L 681.3 116.1 L 676.2 119.3 L 674.2 120.7 L 666.4 125.7 L 660.6 129.5 L 656.5 132.1 L 646.0 139.0 L 640.6 142.5 L 634.8 146.2 L 631.1 148.7 L 625.3 152.4 L 619.9 155.9 L 602.0 167.6 L 590.1 175.3 L 579.9 182.0 L 572.4 186.8 L 565.3 191.4 L 550.1 199.6 L 541.3 200.1 L 531.6 198.8 L 520.4 197.2 L 510.4 195.9 L 501.2 194.6 L 482.8 192.0 L 474.4 190.9 L 467.2 189.9 L 460.3 189.0 L 454.7 188.2 L 449.5 187.5 L 441.1 186.3 L 437.5 186.7 L 435.3 189.4 L 434.6 192.6 L 434.2 195.4 L 433.7 201.4 L 433.6 204.7 L 433.8 208.3 L 434.0 211.5 L 434.6 215.5 L 435.2 219.1 L 438.5 228.6 L 441.2 233.1 L 445.3 238.6 L 450.1 248.7 L 447.9 260.5 L 439.0 273.9 L 435.5 277.3 L 430.7 280.9 L 424.6 285.0 L 418.9 288.7 L 412.7 292.6 L 399.2 301.4 L 388.3 308.5 L 376.4 316.1 L 368.6 321.2 L 361.5 325.9 L 354.0 330.7 L 338.7 340.5 L 331.4 344.9 L 324.0 349.1 L 315.7 353.2 L 309.0 354.6 L 295.8 353.4 L 289.8 350.9 L 284.2 347.1 L 281.0 343.9 L 276.1 338.5 L 271.7 333.3 L 258.2 317.1 L 249.6 306.9 L 244.2 300.4 L 239.0 294.2 L 233.8 287.9 L 229.4 282.7 L 221.6 273.9 L 217.9 270.8 L 213.5 268.9 L 209.5 268.2 L 205.5 268.6 L 199.0 271.8 L 196.7 274.0 L 194.7 277.0 L 193.4 280.4 L 193.0 284.0 L 193.3 288.1 L 195.3 296.3 L 196.8 301.3 L 200.1 312.2 L 203.5 321.2 L 207.3 326.5 L 218.1 333.4 L 224.1 335.8 L 230.9 339.3 L 236.4 344.0 L 240.9 349.8 L 244.5 355.1 L 250.9 364.4 L 253.4 368.2 L 255.4 373.0 L 255.9 377.8 L 254.8 382.1 L 252.7 386.0 L 246.9 391.6 L 241.4 395.7 L 231.4 402.5 L 221.6 408.3 L 213.4 410.0 L 204.8 408.1 L 199.7 404.8 L 195.9 401.2 L 191.6 395.8 L 188.6 391.1 L 185.3 384.5 L 176.3 365.5 L 173.7 360.1 L 169.9 352.0 L 166.6 345.1 L 163.1 337.8 L 153.9 318.5 L 153.5 317.7 Z" fill="none" stroke="#2c2c4a" stroke-width="14" stroke-linejoin="round" stroke-linecap="round"/>
  <path d="M 153.5 317.7 L 150.0 310.4 L 149.0 308.2 L 148.1 306.4 L 147.1 304.2 L 145.7 301.3 L 141.0 291.4 L 136.3 281.6 L 129.4 267.4 L 123.5 255.9 L 117.7 244.7 L 112.2 234.4 L 104.2 213.2 L 107.6 205.9 L 110.1 200.8 L 112.3 196.0 L 115.5 189.4 L 124.9 171.6 L 130.4 163.1 L 134.7 157.2 L 139.0 151.9 L 143.5 146.6 L 148.3 141.2 L 158.2 130.0 L 167.6 119.9 L 177.6 109.9 L 187.9 99.6 L 194.4 93.0 L 200.6 86.6 L 212.8 74.2 L 218.7 68.1 L 224.6 62.0 L 229.1 57.3 L 233.9 52.4 L 241.7 44.2 L 245.0 41.2 L 248.4 40.0 L 252.2 40.9 L 254.7 43.0 L 256.8 45.4 L 259.9 50.2 L 261.3 53.1 L 262.4 56.1 L 263.3 59.3 L 263.8 62.8 L 264.1 70.9 L 264.1 75.0 L 264.5 80.2 L 266.5 86.7 L 274.8 95.9 L 286.2 103.6 L 302.1 113.4 L 308.4 116.9 L 315.2 120.6 L 320.6 123.4 L 327.8 127.0 L 336.2 131.0 L 351.3 137.9 L 359.9 141.5 L 368.2 144.6 L 376.6 147.5 L 385.1 150.2 L 403.1 154.9 L 411.8 156.8 L 425.0 159.1 L 437.8 160.8 L 447.0 161.6 L 456.8 162.3 L 475.8 162.6 L 486.7 162.1 L 496.7 161.2 L 506.4 160.0 L 516.3 158.3 L 532.5 154.5 L 541.0 152.0 L 551.7 148.3 L 561.3 144.9 L 570.8 141.4 L 580.2 137.9 L 599.2 131.0 L 608.7 127.5 L 618.3 124.1 L 628.1 120.4 L 638.0 116.8 L 647.5 113.3 L 661.1 108.3 L 668.0 105.8 L 673.3 103.9 L 678.7 101.9 L 682.8 100.4 L 690.1 98.1 L 693.2 98.9 L 694.9 100.6 L 695.8 102.8 L 695.6 105.2 L 694.7 107.0 L 691.2 109.7 L 689.5 110.8 L 687.4 112.1 L 685.7 113.2 L 683.3 114.7 L 681.3 116.1 L 676.2 119.3 L 674.2 120.7 L 666.4 125.7 L 660.6 129.5 L 656.5 132.1 L 646.0 139.0 L 640.6 142.5 L 634.8 146.2 L 631.1 148.7 L 625.3 152.4 L 619.9 155.9 L 602.0 167.6 L 590.1 175.3 L 579.9 182.0 L 572.4 186.8 L 565.3 191.4 L 550.1 199.6 L 541.3 200.1 L 531.6 198.8 L 520.4 197.2 L 510.4 195.9 L 501.2 194.6 L 482.8 192.0 L 474.4 190.9 L 467.2 189.9 L 460.3 189.0 L 454.7 188.2 L 449.5 187.5 L 441.1 186.3 L 437.5 186.7 L 435.3 189.4 L 434.6 192.6 L 434.2 195.4 L 433.7 201.4 L 433.6 204.7 L 433.8 208.3 L 434.0 211.5 L 434.6 215.5 L 435.2 219.1 L 438.5 228.6 L 441.2 233.1 L 445.3 238.6 L 450.1 248.7 L 447.9 260.5 L 439.0 273.9 L 435.5 277.3 L 430.7 280.9 L 424.6 285.0 L 418.9 288.7 L 412.7 292.6 L 399.2 301.4 L 388.3 308.5 L 376.4 316.1 L 368.6 321.2 L 361.5 325.9 L 354.0 330.7 L 338.7 340.5 L 331.4 344.9 L 324.0 349.1 L 315.7 353.2 L 309.0 354.6 L 295.8 353.4 L 289.8 350.9 L 284.2 347.1 L 281.0 343.9 L 276.1 338.5 L 271.7 333.3 L 258.2 317.1 L 249.6 306.9 L 244.2 300.4 L 239.0 294.2 L 233.8 287.9 L 229.4 282.7 L 221.6 273.9 L 217.9 270.8 L 213.5 268.9 L 209.5 268.2 L 205.5 268.6 L 199.0 271.8 L 196.7 274.0 L 194.7 277.0 L 193.4 280.4 L 193.0 284.0 L 193.3 288.1 L 195.3 296.3 L 196.8 301.3 L 200.1 312.2 L 203.5 321.2 L 207.3 326.5 L 218.1 333.4 L 224.1 335.8 L 230.9 339.3 L 236.4 344.0 L 240.9 349.8 L 244.5 355.1 L 250.9 364.4 L 253.4 368.2 L 255.4 373.0 L 255.9 377.8 L 254.8 382.1 L 252.7 386.0 L 246.9 391.6 L 241.4 395.7 L 231.4 402.5 L 221.6 408.3 L 213.4 410.0 L 204.8 408.1 L 199.7 404.8 L 195.9 401.2 L 191.6 395.8 L 188.6 391.1 L 185.3 384.5 L 176.3 365.5 L 173.7 360.1 L 169.9 352.0 L 166.6 345.1 L 163.1 337.8 L 153.9 318.5 L 153.5 317.7 Z" fill="none" stroke="#e10600" stroke-width="3" stroke-linejoin="round" filter="url(#glow)" opacity="0.85"/>
  <path d="M 153.5 317.7 L 150.0 310.4 L 149.0 308.2 L 148.1 306.4 L 147.1 304.2 L 145.7 301.3 L 141.0 291.4 L 136.3 281.6 L 129.4 267.4 L 123.5 255.9 L 117.7 244.7 L 112.2 234.4 L 104.2 213.2 L 107.6 205.9 L 110.1 200.8 L 112.3 196.0 L 115.5 189.4 L 124.9 171.6 L 130.4 163.1 L 134.7 157.2 L 139.0 151.9 L 143.5 146.6 L 148.3 141.2 L 158.2 130.0 L 167.6 119.9 L 177.6 109.9 L 187.9 99.6 L 194.4 93.0 L 200.6 86.6 L 212.8 74.2 L 218.7 68.1 L 224.6 62.0 L 229.1 57.3 L 233.9 52.4 L 241.7 44.2 L 245.0 41.2 L 248.4 40.0 L 252.2 40.9 L 254.7 43.0 L 256.8 45.4 L 259.9 50.2 L 261.3 53.1 L 262.4 56.1 L 263.3 59.3 L 263.8 62.8 L 264.1 70.9 L 264.1 75.0 L 264.5 80.2 L 266.5 86.7 L 274.8 95.9 L 286.2 103.6 L 302.1 113.4 L 308.4 116.9 L 315.2 120.6 L 320.6 123.4 L 327.8 127.0 L 336.2 131.0 L 351.3 137.9 L 359.9 141.5 L 368.2 144.6 L 376.6 147.5 L 385.1 150.2 L 403.1 154.9 L 411.8 156.8 L 425.0 159.1 L 437.8 160.8 L 447.0 161.6 L 456.8 162.3 L 475.8 162.6 L 486.7 162.1 L 496.7 161.2 L 506.4 160.0 L 516.3 158.3 L 532.5 154.5 L 541.0 152.0 L 551.7 148.3 L 561.3 144.9 L 570.8 141.4 L 580.2 137.9 L 599.2 131.0 L 608.7 127.5 L 618.3 124.1 L 628.1 120.4 L 638.0 116.8 L 647.5 113.3 L 661.1 108.3 L 668.0 105.8 L 673.3 103.9 L 678.7 101.9 L 682.8 100.4 L 690.1 98.1 L 693.2 98.9 L 694.9 100.6 L 695.8 102.8 L 695.6 105.2 L 694.7 107.0 L 691.2 109.7 L 689.5 110.8 L 687.4 112.1 L 685.7 113.2 L 683.3 114.7 L 681.3 116.1 L 676.2 119.3 L 674.2 120.7 L 666.4 125.7 L 660.6 129.5 L 656.5 132.1 L 646.0 139.0 L 640.6 142.5 L 634.8 146.2 L 631.1 148.7 L 625.3 152.4 L 619.9 155.9 L 602.0 167.6 L 590.1 175.3 L 579.9 182.0 L 572.4 186.8 L 565.3 191.4 L 550.1 199.6 L 541.3 200.1 L 531.6 198.8 L 520.4 197.2 L 510.4 195.9 L 501.2 194.6 L 482.8 192.0 L 474.4 190.9 L 467.2 189.9 L 460.3 189.0 L 454.7 188.2 L 449.5 187.5 L 441.1 186.3 L 437.5 186.7 L 435.3 189.4 L 434.6 192.6 L 434.2 195.4 L 433.7 201.4 L 433.6 204.7 L 433.8 208.3 L 434.0 211.5 L 434.6 215.5 L 435.2 219.1 L 438.5 228.6 L 441.2 233.1 L 445.3 238.6 L 450.1 248.7 L 447.9 260.5 L 439.0 273.9 L 435.5 277.3 L 430.7 280.9 L 424.6 285.0 L 418.9 288.7 L 412.7 292.6 L 399.2 301.4 L 388.3 308.5 L 376.4 316.1 L 368.6 321.2 L 361.5 325.9 L 354.0 330.7 L 338.7 340.5 L 331.4 344.9 L 324.0 349.1 L 315.7 353.2 L 309.0 354.6 L 295.8 353.4 L 289.8 350.9 L 284.2 347.1 L 281.0 343.9 L 276.1 338.5 L 271.7 333.3 L 258.2 317.1 L 249.6 306.9 L 244.2 300.4 L 239.0 294.2 L 233.8 287.9 L 229.4 282.7 L 221.6 273.9 L 217.9 270.8 L 213.5 268.9 L 209.5 268.2 L 205.5 268.6 L 199.0 271.8 L 196.7 274.0 L 194.7 277.0 L 193.4 280.4 L 193.0 284.0 L 193.3 288.1 L 195.3 296.3 L 196.8 301.3 L 200.1 312.2 L 203.5 321.2 L 207.3 326.5 L 218.1 333.4 L 224.1 335.8 L 230.9 339.3 L 236.4 344.0 L 240.9 349.8 L 244.5 355.1 L 250.9 364.4 L 253.4 368.2 L 255.4 373.0 L 255.9 377.8 L 254.8 382.1 L 252.7 386.0 L 246.9 391.6 L 241.4 395.7 L 231.4 402.5 L 221.6 408.3 L 213.4 410.0 L 204.8 408.1 L 199.7 404.8 L 195.9 401.2 L 191.6 395.8 L 188.6 391.1 L 185.3 384.5 L 176.3 365.5 L 173.7 360.1 L 169.9 352.0 L 166.6 345.1 L 163.1 337.8 L 153.9 318.5 L 153.5 317.7 Z" fill="none" stroke="#ffffff" stroke-width="0.7" stroke-dasharray="3 6"/>
  <text x="20" y="34" font-family="Inter,system-ui,sans-serif" font-size="14" font-weight="600" fill="#8a8aa3" letter-spacing="2">HOCKENHEIM</text>
</svg>
