<svg xmlns="http://www.w3.org/2000/svg" viewBox="0 0 800 450" width="800" height="450">
  <defs>
    <linearGradient id="bg" x1="0" y1="0" x2="0" y2="1">
      <stop offset="0%" stop-color="#1d1d36"/>
      <stop offset="100%" stop-color="#0e0e1a"/>
    </linearGradient>
    <pattern id="grid" width="40" height="40" patternUnits="userSpaceOnUse">
      <circle cx="2" cy="2" r="0.8" fill="#252548" opacity="0.6"/>
    </pattern>
    <filter id="glow">
      <feGaussianBlur stdDeviation="3.5"/>
    </filter>
  </defs>
  <rect width="800" height="450" fill="url(#bg)"/>
  <rect width="800" height="450" fill="url(#grid)"/>
  <path d="M 375.2 365.4 L 372.1 362.8 L 366.5 358.2 L 355.8 349.5 L 352.2 346.5 L 345.0 340.5 L 335.7 333.0 L 328.7 327.2 L 325.7 324.7 L 313.9 315.0 L 310.2 312.0 L 306.0 308.5 L 294.9 299.7 L 288.4 294.5 L 284.9 291.8 L 273.5 282.9 L 268.9 279.3 L 259.7 272.2 L 255.5 268.8 L 249.9 264.2 L 243.3 258.0 L 240.1 254.2 L 237.6 249.6 L 236.8 246.8 L 236.7 244.7 L 237.2 242.3 L 239.2 239.4 L 241.1 238.1 L 242.7 237.4 L 250.5 236.3 L 252.2 236.4 L 258.7 236.9 L 261.3 237.3 L 264.0 237.9 L 273.4 240.2 L 276.0 241.0 L 282.3 243.4 L 292.4 248.4 L 298.0 252.1 L 304.4 256.7 L 310.3 261.4 L 314.9 265.3 L 317.6 267.6 L 325.0 274.1 L 331.5 279.7 L 340.1 287.1 L 343.0 289.4 L 345.2 291.0 L 352.9 295.6 L 356.3 296.9 L 357.4 297.2 L 362.4 297.6 L 366.7 296.5 L 369.0 295.2 L 372.4 291.4 L 373.6 289.0 L 374.2 286.7 L 374.4 280.9 L 373.1 275.8 L 370.3 269.6 L 367.2 264.1 L 365.7 261.6 L 361.2 251.2 L 360.4 247.9 L 359.6 242.7 L 360.3 233.5 L 361.1 230.5 L 363.2 225.6 L 367.9 216.8 L 369.9 213.5 L 372.5 209.2 L 375.9 203.6 L 380.3 195.4 L 384.7 187.4 L 386.9 183.4 L 390.9 176.1 L 398.6 162.1 L 400.7 158.4 L 404.4 151.7 L 413.2 138.4 L 419.0 130.7 L 419.5 130.0 L 425.7 120.7 L 427.1 117.8 L 428.2 114.7 L 426.8 92.9 L 425.7 89.8 L 423.3 83.7 L 419.1 71.5 L 417.8 65.8 L 417.5 57.3 L 418.1 54.2 L 418.4 53.0 L 422.5 45.7 L 425.0 43.4 L 426.1 42.7 L 432.9 40.2 L 435.5 40.0 L 437.1 40.0 L 443.9 41.3 L 446.9 42.5 L 449.6 43.8 L 457.3 48.8 L 460.2 51.2 L 466.0 56.7 L 469.9 60.8 L 472.3 63.3 L 481.1 73.1 L 485.0 77.4 L 489.0 81.8 L 495.3 89.9 L 496.3 91.9 L 497.2 94.9 L 496.6 100.7 L 495.4 103.2 L 494.3 105.1 L 492.7 110.4 L 492.5 114.0 L 492.7 118.0 L 493.1 119.9 L 493.7 122.5 L 496.8 132.9 L 497.7 136.0 L 498.7 140.3 L 500.9 147.8 L 502.9 151.8 L 505.0 154.7 L 512.7 160.4 L 515.4 161.2 L 517.7 161.6 L 528.6 162.6 L 531.6 163.1 L 538.5 166.1 L 542.9 170.0 L 545.2 173.2 L 547.7 181.8 L 547.7 185.5 L 547.4 188.7 L 544.4 200.8 L 542.8 206.5 L 542.2 209.3 L 541.6 229.4 L 542.6 234.1 L 543.5 237.3 L 548.6 247.8 L 551.9 252.3 L 558.1 260.9 L 560.9 266.6 L 562.8 272.7 L 563.3 278.3 L 562.8 284.0 L 561.6 288.3 L 557.5 295.9 L 555.0 299.0 L 551.7 302.5 L 543.8 310.5 L 539.4 315.0 L 535.9 318.5 L 527.4 327.3 L 524.9 329.9 L 519.5 335.5 L 515.4 339.8 L 510.0 345.5 L 502.0 354.4 L 498.5 358.4 L 496.4 360.9 L 491.5 366.6 L 489.2 368.9 L 484.9 372.0 L 480.9 373.4 L 479.7 373.5 L 477.3 373.2 L 471.8 370.2 L 469.5 368.2 L 467.5 366.1 L 462.7 360.3 L 460.5 357.6 L 455.4 351.4 L 453.4 349.2 L 450.8 346.3 L 443.2 338.3 L 440.3 335.7 L 438.2 334.1 L 428.4 330.5 L 427.4 330.5 L 424.3 331.0 L 419.0 333.8 L 417.4 335.8 L 416.3 337.8 L 415.5 342.7 L 415.8 344.9 L 418.9 351.0 L 419.7 352.0 L 420.9 353.2 L 428.2 359.2 L 429.1 359.9 L 433.5 363.1 L 441.1 368.5 L 442.4 369.6 L 454.2 383.3 L 455.5 388.4 L 455.6 392.8 L 455.4 394.1 L 453.7 399.7 L 452.6 401.6 L 447.8 406.4 L 445.1 407.9 L 441.8 409.1 L 435.6 410.0 L 432.5 409.8 L 430.1 409.3 L 423.3 406.3 L 418.4 403.0 L 413.9 399.3 L 409.4 395.4 L 405.4 391.8 L 401.0 387.8 L 390.9 378.7 L 386.4 374.8 L 377.8 367.5 L 375.2 365.4 Z" fill="none" stroke="#2c2c4a" stroke-width="14" stroke-linejoin="round" stroke-linecap="round"/>
  <path d="M 375.2 365.4 L 372.1 362.8 L 366.5 358.2 L 355.8 349.5 L 352.2 346.5 L 345.0 340.5 L 335.7 333.0 L 328.7 327.2 L 325.7 324.7 L 313.9 315.0 L 310.2 312.0 L 306.0 308.5 L 294.9 299.7 L 288.4 294.5 L 284.9 291.8 L 273.5 282.9 L 268.9 279.3 L 259.7 272.2 L 255.5 268.8 L 249.9 264.2 L 243.3 258.0 L 240.1 254.2 L 237.6 249.6 L 236.8 246.8 L 236.7 244.7 L 237.2 242.3 L 239.2 239.4 L 241.1 238.1 L 242.7 237.4 L 250.5 236.3 L 252.2 236.4 L 258.7 236.9 L 261.3 237.3 L 264.0 237.9 L 273.4 240.2 L 276.0 241.0 L 282.3 243.4 L 292.4 248.4 L 298.0 252.1 L 304.4 256.7 L 310.3 261.4 L 314.9 265.3 L 317.6 267.6 L 325.0 274.1 L 331.5 279.7 L 340.1 287.1 L 343.0 289.4 L 345.2 291.0 L 352.9 295.6 L 356.3 296.9 L 357.4 297.2 L 362.4 297.6 L 366.7 296.5 L 369.0 295.2 L 372.4 291.4 L 373.6 289.0 L 374.2 286.7 L 374.4 280.9 L 373.1 275.8 L 370.3 269.6 L 367.2 264.1 L 365.7 261.6 L 361.2 251.2 L 360.4 247.9 L 359.6 242.7 L 360.3 233.5 L 361.1 230.5 L 363.2 225.6 L 367.9 216.8 L 369.9 213.5 L 372.5 209.2 L 375.9 203.6 L 380.3 195.4 L 384.7 187.4 L 386.9 183.4 L 390.9 176.1 L 398.6 162.1 L 400.7 158.4 L 404.4 151.7 L 413.2 138.4 L 419.0 130.7 L 419.5 130.0 L 425.7 120.7 L 427.1 117.8 L 428.2 114.7 L 426.8 92.9 L 425.7 89.8 L 423.3 83.7 L 419.1 71.5 L 417.8 65.8 L 417.5 57.3 L 418.1 54.2 L 418.4 53.0 L 422.5 45.7 L 425.0 43.4 L 426.1 42.7 L 432.9 40.2 L 435.5 40.0 L 437.1 40.0 L 443.9 41.3 L 446.9 42.5 L 449.6 43.8 L 457.3 48.8 L 460.2 51.2 L 466.0 56.7 L 469.9 60.8 L 472.3 63.3 L 481.1 73.1 L 485.0 77.4 L 489.0 81.8 L 495.3 89.9 L 496.3 91.9 L 497.2 94.9 L 496.6 100.7 L 495.4 103.2 L 494.3 105.1 L 492.7 110.4 L 492.5 114.0 L 492.7 118.0 L 493.1 119.9 L 493.7 122.5 L 496.8 132.9 L 497.7 136.0 L 498.7 140.3 L 500.9 147.8 L 502.9 151.8 L 505.0 154.7 L 512.7 160.4 L 515.4 161.2 L 517.7 161.6 L 528.6 162.6 L 531.6 163.1 L 538.5 166.1 L 542.9 170.0 L 545.2 173.2 L 547.7 181.8 L 547.7 185.5 L 547.4 188.7 L 544.4 200.8 L 542.8 206.5 L 542.2 209.3 L 541.6 229.4 L 542.6 234.1 L 543.5 237.3 L 548.6 247.8 L 551.9 252.3 L 558.1 260.9 L 560.9 266.6 L 562.8 272.7 L 563.3 278.3 L 562.8 284.0 L 561.6 288.3 L 557.5 295.9 L 555.0 299.0 L 551.7 302.5 L 543.8 310.5 L 539.4 315.0 L 535.9 318.5 L 527.4 327.3 L 524.9 329.9 L 519.5 335.5 L 515.4 339.8 L 510.0 345.5 L 502.0 354.4 L 498.5 358.4 L 496.4 360.9 L 491.5 366.6 L 489.2 368.9 L 484.9 372.0 L 480.9 373.4 L 479.7 373.5 L 477.3 373.2 L 471.8 370.2 L 469.5 368.2 L 467.5 366.1 L 462.7 360.3 L 460.5 357.6 L 455.4 351.4 L 453.4 349.2 L 450.8 346.3 L 443.2 338.3 L 440.3 335.7 L 438.2 334.1 L 428.4 330.5 L 427.4 330.5 L 424.3 331.0 L 419.0 333.8 L 417.4 335.8 L 416.3 337.8 L 415.5 342.7 L 415.8 344.9 L 418.9 351.0 L 419.7 352.0 L 420.9 353.2 L 428.2 359.2 L 429.1 359.9 L 433.5 363.1 L 441.1 368.5 L 442.4 369.6 L 454.2 383.3 L 455.5 388.4 L 455.6 392.8 L 455.4 394.1 L 453.7 399.7 L 452.6 401.6 L 447.8 406.4 L 445.1 407.9 L 441.8 409.1 L 435.6 410.0 L 432.5 409.8 L 430.1 409.3 L 423.3 406.3 L 418.4 403.0 L 413.9 399.3 L 409.4 395.4 L 405.4 391.8 L 401.0 387.8 L 390.9 378.7 L 386.4 374.8 L 377.8 367.5 L 375.2 365.4 Z" fill="none" stroke="#e10600" stroke-width="3" stroke-linejoin="round" filter="url(#glow)" opacity="0.85"/>
  <path d="M 375.2 365.4 L 372.1 362.8 L 366.5 358.2 L 355.8 349.5 L 352.2 346.5 L 345.0 340.5 L 335.7 333.0 L 328.7 327.2 L 325.7 324.7 L 313.9 315.0 L 310.2 312.0 L 306.0 308.5 L 294.9 299.7 L 288.4 294.5 L 284.9 291.8 L 273.5 282.9 L 268.9 279.3 L 259.7 272.2 L 255.5 268.8 L 249.9 264.2 L 243.3 258.0 L 240.1 254.2 L 237.6 249.6 L 236.8 246.8 L 236.7 244.7 L 237.2 242.3 L 239.2 239.4 L 241.1 238.1 L 242.7 237.4 L 250.5 236.3 L 252.2 236.4 L 258.7 236.9 L 261.3 237.3 L 264.0 237.9 L 273.4 240.2 L 276.0 241.0 L 282.3 243.4 L 292.4 248.4 L 298.0 252.1 L 304.4 256.7 L 310.3 261.4 L 314.9 265.3 L 317.6 267.6 L 325.0 274.1 L 331.5 279.7 L 340.1 287.1 L 343.0 289.4 L 345.2 291.0 L 352.9 295.6 L 356.3 296.9 L 357.4 297.2 L 362.4 297.6 L 366.7 296.5 L 369.0 295.2 L 372.4 291.4 L 373.6 289.0 L 374.2 286.7 L 374.4 280.9 L 373.1 275.8 L 370.3 269.6 L 367.2 264.1 L 365.7 261.6 L 361.2 251.2 L 360.4 247.9 L 359.6 242.7 L 360.3 233.5 L 361.1 230.5 L 363.2 225.6 L 367.9 216.8 L 369.9 213.5 L 372.5 209.2 L 375.9 203.6 L 380.3 195.4 L 384.7 187.4 L 386.9 183.4 L 390.9 176.1 L 398.6 162.1 L 400.7 158.4 L 404.4 151.7 L 413.2 138.4 L 419.0 130.7 L 419.5 130.0 L 425.7 120.7 L 427.1 117.8 L 428.2 114.7 L 426.8 92.9 L 425.7 89.8 L 423.3 83.7 L 419.1 71.5 L 417.8 65.8 L 417.5 57.3 L 418.1 54.2 L 418.4 53.0 L 422.5 45.7 L 425.0 43.4 L 426.1 42.7 L 432.9 40.2 L 435.5 40.0 L 437.1 40.0 L 443.9 41.3 L 446.9 42.5 L 449.6 43.8 L 457.3 48.8 L 460.2 51.2 L 466.0 56.7 L 469.9 60.8 L 472.3 63.3 L 481.1 73.1 L 485.0 77.4 L 489.0 81.8 L 495.3 89.9 L 496.3 91.9 L 497.2 94.9 L 496.6 100.7 L 495.4 103.2 L 494.3 105.1 L 492.7 110.4 L 492.5 114.0 L 492.7 118.0 L 493.1 119.9 L 493.7 122.5 L 496.8 132.9 L 497.7 136.0 L 498.7 140.3 L 500.9 147.8 L 502.9 151.8 L 505.0 154.7 L 512.7 160.4 L 515.4 161.2 L 517.7 161.6 L 528.6 162.6 L 531.6 163.1 L 538.5 166.1 L 542.9 170.0 L 545.2 173.2 L 547.7 181.8 L 547.7 185.5 L 547.4 188.7 L 544.4 200.8 L 542.8 206.5 L 542.2 209.3 L 541.6 229.4 L 542.6 234.1 L 543.5 237.3 L 548.6 247.8 L 551.9 252.3 L 558.1 260.9 L 560.9 266.6 L 562.8 272.7 L 563.3 278.3 L 562.8 284.0 L 561.6 288.3 L 557.5 295.9 L 555.0 299.0 L 551.7 302.5 L 543.8 310.5 L 539.4 315.0 L 535.9 318.5 L 527.4 327.3 L 524.9 329.9 L 519.5 335.5 L 515.4 339.8 L 510.0 345.5 L 502.0 354.4 L 498.5 358.4 L 496.4 360.9 L 491.5 366.6 L 489.2 368.9 L 484.9 372.0 L 480.9 373.4 L 479.7 373.5 L 477.3 373.2 L 471.8 370.2 L 469.5 368.2 L 467.5 366.1 L 462.7 360.3 L 460.5 357.6 L 455.4 351.4 L 453.4 349.2 L 450.8 346.3 L 443.2 338.3 L 440.3 335.7 L 438.2 334.1 L 428.4 330.5 L 427.4 330.5 L 424.3 331.0 L 419.0 333.8 L 417.4 335.8 L 416.3 337.8 L 415.5 342.7 L 415.8 344.9 L 418.9 351.0 L 419.7 352.0 L 420.9 353.2 L 428.2 359.2 L 429.1 359.9 L 433.5 363.1 L 441.1 368.5 L 442.4 369.6 L 454.2 383.3 L 455.5 388.4 L 455.6 392.8 L 455.4 394.1 L 453.7 399.7 L 452.6 401.6 L 447.8 406.4 L 445.1 407.9 L 441.8 409.1 L 435.6 410.0 L 432.5 409.8 L 430.1 409.3 L 423.3 406.3 L 418.4 403.0 L 413.9 399.3 L 409.4 395.4 L 405.4 391.8 L 401.0 387.8 L 390.9 378.7 L 386.4 374.8 L 377.8 367.5 L 375.2 365.4 Z" fill="none" stroke="#ffffff" stroke-width="0.7" stroke-dasharray="3 6"/>
  <text x="20" y="34" font-family="Inter,system-ui,sans-serif" font-size="14" font-weight="600" fill="#8a8aa3" letter-spacing="2">HUNGARORING</text>
</svg>
