<svg xmlns="http://www.w3.org/2000/svg" viewBox="0 0 800 450" width="800" height="450">
  <defs>
    <linearGradient id="bg" x1="0" y1="0" x2="0" y2="1">
      <stop offset="0%" stop-color="#1d1d36"/>
      <stop offset="100%" stop-color="#0e0e1a"/>
    </linearGradient>
    <pattern id="grid" width="40" height="40" patternUnits="userSpaceOnUse">
      <circle cx="2" cy="2" r="0.8" fill="#252548" opacity="0.6"/>
    </pattern>
    <filter id="glow">
      <feGaussianBlur stdDeviation="3.5"/>
    </filter>
  </defs>
  <rect width="800" height="450" fill="url(#bg)"/>
  <rect width="800" height="450" fill="url(#grid)"/>
  <path d="M 561.6 85.9 L 550.7 86.5 L 538.4 87.2 L 532.0 87.6 L 517.8 88.3 L 511.8 88.5 L 505.2 88.7 L 487.8 89.2 L 474.1 88.7 L 466.8 87.7 L 449.4 84.0 L 443.5 82.5 L 433.9 80.2 L 411.7 75.1 L 405.9 74.0 L 394.2 72.7 L 382.5 72.1 L 376.3 72.1 L 368.2 72.1 L 355.2 72.4 L 344.0 73.1 L 335.3 73.9 L 317.5 76.0 L 312.0 76.7 L 301.1 78.2 L 290.3 79.7 L 280.8 81.2 L 272.7 82.9 L 256.7 87.7 L 247.8 90.5 L 241.3 92.6 L 235.0 97.2 L 233.3 100.6 L 231.6 107.2 L 229.0 113.1 L 226.2 116.6 L 225.9 116.9 L 218.5 122.3 L 211.0 126.7 L 204.7 130.4 L 199.7 133.3 L 189.9 140.3 L 188.6 141.6 L 182.6 150.7 L 178.9 160.0 L 177.2 164.8 L 174.9 171.1 L 169.9 184.3 L 166.7 192.9 L 165.2 197.0 L 159.0 213.5 L 158.0 216.1 L 156.0 221.4 L 149.0 240.2 L 146.3 247.2 L 144.9 251.0 L 140.3 262.3 L 138.3 267.0 L 135.6 273.4 L 131.2 287.0 L 131.1 295.8 L 132.7 304.4 L 135.9 318.6 L 136.1 321.9 L 135.4 325.6 L 127.6 334.7 L 122.5 339.1 L 116.8 343.9 L 110.8 349.0 L 109.5 350.1 L 102.4 356.1 L 94.8 363.2 L 88.3 369.7 L 85.2 372.7 L 80.7 377.0 L 71.7 385.9 L 68.9 389.5 L 67.7 391.6 L 66.5 395.4 L 66.3 397.5 L 66.5 399.8 L 68.8 404.5 L 71.5 406.9 L 73.4 408.1 L 77.6 409.5 L 79.5 409.8 L 82.1 410.0 L 87.9 409.6 L 92.9 408.9 L 97.6 408.1 L 104.8 406.6 L 110.0 405.6 L 114.9 404.6 L 125.4 402.7 L 133.5 401.3 L 142.8 399.8 L 155.4 397.9 L 161.5 397.0 L 167.1 396.2 L 182.0 394.3 L 191.7 393.3 L 195.5 393.0 L 212.7 392.4 L 224.6 392.8 L 237.1 394.0 L 254.6 396.1 L 259.1 396.7 L 264.2 397.3 L 281.4 398.1 L 285.5 397.2 L 290.0 395.3 L 296.2 390.3 L 303.2 378.3 L 305.4 373.7 L 307.4 369.5 L 310.1 361.7 L 312.2 350.0 L 312.4 345.9 L 312.1 335.5 L 311.5 330.7 L 309.8 320.1 L 306.4 304.9 L 305.4 300.6 L 304.2 295.1 L 300.3 277.9 L 297.9 266.9 L 297.2 261.4 L 300.1 246.7 L 303.1 240.6 L 305.9 235.8 L 310.8 228.6 L 312.9 226.3 L 315.5 224.5 L 320.9 223.1 L 323.1 223.2 L 325.9 223.8 L 332.5 225.5 L 335.7 226.2 L 338.4 226.7 L 360.3 227.4 L 368.3 227.3 L 372.2 227.3 L 386.0 227.1 L 398.2 226.7 L 403.2 226.5 L 414.5 226.0 L 418.2 225.9 L 425.0 225.6 L 431.4 225.3 L 450.5 224.5 L 454.9 224.1 L 462.6 223.5 L 476.8 222.3 L 482.1 221.8 L 487.4 221.4 L 493.0 221.1 L 498.1 221.6 L 500.9 223.2 L 506.4 228.9 L 508.0 230.2 L 510.1 231.2 L 513.9 231.8 L 519.0 230.7 L 521.1 230.0 L 527.9 227.2 L 531.9 225.3 L 537.5 222.4 L 544.9 218.4 L 550.3 215.7 L 554.8 213.4 L 566.3 208.0 L 569.6 206.4 L 572.6 205.0 L 591.8 193.5 L 597.7 189.3 L 599.5 188.0 L 614.7 175.7 L 618.3 172.3 L 622.8 167.8 L 634.0 155.8 L 641.0 147.9 L 644.6 144.0 L 654.5 133.0 L 663.8 122.8 L 667.1 119.4 L 672.3 114.6 L 686.8 105.3 L 698.6 100.4 L 703.5 98.5 L 721.6 91.1 L 724.4 89.8 L 728.0 87.7 L 733.0 81.4 L 733.4 80.0 L 733.7 77.6 L 732.4 69.5 L 731.7 67.0 L 730.3 63.0 L 728.0 57.0 L 725.5 52.1 L 722.4 47.4 L 714.9 41.7 L 712.2 40.7 L 708.2 40.1 L 700.9 40.3 L 697.3 41.1 L 696.9 41.3 L 686.7 45.6 L 683.4 47.2 L 679.2 49.1 L 669.7 53.4 L 642.7 65.4 L 638.4 67.2 L 623.5 73.5 L 617.2 76.1 L 610.2 78.9 L 591.7 84.1 L 583.9 84.9 L 579.4 85.2 L 565.0 85.7 L 561.6 85.9 Z" fill="none" stroke="#2c2c4a" stroke-width="14" stroke-linejoin="round" stroke-linecap="round"/>
  <path d="M 561.6 85.9 L 550.7 86.5 L 538.4 87.2 L 532.0 87.6 L 517.8 88.3 L 511.8 88.5 L 505.2 88.7 L 487.8 89.2 L 474.1 88.7 L 466.8 87.7 L 449.4 84.0 L 443.5 82.5 L 433.9 80.2 L 411.7 75.1 L 405.9 74.0 L 394.2 72.7 L 382.5 72.1 L 376.3 72.1 L 368.2 72.1 L 355.2 72.4 L 344.0 73.1 L 335.3 73.9 L 317.5 76.0 L 312.0 76.7 L 301.1 78.2 L 290.3 79.7 L 280.8 81.2 L 272.7 82.9 L 256.7 87.7 L 247.8 90.5 L 241.3 92.6 L 235.0 97.2 L 233.3 100.6 L 231.6 107.2 L 229.0 113.1 L 226.2 116.6 L 225.9 116.9 L 218.5 122.3 L 211.0 126.7 L 204.7 130.4 L 199.7 133.3 L 189.9 140.3 L 188.6 141.6 L 182.6 150.7 L 178.9 160.0 L 177.2 164.8 L 174.9 171.1 L 169.9 184.3 L 166.7 192.9 L 165.2 197.0 L 159.0 213.5 L 158.0 216.1 L 156.0 221.4 L 149.0 240.2 L 146.3 247.2 L 144.9 251.0 L 140.3 262.3 L 138.3 267.0 L 135.6 273.4 L 131.2 287.0 L 131.1 295.8 L 132.7 304.4 L 135.9 318.6 L 136.1 321.9 L 135.4 325.6 L 127.6 334.7 L 122.5 339.1 L 116.8 343.9 L 110.8 349.0 L 109.5 350.1 L 102.4 356.1 L 94.8 363.2 L 88.3 369.7 L 85.2 372.7 L 80.7 377.0 L 71.7 385.9 L 68.9 389.5 L 67.7 391.6 L 66.5 395.4 L 66.3 397.5 L 66.5 399.8 L 68.8 404.5 L 71.5 406.9 L 73.4 408.1 L 77.6 409.5 L 79.5 409.8 L 82.1 410.0 L 87.9 409.6 L 92.9 408.9 L 97.6 408.1 L 104.8 406.6 L 110.0 405.6 L 114.9 404.6 L 125.4 402.7 L 133.5 401.3 L 142.8 399.8 L 155.4 397.9 L 161.5 397.0 L 167.1 396.2 L 182.0 394.3 L 191.7 393.3 L 195.5 393.0 L 212.7 392.4 L 224.6 392.8 L 237.1 394.0 L 254.6 396.1 L 259.1 396.7 L 264.2 397.3 L 281.4 398.1 L 285.5 397.2 L 290.0 395.3 L 296.2 390.3 L 303.2 378.3 L 305.4 373.7 L 307.4 369.5 L 310.1 361.7 L 312.2 350.0 L 312.4 345.9 L 312.1 335.5 L 311.5 330.7 L 309.8 320.1 L 306.4 304.9 L 305.4 300.6 L 304.2 295.1 L 300.3 277.9 L 297.9 266.9 L 297.2 261.4 L 300.1 246.7 L 303.1 240.6 L 305.9 235.8 L 310.8 228.6 L 312.9 226.3 L 315.5 224.5 L 320.9 223.1 L 323.1 223.2 L 325.9 223.8 L 332.5 225.5 L 335.7 226.2 L 338.4 226.7 L 360.3 227.4 L 368.3 227.3 L 372.2 227.3 L 386.0 227.1 L 398.2 226.7 L 403.2 226.5 L 414.5 226.0 L 418.2 225.9 L 425.0 225.6 L 431.4 225.3 L 450.5 224.5 L 454.9 224.1 L 462.6 223.5 L 476.8 222.3 L 482.1 221.8 L 487.4 221.4 L 493.0 221.1 L 498.1 221.6 L 500.9 223.2 L 506.4 228.9 L 508.0 230.2 L 510.1 231.2 L 513.9 231.8 L 519.0 230.7 L 521.1 230.0 L 527.9 227.2 L 531.9 225.3 L 537.5 222.4 L 544.9 218.4 L 550.3 215.7 L 554.8 213.4 L 566.3 208.0 L 569.6 206.4 L 572.6 205.0 L 591.8 193.5 L 597.7 189.3 L 599.5 188.0 L 614.7 175.7 L 618.3 172.3 L 622.8 167.8 L 634.0 155.8 L 641.0 147.9 L 644.6 144.0 L 654.5 133.0 L 663.8 122.8 L 667.1 119.4 L 672.3 114.6 L 686.8 105.3 L 698.6 100.4 L 703.5 98.5 L 721.6 91.1 L 724.4 89.8 L 728.0 87.7 L 733.0 81.4 L 733.4 80.0 L 733.7 77.6 L 732.4 69.5 L 731.7 67.0 L 730.3 63.0 L 728.0 57.0 L 725.5 52.1 L 722.4 47.4 L 714.9 41.7 L 712.2 40.7 L 708.2 40.1 L 700.9 40.3 L 697.3 41.1 L 696.9 41.3 L 686.7 45.6 L 683.4 47.2 L 679.2 49.1 L 669.7 53.4 L 642.7 65.4 L 638.4 67.2 L 623.5 73.5 L 617.2 76.1 L 610.2 78.9 L 591.7 84.1 L 583.9 84.9 L 579.4 85.2 L 565.0 85.7 L 561.6 85.9 Z" fill="none" stroke="#e10600" stroke-width="3" stroke-linejoin="round" filter="url(#glow)" opacity="0.85"/>
  <path d="M 561.6 85.9 L 550.7 86.5 L 538.4 87.2 L 532.0 87.6 L 517.8 88.3 L 511.8 88.5 L 505.2 88.7 L 487.8 89.2 L 474.1 88.7 L 466.8 87.7 L 449.4 84.0 L 443.5 82.5 L 433.9 80.2 L 411.7 75.1 L 405.9 74.0 L 394.2 72.7 L 382.5 72.1 L 376.3 72.1 L 368.2 72.1 L 355.2 72.4 L 344.0 73.1 L 335.3 73.9 L 317.5 76.0 L 312.0 76.7 L 301.1 78.2 L 290.3 79.7 L 280.8 81.2 L 272.7 82.9 L 256.7 87.7 L 247.8 90.5 L 241.3 92.6 L 235.0 97.2 L 233.3 100.6 L 231.6 107.2 L 229.0 113.1 L 226.2 116.6 L 225.9 116.9 L 218.5 122.3 L 211.0 126.7 L 204.7 130.4 L 199.7 133.3 L 189.9 140.3 L 188.6 141.6 L 182.6 150.7 L 178.9 160.0 L 177.2 164.8 L 174.9 171.1 L 169.9 184.3 L 166.7 192.9 L 165.2 197.0 L 159.0 213.5 L 158.0 216.1 L 156.0 221.4 L 149.0 240.2 L 146.3 247.2 L 144.9 251.0 L 140.3 262.3 L 138.3 267.0 L 135.6 273.4 L 131.2 287.0 L 131.1 295.8 L 132.7 304.4 L 135.9 318.6 L 136.1 321.9 L 135.4 325.6 L 127.6 334.7 L 122.5 339.1 L 116.8 343.9 L 110.8 349.0 L 109.5 350.1 L 102.4 356.1 L 94.8 363.2 L 88.3 369.7 L 85.2 372.7 L 80.7 377.0 L 71.7 385.9 L 68.9 389.5 L 67.7 391.6 L 66.5 395.4 L 66.3 397.5 L 66.5 399.8 L 68.8 404.5 L 71.5 406.9 L 73.4 408.1 L 77.6 409.5 L 79.5 409.8 L 82.1 410.0 L 87.9 409.6 L 92.9 408.9 L 97.6 408.1 L 104.8 406.6 L 110.0 405.6 L 114.9 404.6 L 125.4 402.7 L 133.5 401.3 L 142.8 399.8 L 155.4 397.9 L 161.5 397.0 L 167.1 396.2 L 182.0 394.3 L 191.7 393.3 L 195.5 393.0 L 212.7 392.4 L 224.6 392.8 L 237.1 394.0 L 254.6 396.1 L 259.1 396.7 L 264.2 397.3 L 281.4 398.1 L 285.5 397.2 L 290.0 395.3 L 296.2 390.3 L 303.2 378.3 L 305.4 373.7 L 307.4 369.5 L 310.1 361.7 L 312.2 350.0 L 312.4 345.9 L 312.1 335.5 L 311.5 330.7 L 309.8 320.1 L 306.4 304.9 L 305.4 300.6 L 304.2 295.1 L 300.3 277.9 L 297.9 266.9 L 297.2 261.4 L 300.1 246.7 L 303.1 240.6 L 305.9 235.8 L 310.8 228.6 L 312.9 226.3 L 315.5 224.5 L 320.9 223.1 L 323.1 223.2 L 325.9 223.8 L 332.5 225.5 L 335.7 226.2 L 338.4 226.7 L 360.3 227.4 L 368.3 227.3 L 372.2 227.3 L 386.0 227.1 L 398.2 226.7 L 403.2 226.5 L 414.5 226.0 L 418.2 225.9 L 425.0 225.6 L 431.4 225.3 L 450.5 224.5 L 454.9 224.1 L 462.6 223.5 L 476.8 222.3 L 482.1 221.8 L 487.4 221.4 L 493.0 221.1 L 498.1 221.6 L 500.9 223.2 L 506.4 228.9 L 508.0 230.2 L 510.1 231.2 L 513.9 231.8 L 519.0 230.7 L 521.1 230.0 L 527.9 227.2 L 531.9 225.3 L 537.5 222.4 L 544.9 218.4 L 550.3 215.7 L 554.8 213.4 L 566.3 208.0 L 569.6 206.4 L 572.6 205.0 L 591.8 193.5 L 597.7 189.3 L 599.5 188.0 L 614.7 175.7 L 618.3 172.3 L 622.8 167.8 L 634.0 155.8 L 641.0 147.9 L 644.6 144.0 L 654.5 133.0 L 663.8 122.8 L 667.1 119.4 L 672.3 114.6 L 686.8 105.3 L 698.6 100.4 L 703.5 98.5 L 721.6 91.1 L 724.4 89.8 L 728.0 87.7 L 733.0 81.4 L 733.4 80.0 L 733.7 77.6 L 732.4 69.5 L 731.7 67.0 L 730.3 63.0 L 728.0 57.0 L 725.5 52.1 L 722.4 47.4 L 714.9 41.7 L 712.2 40.7 L 708.2 40.1 L 700.9 40.3 L 697.3 41.1 L 696.9 41.3 L 686.7 45.6 L 683.4 47.2 L 679.2 49.1 L 669.7 53.4 L 642.7 65.4 L 638.4 67.2 L 623.5 73.5 L 617.2 76.1 L 610.2 78.9 L 591.7 84.1 L 583.9 84.9 L 579.4 85.2 L 565.0 85.7 L 561.6 85.9 Z" fill="none" stroke="#ffffff" stroke-width="0.7" stroke-dasharray="3 6"/>
  <text x="20" y="34" font-family="Inter,system-ui,sans-serif" font-size="14" font-weight="600" fill="#8a8aa3" letter-spacing="2">AUTODROMO ENZO E DINO FERRARI</text>
</svg>
