<svg xmlns="http://www.w3.org/2000/svg" viewBox="0 0 800 450" width="800" height="450">
  <defs>
    <linearGradient id="bg" x1="0" y1="0" x2="0" y2="1">
      <stop offset="0%" stop-color="#1d1d36"/>
      <stop offset="100%" stop-color="#0e0e1a"/>
    </linearGradient>
    <pattern id="grid" width="40" height="40" patternUnits="userSpaceOnUse">
      <circle cx="2" cy="2" r="0.8" fill="#252548" opacity="0.6"/>
    </pattern>
    <filter id="glow">
      <feGaussianBlur stdDeviation="3.5"/>
    </filter>
  </defs>
  <rect width="800" height="450" fill="url(#bg)"/>
  <rect width="800" height="450" fill="url(#grid)"/>
  <path d="M 301.5 299.7 L 304.3 311.0 L 306.5 319.3 L 310.0 332.3 L 311.1 336.5 L 314.6 349.5 L 316.9 358.0 L 321.1 372.8 L 322.4 377.3 L 323.8 381.7 L 325.9 387.8 L 328.2 393.5 L 331.9 400.4 L 333.2 402.4 L 338.2 407.5 L 339.1 408.2 L 344.5 410.0 L 347.2 410.0 L 349.8 409.4 L 353.4 407.5 L 354.9 406.5 L 358.1 403.9 L 359.9 402.2 L 364.2 398.6 L 365.5 397.6 L 368.1 396.1 L 374.6 394.2 L 379.5 395.1 L 390.4 399.5 L 395.1 401.3 L 400.5 402.9 L 405.4 403.8 L 412.5 404.2 L 415.7 404.0 L 419.5 403.6 L 432.4 399.9 L 435.2 398.6 L 447.8 389.7 L 450.2 387.3 L 458.2 377.0 L 459.5 374.8 L 462.4 369.0 L 466.3 358.2 L 467.6 353.4 L 470.3 342.6 L 472.0 335.8 L 474.8 324.7 L 476.8 316.6 L 480.7 300.1 L 481.2 297.9 L 482.6 292.3 L 487.0 274.7 L 489.6 264.5 L 492.9 251.9 L 495.0 243.8 L 500.6 222.5 L 503.2 212.7 L 504.3 208.6 L 508.3 193.9 L 509.8 188.3 L 512.8 177.5 L 515.0 169.6 L 516.1 163.3 L 516.4 159.0 L 515.9 152.0 L 515.2 149.2 L 514.3 146.5 L 510.3 140.7 L 506.9 138.0 L 501.4 135.1 L 496.4 133.5 L 489.1 131.9 L 483.6 131.1 L 476.5 130.9 L 471.0 130.9 L 463.3 131.9 L 450.5 136.3 L 444.6 139.9 L 437.8 145.2 L 434.9 147.8 L 427.5 156.3 L 425.2 159.6 L 422.2 163.8 L 416.0 172.6 L 413.8 175.7 L 407.4 184.8 L 403.6 190.1 L 396.2 201.0 L 393.5 205.1 L 386.3 215.8 L 381.9 222.3 L 377.6 228.6 L 369.9 239.2 L 365.7 243.4 L 356.9 249.2 L 348.5 251.7 L 341.9 252.4 L 336.3 252.1 L 333.0 251.4 L 328.5 249.7 L 323.3 247.1 L 316.7 241.4 L 314.4 238.8 L 308.1 227.6 L 306.9 224.2 L 305.1 217.3 L 303.8 211.0 L 303.1 205.8 L 302.6 199.9 L 302.6 197.7 L 304.2 187.9 L 305.4 185.1 L 307.1 182.5 L 308.5 181.2 L 310.7 180.2 L 314.0 179.8 L 315.3 179.9 L 320.8 181.9 L 321.6 182.3 L 326.2 184.7 L 328.7 186.0 L 333.0 187.7 L 334.8 188.2 L 339.0 188.6 L 344.8 187.5 L 347.1 186.0 L 350.2 182.6 L 350.9 181.2 L 352.0 175.8 L 352.0 174.1 L 351.7 171.9 L 349.7 165.9 L 347.1 161.4 L 343.5 156.6 L 342.6 155.6 L 334.2 146.6 L 330.5 142.3 L 324.9 134.7 L 322.8 131.3 L 321.2 128.3 L 317.2 118.2 L 316.1 112.9 L 316.0 107.8 L 316.4 105.0 L 318.5 100.2 L 319.6 99.0 L 323.1 97.5 L 323.8 97.5 L 325.1 97.5 L 328.1 98.3 L 330.1 99.2 L 333.8 101.8 L 335.7 103.4 L 339.2 107.1 L 340.3 108.4 L 341.9 110.4 L 344.3 113.6 L 345.5 115.3 L 353.5 124.4 L 356.4 126.7 L 362.8 130.0 L 366.3 131.1 L 379.1 132.5 L 382.2 132.3 L 386.9 131.5 L 396.9 127.7 L 399.8 126.0 L 406.7 120.6 L 411.2 115.5 L 418.1 104.9 L 423.4 96.0 L 425.3 92.8 L 430.7 83.6 L 432.5 80.4 L 436.0 73.9 L 437.2 71.1 L 438.7 66.6 L 439.0 63.1 L 437.9 57.8 L 436.2 54.7 L 433.8 52.0 L 431.2 50.0 L 429.6 49.0 L 426.0 47.1 L 424.0 46.3 L 416.5 43.5 L 412.4 42.2 L 411.0 41.8 L 401.7 40.2 L 397.8 40.0 L 386.2 40.4 L 381.7 41.0 L 373.6 42.5 L 369.2 43.6 L 358.1 46.9 L 353.2 48.8 L 343.8 53.1 L 332.6 59.9 L 328.5 63.1 L 316.3 75.1 L 312.8 79.4 L 305.1 92.4 L 300.8 101.9 L 298.8 107.1 L 292.3 131.0 L 291.0 137.1 L 288.3 149.5 L 286.9 156.9 L 285.6 165.5 L 284.8 171.3 L 283.9 184.5 L 283.6 192.2 L 283.6 193.4 L 284.4 215.2 L 285.1 222.3 L 287.6 239.0 L 288.8 246.1 L 293.2 266.2 L 295.4 275.7 L 299.5 292.0 L 301.5 299.7 Z" fill="none" stroke="#2c2c4a" stroke-width="14" stroke-linejoin="round" stroke-linecap="round"/>
  <path d="M 301.5 299.7 L 304.3 311.0 L 306.5 319.3 L 310.0 332.3 L 311.1 336.5 L 314.6 349.5 L 316.9 358.0 L 321.1 372.8 L 322.4 377.3 L 323.8 381.7 L 325.9 387.8 L 328.2 393.5 L 331.9 400.4 L 333.2 402.4 L 338.2 407.5 L 339.1 408.2 L 344.5 410.0 L 347.2 410.0 L 349.8 409.4 L 353.4 407.5 L 354.9 406.5 L 358.1 403.9 L 359.9 402.2 L 364.2 398.6 L 365.5 397.6 L 368.1 396.1 L 374.6 394.2 L 379.5 395.1 L 390.4 399.5 L 395.1 401.3 L 400.5 402.9 L 405.4 403.8 L 412.5 404.2 L 415.7 404.0 L 419.5 403.6 L 432.4 399.9 L 435.2 398.6 L 447.8 389.7 L 450.2 387.3 L 458.2 377.0 L 459.5 374.8 L 462.4 369.0 L 466.3 358.2 L 467.6 353.4 L 470.3 342.6 L 472.0 335.8 L 474.8 324.7 L 476.8 316.6 L 480.7 300.1 L 481.2 297.9 L 482.6 292.3 L 487.0 274.7 L 489.6 264.5 L 492.9 251.9 L 495.0 243.8 L 500.6 222.5 L 503.2 212.7 L 504.3 208.6 L 508.3 193.9 L 509.8 188.3 L 512.8 177.5 L 515.0 169.6 L 516.1 163.3 L 516.4 159.0 L 515.9 152.0 L 515.2 149.2 L 514.3 146.5 L 510.3 140.7 L 506.9 138.0 L 501.4 135.1 L 496.4 133.5 L 489.1 131.9 L 483.6 131.1 L 476.5 130.9 L 471.0 130.9 L 463.3 131.9 L 450.5 136.3 L 444.6 139.9 L 437.8 145.2 L 434.9 147.8 L 427.5 156.3 L 425.2 159.6 L 422.2 163.8 L 416.0 172.6 L 413.8 175.7 L 407.4 184.8 L 403.6 190.1 L 396.2 201.0 L 393.5 205.1 L 386.3 215.8 L 381.9 222.3 L 377.6 228.6 L 369.9 239.2 L 365.7 243.4 L 356.9 249.2 L 348.5 251.7 L 341.9 252.4 L 336.3 252.1 L 333.0 251.4 L 328.5 249.7 L 323.3 247.1 L 316.7 241.4 L 314.4 238.8 L 308.1 227.6 L 306.9 224.2 L 305.1 217.3 L 303.8 211.0 L 303.1 205.8 L 302.6 199.9 L 302.6 197.7 L 304.2 187.9 L 305.4 185.1 L 307.1 182.5 L 308.5 181.2 L 310.7 180.2 L 314.0 179.8 L 315.3 179.9 L 320.8 181.9 L 321.6 182.3 L 326.2 184.7 L 328.7 186.0 L 333.0 187.7 L 334.8 188.2 L 339.0 188.6 L 344.8 187.5 L 347.1 186.0 L 350.2 182.6 L 350.9 181.2 L 352.0 175.8 L 352.0 174.1 L 351.7 171.9 L 349.7 165.9 L 347.1 161.4 L 343.5 156.6 L 342.6 155.6 L 334.2 146.6 L 330.5 142.3 L 324.9 134.7 L 322.8 131.3 L 321.2 128.3 L 317.2 118.2 L 316.1 112.9 L 316.0 107.8 L 316.4 105.0 L 318.5 100.2 L 319.6 99.0 L 323.1 97.5 L 323.8 97.5 L 325.1 97.5 L 328.1 98.3 L 330.1 99.2 L 333.8 101.8 L 335.7 103.4 L 339.2 107.1 L 340.3 108.4 L 341.9 110.4 L 344.3 113.6 L 345.5 115.3 L 353.5 124.4 L 356.4 126.7 L 362.8 130.0 L 366.3 131.1 L 379.1 132.5 L 382.2 132.3 L 386.9 131.5 L 396.9 127.7 L 399.8 126.0 L 406.7 120.6 L 411.2 115.5 L 418.1 104.9 L 423.4 96.0 L 425.3 92.8 L 430.7 83.6 L 432.5 80.4 L 436.0 73.9 L 437.2 71.1 L 438.7 66.6 L 439.0 63.1 L 437.9 57.8 L 436.2 54.7 L 433.8 52.0 L 431.2 50.0 L 429.6 49.0 L 426.0 47.1 L 424.0 46.3 L 416.5 43.5 L 412.4 42.2 L 411.0 41.8 L 401.7 40.2 L 397.8 40.0 L 386.2 40.4 L 381.7 41.0 L 373.6 42.5 L 369.2 43.6 L 358.1 46.9 L 353.2 48.8 L 343.8 53.1 L 332.6 59.9 L 328.5 63.1 L 316.3 75.1 L 312.8 79.4 L 305.1 92.4 L 300.8 101.9 L 298.8 107.1 L 292.3 131.0 L 291.0 137.1 L 288.3 149.5 L 286.9 156.9 L 285.6 165.5 L 284.8 171.3 L 283.9 184.5 L 283.6 192.2 L 283.6 193.4 L 284.4 215.2 L 285.1 222.3 L 287.6 239.0 L 288.8 246.1 L 293.2 266.2 L 295.4 275.7 L 299.5 292.0 L 301.5 299.7 Z" fill="none" stroke="#e10600" stroke-width="3" stroke-linejoin="round" filter="url(#glow)" opacity="0.85"/>
  <path d="M 301.5 299.7 L 304.3 311.0 L 306.5 319.3 L 310.0 332.3 L 311.1 336.5 L 314.6 349.5 L 316.9 358.0 L 321.1 372.8 L 322.4 377.3 L 323.8 381.7 L 325.9 387.8 L 328.2 393.5 L 331.9 400.4 L 333.2 402.4 L 338.2 407.5 L 339.1 408.2 L 344.5 410.0 L 347.2 410.0 L 349.8 409.4 L 353.4 407.5 L 354.9 406.5 L 358.1 403.9 L 359.9 402.2 L 364.2 398.6 L 365.5 397.6 L 368.1 396.1 L 374.6 394.2 L 379.5 395.1 L 390.4 399.5 L 395.1 401.3 L 400.5 402.9 L 405.4 403.8 L 412.5 404.2 L 415.7 404.0 L 419.5 403.6 L 432.4 399.9 L 435.2 398.6 L 447.8 389.7 L 450.2 387.3 L 458.2 377.0 L 459.5 374.8 L 462.4 369.0 L 466.3 358.2 L 467.6 353.4 L 470.3 342.6 L 472.0 335.8 L 474.8 324.7 L 476.8 316.6 L 480.7 300.1 L 481.2 297.9 L 482.6 292.3 L 487.0 274.7 L 489.6 264.5 L 492.9 251.9 L 495.0 243.8 L 500.6 222.5 L 503.2 212.7 L 504.3 208.6 L 508.3 193.9 L 509.8 188.3 L 512.8 177.5 L 515.0 169.6 L 516.1 163.3 L 516.4 159.0 L 515.9 152.0 L 515.2 149.2 L 514.3 146.5 L 510.3 140.7 L 506.9 138.0 L 501.4 135.1 L 496.4 133.5 L 489.1 131.9 L 483.6 131.1 L 476.5 130.9 L 471.0 130.9 L 463.3 131.9 L 450.5 136.3 L 444.6 139.9 L 437.8 145.2 L 434.9 147.8 L 427.5 156.3 L 425.2 159.6 L 422.2 163.8 L 416.0 172.6 L 413.8 175.7 L 407.4 184.8 L 403.6 190.1 L 396.2 201.0 L 393.5 205.1 L 386.3 215.8 L 381.9 222.3 L 377.6 228.6 L 369.9 239.2 L 365.7 243.4 L 356.9 249.2 L 348.5 251.7 L 341.9 252.4 L 336.3 252.1 L 333.0 251.4 L 328.5 249.7 L 323.3 247.1 L 316.7 241.4 L 314.4 238.8 L 308.1 227.6 L 306.9 224.2 L 305.1 217.3 L 303.8 211.0 L 303.1 205.8 L 302.6 199.9 L 302.6 197.7 L 304.2 187.9 L 305.4 185.1 L 307.1 182.5 L 308.5 181.2 L 310.7 180.2 L 314.0 179.8 L 315.3 179.9 L 320.8 181.9 L 321.6 182.3 L 326.2 184.7 L 328.7 186.0 L 333.0 187.7 L 334.8 188.2 L 339.0 188.6 L 344.8 187.5 L 347.1 186.0 L 350.2 182.6 L 350.9 181.2 L 352.0 175.8 L 352.0 174.1 L 351.7 171.9 L 349.7 165.9 L 347.1 161.4 L 343.5 156.6 L 342.6 155.6 L 334.2 146.6 L 330.5 142.3 L 324.9 134.7 L 322.8 131.3 L 321.2 128.3 L 317.2 118.2 L 316.1 112.9 L 316.0 107.8 L 316.4 105.0 L 318.5 100.2 L 319.6 99.0 L 323.1 97.5 L 323.8 97.5 L 325.1 97.5 L 328.1 98.3 L 330.1 99.2 L 333.8 101.8 L 335.7 103.4 L 339.2 107.1 L 340.3 108.4 L 341.9 110.4 L 344.3 113.6 L 345.5 115.3 L 353.5 124.4 L 356.4 126.7 L 362.8 130.0 L 366.3 131.1 L 379.1 132.5 L 382.2 132.3 L 386.9 131.5 L 396.9 127.7 L 399.8 126.0 L 406.7 120.6 L 411.2 115.5 L 418.1 104.9 L 423.4 96.0 L 425.3 92.8 L 430.7 83.6 L 432.5 80.4 L 436.0 73.9 L 437.2 71.1 L 438.7 66.6 L 439.0 63.1 L 437.9 57.8 L 436.2 54.7 L 433.8 52.0 L 431.2 50.0 L 429.6 49.0 L 426.0 47.1 L 424.0 46.3 L 416.5 43.5 L 412.4 42.2 L 411.0 41.8 L 401.7 40.2 L 397.8 40.0 L 386.2 40.4 L 381.7 41.0 L 373.6 42.5 L 369.2 43.6 L 358.1 46.9 L 353.2 48.8 L 343.8 53.1 L 332.6 59.9 L 328.5 63.1 L 316.3 75.1 L 312.8 79.4 L 305.1 92.4 L 300.8 101.9 L 298.8 107.1 L 292.3 131.0 L 291.0 137.1 L 288.3 149.5 L 286.9 156.9 L 285.6 165.5 L 284.8 171.3 L 283.9 184.5 L 283.6 192.2 L 283.6 193.4 L 284.4 215.2 L 285.1 222.3 L 287.6 239.0 L 288.8 246.1 L 293.2 266.2 L 295.4 275.7 L 299.5 292.0 L 301.5 299.7 Z" fill="none" stroke="#ffffff" stroke-width="0.7" stroke-dasharray="3 6"/>
  <text x="20" y="34" font-family="Inter,system-ui,sans-serif" font-size="14" font-weight="600" fill="#8a8aa3" letter-spacing="2">AUTODROMO JOSE CARLOS PACE</text>
</svg>
