<svg xmlns="http://www.w3.org/2000/svg" viewBox="0 0 800 450" width="800" height="450">
  <defs>
    <linearGradient id="bg" x1="0" y1="0" x2="0" y2="1">
      <stop offset="0%" stop-color="#1d1d36"/>
      <stop offset="100%" stop-color="#0e0e1a"/>
    </linearGradient>
    <pattern id="grid" width="40" height="40" patternUnits="userSpaceOnUse">
      <circle cx="2" cy="2" r="0.8" fill="#252548" opacity="0.6"/>
    </pattern>
    <filter id="glow">
      <feGaussianBlur stdDeviation="3.5"/>
    </filter>
  </defs>
  <rect width="800" height="450" fill="url(#bg)"/>
  <rect width="800" height="450" fill="url(#grid)"/>
  <path d="M 291.5 394.8 L 295.3 393.9 L 304.3 391.9 L 313.1 389.8 L 321.7 387.8 L 330.8 385.8 L 340.1 383.6 L 349.1 381.5 L 359.0 379.1 L 363.3 378.0 L 373.4 376.1 L 383.2 374.6 L 391.7 373.2 L 398.8 372.0 L 404.8 370.6 L 408.9 368.1 L 411.6 364.2 L 412.4 361.9 L 413.0 356.8 L 412.7 351.5 L 411.8 346.6 L 410.3 340.5 L 409.1 334.3 L 408.5 326.7 L 409.2 319.2 L 410.2 315.4 L 413.1 308.4 L 418.0 301.3 L 424.3 295.3 L 431.4 290.0 L 439.0 285.3 L 446.6 281.2 L 455.3 277.1 L 459.5 275.4 L 468.4 272.4 L 477.6 270.1 L 486.1 268.5 L 496.1 267.2 L 505.8 266.7 L 515.5 266.8 L 524.6 267.5 L 528.7 267.8 L 535.5 266.8 L 541.2 263.6 L 545.4 259.2 L 548.3 254.1 L 549.7 248.7 L 550.0 243.4 L 549.6 237.3 L 549.3 234.4 L 548.8 229.5 L 548.7 225.0 L 549.3 221.5 L 550.8 218.7 L 553.2 216.9 L 556.8 216.1 L 561.1 216.3 L 563.4 216.5 L 567.9 217.0 L 572.6 217.7 L 577.7 218.1 L 582.7 217.9 L 586.6 216.5 L 589.4 213.9 L 590.7 210.1 L 590.9 208.0 L 591.0 203.2 L 590.1 198.5 L 588.7 193.9 L 586.1 189.0 L 582.3 184.2 L 576.8 180.2 L 570.4 177.1 L 563.1 173.8 L 559.5 172.2 L 552.0 168.7 L 544.2 165.1 L 536.1 161.4 L 527.8 157.7 L 519.3 153.9 L 511.1 150.2 L 501.8 146.2 L 497.5 144.5 L 488.6 140.7 L 481.3 137.4 L 475.4 134.3 L 470.9 131.0 L 468.0 127.4 L 466.7 123.5 L 467.1 119.5 L 467.8 117.7 L 470.5 113.9 L 474.4 110.6 L 478.7 108.0 L 484.2 105.7 L 490.1 104.4 L 496.4 104.3 L 504.0 105.3 L 507.0 105.9 L 514.6 107.4 L 522.1 109.0 L 530.3 110.5 L 538.7 112.2 L 546.8 114.2 L 556.1 116.3 L 565.1 117.8 L 569.5 117.9 L 578.3 115.6 L 586.7 111.5 L 593.6 106.5 L 598.5 99.9 L 601.3 91.9 L 602.5 83.8 L 601.9 75.9 L 600.7 71.9 L 596.9 64.2 L 592.1 57.5 L 586.9 51.9 L 580.0 46.2 L 572.5 41.7 L 564.1 40.0 L 554.1 41.2 L 549.5 42.4 L 540.3 45.2 L 531.2 48.0 L 522.1 50.8 L 513.1 53.7 L 503.1 57.0 L 493.4 60.2 L 483.9 63.3 L 478.8 65.0 L 469.0 68.2 L 459.5 71.3 L 449.4 74.0 L 439.3 76.7 L 432.4 78.9 L 425.7 80.9 L 420.4 82.8 L 418.5 83.9 L 415.7 87.0 L 414.4 91.2 L 414.5 95.5 L 415.7 100.1 L 417.5 105.1 L 418.9 110.3 L 419.4 116.2 L 418.5 123.0 L 417.8 126.2 L 416.1 133.8 L 414.3 141.0 L 412.2 149.2 L 410.0 157.4 L 407.6 165.9 L 405.0 174.4 L 402.1 183.5 L 400.6 188.0 L 397.7 197.1 L 394.7 206.4 L 391.6 215.9 L 388.5 225.5 L 385.2 235.1 L 381.5 244.6 L 376.7 253.4 L 373.9 256.9 L 365.7 263.6 L 356.8 269.1 L 347.9 274.5 L 339.4 279.7 L 330.0 285.2 L 320.9 290.4 L 311.9 295.7 L 307.3 298.3 L 298.2 303.6 L 289.1 308.8 L 280.0 314.0 L 270.9 319.3 L 261.7 324.6 L 252.4 329.9 L 243.4 334.7 L 238.7 337.2 L 229.2 342.2 L 220.7 346.9 L 213.9 350.8 L 208.4 353.8 L 204.3 356.3 L 201.1 359.1 L 199.0 361.9 L 198.3 363.1 L 197.5 366.0 L 197.8 368.6 L 199.0 370.8 L 201.0 372.6 L 203.7 374.0 L 206.8 374.9 L 210.7 375.6 L 212.4 375.8 L 215.8 376.2 L 218.9 376.9 L 221.3 378.2 L 222.9 380.0 L 223.6 382.7 L 222.9 387.2 L 221.1 393.4 L 220.7 395.8 L 220.6 399.9 L 221.1 403.4 L 222.3 406.4 L 224.2 408.6 L 227.1 409.7 L 230.4 410.0 L 234.1 409.4 L 235.9 409.0 L 240.2 408.0 L 245.2 406.8 L 250.5 405.4 L 257.1 403.7 L 263.9 401.9 L 271.0 400.1 L 278.7 398.0 L 286.6 396.0 L 291.5 394.8 Z" fill="none" stroke="#2c2c4a" stroke-width="14" stroke-linejoin="round" stroke-linecap="round"/>
  <path d="M 291.5 394.8 L 295.3 393.9 L 304.3 391.9 L 313.1 389.8 L 321.7 387.8 L 330.8 385.8 L 340.1 383.6 L 349.1 381.5 L 359.0 379.1 L 363.3 378.0 L 373.4 376.1 L 383.2 374.6 L 391.7 373.2 L 398.8 372.0 L 404.8 370.6 L 408.9 368.1 L 411.6 364.2 L 412.4 361.9 L 413.0 356.8 L 412.7 351.5 L 411.8 346.6 L 410.3 340.5 L 409.1 334.3 L 408.5 326.7 L 409.2 319.2 L 410.2 315.4 L 413.1 308.4 L 418.0 301.3 L 424.3 295.3 L 431.4 290.0 L 439.0 285.3 L 446.6 281.2 L 455.3 277.1 L 459.5 275.4 L 468.4 272.4 L 477.6 270.1 L 486.1 268.5 L 496.1 267.2 L 505.8 266.7 L 515.5 266.8 L 524.6 267.5 L 528.7 267.8 L 535.5 266.8 L 541.2 263.6 L 545.4 259.2 L 548.3 254.1 L 549.7 248.7 L 550.0 243.4 L 549.6 237.3 L 549.3 234.4 L 548.8 229.5 L 548.7 225.0 L 549.3 221.5 L 550.8 218.7 L 553.2 216.9 L 556.8 216.1 L 561.1 216.3 L 563.4 216.5 L 567.9 217.0 L 572.6 217.7 L 577.7 218.1 L 582.7 217.9 L 586.6 216.5 L 589.4 213.9 L 590.7 210.1 L 590.9 208.0 L 591.0 203.2 L 590.1 198.5 L 588.7 193.9 L 586.1 189.0 L 582.3 184.2 L 576.8 180.2 L 570.4 177.1 L 563.1 173.8 L 559.5 172.2 L 552.0 168.7 L 544.2 165.1 L 536.1 161.4 L 527.8 157.7 L 519.3 153.9 L 511.1 150.2 L 501.8 146.2 L 497.5 144.5 L 488.6 140.7 L 481.3 137.4 L 475.4 134.3 L 470.9 131.0 L 468.0 127.4 L 466.7 123.5 L 467.1 119.5 L 467.8 117.7 L 470.5 113.9 L 474.4 110.6 L 478.7 108.0 L 484.2 105.7 L 490.1 104.4 L 496.4 104.3 L 504.0 105.3 L 507.0 105.9 L 514.6 107.4 L 522.1 109.0 L 530.3 110.5 L 538.7 112.2 L 546.8 114.2 L 556.1 116.3 L 565.1 117.8 L 569.5 117.9 L 578.3 115.6 L 586.7 111.5 L 593.6 106.5 L 598.5 99.9 L 601.3 91.9 L 602.5 83.8 L 601.9 75.9 L 600.7 71.9 L 596.9 64.2 L 592.1 57.5 L 586.9 51.9 L 580.0 46.2 L 572.5 41.7 L 564.1 40.0 L 554.1 41.2 L 549.5 42.4 L 540.3 45.2 L 531.2 48.0 L 522.1 50.8 L 513.1 53.7 L 503.1 57.0 L 493.4 60.2 L 483.9 63.3 L 478.8 65.0 L 469.0 68.2 L 459.5 71.3 L 449.4 74.0 L 439.3 76.7 L 432.4 78.9 L 425.7 80.9 L 420.4 82.8 L 418.5 83.9 L 415.7 87.0 L 414.4 91.2 L 414.5 95.5 L 415.7 100.1 L 417.5 105.1 L 418.9 110.3 L 419.4 116.2 L 418.5 123.0 L 417.8 126.2 L 416.1 133.8 L 414.3 141.0 L 412.2 149.2 L 410.0 157.4 L 407.6 165.9 L 405.0 174.4 L 402.1 183.5 L 400.6 188.0 L 397.7 197.1 L 394.7 206.4 L 391.6 215.9 L 388.5 225.5 L 385.2 235.1 L 381.5 244.6 L 376.7 253.4 L 373.9 256.9 L 365.7 263.6 L 356.8 269.1 L 347.9 274.5 L 339.4 279.7 L 330.0 285.2 L 320.9 290.4 L 311.9 295.7 L 307.3 298.3 L 298.2 303.6 L 289.1 308.8 L 280.0 314.0 L 270.9 319.3 L 261.7 324.6 L 252.4 329.9 L 243.4 334.7 L 238.7 337.2 L 229.2 342.2 L 220.7 346.9 L 213.9 350.8 L 208.4 353.8 L 204.3 356.3 L 201.1 359.1 L 199.0 361.9 L 198.3 363.1 L 197.5 366.0 L 197.8 368.6 L 199.0 370.8 L 201.0 372.6 L 203.7 374.0 L 206.8 374.9 L 210.7 375.6 L 212.4 375.8 L 215.8 376.2 L 218.9 376.9 L 221.3 378.2 L 222.9 380.0 L 223.6 382.7 L 222.9 387.2 L 221.1 393.4 L 220.7 395.8 L 220.6 399.9 L 221.1 403.4 L 222.3 406.4 L 224.2 408.6 L 227.1 409.7 L 230.4 410.0 L 234.1 409.4 L 235.9 409.0 L 240.2 408.0 L 245.2 406.8 L 250.5 405.4 L 257.1 403.7 L 263.9 401.9 L 271.0 400.1 L 278.7 398.0 L 286.6 396.0 L 291.5 394.8 Z" fill="none" stroke="#e10600" stroke-width="3" stroke-linejoin="round" filter="url(#glow)" opacity="0.85"/>
  <path d="M 291.5 394.8 L 295.3 393.9 L 304.3 391.9 L 313.1 389.8 L 321.7 387.8 L 330.8 385.8 L 340.1 383.6 L 349.1 381.5 L 359.0 379.1 L 363.3 378.0 L 373.4 376.1 L 383.2 374.6 L 391.7 373.2 L 398.8 372.0 L 404.8 370.6 L 408.9 368.1 L 411.6 364.2 L 412.4 361.9 L 413.0 356.8 L 412.7 351.5 L 411.8 346.6 L 410.3 340.5 L 409.1 334.3 L 408.5 326.7 L 409.2 319.2 L 410.2 315.4 L 413.1 308.4 L 418.0 301.3 L 424.3 295.3 L 431.4 290.0 L 439.0 285.3 L 446.6 281.2 L 455.3 277.1 L 459.5 275.4 L 468.4 272.4 L 477.6 270.1 L 486.1 268.5 L 496.1 267.2 L 505.8 266.7 L 515.5 266.8 L 524.6 267.5 L 528.7 267.8 L 535.5 266.8 L 541.2 263.6 L 545.4 259.2 L 548.3 254.1 L 549.7 248.7 L 550.0 243.4 L 549.6 237.3 L 549.3 234.4 L 548.8 229.5 L 548.7 225.0 L 549.3 221.5 L 550.8 218.7 L 553.2 216.9 L 556.8 216.1 L 561.1 216.3 L 563.4 216.5 L 567.9 217.0 L 572.6 217.7 L 577.7 218.1 L 582.7 217.9 L 586.6 216.5 L 589.4 213.9 L 590.7 210.1 L 590.9 208.0 L 591.0 203.2 L 590.1 198.5 L 588.7 193.9 L 586.1 189.0 L 582.3 184.2 L 576.8 180.2 L 570.4 177.1 L 563.1 173.8 L 559.5 172.2 L 552.0 168.7 L 544.2 165.1 L 536.1 161.4 L 527.8 157.7 L 519.3 153.9 L 511.1 150.2 L 501.8 146.2 L 497.5 144.5 L 488.6 140.7 L 481.3 137.4 L 475.4 134.3 L 470.9 131.0 L 468.0 127.4 L 466.7 123.5 L 467.1 119.5 L 467.8 117.7 L 470.5 113.9 L 474.4 110.6 L 478.7 108.0 L 484.2 105.7 L 490.1 104.4 L 496.4 104.3 L 504.0 105.3 L 507.0 105.9 L 514.6 107.4 L 522.1 109.0 L 530.3 110.5 L 538.7 112.2 L 546.8 114.2 L 556.1 116.3 L 565.1 117.8 L 569.5 117.9 L 578.3 115.6 L 586.7 111.5 L 593.6 106.5 L 598.5 99.9 L 601.3 91.9 L 602.5 83.8 L 601.9 75.9 L 600.7 71.9 L 596.9 64.2 L 592.1 57.5 L 586.9 51.9 L 580.0 46.2 L 572.5 41.7 L 564.1 40.0 L 554.1 41.2 L 549.5 42.4 L 540.3 45.2 L 531.2 48.0 L 522.1 50.8 L 513.1 53.7 L 503.1 57.0 L 493.4 60.2 L 483.9 63.3 L 478.8 65.0 L 469.0 68.2 L 459.5 71.3 L 449.4 74.0 L 439.3 76.7 L 432.4 78.9 L 425.7 80.9 L 420.4 82.8 L 418.5 83.9 L 415.7 87.0 L 414.4 91.2 L 414.5 95.5 L 415.7 100.1 L 417.5 105.1 L 418.9 110.3 L 419.4 116.2 L 418.5 123.0 L 417.8 126.2 L 416.1 133.8 L 414.3 141.0 L 412.2 149.2 L 410.0 157.4 L 407.6 165.9 L 405.0 174.4 L 402.1 183.5 L 400.6 188.0 L 397.7 197.1 L 394.7 206.4 L 391.6 215.9 L 388.5 225.5 L 385.2 235.1 L 381.5 244.6 L 376.7 253.4 L 373.9 256.9 L 365.7 263.6 L 356.8 269.1 L 347.9 274.5 L 339.4 279.7 L 330.0 285.2 L 320.9 290.4 L 311.9 295.7 L 307.3 298.3 L 298.2 303.6 L 289.1 308.8 L 280.0 314.0 L 270.9 319.3 L 261.7 324.6 L 252.4 329.9 L 243.4 334.7 L 238.7 337.2 L 229.2 342.2 L 220.7 346.9 L 213.9 350.8 L 208.4 353.8 L 204.3 356.3 L 201.1 359.1 L 199.0 361.9 L 198.3 363.1 L 197.5 366.0 L 197.8 368.6 L 199.0 370.8 L 201.0 372.6 L 203.7 374.0 L 206.8 374.9 L 210.7 375.6 L 212.4 375.8 L 215.8 376.2 L 218.9 376.9 L 221.3 378.2 L 222.9 380.0 L 223.6 382.7 L 222.9 387.2 L 221.1 393.4 L 220.7 395.8 L 220.6 399.9 L 221.1 403.4 L 222.3 406.4 L 224.2 408.6 L 227.1 409.7 L 230.4 410.0 L 234.1 409.4 L 235.9 409.0 L 240.2 408.0 L 245.2 406.8 L 250.5 405.4 L 257.1 403.7 L 263.9 401.9 L 271.0 400.1 L 278.7 398.0 L 286.6 396.0 L 291.5 394.8 Z" fill="none" stroke="#ffffff" stroke-width="0.7" stroke-dasharray="3 6"/>
  <text x="20" y="34" font-family="Inter,system-ui,sans-serif" font-size="14" font-weight="600" fill="#8a8aa3" letter-spacing="2">INTERCITY ISTANBUL PARK</text>
</svg>
