<svg xmlns="http://www.w3.org/2000/svg" viewBox="0 0 800 450" width="800" height="450">
  <defs>
    <linearGradient id="bg" x1="0" y1="0" x2="0" y2="1">
      <stop offset="0%" stop-color="#1d1d36"/>
      <stop offset="100%" stop-color="#0e0e1a"/>
    </linearGradient>
    <pattern id="grid" width="40" height="40" patternUnits="userSpaceOnUse">
      <circle cx="2" cy="2" r="0.8" fill="#252548" opacity="0.6"/>
    </pattern>
    <filter id="glow">
      <feGaussianBlur stdDeviation="3.5"/>
    </filter>
  </defs>
  <rect width="800" height="450" fill="url(#bg)"/>
  <rect width="800" height="450" fill="url(#grid)"/>
  <path d="M 420.6 328.6 L 419.6 326.0 L 417.8 321.0 L 417.1 319.0 L 414.9 313.0 L 412.9 307.5 L 412.5 306.6 L 409.9 299.3 L 408.4 294.2 L 407.8 292.1 L 406.3 286.5 L 405.6 283.9 L 403.9 277.9 L 402.6 273.8 L 402.1 272.7 L 401.0 270.9 L 398.3 269.4 L 397.4 269.5 L 395.9 269.8 L 395.1 269.9 L 393.4 269.7 L 392.5 269.2 L 392.1 268.6 L 391.6 267.2 L 391.6 265.0 L 391.7 263.7 L 392.1 260.8 L 392.6 258.6 L 392.8 257.6 L 393.8 252.4 L 393.9 251.2 L 393.9 246.7 L 393.5 242.8 L 393.3 241.1 L 392.8 237.5 L 392.0 231.1 L 391.7 229.2 L 391.2 225.2 L 391.0 223.4 L 390.3 218.4 L 389.9 213.8 L 389.7 211.8 L 388.2 209.6 L 385.7 208.4 L 383.5 207.4 L 380.9 205.3 L 379.5 203.5 L 378.1 200.6 L 377.1 196.8 L 376.9 194.6 L 376.9 191.9 L 377.8 187.8 L 379.2 185.0 L 380.7 182.4 L 381.9 176.6 L 381.8 175.5 L 380.7 169.7 L 379.7 166.5 L 377.0 162.7 L 373.2 160.3 L 372.2 158.8 L 370.9 152.1 L 371.0 148.1 L 371.1 145.7 L 372.1 141.5 L 372.6 140.6 L 374.6 137.7 L 378.8 134.8 L 380.8 133.7 L 383.6 131.5 L 385.3 128.5 L 386.1 125.2 L 386.9 121.1 L 388.0 116.7 L 389.1 112.9 L 390.0 109.6 L 390.7 105.9 L 391.3 101.4 L 391.9 94.7 L 392.2 90.2 L 392.3 85.6 L 392.1 81.6 L 392.0 77.4 L 391.7 71.9 L 391.6 69.7 L 391.4 65.6 L 391.2 61.6 L 391.0 58.1 L 390.4 53.4 L 389.5 48.4 L 389.2 47.4 L 387.2 43.0 L 386.0 41.8 L 383.0 40.2 L 379.5 40.4 L 378.4 41.0 L 376.6 42.7 L 375.5 44.3 L 374.8 46.0 L 374.3 48.6 L 374.1 52.5 L 374.3 54.7 L 375.2 59.0 L 376.1 61.3 L 378.8 65.8 L 380.6 69.0 L 381.5 70.9 L 382.6 74.6 L 383.1 77.3 L 383.4 80.0 L 383.6 84.0 L 383.6 85.4 L 383.0 91.0 L 382.3 94.2 L 381.8 95.8 L 379.6 100.9 L 376.6 108.1 L 375.8 110.9 L 375.1 114.7 L 374.7 117.2 L 373.7 120.0 L 371.4 122.4 L 370.4 122.9 L 367.3 123.4 L 363.2 126.6 L 362.2 128.4 L 361.3 131.7 L 360.8 137.3 L 360.8 138.8 L 360.8 143.9 L 361.1 146.9 L 361.6 150.6 L 363.6 157.7 L 364.5 160.2 L 366.7 165.3 L 368.5 169.7 L 369.5 172.8 L 371.1 179.6 L 371.4 181.9 L 371.8 186.4 L 371.9 191.2 L 372.1 193.9 L 372.6 198.7 L 373.6 204.0 L 374.3 206.4 L 375.5 209.7 L 377.2 213.3 L 378.3 215.3 L 382.8 223.4 L 384.3 227.0 L 385.4 230.5 L 386.9 238.1 L 387.3 240.9 L 387.6 250.6 L 386.9 258.8 L 386.6 261.1 L 386.0 265.3 L 385.8 266.8 L 385.9 269.2 L 387.0 271.7 L 388.0 272.8 L 390.6 275.0 L 393.7 277.5 L 395.5 279.8 L 396.7 283.0 L 397.0 284.7 L 397.4 292.0 L 396.8 297.2 L 395.5 301.2 L 393.5 305.4 L 390.7 311.0 L 390.0 312.3 L 387.2 318.3 L 385.7 322.6 L 384.6 326.9 L 384.0 332.7 L 383.9 334.2 L 384.3 340.9 L 385.3 347.0 L 385.8 348.8 L 387.6 356.4 L 389.6 363.6 L 390.2 365.4 L 393.0 372.3 L 394.3 374.7 L 396.3 377.8 L 400.1 382.8 L 402.9 385.8 L 405.9 388.7 L 410.1 392.6 L 412.4 394.8 L 418.6 399.8 L 421.3 401.8 L 424.2 404.0 L 427.7 406.6 L 428.9 407.5 L 431.6 409.4 L 434.4 410.0 L 436.1 409.5 L 437.9 408.2 L 438.9 406.4 L 439.1 405.8 L 439.2 403.0 L 438.9 401.4 L 438.0 397.6 L 437.5 395.0 L 436.9 392.4 L 436.3 389.3 L 435.6 385.8 L 434.7 381.6 L 433.9 378.1 L 433.6 376.7 L 432.7 372.8 L 431.4 367.1 L 430.7 364.1 L 429.4 358.1 L 427.7 350.7 L 426.9 347.8 L 424.0 338.4 L 421.4 330.8 L 420.6 328.6 Z" fill="none" stroke="#2c2c4a" stroke-width="14" stroke-linejoin="round" stroke-linecap="round"/>
  <path d="M 420.6 328.6 L 419.6 326.0 L 417.8 321.0 L 417.1 319.0 L 414.9 313.0 L 412.9 307.5 L 412.5 306.6 L 409.9 299.3 L 408.4 294.2 L 407.8 292.1 L 406.3 286.5 L 405.6 283.9 L 403.9 277.9 L 402.6 273.8 L 402.1 272.7 L 401.0 270.9 L 398.3 269.4 L 397.4 269.5 L 395.9 269.8 L 395.1 269.9 L 393.4 269.7 L 392.5 269.2 L 392.1 268.6 L 391.6 267.2 L 391.6 265.0 L 391.7 263.7 L 392.1 260.8 L 392.6 258.6 L 392.8 257.6 L 393.8 252.4 L 393.9 251.2 L 393.9 246.7 L 393.5 242.8 L 393.3 241.1 L 392.8 237.5 L 392.0 231.1 L 391.7 229.2 L 391.2 225.2 L 391.0 223.4 L 390.3 218.4 L 389.9 213.8 L 389.7 211.8 L 388.2 209.6 L 385.7 208.4 L 383.5 207.4 L 380.9 205.3 L 379.5 203.5 L 378.1 200.6 L 377.1 196.8 L 376.9 194.6 L 376.9 191.9 L 377.8 187.8 L 379.2 185.0 L 380.7 182.4 L 381.9 176.6 L 381.8 175.5 L 380.7 169.7 L 379.7 166.5 L 377.0 162.7 L 373.2 160.3 L 372.2 158.8 L 370.9 152.1 L 371.0 148.1 L 371.1 145.7 L 372.1 141.5 L 372.6 140.6 L 374.6 137.7 L 378.8 134.8 L 380.8 133.7 L 383.6 131.5 L 385.3 128.5 L 386.1 125.2 L 386.9 121.1 L 388.0 116.7 L 389.1 112.9 L 390.0 109.6 L 390.7 105.9 L 391.3 101.4 L 391.9 94.7 L 392.2 90.2 L 392.3 85.6 L 392.1 81.6 L 392.0 77.4 L 391.7 71.9 L 391.6 69.7 L 391.4 65.6 L 391.2 61.6 L 391.0 58.1 L 390.4 53.4 L 389.5 48.4 L 389.2 47.4 L 387.2 43.0 L 386.0 41.8 L 383.0 40.2 L 379.5 40.4 L 378.4 41.0 L 376.6 42.7 L 375.5 44.3 L 374.8 46.0 L 374.3 48.6 L 374.1 52.5 L 374.3 54.7 L 375.2 59.0 L 376.1 61.3 L 378.8 65.8 L 380.6 69.0 L 381.5 70.9 L 382.6 74.6 L 383.1 77.3 L 383.4 80.0 L 383.6 84.0 L 383.6 85.4 L 383.0 91.0 L 382.3 94.2 L 381.8 95.8 L 379.6 100.9 L 376.6 108.1 L 375.8 110.9 L 375.1 114.7 L 374.7 117.2 L 373.7 120.0 L 371.4 122.4 L 370.4 122.9 L 367.3 123.4 L 363.2 126.6 L 362.2 128.4 L 361.3 131.7 L 360.8 137.3 L 360.8 138.8 L 360.8 143.9 L 361.1 146.9 L 361.6 150.6 L 363.6 157.7 L 364.5 160.2 L 366.7 165.3 L 368.5 169.7 L 369.5 172.8 L 371.1 179.6 L 371.4 181.9 L 371.8 186.4 L 371.9 191.2 L 372.1 193.9 L 372.6 198.7 L 373.6 204.0 L 374.3 206.4 L 375.5 209.7 L 377.2 213.3 L 378.3 215.3 L 382.8 223.4 L 384.3 227.0 L 385.4 230.5 L 386.9 238.1 L 387.3 240.9 L 387.6 250.6 L 386.9 258.8 L 386.6 261.1 L 386.0 265.3 L 385.8 266.8 L 385.9 269.2 L 387.0 271.7 L 388.0 272.8 L 390.6 275.0 L 393.7 277.5 L 395.5 279.8 L 396.7 283.0 L 397.0 284.7 L 397.4 292.0 L 396.8 297.2 L 395.5 301.2 L 393.5 305.4 L 390.7 311.0 L 390.0 312.3 L 387.2 318.3 L 385.7 322.6 L 384.6 326.9 L 384.0 332.7 L 383.9 334.2 L 384.3 340.9 L 385.3 347.0 L 385.8 348.8 L 387.6 356.4 L 389.6 363.6 L 390.2 365.4 L 393.0 372.3 L 394.3 374.7 L 396.3 377.8 L 400.1 382.8 L 402.9 385.8 L 405.9 388.7 L 410.1 392.6 L 412.4 394.8 L 418.6 399.8 L 421.3 401.8 L 424.2 404.0 L 427.7 406.6 L 428.9 407.5 L 431.6 409.4 L 434.4 410.0 L 436.1 409.5 L 437.9 408.2 L 438.9 406.4 L 439.1 405.8 L 439.2 403.0 L 438.9 401.4 L 438.0 397.6 L 437.5 395.0 L 436.9 392.4 L 436.3 389.3 L 435.6 385.8 L 434.7 381.6 L 433.9 378.1 L 433.6 376.7 L 432.7 372.8 L 431.4 367.1 L 430.7 364.1 L 429.4 358.1 L 427.7 350.7 L 426.9 347.8 L 424.0 338.4 L 421.4 330.8 L 420.6 328.6 Z" fill="none" stroke="#e10600" stroke-width="3" stroke-linejoin="round" filter="url(#glow)" opacity="0.85"/>
  <path d="M 420.6 328.6 L 419.6 326.0 L 417.8 321.0 L 417.1 319.0 L 414.9 313.0 L 412.9 307.5 L 412.5 306.6 L 409.9 299.3 L 408.4 294.2 L 407.8 292.1 L 406.3 286.5 L 405.6 283.9 L 403.9 277.9 L 402.6 273.8 L 402.1 272.7 L 401.0 270.9 L 398.3 269.4 L 397.4 269.5 L 395.9 269.8 L 395.1 269.9 L 393.4 269.7 L 392.5 269.2 L 392.1 268.6 L 391.6 267.2 L 391.6 265.0 L 391.7 263.7 L 392.1 260.8 L 392.6 258.6 L 392.8 257.6 L 393.8 252.4 L 393.9 251.2 L 393.9 246.7 L 393.5 242.8 L 393.3 241.1 L 392.8 237.5 L 392.0 231.1 L 391.7 229.2 L 391.2 225.2 L 391.0 223.4 L 390.3 218.4 L 389.9 213.8 L 389.7 211.8 L 388.2 209.6 L 385.7 208.4 L 383.5 207.4 L 380.9 205.3 L 379.5 203.5 L 378.1 200.6 L 377.1 196.8 L 376.9 194.6 L 376.9 191.9 L 377.8 187.8 L 379.2 185.0 L 380.7 182.4 L 381.9 176.6 L 381.8 175.5 L 380.7 169.7 L 379.7 166.5 L 377.0 162.7 L 373.2 160.3 L 372.2 158.8 L 370.9 152.1 L 371.0 148.1 L 371.1 145.7 L 372.1 141.5 L 372.6 140.6 L 374.6 137.7 L 378.8 134.8 L 380.8 133.7 L 383.6 131.5 L 385.3 128.5 L 386.1 125.2 L 386.9 121.1 L 388.0 116.7 L 389.1 112.9 L 390.0 109.6 L 390.7 105.9 L 391.3 101.4 L 391.9 94.7 L 392.2 90.2 L 392.3 85.6 L 392.1 81.6 L 392.0 77.4 L 391.7 71.9 L 391.6 69.7 L 391.4 65.6 L 391.2 61.6 L 391.0 58.1 L 390.4 53.4 L 389.5 48.4 L 389.2 47.4 L 387.2 43.0 L 386.0 41.8 L 383.0 40.2 L 379.5 40.4 L 378.4 41.0 L 376.6 42.7 L 375.5 44.3 L 374.8 46.0 L 374.3 48.6 L 374.1 52.5 L 374.3 54.7 L 375.2 59.0 L 376.1 61.3 L 378.8 65.8 L 380.6 69.0 L 381.5 70.9 L 382.6 74.6 L 383.1 77.3 L 383.4 80.0 L 383.6 84.0 L 383.6 85.4 L 383.0 91.0 L 382.3 94.2 L 381.8 95.8 L 379.6 100.9 L 376.6 108.1 L 375.8 110.9 L 375.1 114.7 L 374.7 117.2 L 373.7 120.0 L 371.4 122.4 L 370.4 122.9 L 367.3 123.4 L 363.2 126.6 L 362.2 128.4 L 361.3 131.7 L 360.8 137.3 L 360.8 138.8 L 360.8 143.9 L 361.1 146.9 L 361.6 150.6 L 363.6 157.7 L 364.5 160.2 L 366.7 165.3 L 368.5 169.7 L 369.5 172.8 L 371.1 179.6 L 371.4 181.9 L 371.8 186.4 L 371.9 191.2 L 372.1 193.9 L 372.6 198.7 L 373.6 204.0 L 374.3 206.4 L 375.5 209.7 L 377.2 213.3 L 378.3 215.3 L 382.8 223.4 L 384.3 227.0 L 385.4 230.5 L 386.9 238.1 L 387.3 240.9 L 387.6 250.6 L 386.9 258.8 L 386.6 261.1 L 386.0 265.3 L 385.8 266.8 L 385.9 269.2 L 387.0 271.7 L 388.0 272.8 L 390.6 275.0 L 393.7 277.5 L 395.5 279.8 L 396.7 283.0 L 397.0 284.7 L 397.4 292.0 L 396.8 297.2 L 395.5 301.2 L 393.5 305.4 L 390.7 311.0 L 390.0 312.3 L 387.2 318.3 L 385.7 322.6 L 384.6 326.9 L 384.0 332.7 L 383.9 334.2 L 384.3 340.9 L 385.3 347.0 L 385.8 348.8 L 387.6 356.4 L 389.6 363.6 L 390.2 365.4 L 393.0 372.3 L 394.3 374.7 L 396.3 377.8 L 400.1 382.8 L 402.9 385.8 L 405.9 388.7 L 410.1 392.6 L 412.4 394.8 L 418.6 399.8 L 421.3 401.8 L 424.2 404.0 L 427.7 406.6 L 428.9 407.5 L 431.6 409.4 L 434.4 410.0 L 436.1 409.5 L 437.9 408.2 L 438.9 406.4 L 439.1 405.8 L 439.2 403.0 L 438.9 401.4 L 438.0 397.6 L 437.5 395.0 L 436.9 392.4 L 436.3 389.3 L 435.6 385.8 L 434.7 381.6 L 433.9 378.1 L 433.6 376.7 L 432.7 372.8 L 431.4 367.1 L 430.7 364.1 L 429.4 358.1 L 427.7 350.7 L 426.9 347.8 L 424.0 338.4 L 421.4 330.8 L 420.6 328.6 Z" fill="none" stroke="#ffffff" stroke-width="0.7" stroke-dasharray="3 6"/>
  <text x="20" y="34" font-family="Inter,system-ui,sans-serif" font-size="14" font-weight="600" fill="#8a8aa3" letter-spacing="2">JEDDAH CORNICHE CIRCUIT</text>
</svg>
