<svg xmlns="http://www.w3.org/2000/svg" viewBox="0 0 800 450" width="800" height="450">
  <defs>
    <linearGradient id="bg" x1="0" y1="0" x2="0" y2="1">
      <stop offset="0%" stop-color="#1d1d36"/>
      <stop offset="100%" stop-color="#0e0e1a"/>
    </linearGradient>
    <pattern id="grid" width="40" height="40" patternUnits="userSpaceOnUse">
      <circle cx="2" cy="2" r="0.8" fill="#252548" opacity="0.6"/>
    </pattern>
    <filter id="glow">
      <feGaussianBlur stdDeviation="3.5"/>
    </filter>
  </defs>
  <rect width="800" height="450" fill="url(#bg)"/>
  <rect width="800" height="450" fill="url(#grid)"/>
  <path d="M 405.1 243.9 L 400.5 240.3 L 391.6 233.4 L 380.9 226.0 L 375.8 222.8 L 365.2 216.0 L 358.3 211.7 L 354.0 208.9 L 342.4 201.5 L 334.8 195.7 L 320.4 183.0 L 316.7 180.1 L 310.0 176.1 L 303.3 173.0 L 299.8 171.8 L 291.5 171.0 L 287.4 172.3 L 282.1 175.5 L 274.8 180.2 L 269.4 182.9 L 260.5 184.1 L 255.1 183.1 L 249.1 181.0 L 241.9 177.2 L 239.0 175.4 L 229.3 168.6 L 223.4 163.5 L 218.9 159.7 L 210.7 153.4 L 193.4 141.5 L 184.2 136.2 L 178.0 133.0 L 167.9 128.1 L 158.0 123.6 L 149.9 119.8 L 138.9 115.0 L 129.7 111.0 L 124.8 107.4 L 122.8 105.0 L 119.7 98.3 L 118.8 91.0 L 118.3 85.7 L 116.7 81.1 L 112.7 76.6 L 110.4 75.1 L 104.8 73.4 L 101.2 73.3 L 96.4 73.8 L 93.6 74.2 L 87.2 74.9 L 83.8 74.4 L 82.1 73.3 L 80.6 70.3 L 80.5 65.5 L 80.5 64.8 L 80.9 60.8 L 81.8 54.7 L 83.7 48.6 L 85.2 45.9 L 89.3 42.2 L 94.2 40.3 L 100.0 40.0 L 107.6 41.9 L 114.0 45.3 L 119.6 49.8 L 122.0 52.2 L 127.0 58.8 L 131.1 65.2 L 132.9 68.2 L 139.6 78.7 L 144.9 84.9 L 148.8 87.9 L 157.4 92.1 L 169.8 96.4 L 181.9 100.3 L 185.9 101.5 L 197.4 105.1 L 207.8 108.3 L 211.5 109.5 L 223.5 113.2 L 232.4 116.0 L 242.6 119.5 L 258.1 125.0 L 267.2 128.2 L 277.7 131.9 L 286.4 134.9 L 297.6 138.6 L 303.4 140.5 L 310.7 143.0 L 323.5 147.2 L 340.7 152.9 L 344.1 154.0 L 357.5 158.4 L 374.6 164.5 L 380.4 166.8 L 386.2 169.1 L 395.6 172.9 L 410.7 178.5 L 417.9 181.1 L 427.0 184.2 L 439.5 188.0 L 447.5 189.1 L 452.0 188.2 L 455.4 186.1 L 460.2 181.8 L 461.8 180.5 L 466.9 177.4 L 472.9 176.6 L 474.8 177.2 L 479.0 179.9 L 483.8 185.1 L 488.1 190.2 L 489.9 191.9 L 494.0 194.9 L 498.1 197.6 L 501.4 199.7 L 508.3 204.1 L 518.8 210.8 L 524.3 213.7 L 535.6 218.4 L 547.1 222.7 L 556.1 226.2 L 560.3 227.7 L 572.0 232.1 L 578.5 234.5 L 585.2 236.6 L 595.2 239.7 L 606.6 243.2 L 616.9 246.3 L 620.6 247.4 L 638.1 252.7 L 649.1 256.1 L 653.4 257.4 L 664.9 260.9 L 678.5 265.1 L 685.6 267.8 L 696.5 274.3 L 705.8 284.4 L 713.7 299.2 L 716.4 308.8 L 718.0 322.5 L 719.1 336.7 L 719.2 342.3 L 719.4 356.4 L 719.6 370.5 L 719.5 378.0 L 717.2 388.6 L 712.0 396.7 L 703.6 404.0 L 699.7 406.4 L 690.2 409.8 L 681.9 409.5 L 677.6 407.9 L 669.5 402.4 L 664.8 395.4 L 663.7 391.6 L 664.3 381.4 L 666.1 375.3 L 671.5 365.1 L 674.8 360.9 L 679.6 355.1 L 685.3 348.5 L 688.8 344.5 L 693.2 336.2 L 695.2 325.7 L 694.8 317.7 L 694.4 315.8 L 691.3 309.9 L 687.5 307.0 L 685.5 306.2 L 681.1 305.7 L 674.6 307.1 L 672.2 308.2 L 667.7 310.4 L 666.5 310.9 L 654.4 315.5 L 647.1 317.3 L 636.1 318.8 L 623.2 319.5 L 614.7 318.8 L 605.9 316.1 L 593.4 309.5 L 590.8 308.0 L 579.2 299.9 L 570.1 293.2 L 561.0 290.4 L 554.7 290.1 L 547.3 292.2 L 542.4 295.8 L 540.9 297.5 L 537.9 302.1 L 535.4 308.8 L 535.1 314.2 L 535.8 317.4 L 536.8 321.6 L 535.3 327.4 L 534.6 328.2 L 531.4 330.5 L 528.9 331.0 L 527.1 330.8 L 525.0 329.9 L 520.7 327.2 L 514.7 322.7 L 513.3 321.6 L 508.0 317.3 L 503.4 313.6 L 499.9 311.0 L 494.7 307.1 L 486.3 301.0 L 483.4 299.0 L 476.7 294.1 L 466.6 286.8 L 460.3 282.4 L 456.3 279.6 L 449.7 275.0 L 441.1 269.0 L 436.9 266.1 L 429.5 261.1 L 418.1 253.1 L 409.3 246.9 L 405.1 243.9 Z" fill="none" stroke="#2c2c4a" stroke-width="14" stroke-linejoin="round" stroke-linecap="round"/>
  <path d="M 405.1 243.9 L 400.5 240.3 L 391.6 233.4 L 380.9 226.0 L 375.8 222.8 L 365.2 216.0 L 358.3 211.7 L 354.0 208.9 L 342.4 201.5 L 334.8 195.7 L 320.4 183.0 L 316.7 180.1 L 310.0 176.1 L 303.3 173.0 L 299.8 171.8 L 291.5 171.0 L 287.4 172.3 L 282.1 175.5 L 274.8 180.2 L 269.4 182.9 L 260.5 184.1 L 255.1 183.1 L 249.1 181.0 L 241.9 177.2 L 239.0 175.4 L 229.3 168.6 L 223.4 163.5 L 218.9 159.7 L 210.7 153.4 L 193.4 141.5 L 184.2 136.2 L 178.0 133.0 L 167.9 128.1 L 158.0 123.6 L 149.9 119.8 L 138.9 115.0 L 129.7 111.0 L 124.8 107.4 L 122.8 105.0 L 119.7 98.3 L 118.8 91.0 L 118.3 85.7 L 116.7 81.1 L 112.7 76.6 L 110.4 75.1 L 104.8 73.4 L 101.2 73.3 L 96.4 73.8 L 93.6 74.2 L 87.2 74.9 L 83.8 74.4 L 82.1 73.3 L 80.6 70.3 L 80.5 65.5 L 80.5 64.8 L 80.9 60.8 L 81.8 54.7 L 83.7 48.6 L 85.2 45.9 L 89.3 42.2 L 94.2 40.3 L 100.0 40.0 L 107.6 41.9 L 114.0 45.3 L 119.6 49.8 L 122.0 52.2 L 127.0 58.8 L 131.1 65.2 L 132.9 68.2 L 139.6 78.7 L 144.9 84.9 L 148.8 87.9 L 157.4 92.1 L 169.8 96.4 L 181.9 100.3 L 185.9 101.5 L 197.4 105.1 L 207.8 108.3 L 211.5 109.5 L 223.5 113.2 L 232.4 116.0 L 242.6 119.5 L 258.1 125.0 L 267.2 128.2 L 277.7 131.9 L 286.4 134.9 L 297.6 138.6 L 303.4 140.5 L 310.7 143.0 L 323.5 147.2 L 340.7 152.9 L 344.1 154.0 L 357.5 158.4 L 374.6 164.5 L 380.4 166.8 L 386.2 169.1 L 395.6 172.9 L 410.7 178.5 L 417.9 181.1 L 427.0 184.2 L 439.5 188.0 L 447.5 189.1 L 452.0 188.2 L 455.4 186.1 L 460.2 181.8 L 461.8 180.5 L 466.9 177.4 L 472.9 176.6 L 474.8 177.2 L 479.0 179.9 L 483.8 185.1 L 488.1 190.2 L 489.9 191.9 L 494.0 194.9 L 498.1 197.6 L 501.4 199.7 L 508.3 204.1 L 518.8 210.8 L 524.3 213.7 L 535.6 218.4 L 547.1 222.7 L 556.1 226.2 L 560.3 227.7 L 572.0 232.1 L 578.5 234.5 L 585.2 236.6 L 595.2 239.7 L 606.6 243.2 L 616.9 246.3 L 620.6 247.4 L 638.1 252.7 L 649.1 256.1 L 653.4 257.4 L 664.9 260.9 L 678.5 265.1 L 685.6 267.8 L 696.5 274.3 L 705.8 284.4 L 713.7 299.2 L 716.4 308.8 L 718.0 322.5 L 719.1 336.7 L 719.2 342.3 L 719.4 356.4 L 719.6 370.5 L 719.5 378.0 L 717.2 388.6 L 712.0 396.7 L 703.6 404.0 L 699.7 406.4 L 690.2 409.8 L 681.9 409.5 L 677.6 407.9 L 669.5 402.4 L 664.8 395.4 L 663.7 391.6 L 664.3 381.4 L 666.1 375.3 L 671.5 365.1 L 674.8 360.9 L 679.6 355.1 L 685.3 348.5 L 688.8 344.5 L 693.2 336.2 L 695.2 325.7 L 694.8 317.7 L 694.4 315.8 L 691.3 309.9 L 687.5 307.0 L 685.5 306.2 L 681.1 305.7 L 674.6 307.1 L 672.2 308.2 L 667.7 310.4 L 666.5 310.9 L 654.4 315.5 L 647.1 317.3 L 636.1 318.8 L 623.2 319.5 L 614.7 318.8 L 605.9 316.1 L 593.4 309.5 L 590.8 308.0 L 579.2 299.9 L 570.1 293.2 L 561.0 290.4 L 554.7 290.1 L 547.3 292.2 L 542.4 295.8 L 540.9 297.5 L 537.9 302.1 L 535.4 308.8 L 535.1 314.2 L 535.8 317.4 L 536.8 321.6 L 535.3 327.4 L 534.6 328.2 L 531.4 330.5 L 528.9 331.0 L 527.1 330.8 L 525.0 329.9 L 520.7 327.2 L 514.7 322.7 L 513.3 321.6 L 508.0 317.3 L 503.4 313.6 L 499.9 311.0 L 494.7 307.1 L 486.3 301.0 L 483.4 299.0 L 476.7 294.1 L 466.6 286.8 L 460.3 282.4 L 456.3 279.6 L 449.7 275.0 L 441.1 269.0 L 436.9 266.1 L 429.5 261.1 L 418.1 253.1 L 409.3 246.9 L 405.1 243.9 Z" fill="none" stroke="#e10600" stroke-width="3" stroke-linejoin="round" filter="url(#glow)" opacity="0.85"/>
  <path d="M 405.1 243.9 L 400.5 240.3 L 391.6 233.4 L 380.9 226.0 L 375.8 222.8 L 365.2 216.0 L 358.3 211.7 L 354.0 208.9 L 342.4 201.5 L 334.8 195.7 L 320.4 183.0 L 316.7 180.1 L 310.0 176.1 L 303.3 173.0 L 299.8 171.8 L 291.5 171.0 L 287.4 172.3 L 282.1 175.5 L 274.8 180.2 L 269.4 182.9 L 260.5 184.1 L 255.1 183.1 L 249.1 181.0 L 241.9 177.2 L 239.0 175.4 L 229.3 168.6 L 223.4 163.5 L 218.9 159.7 L 210.7 153.4 L 193.4 141.5 L 184.2 136.2 L 178.0 133.0 L 167.9 128.1 L 158.0 123.6 L 149.9 119.8 L 138.9 115.0 L 129.7 111.0 L 124.8 107.4 L 122.8 105.0 L 119.7 98.3 L 118.8 91.0 L 118.3 85.7 L 116.7 81.1 L 112.7 76.6 L 110.4 75.1 L 104.8 73.4 L 101.2 73.3 L 96.4 73.8 L 93.6 74.2 L 87.2 74.9 L 83.8 74.4 L 82.1 73.3 L 80.6 70.3 L 80.5 65.5 L 80.5 64.8 L 80.9 60.8 L 81.8 54.7 L 83.7 48.6 L 85.2 45.9 L 89.3 42.2 L 94.2 40.3 L 100.0 40.0 L 107.6 41.9 L 114.0 45.3 L 119.6 49.8 L 122.0 52.2 L 127.0 58.8 L 131.1 65.2 L 132.9 68.2 L 139.6 78.7 L 144.9 84.9 L 148.8 87.9 L 157.4 92.1 L 169.8 96.4 L 181.9 100.3 L 185.9 101.5 L 197.4 105.1 L 207.8 108.3 L 211.5 109.5 L 223.5 113.2 L 232.4 116.0 L 242.6 119.5 L 258.1 125.0 L 267.2 128.2 L 277.7 131.9 L 286.4 134.9 L 297.6 138.6 L 303.4 140.5 L 310.7 143.0 L 323.5 147.2 L 340.7 152.9 L 344.1 154.0 L 357.5 158.4 L 374.6 164.5 L 380.4 166.8 L 386.2 169.1 L 395.6 172.9 L 410.7 178.5 L 417.9 181.1 L 427.0 184.2 L 439.5 188.0 L 447.5 189.1 L 452.0 188.2 L 455.4 186.1 L 460.2 181.8 L 461.8 180.5 L 466.9 177.4 L 472.9 176.6 L 474.8 177.2 L 479.0 179.9 L 483.8 185.1 L 488.1 190.2 L 489.9 191.9 L 494.0 194.9 L 498.1 197.6 L 501.4 199.7 L 508.3 204.1 L 518.8 210.8 L 524.3 213.7 L 535.6 218.4 L 547.1 222.7 L 556.1 226.2 L 560.3 227.7 L 572.0 232.1 L 578.5 234.5 L 585.2 236.6 L 595.2 239.7 L 606.6 243.2 L 616.9 246.3 L 620.6 247.4 L 638.1 252.7 L 649.1 256.1 L 653.4 257.4 L 664.9 260.9 L 678.5 265.1 L 685.6 267.8 L 696.5 274.3 L 705.8 284.4 L 713.7 299.2 L 716.4 308.8 L 718.0 322.5 L 719.1 336.7 L 719.2 342.3 L 719.4 356.4 L 719.6 370.5 L 719.5 378.0 L 717.2 388.6 L 712.0 396.7 L 703.6 404.0 L 699.7 406.4 L 690.2 409.8 L 681.9 409.5 L 677.6 407.9 L 669.5 402.4 L 664.8 395.4 L 663.7 391.6 L 664.3 381.4 L 666.1 375.3 L 671.5 365.1 L 674.8 360.9 L 679.6 355.1 L 685.3 348.5 L 688.8 344.5 L 693.2 336.2 L 695.2 325.7 L 694.8 317.7 L 694.4 315.8 L 691.3 309.9 L 687.5 307.0 L 685.5 306.2 L 681.1 305.7 L 674.6 307.1 L 672.2 308.2 L 667.7 310.4 L 666.5 310.9 L 654.4 315.5 L 647.1 317.3 L 636.1 318.8 L 623.2 319.5 L 614.7 318.8 L 605.9 316.1 L 593.4 309.5 L 590.8 308.0 L 579.2 299.9 L 570.1 293.2 L 561.0 290.4 L 554.7 290.1 L 547.3 292.2 L 542.4 295.8 L 540.9 297.5 L 537.9 302.1 L 535.4 308.8 L 535.1 314.2 L 535.8 317.4 L 536.8 321.6 L 535.3 327.4 L 534.6 328.2 L 531.4 330.5 L 528.9 331.0 L 527.1 330.8 L 525.0 329.9 L 520.7 327.2 L 514.7 322.7 L 513.3 321.6 L 508.0 317.3 L 503.4 313.6 L 499.9 311.0 L 494.7 307.1 L 486.3 301.0 L 483.4 299.0 L 476.7 294.1 L 466.6 286.8 L 460.3 282.4 L 456.3 279.6 L 449.7 275.0 L 441.1 269.0 L 436.9 266.1 L 429.5 261.1 L 418.1 253.1 L 409.3 246.9 L 405.1 243.9 Z" fill="none" stroke="#ffffff" stroke-width="0.7" stroke-dasharray="3 6"/>
  <text x="20" y="34" font-family="Inter,system-ui,sans-serif" font-size="14" font-weight="600" fill="#8a8aa3" letter-spacing="2">LE CASTELLET</text>
</svg>
