<svg xmlns="http://www.w3.org/2000/svg" viewBox="0 0 800 450" width="800" height="450">
  <defs>
    <linearGradient id="bg" x1="0" y1="0" x2="0" y2="1">
      <stop offset="0%" stop-color="#1d1d36"/>
      <stop offset="100%" stop-color="#0e0e1a"/>
    </linearGradient>
    <pattern id="grid" width="40" height="40" patternUnits="userSpaceOnUse">
      <circle cx="2" cy="2" r="0.8" fill="#252548" opacity="0.6"/>
    </pattern>
    <filter id="glow">
      <feGaussianBlur stdDeviation="3.5"/>
    </filter>
  </defs>
  <rect width="800" height="450" fill="url(#bg)"/>
  <rect width="800" height="450" fill="url(#grid)"/>
  <path d="M 327.6 319.4 L 325.5 315.5 L 323.2 311.3 L 319.3 304.3 L 316.2 298.6 L 311.4 290.1 L 308.5 284.7 L 305.3 278.9 L 301.5 272.1 L 298.3 266.2 L 293.8 258.2 L 290.7 252.8 L 286.5 245.5 L 283.6 240.4 L 275.5 226.0 L 272.9 221.6 L 265.2 207.9 L 261.8 202.0 L 260.0 199.1 L 255.2 191.0 L 252.8 187.0 L 249.2 180.2 L 246.9 175.5 L 242.8 165.2 L 242.2 161.7 L 242.1 159.3 L 243.4 153.2 L 245.3 150.4 L 249.4 146.7 L 251.2 145.7 L 255.9 144.3 L 259.6 144.3 L 264.9 145.6 L 268.9 147.6 L 273.0 150.1 L 278.3 153.6 L 280.3 155.0 L 291.1 162.0 L 296.9 165.7 L 302.7 168.8 L 306.7 169.8 L 308.8 169.9 L 314.4 168.6 L 317.4 166.9 L 322.0 161.8 L 323.2 159.0 L 324.0 155.6 L 324.2 149.0 L 324.0 141.8 L 323.9 139.1 L 323.8 136.3 L 323.6 129.0 L 323.6 127.6 L 324.0 118.5 L 325.3 113.5 L 328.6 106.4 L 330.7 103.5 L 333.6 99.7 L 339.6 92.7 L 345.5 86.3 L 350.3 80.9 L 355.0 75.8 L 361.0 69.2 L 364.9 64.9 L 372.6 56.3 L 375.7 52.9 L 377.0 51.5 L 385.9 42.6 L 390.2 40.6 L 398.9 40.5 L 403.2 41.8 L 408.3 45.1 L 412.4 48.5 L 417.5 53.5 L 420.7 57.5 L 422.9 62.1 L 424.3 69.8 L 424.1 72.2 L 419.3 80.8 L 415.0 85.0 L 408.9 90.8 L 405.2 94.4 L 402.8 96.7 L 397.0 103.1 L 394.2 106.2 L 388.2 113.4 L 387.2 115.0 L 384.4 120.7 L 384.1 123.5 L 384.9 126.4 L 386.2 128.0 L 387.7 128.9 L 390.2 129.6 L 392.3 129.7 L 396.5 129.0 L 398.1 128.6 L 403.5 126.5 L 405.3 125.8 L 408.8 124.4 L 415.6 121.7 L 421.9 119.0 L 427.7 116.3 L 430.5 114.9 L 437.6 111.7 L 442.2 109.7 L 450.8 106.0 L 454.3 104.5 L 457.5 103.4 L 462.7 102.3 L 464.8 102.2 L 474.9 106.0 L 478.0 109.4 L 480.2 113.6 L 480.8 116.2 L 481.0 118.4 L 480.2 123.0 L 479.8 124.1 L 475.7 129.9 L 473.9 131.6 L 469.3 135.8 L 464.8 141.0 L 459.2 149.6 L 456.3 154.8 L 455.2 157.3 L 451.2 168.8 L 449.3 175.2 L 447.2 179.2 L 443.5 183.5 L 433.7 188.2 L 426.4 190.1 L 419.0 191.5 L 411.3 192.9 L 406.4 193.9 L 400.8 196.3 L 398.7 198.3 L 395.9 203.4 L 395.2 207.8 L 396.7 213.0 L 398.3 215.4 L 398.7 216.0 L 404.9 222.8 L 406.5 224.2 L 413.8 229.8 L 415.9 231.1 L 420.7 234.0 L 427.5 237.2 L 435.8 240.3 L 436.5 240.5 L 440.2 241.5 L 449.4 243.3 L 453.1 243.6 L 459.5 243.7 L 465.2 243.6 L 472.5 243.2 L 475.2 242.9 L 479.4 242.4 L 490.8 241.1 L 496.2 240.5 L 509.2 238.7 L 515.6 237.8 L 529.5 238.8 L 533.2 240.3 L 542.6 247.4 L 545.9 251.6 L 549.1 256.7 L 553.8 265.7 L 556.1 270.9 L 557.9 280.5 L 556.3 288.2 L 548.9 301.2 L 546.5 304.8 L 545.8 305.7 L 539.9 314.1 L 538.1 316.7 L 525.4 324.3 L 520.0 324.2 L 509.3 322.4 L 503.4 321.1 L 494.9 319.1 L 489.3 317.8 L 483.6 316.7 L 472.9 314.5 L 471.3 314.3 L 459.1 312.8 L 455.6 313.3 L 443.5 321.8 L 441.2 325.5 L 437.7 331.6 L 434.6 338.2 L 432.8 342.2 L 428.1 352.3 L 426.2 356.5 L 421.6 366.2 L 418.6 372.1 L 416.4 376.3 L 414.1 380.8 L 410.6 387.5 L 406.9 394.4 L 402.7 401.5 L 398.7 406.1 L 396.3 407.9 L 391.2 409.8 L 387.6 410.0 L 384.4 409.6 L 377.1 406.0 L 374.2 403.1 L 371.0 398.4 L 369.8 396.3 L 364.1 385.4 L 363.0 383.4 L 358.2 374.7 L 356.7 372.0 L 355.2 369.2 L 351.6 362.7 L 349.5 359.0 L 346.3 353.2 L 342.8 347.0 L 335.3 333.2 L 334.1 331.0 L 329.7 323.1 L 327.6 319.4 Z" fill="none" stroke="#2c2c4a" stroke-width="14" stroke-linejoin="round" stroke-linecap="round"/>
  <path d="M 327.6 319.4 L 325.5 315.5 L 323.2 311.3 L 319.3 304.3 L 316.2 298.6 L 311.4 290.1 L 308.5 284.7 L 305.3 278.9 L 301.5 272.1 L 298.3 266.2 L 293.8 258.2 L 290.7 252.8 L 286.5 245.5 L 283.6 240.4 L 275.5 226.0 L 272.9 221.6 L 265.2 207.9 L 261.8 202.0 L 260.0 199.1 L 255.2 191.0 L 252.8 187.0 L 249.2 180.2 L 246.9 175.5 L 242.8 165.2 L 242.2 161.7 L 242.1 159.3 L 243.4 153.2 L 245.3 150.4 L 249.4 146.7 L 251.2 145.7 L 255.9 144.3 L 259.6 144.3 L 264.9 145.6 L 268.9 147.6 L 273.0 150.1 L 278.3 153.6 L 280.3 155.0 L 291.1 162.0 L 296.9 165.7 L 302.7 168.8 L 306.7 169.8 L 308.8 169.9 L 314.4 168.6 L 317.4 166.9 L 322.0 161.8 L 323.2 159.0 L 324.0 155.6 L 324.2 149.0 L 324.0 141.8 L 323.9 139.1 L 323.8 136.3 L 323.6 129.0 L 323.6 127.6 L 324.0 118.5 L 325.3 113.5 L 328.6 106.4 L 330.7 103.5 L 333.6 99.7 L 339.6 92.7 L 345.5 86.3 L 350.3 80.9 L 355.0 75.8 L 361.0 69.2 L 364.9 64.9 L 372.6 56.3 L 375.7 52.9 L 377.0 51.5 L 385.9 42.6 L 390.2 40.6 L 398.9 40.5 L 403.2 41.8 L 408.3 45.1 L 412.4 48.5 L 417.5 53.5 L 420.7 57.5 L 422.9 62.1 L 424.3 69.8 L 424.1 72.2 L 419.3 80.8 L 415.0 85.0 L 408.9 90.8 L 405.2 94.4 L 402.8 96.7 L 397.0 103.1 L 394.2 106.2 L 388.2 113.4 L 387.2 115.0 L 384.4 120.7 L 384.1 123.5 L 384.9 126.4 L 386.2 128.0 L 387.7 128.9 L 390.2 129.6 L 392.3 129.7 L 396.5 129.0 L 398.1 128.6 L 403.5 126.5 L 405.3 125.8 L 408.8 124.4 L 415.6 121.7 L 421.9 119.0 L 427.7 116.3 L 430.5 114.9 L 437.6 111.7 L 442.2 109.7 L 450.8 106.0 L 454.3 104.5 L 457.5 103.4 L 462.7 102.3 L 464.8 102.2 L 474.9 106.0 L 478.0 109.4 L 480.2 113.6 L 480.8 116.2 L 481.0 118.4 L 480.2 123.0 L 479.8 124.1 L 475.7 129.9 L 473.9 131.6 L 469.3 135.8 L 464.8 141.0 L 459.2 149.6 L 456.3 154.8 L 455.2 157.3 L 451.2 168.8 L 449.3 175.2 L 447.2 179.2 L 443.5 183.5 L 433.7 188.2 L 426.4 190.1 L 419.0 191.5 L 411.3 192.9 L 406.4 193.9 L 400.8 196.3 L 398.7 198.3 L 395.9 203.4 L 395.2 207.8 L 396.7 213.0 L 398.3 215.4 L 398.7 216.0 L 404.9 222.8 L 406.5 224.2 L 413.8 229.8 L 415.9 231.1 L 420.7 234.0 L 427.5 237.2 L 435.8 240.3 L 436.5 240.5 L 440.2 241.5 L 449.4 243.3 L 453.1 243.6 L 459.5 243.7 L 465.2 243.6 L 472.5 243.2 L 475.2 242.9 L 479.4 242.4 L 490.8 241.1 L 496.2 240.5 L 509.2 238.7 L 515.6 237.8 L 529.5 238.8 L 533.2 240.3 L 542.6 247.4 L 545.9 251.6 L 549.1 256.7 L 553.8 265.7 L 556.1 270.9 L 557.9 280.5 L 556.3 288.2 L 548.9 301.2 L 546.5 304.8 L 545.8 305.7 L 539.9 314.1 L 538.1 316.7 L 525.4 324.3 L 520.0 324.2 L 509.3 322.4 L 503.4 321.1 L 494.9 319.1 L 489.3 317.8 L 483.6 316.7 L 472.9 314.5 L 471.3 314.3 L 459.1 312.8 L 455.6 313.3 L 443.5 321.8 L 441.2 325.5 L 437.7 331.6 L 434.6 338.2 L 432.8 342.2 L 428.1 352.3 L 426.2 356.5 L 421.6 366.2 L 418.6 372.1 L 416.4 376.3 L 414.1 380.8 L 410.6 387.5 L 406.9 394.4 L 402.7 401.5 L 398.7 406.1 L 396.3 407.9 L 391.2 409.8 L 387.6 410.0 L 384.4 409.6 L 377.1 406.0 L 374.2 403.1 L 371.0 398.4 L 369.8 396.3 L 364.1 385.4 L 363.0 383.4 L 358.2 374.7 L 356.7 372.0 L 355.2 369.2 L 351.6 362.7 L 349.5 359.0 L 346.3 353.2 L 342.8 347.0 L 335.3 333.2 L 334.1 331.0 L 329.7 323.1 L 327.6 319.4 Z" fill="none" stroke="#e10600" stroke-width="3" stroke-linejoin="round" filter="url(#glow)" opacity="0.85"/>
  <path d="M 327.6 319.4 L 325.5 315.5 L 323.2 311.3 L 319.3 304.3 L 316.2 298.6 L 311.4 290.1 L 308.5 284.7 L 305.3 278.9 L 301.5 272.1 L 298.3 266.2 L 293.8 258.2 L 290.7 252.8 L 286.5 245.5 L 283.6 240.4 L 275.5 226.0 L 272.9 221.6 L 265.2 207.9 L 261.8 202.0 L 260.0 199.1 L 255.2 191.0 L 252.8 187.0 L 249.2 180.2 L 246.9 175.5 L 242.8 165.2 L 242.2 161.7 L 242.1 159.3 L 243.4 153.2 L 245.3 150.4 L 249.4 146.7 L 251.2 145.7 L 255.9 144.3 L 259.6 144.3 L 264.9 145.6 L 268.9 147.6 L 273.0 150.1 L 278.3 153.6 L 280.3 155.0 L 291.1 162.0 L 296.9 165.7 L 302.7 168.8 L 306.7 169.8 L 308.8 169.9 L 314.4 168.6 L 317.4 166.9 L 322.0 161.8 L 323.2 159.0 L 324.0 155.6 L 324.2 149.0 L 324.0 141.8 L 323.9 139.1 L 323.8 136.3 L 323.6 129.0 L 323.6 127.6 L 324.0 118.5 L 325.3 113.5 L 328.6 106.4 L 330.7 103.5 L 333.6 99.7 L 339.6 92.7 L 345.5 86.3 L 350.3 80.9 L 355.0 75.8 L 361.0 69.2 L 364.9 64.9 L 372.6 56.3 L 375.7 52.9 L 377.0 51.5 L 385.9 42.6 L 390.2 40.6 L 398.9 40.5 L 403.2 41.8 L 408.3 45.1 L 412.4 48.5 L 417.5 53.5 L 420.7 57.5 L 422.9 62.1 L 424.3 69.8 L 424.1 72.2 L 419.3 80.8 L 415.0 85.0 L 408.9 90.8 L 405.2 94.4 L 402.8 96.7 L 397.0 103.1 L 394.2 106.2 L 388.2 113.4 L 387.2 115.0 L 384.4 120.7 L 384.1 123.5 L 384.9 126.4 L 386.2 128.0 L 387.7 128.9 L 390.2 129.6 L 392.3 129.7 L 396.5 129.0 L 398.1 128.6 L 403.5 126.5 L 405.3 125.8 L 408.8 124.4 L 415.6 121.7 L 421.9 119.0 L 427.7 116.3 L 430.5 114.9 L 437.6 111.7 L 442.2 109.7 L 450.8 106.0 L 454.3 104.5 L 457.5 103.4 L 462.7 102.3 L 464.8 102.2 L 474.9 106.0 L 478.0 109.4 L 480.2 113.6 L 480.8 116.2 L 481.0 118.4 L 480.2 123.0 L 479.8 124.1 L 475.7 129.9 L 473.9 131.6 L 469.3 135.8 L 464.8 141.0 L 459.2 149.6 L 456.3 154.8 L 455.2 157.3 L 451.2 168.8 L 449.3 175.2 L 447.2 179.2 L 443.5 183.5 L 433.7 188.2 L 426.4 190.1 L 419.0 191.5 L 411.3 192.9 L 406.4 193.9 L 400.8 196.3 L 398.7 198.3 L 395.9 203.4 L 395.2 207.8 L 396.7 213.0 L 398.3 215.4 L 398.7 216.0 L 404.9 222.8 L 406.5 224.2 L 413.8 229.8 L 415.9 231.1 L 420.7 234.0 L 427.5 237.2 L 435.8 240.3 L 436.5 240.5 L 440.2 241.5 L 449.4 243.3 L 453.1 243.6 L 459.5 243.7 L 465.2 243.6 L 472.5 243.2 L 475.2 242.9 L 479.4 242.4 L 490.8 241.1 L 496.2 240.5 L 509.2 238.7 L 515.6 237.8 L 529.5 238.8 L 533.2 240.3 L 542.6 247.4 L 545.9 251.6 L 549.1 256.7 L 553.8 265.7 L 556.1 270.9 L 557.9 280.5 L 556.3 288.2 L 548.9 301.2 L 546.5 304.8 L 545.8 305.7 L 539.9 314.1 L 538.1 316.7 L 525.4 324.3 L 520.0 324.2 L 509.3 322.4 L 503.4 321.1 L 494.9 319.1 L 489.3 317.8 L 483.6 316.7 L 472.9 314.5 L 471.3 314.3 L 459.1 312.8 L 455.6 313.3 L 443.5 321.8 L 441.2 325.5 L 437.7 331.6 L 434.6 338.2 L 432.8 342.2 L 428.1 352.3 L 426.2 356.5 L 421.6 366.2 L 418.6 372.1 L 416.4 376.3 L 414.1 380.8 L 410.6 387.5 L 406.9 394.4 L 402.7 401.5 L 398.7 406.1 L 396.3 407.9 L 391.2 409.8 L 387.6 410.0 L 384.4 409.6 L 377.1 406.0 L 374.2 403.1 L 371.0 398.4 L 369.8 396.3 L 364.1 385.4 L 363.0 383.4 L 358.2 374.7 L 356.7 372.0 L 355.2 369.2 L 351.6 362.7 L 349.5 359.0 L 346.3 353.2 L 342.8 347.0 L 335.3 333.2 L 334.1 331.0 L 329.7 323.1 L 327.6 319.4 Z" fill="none" stroke="#ffffff" stroke-width="0.7" stroke-dasharray="3 6"/>
  <text x="20" y="34" font-family="Inter,system-ui,sans-serif" font-size="14" font-weight="600" fill="#8a8aa3" letter-spacing="2">LOSAIL INTERNATIONAL CIRCUIT</text>
</svg>
