<svg xmlns="http://www.w3.org/2000/svg" viewBox="0 0 800 450" width="800" height="450">
  <defs>
    <linearGradient id="bg" x1="0" y1="0" x2="0" y2="1">
      <stop offset="0%" stop-color="#1d1d36"/>
      <stop offset="100%" stop-color="#0e0e1a"/>
    </linearGradient>
    <pattern id="grid" width="40" height="40" patternUnits="userSpaceOnUse">
      <circle cx="2" cy="2" r="0.8" fill="#252548" opacity="0.6"/>
    </pattern>
    <filter id="glow">
      <feGaussianBlur stdDeviation="3.5"/>
    </filter>
  </defs>
  <rect width="800" height="450" fill="url(#bg)"/>
  <rect width="800" height="450" fill="url(#grid)"/>
  <path d="M 370.4 319.2 L 367.9 316.8 L 362.6 311.7 L 357.8 307.1 L 354.7 304.3 L 346.8 296.7 L 340.8 291.0 L 335.7 286.2 L 332.1 282.8 L 326.6 277.5 L 324.5 275.4 L 321.9 272.4 L 320.2 269.6 L 318.8 264.1 L 319.0 262.1 L 319.5 259.6 L 320.6 255.0 L 321.1 253.2 L 321.4 248.6 L 321.2 245.8 L 320.3 241.3 L 318.6 236.9 L 315.6 232.4 L 313.5 229.8 L 307.4 224.2 L 303.8 221.1 L 298.9 216.7 L 294.9 212.9 L 290.9 208.9 L 288.8 206.8 L 287.0 205.0 L 282.3 200.0 L 279.7 197.0 L 273.6 190.0 L 271.2 187.0 L 264.3 178.2 L 262.4 175.5 L 257.9 169.2 L 255.3 165.4 L 252.9 161.8 L 249.3 156.3 L 245.8 150.7 L 245.2 149.6 L 243.7 145.1 L 243.6 143.4 L 243.7 142.2 L 244.6 139.4 L 245.5 138.3 L 251.6 136.0 L 253.5 135.8 L 258.7 135.2 L 260.7 134.9 L 263.8 134.3 L 265.5 133.7 L 271.2 129.2 L 272.4 127.0 L 273.4 122.4 L 273.4 120.2 L 272.9 115.4 L 272.1 110.3 L 271.7 107.5 L 270.9 102.6 L 270.5 98.9 L 270.5 94.9 L 270.7 92.0 L 274.1 82.0 L 276.1 79.5 L 282.7 73.5 L 284.9 71.8 L 292.6 66.4 L 295.9 64.4 L 303.1 60.6 L 306.3 59.2 L 315.2 55.3 L 318.9 53.7 L 322.7 52.0 L 328.7 49.2 L 331.7 47.8 L 339.9 43.1 L 341.5 42.1 L 346.5 40.0 L 349.9 40.0 L 354.1 41.6 L 355.7 42.7 L 361.7 46.9 L 367.2 49.0 L 375.7 50.9 L 378.8 51.5 L 382.8 52.3 L 388.6 53.9 L 391.6 55.0 L 395.5 56.8 L 400.4 59.9 L 406.2 65.4 L 410.1 70.4 L 416.3 82.9 L 417.2 85.9 L 419.1 93.2 L 419.7 96.0 L 421.2 104.6 L 421.6 109.0 L 421.7 114.6 L 421.5 118.1 L 421.2 121.5 L 420.6 129.0 L 419.9 133.7 L 417.5 141.4 L 415.8 145.9 L 413.6 152.5 L 412.8 155.1 L 410.3 162.4 L 409.3 164.8 L 404.9 174.7 L 403.6 179.2 L 402.5 187.1 L 402.4 190.4 L 403.1 201.9 L 403.7 206.5 L 404.6 211.6 L 408.8 224.4 L 411.8 230.9 L 415.8 238.1 L 418.0 241.5 L 422.4 247.1 L 425.0 249.9 L 436.4 260.8 L 439.2 263.2 L 444.3 267.3 L 447.1 269.5 L 453.9 273.7 L 455.6 274.3 L 460.2 274.9 L 463.1 274.7 L 465.4 274.4 L 475.4 273.3 L 479.7 273.4 L 485.3 274.9 L 487.9 276.4 L 493.9 281.1 L 497.5 284.3 L 502.7 288.6 L 507.9 292.9 L 512.4 296.8 L 518.4 302.0 L 522.0 305.3 L 524.7 308.1 L 530.0 315.0 L 532.9 319.7 L 536.1 325.8 L 539.7 334.8 L 541.3 339.1 L 544.4 348.4 L 545.9 352.9 L 548.2 360.1 L 549.1 363.0 L 552.2 372.6 L 553.0 375.1 L 554.6 381.5 L 555.3 385.2 L 556.0 388.7 L 556.3 390.7 L 556.4 392.0 L 556.2 394.3 L 555.9 395.6 L 554.0 398.0 L 552.8 398.7 L 544.0 401.4 L 542.4 401.9 L 537.4 403.2 L 534.7 403.8 L 531.3 404.6 L 528.9 405.2 L 520.8 407.3 L 517.2 408.2 L 511.2 409.8 L 509.9 409.9 L 506.0 410.0 L 499.6 407.6 L 496.9 405.4 L 492.5 400.1 L 491.4 398.4 L 488.9 393.9 L 487.4 390.9 L 484.2 384.2 L 482.7 380.9 L 480.2 376.1 L 479.1 374.5 L 477.6 372.2 L 476.4 370.8 L 473.8 369.2 L 472.9 369.0 L 470.6 369.2 L 468.5 370.3 L 467.2 371.3 L 465.3 373.5 L 464.1 375.3 L 462.3 378.5 L 460.5 380.9 L 457.9 383.3 L 455.0 385.0 L 450.8 386.5 L 448.5 386.7 L 445.3 386.4 L 442.6 385.7 L 437.5 383.3 L 434.5 381.1 L 432.9 379.6 L 420.8 368.0 L 419.1 366.3 L 414.8 362.1 L 413.1 360.4 L 407.6 355.0 L 406.9 354.4 L 402.4 349.9 L 396.9 344.6 L 390.1 337.9 L 387.0 334.9 L 382.5 330.6 L 379.2 327.5 L 374.1 322.6 L 370.4 319.2 Z" fill="none" stroke="#2c2c4a" stroke-width="14" stroke-linejoin="round" stroke-linecap="round"/>
  <path d="M 370.4 319.2 L 367.9 316.8 L 362.6 311.7 L 357.8 307.1 L 354.7 304.3 L 346.8 296.7 L 340.8 291.0 L 335.7 286.2 L 332.1 282.8 L 326.6 277.5 L 324.5 275.4 L 321.9 272.4 L 320.2 269.6 L 318.8 264.1 L 319.0 262.1 L 319.5 259.6 L 320.6 255.0 L 321.1 253.2 L 321.4 248.6 L 321.2 245.8 L 320.3 241.3 L 318.6 236.9 L 315.6 232.4 L 313.5 229.8 L 307.4 224.2 L 303.8 221.1 L 298.9 216.7 L 294.9 212.9 L 290.9 208.9 L 288.8 206.8 L 287.0 205.0 L 282.3 200.0 L 279.7 197.0 L 273.6 190.0 L 271.2 187.0 L 264.3 178.2 L 262.4 175.5 L 257.9 169.2 L 255.3 165.4 L 252.9 161.8 L 249.3 156.3 L 245.8 150.7 L 245.2 149.6 L 243.7 145.1 L 243.6 143.4 L 243.7 142.2 L 244.6 139.4 L 245.5 138.3 L 251.6 136.0 L 253.5 135.8 L 258.7 135.2 L 260.7 134.9 L 263.8 134.3 L 265.5 133.7 L 271.2 129.2 L 272.4 127.0 L 273.4 122.4 L 273.4 120.2 L 272.9 115.4 L 272.1 110.3 L 271.7 107.5 L 270.9 102.6 L 270.5 98.9 L 270.5 94.9 L 270.7 92.0 L 274.1 82.0 L 276.1 79.5 L 282.7 73.5 L 284.9 71.8 L 292.6 66.4 L 295.9 64.4 L 303.1 60.6 L 306.3 59.2 L 315.2 55.3 L 318.9 53.7 L 322.7 52.0 L 328.7 49.2 L 331.7 47.8 L 339.9 43.1 L 341.5 42.1 L 346.5 40.0 L 349.9 40.0 L 354.1 41.6 L 355.7 42.7 L 361.7 46.9 L 367.2 49.0 L 375.7 50.9 L 378.8 51.5 L 382.8 52.3 L 388.6 53.9 L 391.6 55.0 L 395.5 56.8 L 400.4 59.9 L 406.2 65.4 L 410.1 70.4 L 416.3 82.9 L 417.2 85.9 L 419.1 93.2 L 419.7 96.0 L 421.2 104.6 L 421.6 109.0 L 421.7 114.6 L 421.5 118.1 L 421.2 121.5 L 420.6 129.0 L 419.9 133.7 L 417.5 141.4 L 415.8 145.9 L 413.6 152.5 L 412.8 155.1 L 410.3 162.4 L 409.3 164.8 L 404.9 174.7 L 403.6 179.2 L 402.5 187.1 L 402.4 190.4 L 403.1 201.9 L 403.7 206.5 L 404.6 211.6 L 408.8 224.4 L 411.8 230.9 L 415.8 238.1 L 418.0 241.5 L 422.4 247.1 L 425.0 249.9 L 436.4 260.8 L 439.2 263.2 L 444.3 267.3 L 447.1 269.5 L 453.9 273.7 L 455.6 274.3 L 460.2 274.9 L 463.1 274.7 L 465.4 274.4 L 475.4 273.3 L 479.7 273.4 L 485.3 274.9 L 487.9 276.4 L 493.9 281.1 L 497.5 284.3 L 502.7 288.6 L 507.9 292.9 L 512.4 296.8 L 518.4 302.0 L 522.0 305.3 L 524.7 308.1 L 530.0 315.0 L 532.9 319.7 L 536.1 325.8 L 539.7 334.8 L 541.3 339.1 L 544.4 348.4 L 545.9 352.9 L 548.2 360.1 L 549.1 363.0 L 552.2 372.6 L 553.0 375.1 L 554.6 381.5 L 555.3 385.2 L 556.0 388.7 L 556.3 390.7 L 556.4 392.0 L 556.2 394.3 L 555.9 395.6 L 554.0 398.0 L 552.8 398.7 L 544.0 401.4 L 542.4 401.9 L 537.4 403.2 L 534.7 403.8 L 531.3 404.6 L 528.9 405.2 L 520.8 407.3 L 517.2 408.2 L 511.2 409.8 L 509.9 409.9 L 506.0 410.0 L 499.6 407.6 L 496.9 405.4 L 492.5 400.1 L 491.4 398.4 L 488.9 393.9 L 487.4 390.9 L 484.2 384.2 L 482.7 380.9 L 480.2 376.1 L 479.1 374.5 L 477.6 372.2 L 476.4 370.8 L 473.8 369.2 L 472.9 369.0 L 470.6 369.2 L 468.5 370.3 L 467.2 371.3 L 465.3 373.5 L 464.1 375.3 L 462.3 378.5 L 460.5 380.9 L 457.9 383.3 L 455.0 385.0 L 450.8 386.5 L 448.5 386.7 L 445.3 386.4 L 442.6 385.7 L 437.5 383.3 L 434.5 381.1 L 432.9 379.6 L 420.8 368.0 L 419.1 366.3 L 414.8 362.1 L 413.1 360.4 L 407.6 355.0 L 406.9 354.4 L 402.4 349.9 L 396.9 344.6 L 390.1 337.9 L 387.0 334.9 L 382.5 330.6 L 379.2 327.5 L 374.1 322.6 L 370.4 319.2 Z" fill="none" stroke="#e10600" stroke-width="3" stroke-linejoin="round" filter="url(#glow)" opacity="0.85"/>
  <path d="M 370.4 319.2 L 367.9 316.8 L 362.6 311.7 L 357.8 307.1 L 354.7 304.3 L 346.8 296.7 L 340.8 291.0 L 335.7 286.2 L 332.1 282.8 L 326.6 277.5 L 324.5 275.4 L 321.9 272.4 L 320.2 269.6 L 318.8 264.1 L 319.0 262.1 L 319.5 259.6 L 320.6 255.0 L 321.1 253.2 L 321.4 248.6 L 321.2 245.8 L 320.3 241.3 L 318.6 236.9 L 315.6 232.4 L 313.5 229.8 L 307.4 224.2 L 303.8 221.1 L 298.9 216.7 L 294.9 212.9 L 290.9 208.9 L 288.8 206.8 L 287.0 205.0 L 282.3 200.0 L 279.7 197.0 L 273.6 190.0 L 271.2 187.0 L 264.3 178.2 L 262.4 175.5 L 257.9 169.2 L 255.3 165.4 L 252.9 161.8 L 249.3 156.3 L 245.8 150.7 L 245.2 149.6 L 243.7 145.1 L 243.6 143.4 L 243.7 142.2 L 244.6 139.4 L 245.5 138.3 L 251.6 136.0 L 253.5 135.8 L 258.7 135.2 L 260.7 134.9 L 263.8 134.3 L 265.5 133.7 L 271.2 129.2 L 272.4 127.0 L 273.4 122.4 L 273.4 120.2 L 272.9 115.4 L 272.1 110.3 L 271.7 107.5 L 270.9 102.6 L 270.5 98.9 L 270.5 94.9 L 270.7 92.0 L 274.1 82.0 L 276.1 79.5 L 282.7 73.5 L 284.9 71.8 L 292.6 66.4 L 295.9 64.4 L 303.1 60.6 L 306.3 59.2 L 315.2 55.3 L 318.9 53.7 L 322.7 52.0 L 328.7 49.2 L 331.7 47.8 L 339.9 43.1 L 341.5 42.1 L 346.5 40.0 L 349.9 40.0 L 354.1 41.6 L 355.7 42.7 L 361.7 46.9 L 367.2 49.0 L 375.7 50.9 L 378.8 51.5 L 382.8 52.3 L 388.6 53.9 L 391.6 55.0 L 395.5 56.8 L 400.4 59.9 L 406.2 65.4 L 410.1 70.4 L 416.3 82.9 L 417.2 85.9 L 419.1 93.2 L 419.7 96.0 L 421.2 104.6 L 421.6 109.0 L 421.7 114.6 L 421.5 118.1 L 421.2 121.5 L 420.6 129.0 L 419.9 133.7 L 417.5 141.4 L 415.8 145.9 L 413.6 152.5 L 412.8 155.1 L 410.3 162.4 L 409.3 164.8 L 404.9 174.7 L 403.6 179.2 L 402.5 187.1 L 402.4 190.4 L 403.1 201.9 L 403.7 206.5 L 404.6 211.6 L 408.8 224.4 L 411.8 230.9 L 415.8 238.1 L 418.0 241.5 L 422.4 247.1 L 425.0 249.9 L 436.4 260.8 L 439.2 263.2 L 444.3 267.3 L 447.1 269.5 L 453.9 273.7 L 455.6 274.3 L 460.2 274.9 L 463.1 274.7 L 465.4 274.4 L 475.4 273.3 L 479.7 273.4 L 485.3 274.9 L 487.9 276.4 L 493.9 281.1 L 497.5 284.3 L 502.7 288.6 L 507.9 292.9 L 512.4 296.8 L 518.4 302.0 L 522.0 305.3 L 524.7 308.1 L 530.0 315.0 L 532.9 319.7 L 536.1 325.8 L 539.7 334.8 L 541.3 339.1 L 544.4 348.4 L 545.9 352.9 L 548.2 360.1 L 549.1 363.0 L 552.2 372.6 L 553.0 375.1 L 554.6 381.5 L 555.3 385.2 L 556.0 388.7 L 556.3 390.7 L 556.4 392.0 L 556.2 394.3 L 555.9 395.6 L 554.0 398.0 L 552.8 398.7 L 544.0 401.4 L 542.4 401.9 L 537.4 403.2 L 534.7 403.8 L 531.3 404.6 L 528.9 405.2 L 520.8 407.3 L 517.2 408.2 L 511.2 409.8 L 509.9 409.9 L 506.0 410.0 L 499.6 407.6 L 496.9 405.4 L 492.5 400.1 L 491.4 398.4 L 488.9 393.9 L 487.4 390.9 L 484.2 384.2 L 482.7 380.9 L 480.2 376.1 L 479.1 374.5 L 477.6 372.2 L 476.4 370.8 L 473.8 369.2 L 472.9 369.0 L 470.6 369.2 L 468.5 370.3 L 467.2 371.3 L 465.3 373.5 L 464.1 375.3 L 462.3 378.5 L 460.5 380.9 L 457.9 383.3 L 455.0 385.0 L 450.8 386.5 L 448.5 386.7 L 445.3 386.4 L 442.6 385.7 L 437.5 383.3 L 434.5 381.1 L 432.9 379.6 L 420.8 368.0 L 419.1 366.3 L 414.8 362.1 L 413.1 360.4 L 407.6 355.0 L 406.9 354.4 L 402.4 349.9 L 396.9 344.6 L 390.1 337.9 L 387.0 334.9 L 382.5 330.6 L 379.2 327.5 L 374.1 322.6 L 370.4 319.2 Z" fill="none" stroke="#ffffff" stroke-width="0.7" stroke-dasharray="3 6"/>
  <text x="20" y="34" font-family="Inter,system-ui,sans-serif" font-size="14" font-weight="600" fill="#8a8aa3" letter-spacing="2">ALBERT PARK CIRCUIT</text>
</svg>
