<svg xmlns="http://www.w3.org/2000/svg" viewBox="0 0 800 450" width="800" height="450">
  <defs>
    <linearGradient id="bg" x1="0" y1="0" x2="0" y2="1">
      <stop offset="0%" stop-color="#1d1d36"/>
      <stop offset="100%" stop-color="#0e0e1a"/>
    </linearGradient>
    <pattern id="grid" width="40" height="40" patternUnits="userSpaceOnUse">
      <circle cx="2" cy="2" r="0.8" fill="#252548" opacity="0.6"/>
    </pattern>
    <filter id="glow">
      <feGaussianBlur stdDeviation="3.5"/>
    </filter>
  </defs>
  <rect width="800" height="450" fill="url(#bg)"/>
  <rect width="800" height="450" fill="url(#grid)"/>
  <path d="M 226.5 43.4 L 236.6 44.9 L 242.6 45.9 L 257.6 48.5 L 258.1 48.6 L 263.8 49.5 L 279.3 52.0 L 282.8 52.5 L 288.7 53.4 L 307.1 56.2 L 315.6 57.5 L 326.6 59.2 L 342.2 61.5 L 345.3 62.0 L 350.2 62.7 L 364.6 64.7 L 373.4 65.9 L 379.1 66.5 L 397.5 68.7 L 407.1 69.7 L 411.6 70.3 L 434.7 73.0 L 441.8 73.8 L 452.2 75.0 L 463.8 76.3 L 472.3 77.3 L 476.8 77.9 L 496.4 80.4 L 503.5 81.4 L 515.9 83.0 L 534.8 85.5 L 541.4 86.3 L 549.0 87.3 L 563.2 89.2 L 573.0 90.5 L 574.3 90.7 L 595.9 93.5 L 607.2 94.9 L 621.9 97.0 L 627.1 98.1 L 629.5 98.8 L 634.1 100.8 L 637.9 103.2 L 639.7 104.9 L 642.4 108.7 L 643.5 111.4 L 644.1 113.9 L 644.3 119.0 L 643.8 122.2 L 643.5 124.0 L 642.7 130.4 L 642.9 132.3 L 643.6 135.1 L 646.0 138.8 L 649.3 141.5 L 653.2 144.0 L 657.1 148.1 L 658.2 150.7 L 658.7 153.3 L 658.6 159.0 L 657.7 164.0 L 657.2 166.1 L 655.4 172.4 L 654.4 175.5 L 652.5 180.7 L 648.7 189.7 L 646.4 194.3 L 644.0 199.1 L 639.1 207.5 L 635.6 213.2 L 631.9 219.1 L 621.7 234.6 L 619.1 238.6 L 613.3 248.1 L 611.0 251.8 L 605.6 261.0 L 596.4 276.8 L 592.2 283.8 L 588.9 289.3 L 582.7 299.4 L 579.2 305.0 L 574.6 312.3 L 568.2 321.9 L 563.0 329.5 L 557.3 337.7 L 550.1 347.8 L 547.3 352.1 L 546.0 354.5 L 543.9 360.2 L 543.7 361.9 L 543.7 365.1 L 545.6 369.9 L 547.7 372.0 L 549.0 372.9 L 552.1 374.6 L 554.8 376.1 L 557.3 378.1 L 558.5 379.4 L 559.6 381.6 L 560.1 384.1 L 558.7 388.5 L 557.9 389.7 L 556.4 391.1 L 551.9 394.5 L 550.8 395.3 L 537.7 404.8 L 531.2 408.9 L 529.5 409.5 L 526.2 410.0 L 521.0 409.1 L 518.5 407.5 L 515.9 403.5 L 514.9 400.3 L 514.6 398.2 L 514.6 393.5 L 515.1 388.7 L 515.8 384.4 L 517.1 377.0 L 518.2 371.5 L 518.8 368.2 L 520.2 360.1 L 520.9 356.0 L 521.9 350.5 L 523.3 343.5 L 524.1 339.5 L 525.0 334.9 L 528.0 318.5 L 528.6 314.6 L 529.3 307.0 L 528.3 297.1 L 527.0 293.6 L 522.4 286.5 L 516.8 281.8 L 513.7 279.7 L 510.1 277.4 L 499.1 267.6 L 494.8 261.8 L 492.9 258.7 L 469.6 237.1 L 466.0 235.9 L 461.9 234.9 L 449.3 233.8 L 440.4 233.7 L 435.4 233.3 L 423.8 229.9 L 417.9 225.5 L 413.4 219.7 L 411.0 215.6 L 409.8 213.1 L 405.6 203.0 L 404.0 199.9 L 400.1 193.8 L 393.8 188.1 L 386.0 183.2 L 382.3 181.2 L 368.8 174.7 L 361.0 171.5 L 355.1 169.4 L 343.5 166.0 L 335.6 164.0 L 330.2 162.8 L 319.4 160.7 L 307.8 158.8 L 302.6 158.1 L 289.3 156.5 L 284.0 155.9 L 277.6 155.1 L 265.2 153.8 L 254.4 152.6 L 247.4 151.8 L 230.9 149.9 L 224.4 148.9 L 220.9 147.9 L 214.8 144.8 L 211.8 142.0 L 209.9 139.7 L 206.9 132.6 L 206.1 127.3 L 206.0 125.4 L 206.3 115.3 L 206.7 109.9 L 206.8 107.2 L 207.0 97.6 L 206.8 94.0 L 205.9 89.7 L 204.5 86.4 L 202.1 84.2 L 198.6 83.1 L 196.8 83.1 L 195.2 83.5 L 192.5 85.2 L 190.7 86.6 L 189.7 87.5 L 186.9 89.6 L 184.8 90.7 L 182.7 91.5 L 170.1 91.2 L 168.4 90.8 L 163.2 89.9 L 156.3 88.9 L 153.3 88.5 L 150.9 88.1 L 143.9 84.4 L 142.3 81.6 L 141.7 79.4 L 141.3 73.8 L 141.7 71.0 L 142.3 68.6 L 143.6 64.7 L 145.1 61.7 L 147.4 58.2 L 152.0 53.0 L 156.8 49.2 L 163.5 45.4 L 171.6 42.5 L 180.1 40.8 L 184.2 40.3 L 196.4 40.1 L 204.8 40.6 L 216.5 42.0 L 226.5 43.4 Z" fill="none" stroke="#2c2c4a" stroke-width="14" stroke-linejoin="round" stroke-linecap="round"/>
  <path d="M 226.5 43.4 L 236.6 44.9 L 242.6 45.9 L 257.6 48.5 L 258.1 48.6 L 263.8 49.5 L 279.3 52.0 L 282.8 52.5 L 288.7 53.4 L 307.1 56.2 L 315.6 57.5 L 326.6 59.2 L 342.2 61.5 L 345.3 62.0 L 350.2 62.7 L 364.6 64.7 L 373.4 65.9 L 379.1 66.5 L 397.5 68.7 L 407.1 69.7 L 411.6 70.3 L 434.7 73.0 L 441.8 73.8 L 452.2 75.0 L 463.8 76.3 L 472.3 77.3 L 476.8 77.9 L 496.4 80.4 L 503.5 81.4 L 515.9 83.0 L 534.8 85.5 L 541.4 86.3 L 549.0 87.3 L 563.2 89.2 L 573.0 90.5 L 574.3 90.7 L 595.9 93.5 L 607.2 94.9 L 621.9 97.0 L 627.1 98.1 L 629.5 98.8 L 634.1 100.8 L 637.9 103.2 L 639.7 104.9 L 642.4 108.7 L 643.5 111.4 L 644.1 113.9 L 644.3 119.0 L 643.8 122.2 L 643.5 124.0 L 642.7 130.4 L 642.9 132.3 L 643.6 135.1 L 646.0 138.8 L 649.3 141.5 L 653.2 144.0 L 657.1 148.1 L 658.2 150.7 L 658.7 153.3 L 658.6 159.0 L 657.7 164.0 L 657.2 166.1 L 655.4 172.4 L 654.4 175.5 L 652.5 180.7 L 648.7 189.7 L 646.4 194.3 L 644.0 199.1 L 639.1 207.5 L 635.6 213.2 L 631.9 219.1 L 621.7 234.6 L 619.1 238.6 L 613.3 248.1 L 611.0 251.8 L 605.6 261.0 L 596.4 276.8 L 592.2 283.8 L 588.9 289.3 L 582.7 299.4 L 579.2 305.0 L 574.6 312.3 L 568.2 321.9 L 563.0 329.5 L 557.3 337.7 L 550.1 347.8 L 547.3 352.1 L 546.0 354.5 L 543.9 360.2 L 543.7 361.9 L 543.7 365.1 L 545.6 369.9 L 547.7 372.0 L 549.0 372.9 L 552.1 374.6 L 554.8 376.1 L 557.3 378.1 L 558.5 379.4 L 559.6 381.6 L 560.1 384.1 L 558.7 388.5 L 557.9 389.7 L 556.4 391.1 L 551.9 394.5 L 550.8 395.3 L 537.7 404.8 L 531.2 408.9 L 529.5 409.5 L 526.2 410.0 L 521.0 409.1 L 518.5 407.5 L 515.9 403.5 L 514.9 400.3 L 514.6 398.2 L 514.6 393.5 L 515.1 388.7 L 515.8 384.4 L 517.1 377.0 L 518.2 371.5 L 518.8 368.2 L 520.2 360.1 L 520.9 356.0 L 521.9 350.5 L 523.3 343.5 L 524.1 339.5 L 525.0 334.9 L 528.0 318.5 L 528.6 314.6 L 529.3 307.0 L 528.3 297.1 L 527.0 293.6 L 522.4 286.5 L 516.8 281.8 L 513.7 279.7 L 510.1 277.4 L 499.1 267.6 L 494.8 261.8 L 492.9 258.7 L 469.6 237.1 L 466.0 235.9 L 461.9 234.9 L 449.3 233.8 L 440.4 233.7 L 435.4 233.3 L 423.8 229.9 L 417.9 225.5 L 413.4 219.7 L 411.0 215.6 L 409.8 213.1 L 405.6 203.0 L 404.0 199.9 L 400.1 193.8 L 393.8 188.1 L 386.0 183.2 L 382.3 181.2 L 368.8 174.7 L 361.0 171.5 L 355.1 169.4 L 343.5 166.0 L 335.6 164.0 L 330.2 162.8 L 319.4 160.7 L 307.8 158.8 L 302.6 158.1 L 289.3 156.5 L 284.0 155.9 L 277.6 155.1 L 265.2 153.8 L 254.4 152.6 L 247.4 151.8 L 230.9 149.9 L 224.4 148.9 L 220.9 147.9 L 214.8 144.8 L 211.8 142.0 L 209.9 139.7 L 206.9 132.6 L 206.1 127.3 L 206.0 125.4 L 206.3 115.3 L 206.7 109.9 L 206.8 107.2 L 207.0 97.6 L 206.8 94.0 L 205.9 89.7 L 204.5 86.4 L 202.1 84.2 L 198.6 83.1 L 196.8 83.1 L 195.2 83.5 L 192.5 85.2 L 190.7 86.6 L 189.7 87.5 L 186.9 89.6 L 184.8 90.7 L 182.7 91.5 L 170.1 91.2 L 168.4 90.8 L 163.2 89.9 L 156.3 88.9 L 153.3 88.5 L 150.9 88.1 L 143.9 84.4 L 142.3 81.6 L 141.7 79.4 L 141.3 73.8 L 141.7 71.0 L 142.3 68.6 L 143.6 64.7 L 145.1 61.7 L 147.4 58.2 L 152.0 53.0 L 156.8 49.2 L 163.5 45.4 L 171.6 42.5 L 180.1 40.8 L 184.2 40.3 L 196.4 40.1 L 204.8 40.6 L 216.5 42.0 L 226.5 43.4 Z" fill="none" stroke="#e10600" stroke-width="3" stroke-linejoin="round" filter="url(#glow)" opacity="0.85"/>
  <path d="M 226.5 43.4 L 236.6 44.9 L 242.6 45.9 L 257.6 48.5 L 258.1 48.6 L 263.8 49.5 L 279.3 52.0 L 282.8 52.5 L 288.7 53.4 L 307.1 56.2 L 315.6 57.5 L 326.6 59.2 L 342.2 61.5 L 345.3 62.0 L 350.2 62.7 L 364.6 64.7 L 373.4 65.9 L 379.1 66.5 L 397.5 68.7 L 407.1 69.7 L 411.6 70.3 L 434.7 73.0 L 441.8 73.8 L 452.2 75.0 L 463.8 76.3 L 472.3 77.3 L 476.8 77.9 L 496.4 80.4 L 503.5 81.4 L 515.9 83.0 L 534.8 85.5 L 541.4 86.3 L 549.0 87.3 L 563.2 89.2 L 573.0 90.5 L 574.3 90.7 L 595.9 93.5 L 607.2 94.9 L 621.9 97.0 L 627.1 98.1 L 629.5 98.8 L 634.1 100.8 L 637.9 103.2 L 639.7 104.9 L 642.4 108.7 L 643.5 111.4 L 644.1 113.9 L 644.3 119.0 L 643.8 122.2 L 643.5 124.0 L 642.7 130.4 L 642.9 132.3 L 643.6 135.1 L 646.0 138.8 L 649.3 141.5 L 653.2 144.0 L 657.1 148.1 L 658.2 150.7 L 658.7 153.3 L 658.6 159.0 L 657.7 164.0 L 657.2 166.1 L 655.4 172.4 L 654.4 175.5 L 652.5 180.7 L 648.7 189.7 L 646.4 194.3 L 644.0 199.1 L 639.1 207.5 L 635.6 213.2 L 631.9 219.1 L 621.7 234.6 L 619.1 238.6 L 613.3 248.1 L 611.0 251.8 L 605.6 261.0 L 596.4 276.8 L 592.2 283.8 L 588.9 289.3 L 582.7 299.4 L 579.2 305.0 L 574.6 312.3 L 568.2 321.9 L 563.0 329.5 L 557.3 337.7 L 550.1 347.8 L 547.3 352.1 L 546.0 354.5 L 543.9 360.2 L 543.7 361.9 L 543.7 365.1 L 545.6 369.9 L 547.7 372.0 L 549.0 372.9 L 552.1 374.6 L 554.8 376.1 L 557.3 378.1 L 558.5 379.4 L 559.6 381.6 L 560.1 384.1 L 558.7 388.5 L 557.9 389.7 L 556.4 391.1 L 551.9 394.5 L 550.8 395.3 L 537.7 404.8 L 531.2 408.9 L 529.5 409.5 L 526.2 410.0 L 521.0 409.1 L 518.5 407.5 L 515.9 403.5 L 514.9 400.3 L 514.6 398.2 L 514.6 393.5 L 515.1 388.7 L 515.8 384.4 L 517.1 377.0 L 518.2 371.5 L 518.8 368.2 L 520.2 360.1 L 520.9 356.0 L 521.9 350.5 L 523.3 343.5 L 524.1 339.5 L 525.0 334.9 L 528.0 318.5 L 528.6 314.6 L 529.3 307.0 L 528.3 297.1 L 527.0 293.6 L 522.4 286.5 L 516.8 281.8 L 513.7 279.7 L 510.1 277.4 L 499.1 267.6 L 494.8 261.8 L 492.9 258.7 L 469.6 237.1 L 466.0 235.9 L 461.9 234.9 L 449.3 233.8 L 440.4 233.7 L 435.4 233.3 L 423.8 229.9 L 417.9 225.5 L 413.4 219.7 L 411.0 215.6 L 409.8 213.1 L 405.6 203.0 L 404.0 199.9 L 400.1 193.8 L 393.8 188.1 L 386.0 183.2 L 382.3 181.2 L 368.8 174.7 L 361.0 171.5 L 355.1 169.4 L 343.5 166.0 L 335.6 164.0 L 330.2 162.8 L 319.4 160.7 L 307.8 158.8 L 302.6 158.1 L 289.3 156.5 L 284.0 155.9 L 277.6 155.1 L 265.2 153.8 L 254.4 152.6 L 247.4 151.8 L 230.9 149.9 L 224.4 148.9 L 220.9 147.9 L 214.8 144.8 L 211.8 142.0 L 209.9 139.7 L 206.9 132.6 L 206.1 127.3 L 206.0 125.4 L 206.3 115.3 L 206.7 109.9 L 206.8 107.2 L 207.0 97.6 L 206.8 94.0 L 205.9 89.7 L 204.5 86.4 L 202.1 84.2 L 198.6 83.1 L 196.8 83.1 L 195.2 83.5 L 192.5 85.2 L 190.7 86.6 L 189.7 87.5 L 186.9 89.6 L 184.8 90.7 L 182.7 91.5 L 170.1 91.2 L 168.4 90.8 L 163.2 89.9 L 156.3 88.9 L 153.3 88.5 L 150.9 88.1 L 143.9 84.4 L 142.3 81.6 L 141.7 79.4 L 141.3 73.8 L 141.7 71.0 L 142.3 68.6 L 143.6 64.7 L 145.1 61.7 L 147.4 58.2 L 152.0 53.0 L 156.8 49.2 L 163.5 45.4 L 171.6 42.5 L 180.1 40.8 L 184.2 40.3 L 196.4 40.1 L 204.8 40.6 L 216.5 42.0 L 226.5 43.4 Z" fill="none" stroke="#ffffff" stroke-width="0.7" stroke-dasharray="3 6"/>
  <text x="20" y="34" font-family="Inter,system-ui,sans-serif" font-size="14" font-weight="600" fill="#8a8aa3" letter-spacing="2">AUTODROMO HERMANOS RODRIGUEZ</text>
</svg>
