<svg xmlns="http://www.w3.org/2000/svg" viewBox="0 0 800 450" width="800" height="450">
  <defs>
    <linearGradient id="bg" x1="0" y1="0" x2="0" y2="1">
      <stop offset="0%" stop-color="#1d1d36"/>
      <stop offset="100%" stop-color="#0e0e1a"/>
    </linearGradient>
    <pattern id="grid" width="40" height="40" patternUnits="userSpaceOnUse">
      <circle cx="2" cy="2" r="0.8" fill="#252548" opacity="0.6"/>
    </pattern>
    <filter id="glow">
      <feGaussianBlur stdDeviation="3.5"/>
    </filter>
  </defs>
  <rect width="800" height="450" fill="url(#bg)"/>
  <rect width="800" height="450" fill="url(#grid)"/>
  <path d="M 344.4 132.0 L 351.6 136.5 L 361.5 142.7 L 368.1 146.9 L 384.8 157.4 L 393.0 162.5 L 406.7 170.8 L 423.2 180.7 L 431.6 185.5 L 447.7 194.0 L 460.2 200.5 L 475.9 208.9 L 484.0 214.0 L 492.5 224.2 L 492.2 233.2 L 491.3 235.1 L 486.6 241.2 L 482.8 245.0 L 475.3 252.4 L 470.8 258.0 L 468.4 261.8 L 465.6 268.8 L 464.6 273.8 L 464.4 283.2 L 464.1 290.6 L 461.1 303.5 L 452.5 318.3 L 445.4 324.7 L 431.0 333.0 L 426.3 334.9 L 410.8 339.5 L 405.0 340.6 L 390.9 341.5 L 369.8 339.0 L 365.8 338.0 L 348.0 330.7 L 342.9 327.9 L 328.9 319.3 L 311.0 307.9 L 299.4 300.5 L 271.9 283.1 L 266.5 280.1 L 251.9 272.4 L 244.3 268.9 L 226.6 264.7 L 211.2 265.5 L 203.0 267.9 L 189.8 275.0 L 183.2 278.9 L 170.0 283.8 L 168.8 284.0 L 153.1 283.5 L 137.7 276.3 L 131.7 271.9 L 114.7 258.4 L 106.6 255.0 L 89.6 253.1 L 80.5 254.6 L 71.7 257.4 L 63.0 261.5 L 56.7 265.7 L 43.5 281.9 L 41.5 287.2 L 40.0 296.2 L 40.8 305.2 L 42.0 309.0 L 44.9 314.2 L 47.4 316.9 L 55.3 321.1 L 68.6 322.7 L 72.1 322.8 L 82.3 323.0 L 89.3 323.3 L 99.9 324.3 L 103.4 324.7 L 120.1 327.4 L 138.8 331.2 L 151.5 333.7 L 162.8 334.7 L 174.4 334.8 L 191.3 334.1 L 204.1 333.4 L 216.6 333.1 L 236.0 332.7 L 250.5 332.5 L 267.3 332.3 L 283.7 332.3 L 307.7 335.3 L 331.6 343.1 L 347.6 348.6 L 361.4 353.1 L 373.1 356.7 L 385.7 360.0 L 401.0 363.2 L 417.5 365.3 L 438.2 366.1 L 448.3 365.8 L 475.0 363.4 L 485.7 361.7 L 503.0 357.8 L 512.7 355.0 L 528.0 350.0 L 555.2 340.8 L 566.5 337.0 L 595.1 327.0 L 603.7 323.7 L 627.1 313.8 L 646.1 305.1 L 654.4 301.2 L 674.3 291.4 L 682.5 287.1 L 693.2 281.1 L 701.5 275.8 L 709.9 269.0 L 712.7 265.8 L 714.4 263.4 L 715.6 249.5 L 712.9 246.1 L 707.3 241.0 L 701.1 235.9 L 697.4 232.4 L 693.0 226.2 L 691.5 222.9 L 690.9 212.7 L 691.9 208.9 L 694.7 203.5 L 700.6 197.7 L 704.7 195.5 L 709.7 194.1 L 713.6 193.7 L 720.6 193.5 L 726.0 193.5 L 734.9 192.5 L 744.6 188.0 L 749.0 184.3 L 757.2 172.3 L 758.8 168.3 L 760.0 162.3 L 759.6 158.6 L 757.8 156.6 L 752.4 153.4 L 751.2 151.3 L 751.2 147.4 L 751.7 144.5 L 753.0 139.6 L 755.8 130.1 L 756.9 126.8 L 759.4 119.3 L 759.7 116.6 L 758.2 112.5 L 756.6 110.7 L 751.4 107.6 L 745.1 105.5 L 740.8 104.6 L 723.0 103.5 L 714.4 103.2 L 700.2 102.8 L 682.5 102.3 L 677.9 102.1 L 663.3 101.7 L 657.7 101.5 L 648.0 101.3 L 638.7 101.1 L 623.0 100.7 L 606.1 100.4 L 598.8 100.2 L 583.4 99.9 L 570.7 99.6 L 551.0 99.2 L 524.6 98.4 L 515.9 98.1 L 496.0 97.4 L 475.1 96.7 L 461.3 96.2 L 449.8 95.8 L 426.0 94.9 L 404.5 94.2 L 392.9 93.8 L 375.3 93.2 L 363.5 92.8 L 344.1 92.1 L 339.9 92.1 L 311.0 91.5 L 287.1 91.0 L 276.8 90.8 L 256.3 90.5 L 247.8 90.3 L 229.0 90.0 L 204.0 88.9 L 197.5 88.3 L 174.2 85.9 L 165.2 85.0 L 148.7 83.9 L 144.3 84.0 L 136.1 84.9 L 129.1 88.0 L 127.6 89.4 L 125.7 94.0 L 125.7 96.4 L 126.2 99.2 L 127.1 101.3 L 130.8 106.2 L 134.3 109.3 L 137.7 111.8 L 142.3 114.4 L 146.4 116.7 L 153.8 121.4 L 168.2 129.2 L 179.8 131.6 L 190.2 130.1 L 200.1 126.6 L 214.5 119.8 L 224.8 114.9 L 242.1 108.4 L 259.8 105.7 L 266.9 105.5 L 286.8 106.8 L 296.0 109.1 L 315.2 115.8 L 329.3 122.8 L 344.4 132.0 Z" fill="none" stroke="#2c2c4a" stroke-width="14" stroke-linejoin="round" stroke-linecap="round"/>
  <path d="M 344.4 132.0 L 351.6 136.5 L 361.5 142.7 L 368.1 146.9 L 384.8 157.4 L 393.0 162.5 L 406.7 170.8 L 423.2 180.7 L 431.6 185.5 L 447.7 194.0 L 460.2 200.5 L 475.9 208.9 L 484.0 214.0 L 492.5 224.2 L 492.2 233.2 L 491.3 235.1 L 486.6 241.2 L 482.8 245.0 L 475.3 252.4 L 470.8 258.0 L 468.4 261.8 L 465.6 268.8 L 464.6 273.8 L 464.4 283.2 L 464.1 290.6 L 461.1 303.5 L 452.5 318.3 L 445.4 324.7 L 431.0 333.0 L 426.3 334.9 L 410.8 339.5 L 405.0 340.6 L 390.9 341.5 L 369.8 339.0 L 365.8 338.0 L 348.0 330.7 L 342.9 327.9 L 328.9 319.3 L 311.0 307.9 L 299.4 300.5 L 271.9 283.1 L 266.5 280.1 L 251.9 272.4 L 244.3 268.9 L 226.6 264.7 L 211.2 265.5 L 203.0 267.9 L 189.8 275.0 L 183.2 278.9 L 170.0 283.8 L 168.8 284.0 L 153.1 283.5 L 137.7 276.3 L 131.7 271.9 L 114.7 258.4 L 106.6 255.0 L 89.6 253.1 L 80.5 254.6 L 71.7 257.4 L 63.0 261.5 L 56.7 265.7 L 43.5 281.9 L 41.5 287.2 L 40.0 296.2 L 40.8 305.2 L 42.0 309.0 L 44.9 314.2 L 47.4 316.9 L 55.3 321.1 L 68.6 322.7 L 72.1 322.8 L 82.3 323.0 L 89.3 323.3 L 99.9 324.3 L 103.4 324.7 L 120.1 327.4 L 138.8 331.2 L 151.5 333.7 L 162.8 334.7 L 174.4 334.8 L 191.3 334.1 L 204.1 333.4 L 216.6 333.1 L 236.0 332.7 L 250.5 332.5 L 267.3 332.3 L 283.7 332.3 L 307.7 335.3 L 331.6 343.1 L 347.6 348.6 L 361.4 353.1 L 373.1 356.7 L 385.7 360.0 L 401.0 363.2 L 417.5 365.3 L 438.2 366.1 L 448.3 365.8 L 475.0 363.4 L 485.7 361.7 L 503.0 357.8 L 512.7 355.0 L 528.0 350.0 L 555.2 340.8 L 566.5 337.0 L 595.1 327.0 L 603.7 323.7 L 627.1 313.8 L 646.1 305.1 L 654.4 301.2 L 674.3 291.4 L 682.5 287.1 L 693.2 281.1 L 701.5 275.8 L 709.9 269.0 L 712.7 265.8 L 714.4 263.4 L 715.6 249.5 L 712.9 246.1 L 707.3 241.0 L 701.1 235.9 L 697.4 232.4 L 693.0 226.2 L 691.5 222.9 L 690.9 212.7 L 691.9 208.9 L 694.7 203.5 L 700.6 197.7 L 704.7 195.5 L 709.7 194.1 L 713.6 193.7 L 720.6 193.5 L 726.0 193.5 L 734.9 192.5 L 744.6 188.0 L 749.0 184.3 L 757.2 172.3 L 758.8 168.3 L 760.0 162.3 L 759.6 158.6 L 757.8 156.6 L 752.4 153.4 L 751.2 151.3 L 751.2 147.4 L 751.7 144.5 L 753.0 139.6 L 755.8 130.1 L 756.9 126.8 L 759.4 119.3 L 759.7 116.6 L 758.2 112.5 L 756.6 110.7 L 751.4 107.6 L 745.1 105.5 L 740.8 104.6 L 723.0 103.5 L 714.4 103.2 L 700.2 102.8 L 682.5 102.3 L 677.9 102.1 L 663.3 101.7 L 657.7 101.5 L 648.0 101.3 L 638.7 101.1 L 623.0 100.7 L 606.1 100.4 L 598.8 100.2 L 583.4 99.9 L 570.7 99.6 L 551.0 99.2 L 524.6 98.4 L 515.9 98.1 L 496.0 97.4 L 475.1 96.7 L 461.3 96.2 L 449.8 95.8 L 426.0 94.9 L 404.5 94.2 L 392.9 93.8 L 375.3 93.2 L 363.5 92.8 L 344.1 92.1 L 339.9 92.1 L 311.0 91.5 L 287.1 91.0 L 276.8 90.8 L 256.3 90.5 L 247.8 90.3 L 229.0 90.0 L 204.0 88.9 L 197.5 88.3 L 174.2 85.9 L 165.2 85.0 L 148.7 83.9 L 144.3 84.0 L 136.1 84.9 L 129.1 88.0 L 127.6 89.4 L 125.7 94.0 L 125.7 96.4 L 126.2 99.2 L 127.1 101.3 L 130.8 106.2 L 134.3 109.3 L 137.7 111.8 L 142.3 114.4 L 146.4 116.7 L 153.8 121.4 L 168.2 129.2 L 179.8 131.6 L 190.2 130.1 L 200.1 126.6 L 214.5 119.8 L 224.8 114.9 L 242.1 108.4 L 259.8 105.7 L 266.9 105.5 L 286.8 106.8 L 296.0 109.1 L 315.2 115.8 L 329.3 122.8 L 344.4 132.0 Z" fill="none" stroke="#e10600" stroke-width="3" stroke-linejoin="round" filter="url(#glow)" opacity="0.85"/>
  <path d="M 344.4 132.0 L 351.6 136.5 L 361.5 142.7 L 368.1 146.9 L 384.8 157.4 L 393.0 162.5 L 406.7 170.8 L 423.2 180.7 L 431.6 185.5 L 447.7 194.0 L 460.2 200.5 L 475.9 208.9 L 484.0 214.0 L 492.5 224.2 L 492.2 233.2 L 491.3 235.1 L 486.6 241.2 L 482.8 245.0 L 475.3 252.4 L 470.8 258.0 L 468.4 261.8 L 465.6 268.8 L 464.6 273.8 L 464.4 283.2 L 464.1 290.6 L 461.1 303.5 L 452.5 318.3 L 445.4 324.7 L 431.0 333.0 L 426.3 334.9 L 410.8 339.5 L 405.0 340.6 L 390.9 341.5 L 369.8 339.0 L 365.8 338.0 L 348.0 330.7 L 342.9 327.9 L 328.9 319.3 L 311.0 307.9 L 299.4 300.5 L 271.9 283.1 L 266.5 280.1 L 251.9 272.4 L 244.3 268.9 L 226.6 264.7 L 211.2 265.5 L 203.0 267.9 L 189.8 275.0 L 183.2 278.9 L 170.0 283.8 L 168.8 284.0 L 153.1 283.5 L 137.7 276.3 L 131.7 271.9 L 114.7 258.4 L 106.6 255.0 L 89.6 253.1 L 80.5 254.6 L 71.7 257.4 L 63.0 261.5 L 56.7 265.7 L 43.5 281.9 L 41.5 287.2 L 40.0 296.2 L 40.8 305.2 L 42.0 309.0 L 44.9 314.2 L 47.4 316.9 L 55.3 321.1 L 68.6 322.7 L 72.1 322.8 L 82.3 323.0 L 89.3 323.3 L 99.9 324.3 L 103.4 324.7 L 120.1 327.4 L 138.8 331.2 L 151.5 333.7 L 162.8 334.7 L 174.4 334.8 L 191.3 334.1 L 204.1 333.4 L 216.6 333.1 L 236.0 332.7 L 250.5 332.5 L 267.3 332.3 L 283.7 332.3 L 307.7 335.3 L 331.6 343.1 L 347.6 348.6 L 361.4 353.1 L 373.1 356.7 L 385.7 360.0 L 401.0 363.2 L 417.5 365.3 L 438.2 366.1 L 448.3 365.8 L 475.0 363.4 L 485.7 361.7 L 503.0 357.8 L 512.7 355.0 L 528.0 350.0 L 555.2 340.8 L 566.5 337.0 L 595.1 327.0 L 603.7 323.7 L 627.1 313.8 L 646.1 305.1 L 654.4 301.2 L 674.3 291.4 L 682.5 287.1 L 693.2 281.1 L 701.5 275.8 L 709.9 269.0 L 712.7 265.8 L 714.4 263.4 L 715.6 249.5 L 712.9 246.1 L 707.3 241.0 L 701.1 235.9 L 697.4 232.4 L 693.0 226.2 L 691.5 222.9 L 690.9 212.7 L 691.9 208.9 L 694.7 203.5 L 700.6 197.7 L 704.7 195.5 L 709.7 194.1 L 713.6 193.7 L 720.6 193.5 L 726.0 193.5 L 734.9 192.5 L 744.6 188.0 L 749.0 184.3 L 757.2 172.3 L 758.8 168.3 L 760.0 162.3 L 759.6 158.6 L 757.8 156.6 L 752.4 153.4 L 751.2 151.3 L 751.2 147.4 L 751.7 144.5 L 753.0 139.6 L 755.8 130.1 L 756.9 126.8 L 759.4 119.3 L 759.7 116.6 L 758.2 112.5 L 756.6 110.7 L 751.4 107.6 L 745.1 105.5 L 740.8 104.6 L 723.0 103.5 L 714.4 103.2 L 700.2 102.8 L 682.5 102.3 L 677.9 102.1 L 663.3 101.7 L 657.7 101.5 L 648.0 101.3 L 638.7 101.1 L 623.0 100.7 L 606.1 100.4 L 598.8 100.2 L 583.4 99.9 L 570.7 99.6 L 551.0 99.2 L 524.6 98.4 L 515.9 98.1 L 496.0 97.4 L 475.1 96.7 L 461.3 96.2 L 449.8 95.8 L 426.0 94.9 L 404.5 94.2 L 392.9 93.8 L 375.3 93.2 L 363.5 92.8 L 344.1 92.1 L 339.9 92.1 L 311.0 91.5 L 287.1 91.0 L 276.8 90.8 L 256.3 90.5 L 247.8 90.3 L 229.0 90.0 L 204.0 88.9 L 197.5 88.3 L 174.2 85.9 L 165.2 85.0 L 148.7 83.9 L 144.3 84.0 L 136.1 84.9 L 129.1 88.0 L 127.6 89.4 L 125.7 94.0 L 125.7 96.4 L 126.2 99.2 L 127.1 101.3 L 130.8 106.2 L 134.3 109.3 L 137.7 111.8 L 142.3 114.4 L 146.4 116.7 L 153.8 121.4 L 168.2 129.2 L 179.8 131.6 L 190.2 130.1 L 200.1 126.6 L 214.5 119.8 L 224.8 114.9 L 242.1 108.4 L 259.8 105.7 L 266.9 105.5 L 286.8 106.8 L 296.0 109.1 L 315.2 115.8 L 329.3 122.8 L 344.4 132.0 Z" fill="none" stroke="#ffffff" stroke-width="0.7" stroke-dasharray="3 6"/>
  <text x="20" y="34" font-family="Inter,system-ui,sans-serif" font-size="14" font-weight="600" fill="#8a8aa3" letter-spacing="2">MIAMI INTERNATIONAL AUTODROME</text>
</svg>
