<svg xmlns="http://www.w3.org/2000/svg" viewBox="0 0 800 450" width="800" height="450">
  <defs>
    <linearGradient id="bg" x1="0" y1="0" x2="0" y2="1">
      <stop offset="0%" stop-color="#1d1d36"/>
      <stop offset="100%" stop-color="#0e0e1a"/>
    </linearGradient>
    <pattern id="grid" width="40" height="40" patternUnits="userSpaceOnUse">
      <circle cx="2" cy="2" r="0.8" fill="#252548" opacity="0.6"/>
    </pattern>
    <filter id="glow">
      <feGaussianBlur stdDeviation="3.5"/>
    </filter>
  </defs>
  <rect width="800" height="450" fill="url(#bg)"/>
  <rect width="800" height="450" fill="url(#grid)"/>
  <path d="M 256.0 283.8 L 255.7 278.0 L 255.7 270.5 L 255.9 266.9 L 256.9 254.5 L 257.5 249.4 L 259.0 240.7 L 259.3 239.4 L 261.6 229.5 L 262.4 226.6 L 263.6 223.0 L 265.5 217.9 L 266.4 216.2 L 267.9 214.4 L 269.8 213.1 L 274.3 211.6 L 279.4 210.8 L 283.4 210.4 L 290.0 209.8 L 293.2 209.5 L 298.0 208.9 L 298.4 208.9 L 325.6 202.9 L 333.5 200.9 L 340.3 199.1 L 349.6 197.0 L 354.7 196.1 L 360.0 195.5 L 365.3 195.1 L 381.8 190.6 L 387.4 187.8 L 396.1 183.6 L 409.4 179.1 L 414.5 178.0 L 423.1 176.8 L 427.6 176.3 L 442.1 173.7 L 448.8 170.9 L 451.1 169.7 L 460.8 160.3 L 462.5 157.0 L 463.6 153.5 L 464.2 149.9 L 464.1 143.6 L 463.9 141.8 L 462.5 136.7 L 457.4 127.1 L 454.9 123.8 L 452.3 120.7 L 450.6 118.6 L 446.1 110.8 L 445.9 110.0 L 446.0 104.1 L 448.5 97.4 L 450.7 93.6 L 452.5 91.1 L 454.8 88.1 L 464.5 77.2 L 468.5 72.0 L 470.3 69.4 L 475.3 62.1 L 479.7 56.0 L 483.9 50.9 L 487.8 46.4 L 490.2 43.9 L 491.6 42.7 L 498.5 41.7 L 500.1 42.5 L 502.5 44.9 L 503.3 46.3 L 504.1 48.6 L 505.2 52.8 L 505.7 54.6 L 507.1 59.1 L 508.0 61.4 L 510.5 67.3 L 512.2 70.4 L 512.9 71.3 L 515.8 74.9 L 516.6 75.6 L 519.3 76.9 L 521.0 77.1 L 522.8 76.0 L 523.1 75.2 L 523.2 72.9 L 522.7 70.8 L 521.8 68.9 L 521.2 68.0 L 520.5 67.0 L 518.1 64.3 L 515.6 61.8 L 513.8 59.7 L 512.1 56.2 L 511.9 53.5 L 512.4 51.4 L 514.5 48.5 L 518.3 45.9 L 518.8 45.6 L 521.5 44.2 L 527.0 41.9 L 530.2 40.9 L 534.6 40.0 L 536.7 40.0 L 540.6 41.6 L 542.3 44.2 L 542.9 45.5 L 544.1 51.2 L 544.2 52.4 L 544.3 54.1 L 544.3 56.3 L 544.0 62.3 L 543.6 65.8 L 543.0 71.3 L 542.8 73.4 L 541.1 88.6 L 540.7 93.0 L 540.3 96.1 L 537.1 109.5 L 534.7 116.6 L 532.6 122.4 L 531.0 126.3 L 523.5 143.0 L 522.7 144.4 L 517.6 152.0 L 505.2 163.5 L 498.7 167.3 L 488.6 172.1 L 483.9 174.3 L 471.7 180.5 L 467.4 182.7 L 454.6 188.7 L 441.5 193.8 L 432.7 196.5 L 426.7 198.0 L 419.7 199.3 L 406.6 200.8 L 393.2 203.0 L 391.4 204.3 L 388.6 209.1 L 387.5 210.5 L 385.3 212.0 L 383.5 212.5 L 379.6 212.5 L 378.3 212.3 L 377.2 212.1 L 372.0 210.9 L 369.1 210.7 L 364.3 211.1 L 361.7 211.5 L 355.6 212.4 L 350.2 213.2 L 349.9 213.2 L 337.0 214.9 L 332.2 215.4 L 328.6 215.8 L 323.6 216.4 L 308.5 217.7 L 303.7 218.0 L 298.0 218.5 L 288.8 222.6 L 286.0 225.5 L 282.2 230.4 L 279.0 236.2 L 276.0 244.4 L 274.0 255.0 L 273.5 260.6 L 273.3 266.7 L 275.6 278.2 L 278.6 281.7 L 283.1 288.8 L 287.4 302.7 L 288.4 306.7 L 289.8 314.3 L 290.6 320.2 L 291.4 328.2 L 291.6 331.6 L 291.4 336.5 L 285.8 349.5 L 286.4 354.1 L 287.1 357.3 L 288.0 360.2 L 292.0 369.8 L 295.5 375.5 L 296.9 377.5 L 304.3 385.3 L 306.6 386.9 L 312.4 390.2 L 316.0 392.1 L 321.4 396.1 L 322.5 397.9 L 323.0 400.4 L 322.8 402.8 L 321.9 405.1 L 320.9 406.4 L 319.8 407.5 L 316.8 408.7 L 314.9 409.2 L 313.0 409.5 L 307.6 409.9 L 303.7 410.0 L 301.5 409.9 L 298.0 409.5 L 294.2 408.5 L 292.6 407.4 L 290.6 404.6 L 289.6 401.3 L 289.1 399.1 L 288.0 394.3 L 287.0 391.5 L 283.1 384.7 L 282.1 383.1 L 278.4 377.8 L 275.0 371.8 L 272.3 365.5 L 269.2 356.4 L 267.6 351.4 L 263.8 337.6 L 257.8 308.6 L 257.2 301.4 L 256.4 290.7 L 256.0 283.8 Z" fill="none" stroke="#2c2c4a" stroke-width="14" stroke-linejoin="round" stroke-linecap="round"/>
  <path d="M 256.0 283.8 L 255.7 278.0 L 255.7 270.5 L 255.9 266.9 L 256.9 254.5 L 257.5 249.4 L 259.0 240.7 L 259.3 239.4 L 261.6 229.5 L 262.4 226.6 L 263.6 223.0 L 265.5 217.9 L 266.4 216.2 L 267.9 214.4 L 269.8 213.1 L 274.3 211.6 L 279.4 210.8 L 283.4 210.4 L 290.0 209.8 L 293.2 209.5 L 298.0 208.9 L 298.4 208.9 L 325.6 202.9 L 333.5 200.9 L 340.3 199.1 L 349.6 197.0 L 354.7 196.1 L 360.0 195.5 L 365.3 195.1 L 381.8 190.6 L 387.4 187.8 L 396.1 183.6 L 409.4 179.1 L 414.5 178.0 L 423.1 176.8 L 427.6 176.3 L 442.1 173.7 L 448.8 170.9 L 451.1 169.7 L 460.8 160.3 L 462.5 157.0 L 463.6 153.5 L 464.2 149.9 L 464.1 143.6 L 463.9 141.8 L 462.5 136.7 L 457.4 127.1 L 454.9 123.8 L 452.3 120.7 L 450.6 118.6 L 446.1 110.8 L 445.9 110.0 L 446.0 104.1 L 448.5 97.4 L 450.7 93.6 L 452.5 91.1 L 454.8 88.1 L 464.5 77.2 L 468.5 72.0 L 470.3 69.4 L 475.3 62.1 L 479.7 56.0 L 483.9 50.9 L 487.8 46.4 L 490.2 43.9 L 491.6 42.7 L 498.5 41.7 L 500.1 42.5 L 502.5 44.9 L 503.3 46.3 L 504.1 48.6 L 505.2 52.8 L 505.7 54.6 L 507.1 59.1 L 508.0 61.4 L 510.5 67.3 L 512.2 70.4 L 512.9 71.3 L 515.8 74.9 L 516.6 75.6 L 519.3 76.9 L 521.0 77.1 L 522.8 76.0 L 523.1 75.2 L 523.2 72.9 L 522.7 70.8 L 521.8 68.9 L 521.2 68.0 L 520.5 67.0 L 518.1 64.3 L 515.6 61.8 L 513.8 59.7 L 512.1 56.2 L 511.9 53.5 L 512.4 51.4 L 514.5 48.5 L 518.3 45.9 L 518.8 45.6 L 521.5 44.2 L 527.0 41.9 L 530.2 40.9 L 534.6 40.0 L 536.7 40.0 L 540.6 41.6 L 542.3 44.2 L 542.9 45.5 L 544.1 51.2 L 544.2 52.4 L 544.3 54.1 L 544.3 56.3 L 544.0 62.3 L 543.6 65.8 L 543.0 71.3 L 542.8 73.4 L 541.1 88.6 L 540.7 93.0 L 540.3 96.1 L 537.1 109.5 L 534.7 116.6 L 532.6 122.4 L 531.0 126.3 L 523.5 143.0 L 522.7 144.4 L 517.6 152.0 L 505.2 163.5 L 498.7 167.3 L 488.6 172.1 L 483.9 174.3 L 471.7 180.5 L 467.4 182.7 L 454.6 188.7 L 441.5 193.8 L 432.7 196.5 L 426.7 198.0 L 419.7 199.3 L 406.6 200.8 L 393.2 203.0 L 391.4 204.3 L 388.6 209.1 L 387.5 210.5 L 385.3 212.0 L 383.5 212.5 L 379.6 212.5 L 378.3 212.3 L 377.2 212.1 L 372.0 210.9 L 369.1 210.7 L 364.3 211.1 L 361.7 211.5 L 355.6 212.4 L 350.2 213.2 L 349.9 213.2 L 337.0 214.9 L 332.2 215.4 L 328.6 215.8 L 323.6 216.4 L 308.5 217.7 L 303.7 218.0 L 298.0 218.5 L 288.8 222.6 L 286.0 225.5 L 282.2 230.4 L 279.0 236.2 L 276.0 244.4 L 274.0 255.0 L 273.5 260.6 L 273.3 266.7 L 275.6 278.2 L 278.6 281.7 L 283.1 288.8 L 287.4 302.7 L 288.4 306.7 L 289.8 314.3 L 290.6 320.2 L 291.4 328.2 L 291.6 331.6 L 291.4 336.5 L 285.8 349.5 L 286.4 354.1 L 287.1 357.3 L 288.0 360.2 L 292.0 369.8 L 295.5 375.5 L 296.9 377.5 L 304.3 385.3 L 306.6 386.9 L 312.4 390.2 L 316.0 392.1 L 321.4 396.1 L 322.5 397.9 L 323.0 400.4 L 322.8 402.8 L 321.9 405.1 L 320.9 406.4 L 319.8 407.5 L 316.8 408.7 L 314.9 409.2 L 313.0 409.5 L 307.6 409.9 L 303.7 410.0 L 301.5 409.9 L 298.0 409.5 L 294.2 408.5 L 292.6 407.4 L 290.6 404.6 L 289.6 401.3 L 289.1 399.1 L 288.0 394.3 L 287.0 391.5 L 283.1 384.7 L 282.1 383.1 L 278.4 377.8 L 275.0 371.8 L 272.3 365.5 L 269.2 356.4 L 267.6 351.4 L 263.8 337.6 L 257.8 308.6 L 257.2 301.4 L 256.4 290.7 L 256.0 283.8 Z" fill="none" stroke="#e10600" stroke-width="3" stroke-linejoin="round" filter="url(#glow)" opacity="0.85"/>
  <path d="M 256.0 283.8 L 255.7 278.0 L 255.7 270.5 L 255.9 266.9 L 256.9 254.5 L 257.5 249.4 L 259.0 240.7 L 259.3 239.4 L 261.6 229.5 L 262.4 226.6 L 263.6 223.0 L 265.5 217.9 L 266.4 216.2 L 267.9 214.4 L 269.8 213.1 L 274.3 211.6 L 279.4 210.8 L 283.4 210.4 L 290.0 209.8 L 293.2 209.5 L 298.0 208.9 L 298.4 208.9 L 325.6 202.9 L 333.5 200.9 L 340.3 199.1 L 349.6 197.0 L 354.7 196.1 L 360.0 195.5 L 365.3 195.1 L 381.8 190.6 L 387.4 187.8 L 396.1 183.6 L 409.4 179.1 L 414.5 178.0 L 423.1 176.8 L 427.6 176.3 L 442.1 173.7 L 448.8 170.9 L 451.1 169.7 L 460.8 160.3 L 462.5 157.0 L 463.6 153.5 L 464.2 149.9 L 464.1 143.6 L 463.9 141.8 L 462.5 136.7 L 457.4 127.1 L 454.9 123.8 L 452.3 120.7 L 450.6 118.6 L 446.1 110.8 L 445.9 110.0 L 446.0 104.1 L 448.5 97.4 L 450.7 93.6 L 452.5 91.1 L 454.8 88.1 L 464.5 77.2 L 468.5 72.0 L 470.3 69.4 L 475.3 62.1 L 479.7 56.0 L 483.9 50.9 L 487.8 46.4 L 490.2 43.9 L 491.6 42.7 L 498.5 41.7 L 500.1 42.5 L 502.5 44.9 L 503.3 46.3 L 504.1 48.6 L 505.2 52.8 L 505.7 54.6 L 507.1 59.1 L 508.0 61.4 L 510.5 67.3 L 512.2 70.4 L 512.9 71.3 L 515.8 74.9 L 516.6 75.6 L 519.3 76.9 L 521.0 77.1 L 522.8 76.0 L 523.1 75.2 L 523.2 72.9 L 522.7 70.8 L 521.8 68.9 L 521.2 68.0 L 520.5 67.0 L 518.1 64.3 L 515.6 61.8 L 513.8 59.7 L 512.1 56.2 L 511.9 53.5 L 512.4 51.4 L 514.5 48.5 L 518.3 45.9 L 518.8 45.6 L 521.5 44.2 L 527.0 41.9 L 530.2 40.9 L 534.6 40.0 L 536.7 40.0 L 540.6 41.6 L 542.3 44.2 L 542.9 45.5 L 544.1 51.2 L 544.2 52.4 L 544.3 54.1 L 544.3 56.3 L 544.0 62.3 L 543.6 65.8 L 543.0 71.3 L 542.8 73.4 L 541.1 88.6 L 540.7 93.0 L 540.3 96.1 L 537.1 109.5 L 534.7 116.6 L 532.6 122.4 L 531.0 126.3 L 523.5 143.0 L 522.7 144.4 L 517.6 152.0 L 505.2 163.5 L 498.7 167.3 L 488.6 172.1 L 483.9 174.3 L 471.7 180.5 L 467.4 182.7 L 454.6 188.7 L 441.5 193.8 L 432.7 196.5 L 426.7 198.0 L 419.7 199.3 L 406.6 200.8 L 393.2 203.0 L 391.4 204.3 L 388.6 209.1 L 387.5 210.5 L 385.3 212.0 L 383.5 212.5 L 379.6 212.5 L 378.3 212.3 L 377.2 212.1 L 372.0 210.9 L 369.1 210.7 L 364.3 211.1 L 361.7 211.5 L 355.6 212.4 L 350.2 213.2 L 349.9 213.2 L 337.0 214.9 L 332.2 215.4 L 328.6 215.8 L 323.6 216.4 L 308.5 217.7 L 303.7 218.0 L 298.0 218.5 L 288.8 222.6 L 286.0 225.5 L 282.2 230.4 L 279.0 236.2 L 276.0 244.4 L 274.0 255.0 L 273.5 260.6 L 273.3 266.7 L 275.6 278.2 L 278.6 281.7 L 283.1 288.8 L 287.4 302.7 L 288.4 306.7 L 289.8 314.3 L 290.6 320.2 L 291.4 328.2 L 291.6 331.6 L 291.4 336.5 L 285.8 349.5 L 286.4 354.1 L 287.1 357.3 L 288.0 360.2 L 292.0 369.8 L 295.5 375.5 L 296.9 377.5 L 304.3 385.3 L 306.6 386.9 L 312.4 390.2 L 316.0 392.1 L 321.4 396.1 L 322.5 397.9 L 323.0 400.4 L 322.8 402.8 L 321.9 405.1 L 320.9 406.4 L 319.8 407.5 L 316.8 408.7 L 314.9 409.2 L 313.0 409.5 L 307.6 409.9 L 303.7 410.0 L 301.5 409.9 L 298.0 409.5 L 294.2 408.5 L 292.6 407.4 L 290.6 404.6 L 289.6 401.3 L 289.1 399.1 L 288.0 394.3 L 287.0 391.5 L 283.1 384.7 L 282.1 383.1 L 278.4 377.8 L 275.0 371.8 L 272.3 365.5 L 269.2 356.4 L 267.6 351.4 L 263.8 337.6 L 257.8 308.6 L 257.2 301.4 L 256.4 290.7 L 256.0 283.8 Z" fill="none" stroke="#ffffff" stroke-width="0.7" stroke-dasharray="3 6"/>
  <text x="20" y="34" font-family="Inter,system-ui,sans-serif" font-size="14" font-weight="600" fill="#8a8aa3" letter-spacing="2">CIRCUIT DE MONACO</text>
</svg>
