<svg xmlns="http://www.w3.org/2000/svg" viewBox="0 0 800 450" width="800" height="450">
  <defs>
    <linearGradient id="bg" x1="0" y1="0" x2="0" y2="1">
      <stop offset="0%" stop-color="#1d1d36"/>
      <stop offset="100%" stop-color="#0e0e1a"/>
    </linearGradient>
    <pattern id="grid" width="40" height="40" patternUnits="userSpaceOnUse">
      <circle cx="2" cy="2" r="0.8" fill="#252548" opacity="0.6"/>
    </pattern>
    <filter id="glow">
      <feGaussianBlur stdDeviation="3.5"/>
    </filter>
  </defs>
  <rect width="800" height="450" fill="url(#bg)"/>
  <rect width="800" height="450" fill="url(#grid)"/>
  <path d="M 451.3 348.7 L 451.6 367.8 L 451.0 373.5 L 450.4 378.0 L 449.8 386.4 L 449.9 388.4 L 450.4 391.4 L 451.1 393.1 L 452.0 394.5 L 453.4 396.0 L 454.9 397.2 L 456.9 398.5 L 458.3 399.2 L 459.4 399.9 L 461.5 402.5 L 461.6 403.4 L 461.4 404.8 L 461.2 405.6 L 460.2 407.5 L 459.7 408.1 L 459.0 408.8 L 457.0 409.7 L 454.9 409.9 L 453.2 410.0 L 449.2 409.8 L 447.5 409.5 L 444.9 409.0 L 444.0 408.7 L 439.4 407.2 L 437.6 406.6 L 435.3 405.7 L 432.0 404.2 L 427.4 401.6 L 425.9 400.6 L 423.5 398.9 L 419.7 396.1 L 417.2 394.2 L 415.3 392.7 L 409.7 388.2 L 406.9 385.9 L 404.8 383.9 L 402.8 381.8 L 401.4 379.7 L 400.7 378.0 L 400.5 375.6 L 400.7 373.9 L 401.0 371.5 L 399.6 364.1 L 397.5 361.0 L 395.4 358.4 L 394.1 356.7 L 392.0 354.2 L 388.8 350.4 L 386.0 347.7 L 383.1 345.2 L 378.5 341.6 L 374.7 338.2 L 371.8 334.1 L 370.1 330.3 L 367.8 321.0 L 367.7 317.1 L 367.7 313.5 L 367.9 307.4 L 368.1 305.1 L 368.3 301.1 L 368.3 299.4 L 367.2 293.3 L 366.7 292.1 L 365.9 290.8 L 362.8 288.7 L 360.9 288.4 L 359.8 288.4 L 357.3 288.6 L 356.2 288.6 L 354.2 288.6 L 352.2 288.1 L 348.8 286.1 L 347.6 284.9 L 346.4 283.6 L 344.9 281.2 L 343.6 278.5 L 343.1 277.0 L 342.2 273.6 L 341.4 268.2 L 341.1 266.2 L 340.5 261.4 L 340.0 255.9 L 339.6 251.7 L 339.4 249.3 L 338.9 241.5 L 338.7 238.7 L 338.5 234.0 L 338.4 229.3 L 338.4 224.0 L 338.5 220.3 L 338.6 218.2 L 339.1 211.5 L 339.7 205.0 L 340.3 200.6 L 340.8 197.5 L 342.0 190.5 L 343.2 185.2 L 344.1 181.5 L 346.1 173.0 L 346.6 170.8 L 347.2 168.2 L 347.7 166.6 L 349.1 163.0 L 350.5 161.4 L 351.9 160.7 L 355.0 159.9 L 358.0 158.6 L 359.0 158.0 L 363.3 153.5 L 364.2 151.8 L 365.5 148.7 L 366.1 146.8 L 367.6 141.2 L 368.4 138.1 L 368.9 136.2 L 370.8 127.7 L 371.4 124.3 L 372.0 120.9 L 372.4 118.5 L 373.6 110.7 L 374.4 104.5 L 374.6 102.7 L 375.1 94.5 L 375.2 89.9 L 375.3 87.2 L 375.3 82.5 L 375.0 76.7 L 374.8 73.9 L 374.3 70.8 L 372.3 61.7 L 371.6 58.5 L 370.4 53.4 L 369.5 49.3 L 369.0 46.2 L 368.9 45.0 L 368.9 43.7 L 370.3 40.8 L 370.8 40.4 L 372.3 40.0 L 374.0 40.3 L 374.5 40.7 L 374.8 40.9 L 375.3 41.5 L 376.3 43.3 L 376.7 44.3 L 377.2 45.8 L 377.8 49.1 L 378.0 50.1 L 378.2 52.8 L 378.5 56.1 L 378.7 57.8 L 379.5 61.6 L 380.1 63.8 L 382.2 69.3 L 383.2 71.7 L 384.5 74.8 L 387.4 81.6 L 388.6 84.3 L 390.0 87.6 L 392.3 93.0 L 395.8 100.9 L 397.4 104.7 L 398.9 108.6 L 402.1 116.4 L 403.0 118.7 L 404.0 121.6 L 405.3 125.4 L 407.8 133.5 L 408.4 135.6 L 409.2 138.3 L 411.9 149.2 L 412.2 150.4 L 413.3 154.8 L 416.0 166.5 L 417.2 171.6 L 418.1 175.5 L 418.8 178.7 L 420.5 185.8 L 421.1 188.3 L 421.8 191.6 L 423.9 200.7 L 424.9 204.9 L 426.2 210.6 L 427.1 214.5 L 430.3 227.9 L 431.4 232.5 L 432.2 235.8 L 435.7 250.9 L 436.4 254.5 L 436.6 256.6 L 436.5 259.2 L 435.2 262.2 L 434.3 263.7 L 433.3 265.6 L 432.6 268.9 L 432.6 272.2 L 432.8 274.0 L 433.6 278.6 L 434.1 280.8 L 434.6 282.8 L 435.1 284.5 L 436.4 288.9 L 436.9 290.8 L 437.6 293.1 L 440.2 303.0 L 440.4 303.8 L 441.1 306.7 L 441.7 309.1 L 443.6 316.4 L 444.7 320.6 L 445.3 322.8 L 447.5 331.1 L 447.7 331.9 L 449.4 339.1 L 450.5 344.1 L 451.3 348.7 Z" fill="none" stroke="#2c2c4a" stroke-width="14" stroke-linejoin="round" stroke-linecap="round"/>
  <path d="M 451.3 348.7 L 451.6 367.8 L 451.0 373.5 L 450.4 378.0 L 449.8 386.4 L 449.9 388.4 L 450.4 391.4 L 451.1 393.1 L 452.0 394.5 L 453.4 396.0 L 454.9 397.2 L 456.9 398.5 L 458.3 399.2 L 459.4 399.9 L 461.5 402.5 L 461.6 403.4 L 461.4 404.8 L 461.2 405.6 L 460.2 407.5 L 459.7 408.1 L 459.0 408.8 L 457.0 409.7 L 454.9 409.9 L 453.2 410.0 L 449.2 409.8 L 447.5 409.5 L 444.9 409.0 L 444.0 408.7 L 439.4 407.2 L 437.6 406.6 L 435.3 405.7 L 432.0 404.2 L 427.4 401.6 L 425.9 400.6 L 423.5 398.9 L 419.7 396.1 L 417.2 394.2 L 415.3 392.7 L 409.7 388.2 L 406.9 385.9 L 404.8 383.9 L 402.8 381.8 L 401.4 379.7 L 400.7 378.0 L 400.5 375.6 L 400.7 373.9 L 401.0 371.5 L 399.6 364.1 L 397.5 361.0 L 395.4 358.4 L 394.1 356.7 L 392.0 354.2 L 388.8 350.4 L 386.0 347.7 L 383.1 345.2 L 378.5 341.6 L 374.7 338.2 L 371.8 334.1 L 370.1 330.3 L 367.8 321.0 L 367.7 317.1 L 367.7 313.5 L 367.9 307.4 L 368.1 305.1 L 368.3 301.1 L 368.3 299.4 L 367.2 293.3 L 366.7 292.1 L 365.9 290.8 L 362.8 288.7 L 360.9 288.4 L 359.8 288.4 L 357.3 288.6 L 356.2 288.6 L 354.2 288.6 L 352.2 288.1 L 348.8 286.1 L 347.6 284.9 L 346.4 283.6 L 344.9 281.2 L 343.6 278.5 L 343.1 277.0 L 342.2 273.6 L 341.4 268.2 L 341.1 266.2 L 340.5 261.4 L 340.0 255.9 L 339.6 251.7 L 339.4 249.3 L 338.9 241.5 L 338.7 238.7 L 338.5 234.0 L 338.4 229.3 L 338.4 224.0 L 338.5 220.3 L 338.6 218.2 L 339.1 211.5 L 339.7 205.0 L 340.3 200.6 L 340.8 197.5 L 342.0 190.5 L 343.2 185.2 L 344.1 181.5 L 346.1 173.0 L 346.6 170.8 L 347.2 168.2 L 347.7 166.6 L 349.1 163.0 L 350.5 161.4 L 351.9 160.7 L 355.0 159.9 L 358.0 158.6 L 359.0 158.0 L 363.3 153.5 L 364.2 151.8 L 365.5 148.7 L 366.1 146.8 L 367.6 141.2 L 368.4 138.1 L 368.9 136.2 L 370.8 127.7 L 371.4 124.3 L 372.0 120.9 L 372.4 118.5 L 373.6 110.7 L 374.4 104.5 L 374.6 102.7 L 375.1 94.5 L 375.2 89.9 L 375.3 87.2 L 375.3 82.5 L 375.0 76.7 L 374.8 73.9 L 374.3 70.8 L 372.3 61.7 L 371.6 58.5 L 370.4 53.4 L 369.5 49.3 L 369.0 46.2 L 368.9 45.0 L 368.9 43.7 L 370.3 40.8 L 370.8 40.4 L 372.3 40.0 L 374.0 40.3 L 374.5 40.7 L 374.8 40.9 L 375.3 41.5 L 376.3 43.3 L 376.7 44.3 L 377.2 45.8 L 377.8 49.1 L 378.0 50.1 L 378.2 52.8 L 378.5 56.1 L 378.7 57.8 L 379.5 61.6 L 380.1 63.8 L 382.2 69.3 L 383.2 71.7 L 384.5 74.8 L 387.4 81.6 L 388.6 84.3 L 390.0 87.6 L 392.3 93.0 L 395.8 100.9 L 397.4 104.7 L 398.9 108.6 L 402.1 116.4 L 403.0 118.7 L 404.0 121.6 L 405.3 125.4 L 407.8 133.5 L 408.4 135.6 L 409.2 138.3 L 411.9 149.2 L 412.2 150.4 L 413.3 154.8 L 416.0 166.5 L 417.2 171.6 L 418.1 175.5 L 418.8 178.7 L 420.5 185.8 L 421.1 188.3 L 421.8 191.6 L 423.9 200.7 L 424.9 204.9 L 426.2 210.6 L 427.1 214.5 L 430.3 227.9 L 431.4 232.5 L 432.2 235.8 L 435.7 250.9 L 436.4 254.5 L 436.6 256.6 L 436.5 259.2 L 435.2 262.2 L 434.3 263.7 L 433.3 265.6 L 432.6 268.9 L 432.6 272.2 L 432.8 274.0 L 433.6 278.6 L 434.1 280.8 L 434.6 282.8 L 435.1 284.5 L 436.4 288.9 L 436.9 290.8 L 437.6 293.1 L 440.2 303.0 L 440.4 303.8 L 441.1 306.7 L 441.7 309.1 L 443.6 316.4 L 444.7 320.6 L 445.3 322.8 L 447.5 331.1 L 447.7 331.9 L 449.4 339.1 L 450.5 344.1 L 451.3 348.7 Z" fill="none" stroke="#e10600" stroke-width="3" stroke-linejoin="round" filter="url(#glow)" opacity="0.85"/>
  <path d="M 451.3 348.7 L 451.6 367.8 L 451.0 373.5 L 450.4 378.0 L 449.8 386.4 L 449.9 388.4 L 450.4 391.4 L 451.1 393.1 L 452.0 394.5 L 453.4 396.0 L 454.9 397.2 L 456.9 398.5 L 458.3 399.2 L 459.4 399.9 L 461.5 402.5 L 461.6 403.4 L 461.4 404.8 L 461.2 405.6 L 460.2 407.5 L 459.7 408.1 L 459.0 408.8 L 457.0 409.7 L 454.9 409.9 L 453.2 410.0 L 449.2 409.8 L 447.5 409.5 L 444.9 409.0 L 444.0 408.7 L 439.4 407.2 L 437.6 406.6 L 435.3 405.7 L 432.0 404.2 L 427.4 401.6 L 425.9 400.6 L 423.5 398.9 L 419.7 396.1 L 417.2 394.2 L 415.3 392.7 L 409.7 388.2 L 406.9 385.9 L 404.8 383.9 L 402.8 381.8 L 401.4 379.7 L 400.7 378.0 L 400.5 375.6 L 400.7 373.9 L 401.0 371.5 L 399.6 364.1 L 397.5 361.0 L 395.4 358.4 L 394.1 356.7 L 392.0 354.2 L 388.8 350.4 L 386.0 347.7 L 383.1 345.2 L 378.5 341.6 L 374.7 338.2 L 371.8 334.1 L 370.1 330.3 L 367.8 321.0 L 367.7 317.1 L 367.7 313.5 L 367.9 307.4 L 368.1 305.1 L 368.3 301.1 L 368.3 299.4 L 367.2 293.3 L 366.7 292.1 L 365.9 290.8 L 362.8 288.7 L 360.9 288.4 L 359.8 288.4 L 357.3 288.6 L 356.2 288.6 L 354.2 288.6 L 352.2 288.1 L 348.8 286.1 L 347.6 284.9 L 346.4 283.6 L 344.9 281.2 L 343.6 278.5 L 343.1 277.0 L 342.2 273.6 L 341.4 268.2 L 341.1 266.2 L 340.5 261.4 L 340.0 255.9 L 339.6 251.7 L 339.4 249.3 L 338.9 241.5 L 338.7 238.7 L 338.5 234.0 L 338.4 229.3 L 338.4 224.0 L 338.5 220.3 L 338.6 218.2 L 339.1 211.5 L 339.7 205.0 L 340.3 200.6 L 340.8 197.5 L 342.0 190.5 L 343.2 185.2 L 344.1 181.5 L 346.1 173.0 L 346.6 170.8 L 347.2 168.2 L 347.7 166.6 L 349.1 163.0 L 350.5 161.4 L 351.9 160.7 L 355.0 159.9 L 358.0 158.6 L 359.0 158.0 L 363.3 153.5 L 364.2 151.8 L 365.5 148.7 L 366.1 146.8 L 367.6 141.2 L 368.4 138.1 L 368.9 136.2 L 370.8 127.7 L 371.4 124.3 L 372.0 120.9 L 372.4 118.5 L 373.6 110.7 L 374.4 104.5 L 374.6 102.7 L 375.1 94.5 L 375.2 89.9 L 375.3 87.2 L 375.3 82.5 L 375.0 76.7 L 374.8 73.9 L 374.3 70.8 L 372.3 61.7 L 371.6 58.5 L 370.4 53.4 L 369.5 49.3 L 369.0 46.2 L 368.9 45.0 L 368.9 43.7 L 370.3 40.8 L 370.8 40.4 L 372.3 40.0 L 374.0 40.3 L 374.5 40.7 L 374.8 40.9 L 375.3 41.5 L 376.3 43.3 L 376.7 44.3 L 377.2 45.8 L 377.8 49.1 L 378.0 50.1 L 378.2 52.8 L 378.5 56.1 L 378.7 57.8 L 379.5 61.6 L 380.1 63.8 L 382.2 69.3 L 383.2 71.7 L 384.5 74.8 L 387.4 81.6 L 388.6 84.3 L 390.0 87.6 L 392.3 93.0 L 395.8 100.9 L 397.4 104.7 L 398.9 108.6 L 402.1 116.4 L 403.0 118.7 L 404.0 121.6 L 405.3 125.4 L 407.8 133.5 L 408.4 135.6 L 409.2 138.3 L 411.9 149.2 L 412.2 150.4 L 413.3 154.8 L 416.0 166.5 L 417.2 171.6 L 418.1 175.5 L 418.8 178.7 L 420.5 185.8 L 421.1 188.3 L 421.8 191.6 L 423.9 200.7 L 424.9 204.9 L 426.2 210.6 L 427.1 214.5 L 430.3 227.9 L 431.4 232.5 L 432.2 235.8 L 435.7 250.9 L 436.4 254.5 L 436.6 256.6 L 436.5 259.2 L 435.2 262.2 L 434.3 263.7 L 433.3 265.6 L 432.6 268.9 L 432.6 272.2 L 432.8 274.0 L 433.6 278.6 L 434.1 280.8 L 434.6 282.8 L 435.1 284.5 L 436.4 288.9 L 436.9 290.8 L 437.6 293.1 L 440.2 303.0 L 440.4 303.8 L 441.1 306.7 L 441.7 309.1 L 443.6 316.4 L 444.7 320.6 L 445.3 322.8 L 447.5 331.1 L 447.7 331.9 L 449.4 339.1 L 450.5 344.1 L 451.3 348.7 Z" fill="none" stroke="#ffffff" stroke-width="0.7" stroke-dasharray="3 6"/>
  <text x="20" y="34" font-family="Inter,system-ui,sans-serif" font-size="14" font-weight="600" fill="#8a8aa3" letter-spacing="2">CIRCUIT GILLES VILLENEUVE</text>
</svg>
