<svg xmlns="http://www.w3.org/2000/svg" viewBox="0 0 800 450" width="800" height="450">
  <defs>
    <linearGradient id="bg" x1="0" y1="0" x2="0" y2="1">
      <stop offset="0%" stop-color="#1d1d36"/>
      <stop offset="100%" stop-color="#0e0e1a"/>
    </linearGradient>
    <pattern id="grid" width="40" height="40" patternUnits="userSpaceOnUse">
      <circle cx="2" cy="2" r="0.8" fill="#252548" opacity="0.6"/>
    </pattern>
    <filter id="glow">
      <feGaussianBlur stdDeviation="3.5"/>
    </filter>
  </defs>
  <rect width="800" height="450" fill="url(#bg)"/>
  <rect width="800" height="450" fill="url(#grid)"/>
  <path d="M 295.0 321.6 L 295.5 315.9 L 295.9 311.6 L 296.5 304.5 L 297.0 298.4 L 297.6 291.8 L 298.0 286.8 L 298.7 279.0 L 299.1 274.9 L 299.3 271.8 L 299.8 266.7 L 300.0 263.6 L 300.8 255.0 L 301.0 252.5 L 301.9 242.3 L 302.1 239.1 L 302.8 231.8 L 303.3 225.7 L 303.6 222.2 L 304.2 215.5 L 304.4 212.3 L 305.2 203.3 L 305.5 200.3 L 306.1 192.4 L 306.4 189.1 L 306.9 182.7 L 307.2 179.9 L 308.0 173.5 L 308.4 172.5 L 309.3 170.9 L 310.9 169.6 L 311.5 169.4 L 312.8 169.1 L 313.6 168.9 L 315.0 168.1 L 315.5 167.2 L 315.7 166.5 L 315.9 165.8 L 315.9 164.2 L 315.7 162.6 L 315.6 161.9 L 314.6 158.1 L 314.3 156.8 L 313.5 153.6 L 312.8 150.7 L 312.2 148.0 L 311.5 143.5 L 311.3 141.9 L 311.2 138.6 L 311.1 136.1 L 311.2 127.6 L 311.3 126.9 L 312.2 117.6 L 312.6 114.9 L 312.8 113.9 L 314.8 106.1 L 316.3 102.1 L 319.1 96.2 L 322.1 91.5 L 326.2 86.5 L 329.6 83.2 L 334.1 79.6 L 336.5 77.9 L 338.8 76.5 L 356.2 69.5 L 360.3 68.6 L 368.0 67.4 L 374.3 66.6 L 380.6 66.1 L 386.1 65.6 L 394.1 65.0 L 397.4 64.8 L 403.5 64.5 L 412.0 64.1 L 416.8 63.9 L 423.5 63.7 L 427.0 63.5 L 430.6 63.0 L 432.1 62.5 L 434.5 61.3 L 436.0 59.6 L 436.4 58.7 L 437.7 56.7 L 438.3 56.0 L 440.5 54.5 L 442.2 53.7 L 445.0 53.0 L 447.3 52.5 L 449.8 52.0 L 453.5 51.2 L 456.0 50.5 L 459.9 49.3 L 462.0 48.6 L 468.2 46.4 L 470.3 45.5 L 473.7 44.3 L 475.9 43.5 L 479.5 42.3 L 485.2 40.5 L 488.8 40.0 L 494.8 40.9 L 497.2 42.1 L 500.3 44.6 L 502.3 47.6 L 504.1 52.7 L 504.5 54.8 L 504.9 58.2 L 505.6 67.3 L 506.0 72.5 L 506.4 77.4 L 506.8 81.5 L 507.2 85.8 L 507.2 88.2 L 507.1 90.7 L 506.7 92.4 L 505.3 95.5 L 501.4 99.4 L 499.7 100.5 L 495.7 102.6 L 492.6 104.1 L 488.8 106.1 L 484.7 108.3 L 478.4 111.7 L 477.5 112.2 L 474.3 114.0 L 469.0 117.0 L 466.7 118.3 L 462.1 120.9 L 458.5 122.9 L 453.1 126.1 L 451.0 127.4 L 444.5 131.9 L 442.5 133.5 L 440.9 134.8 L 433.1 141.3 L 429.3 144.6 L 424.4 148.9 L 421.4 151.5 L 418.0 154.4 L 415.2 156.8 L 408.3 162.8 L 404.6 166.1 L 401.8 168.5 L 394.5 174.8 L 392.1 176.9 L 384.5 183.5 L 381.4 186.2 L 375.5 191.3 L 373.4 193.2 L 371.2 195.1 L 367.9 198.0 L 366.5 199.3 L 363.3 202.9 L 362.4 204.9 L 361.8 208.8 L 361.8 212.7 L 361.4 218.4 L 360.5 221.3 L 359.4 223.8 L 357.1 227.4 L 356.4 228.2 L 353.2 231.5 L 351.8 233.2 L 349.5 237.9 L 348.9 240.0 L 348.0 245.7 L 347.7 249.0 L 347.3 252.9 L 346.7 258.8 L 346.4 262.0 L 346.0 266.9 L 345.5 273.0 L 344.7 281.4 L 344.4 284.0 L 343.5 293.8 L 343.3 296.4 L 342.9 300.9 L 342.3 307.1 L 341.9 312.2 L 341.3 318.2 L 340.8 323.9 L 340.3 328.4 L 340.1 330.9 L 339.4 338.6 L 339.2 341.0 L 338.9 343.8 L 338.3 350.6 L 338.0 354.1 L 337.2 363.1 L 336.7 368.1 L 336.2 373.4 L 335.7 378.5 L 335.1 384.7 L 334.2 391.6 L 333.4 395.5 L 332.0 400.3 L 331.4 401.8 L 328.8 405.8 L 326.8 407.5 L 324.2 409.0 L 321.6 409.8 L 317.5 410.0 L 317.1 409.9 L 314.9 409.5 L 309.7 407.4 L 308.5 406.8 L 304.5 403.5 L 302.7 401.7 L 298.8 396.0 L 297.6 393.6 L 295.6 388.5 L 294.3 383.5 L 293.8 381.5 L 292.9 372.9 L 292.8 368.0 L 292.9 356.5 L 293.1 349.8 L 293.5 341.9 L 293.7 338.4 L 294.5 327.9 L 295.0 321.6 Z" fill="none" stroke="#2c2c4a" stroke-width="14" stroke-linejoin="round" stroke-linecap="round"/>
  <path d="M 295.0 321.6 L 295.5 315.9 L 295.9 311.6 L 296.5 304.5 L 297.0 298.4 L 297.6 291.8 L 298.0 286.8 L 298.7 279.0 L 299.1 274.9 L 299.3 271.8 L 299.8 266.7 L 300.0 263.6 L 300.8 255.0 L 301.0 252.5 L 301.9 242.3 L 302.1 239.1 L 302.8 231.8 L 303.3 225.7 L 303.6 222.2 L 304.2 215.5 L 304.4 212.3 L 305.2 203.3 L 305.5 200.3 L 306.1 192.4 L 306.4 189.1 L 306.9 182.7 L 307.2 179.9 L 308.0 173.5 L 308.4 172.5 L 309.3 170.9 L 310.9 169.6 L 311.5 169.4 L 312.8 169.1 L 313.6 168.9 L 315.0 168.1 L 315.5 167.2 L 315.7 166.5 L 315.9 165.8 L 315.9 164.2 L 315.7 162.6 L 315.6 161.9 L 314.6 158.1 L 314.3 156.8 L 313.5 153.6 L 312.8 150.7 L 312.2 148.0 L 311.5 143.5 L 311.3 141.9 L 311.2 138.6 L 311.1 136.1 L 311.2 127.6 L 311.3 126.9 L 312.2 117.6 L 312.6 114.9 L 312.8 113.9 L 314.8 106.1 L 316.3 102.1 L 319.1 96.2 L 322.1 91.5 L 326.2 86.5 L 329.6 83.2 L 334.1 79.6 L 336.5 77.9 L 338.8 76.5 L 356.2 69.5 L 360.3 68.6 L 368.0 67.4 L 374.3 66.6 L 380.6 66.1 L 386.1 65.6 L 394.1 65.0 L 397.4 64.8 L 403.5 64.5 L 412.0 64.1 L 416.8 63.9 L 423.5 63.7 L 427.0 63.5 L 430.6 63.0 L 432.1 62.5 L 434.5 61.3 L 436.0 59.6 L 436.4 58.7 L 437.7 56.7 L 438.3 56.0 L 440.5 54.5 L 442.2 53.7 L 445.0 53.0 L 447.3 52.5 L 449.8 52.0 L 453.5 51.2 L 456.0 50.5 L 459.9 49.3 L 462.0 48.6 L 468.2 46.4 L 470.3 45.5 L 473.7 44.3 L 475.9 43.5 L 479.5 42.3 L 485.2 40.5 L 488.8 40.0 L 494.8 40.9 L 497.2 42.1 L 500.3 44.6 L 502.3 47.6 L 504.1 52.7 L 504.5 54.8 L 504.9 58.2 L 505.6 67.3 L 506.0 72.5 L 506.4 77.4 L 506.8 81.5 L 507.2 85.8 L 507.2 88.2 L 507.1 90.7 L 506.7 92.4 L 505.3 95.5 L 501.4 99.4 L 499.7 100.5 L 495.7 102.6 L 492.6 104.1 L 488.8 106.1 L 484.7 108.3 L 478.4 111.7 L 477.5 112.2 L 474.3 114.0 L 469.0 117.0 L 466.7 118.3 L 462.1 120.9 L 458.5 122.9 L 453.1 126.1 L 451.0 127.4 L 444.5 131.9 L 442.5 133.5 L 440.9 134.8 L 433.1 141.3 L 429.3 144.6 L 424.4 148.9 L 421.4 151.5 L 418.0 154.4 L 415.2 156.8 L 408.3 162.8 L 404.6 166.1 L 401.8 168.5 L 394.5 174.8 L 392.1 176.9 L 384.5 183.5 L 381.4 186.2 L 375.5 191.3 L 373.4 193.2 L 371.2 195.1 L 367.9 198.0 L 366.5 199.3 L 363.3 202.9 L 362.4 204.9 L 361.8 208.8 L 361.8 212.7 L 361.4 218.4 L 360.5 221.3 L 359.4 223.8 L 357.1 227.4 L 356.4 228.2 L 353.2 231.5 L 351.8 233.2 L 349.5 237.9 L 348.9 240.0 L 348.0 245.7 L 347.7 249.0 L 347.3 252.9 L 346.7 258.8 L 346.4 262.0 L 346.0 266.9 L 345.5 273.0 L 344.7 281.4 L 344.4 284.0 L 343.5 293.8 L 343.3 296.4 L 342.9 300.9 L 342.3 307.1 L 341.9 312.2 L 341.3 318.2 L 340.8 323.9 L 340.3 328.4 L 340.1 330.9 L 339.4 338.6 L 339.2 341.0 L 338.9 343.8 L 338.3 350.6 L 338.0 354.1 L 337.2 363.1 L 336.7 368.1 L 336.2 373.4 L 335.7 378.5 L 335.1 384.7 L 334.2 391.6 L 333.4 395.5 L 332.0 400.3 L 331.4 401.8 L 328.8 405.8 L 326.8 407.5 L 324.2 409.0 L 321.6 409.8 L 317.5 410.0 L 317.1 409.9 L 314.9 409.5 L 309.7 407.4 L 308.5 406.8 L 304.5 403.5 L 302.7 401.7 L 298.8 396.0 L 297.6 393.6 L 295.6 388.5 L 294.3 383.5 L 293.8 381.5 L 292.9 372.9 L 292.8 368.0 L 292.9 356.5 L 293.1 349.8 L 293.5 341.9 L 293.7 338.4 L 294.5 327.9 L 295.0 321.6 Z" fill="none" stroke="#e10600" stroke-width="3" stroke-linejoin="round" filter="url(#glow)" opacity="0.85"/>
  <path d="M 295.0 321.6 L 295.5 315.9 L 295.9 311.6 L 296.5 304.5 L 297.0 298.4 L 297.6 291.8 L 298.0 286.8 L 298.7 279.0 L 299.1 274.9 L 299.3 271.8 L 299.8 266.7 L 300.0 263.6 L 300.8 255.0 L 301.0 252.5 L 301.9 242.3 L 302.1 239.1 L 302.8 231.8 L 303.3 225.7 L 303.6 222.2 L 304.2 215.5 L 304.4 212.3 L 305.2 203.3 L 305.5 200.3 L 306.1 192.4 L 306.4 189.1 L 306.9 182.7 L 307.2 179.9 L 308.0 173.5 L 308.4 172.5 L 309.3 170.9 L 310.9 169.6 L 311.5 169.4 L 312.8 169.1 L 313.6 168.9 L 315.0 168.1 L 315.5 167.2 L 315.7 166.5 L 315.9 165.8 L 315.9 164.2 L 315.7 162.6 L 315.6 161.9 L 314.6 158.1 L 314.3 156.8 L 313.5 153.6 L 312.8 150.7 L 312.2 148.0 L 311.5 143.5 L 311.3 141.9 L 311.2 138.6 L 311.1 136.1 L 311.2 127.6 L 311.3 126.9 L 312.2 117.6 L 312.6 114.9 L 312.8 113.9 L 314.8 106.1 L 316.3 102.1 L 319.1 96.2 L 322.1 91.5 L 326.2 86.5 L 329.6 83.2 L 334.1 79.6 L 336.5 77.9 L 338.8 76.5 L 356.2 69.5 L 360.3 68.6 L 368.0 67.4 L 374.3 66.6 L 380.6 66.1 L 386.1 65.6 L 394.1 65.0 L 397.4 64.8 L 403.5 64.5 L 412.0 64.1 L 416.8 63.9 L 423.5 63.7 L 427.0 63.5 L 430.6 63.0 L 432.1 62.5 L 434.5 61.3 L 436.0 59.6 L 436.4 58.7 L 437.7 56.7 L 438.3 56.0 L 440.5 54.5 L 442.2 53.7 L 445.0 53.0 L 447.3 52.5 L 449.8 52.0 L 453.5 51.2 L 456.0 50.5 L 459.9 49.3 L 462.0 48.6 L 468.2 46.4 L 470.3 45.5 L 473.7 44.3 L 475.9 43.5 L 479.5 42.3 L 485.2 40.5 L 488.8 40.0 L 494.8 40.9 L 497.2 42.1 L 500.3 44.6 L 502.3 47.6 L 504.1 52.7 L 504.5 54.8 L 504.9 58.2 L 505.6 67.3 L 506.0 72.5 L 506.4 77.4 L 506.8 81.5 L 507.2 85.8 L 507.2 88.2 L 507.1 90.7 L 506.7 92.4 L 505.3 95.5 L 501.4 99.4 L 499.7 100.5 L 495.7 102.6 L 492.6 104.1 L 488.8 106.1 L 484.7 108.3 L 478.4 111.7 L 477.5 112.2 L 474.3 114.0 L 469.0 117.0 L 466.7 118.3 L 462.1 120.9 L 458.5 122.9 L 453.1 126.1 L 451.0 127.4 L 444.5 131.9 L 442.5 133.5 L 440.9 134.8 L 433.1 141.3 L 429.3 144.6 L 424.4 148.9 L 421.4 151.5 L 418.0 154.4 L 415.2 156.8 L 408.3 162.8 L 404.6 166.1 L 401.8 168.5 L 394.5 174.8 L 392.1 176.9 L 384.5 183.5 L 381.4 186.2 L 375.5 191.3 L 373.4 193.2 L 371.2 195.1 L 367.9 198.0 L 366.5 199.3 L 363.3 202.9 L 362.4 204.9 L 361.8 208.8 L 361.8 212.7 L 361.4 218.4 L 360.5 221.3 L 359.4 223.8 L 357.1 227.4 L 356.4 228.2 L 353.2 231.5 L 351.8 233.2 L 349.5 237.9 L 348.9 240.0 L 348.0 245.7 L 347.7 249.0 L 347.3 252.9 L 346.7 258.8 L 346.4 262.0 L 346.0 266.9 L 345.5 273.0 L 344.7 281.4 L 344.4 284.0 L 343.5 293.8 L 343.3 296.4 L 342.9 300.9 L 342.3 307.1 L 341.9 312.2 L 341.3 318.2 L 340.8 323.9 L 340.3 328.4 L 340.1 330.9 L 339.4 338.6 L 339.2 341.0 L 338.9 343.8 L 338.3 350.6 L 338.0 354.1 L 337.2 363.1 L 336.7 368.1 L 336.2 373.4 L 335.7 378.5 L 335.1 384.7 L 334.2 391.6 L 333.4 395.5 L 332.0 400.3 L 331.4 401.8 L 328.8 405.8 L 326.8 407.5 L 324.2 409.0 L 321.6 409.8 L 317.5 410.0 L 317.1 409.9 L 314.9 409.5 L 309.7 407.4 L 308.5 406.8 L 304.5 403.5 L 302.7 401.7 L 298.8 396.0 L 297.6 393.6 L 295.6 388.5 L 294.3 383.5 L 293.8 381.5 L 292.9 372.9 L 292.8 368.0 L 292.9 356.5 L 293.1 349.8 L 293.5 341.9 L 293.7 338.4 L 294.5 327.9 L 295.0 321.6 Z" fill="none" stroke="#ffffff" stroke-width="0.7" stroke-dasharray="3 6"/>
  <text x="20" y="34" font-family="Inter,system-ui,sans-serif" font-size="14" font-weight="600" fill="#8a8aa3" letter-spacing="2">AUTODROMO NAZIONALE MONZA</text>
</svg>
