<svg xmlns="http://www.w3.org/2000/svg" viewBox="0 0 800 450" width="800" height="450">
  <defs>
    <linearGradient id="bg" x1="0" y1="0" x2="0" y2="1">
      <stop offset="0%" stop-color="#1d1d36"/>
      <stop offset="100%" stop-color="#0e0e1a"/>
    </linearGradient>
    <pattern id="grid" width="40" height="40" patternUnits="userSpaceOnUse">
      <circle cx="2" cy="2" r="0.8" fill="#252548" opacity="0.6"/>
    </pattern>
    <filter id="glow">
      <feGaussianBlur stdDeviation="3.5"/>
    </filter>
  </defs>
  <rect width="800" height="450" fill="url(#bg)"/>
  <rect width="800" height="450" fill="url(#grid)"/>
  <path d="M 407.4 197.8 L 409.6 193.3 L 414.1 184.4 L 416.3 179.9 L 420.8 170.9 L 425.2 162.1 L 427.5 157.6 L 432.0 148.4 L 436.4 139.4 L 438.7 134.9 L 442.9 126.3 L 445.1 121.8 L 449.3 112.7 L 453.1 103.3 L 455.0 98.6 L 458.8 89.3 L 462.3 79.9 L 463.8 75.0 L 467.0 65.4 L 470.7 56.3 L 472.7 52.4 L 476.6 46.4 L 478.7 44.1 L 483.1 41.1 L 487.8 40.0 L 490.2 40.2 L 494.6 41.7 L 498.0 44.6 L 499.3 46.4 L 501.2 51.1 L 502.3 56.6 L 502.5 59.6 L 502.6 65.7 L 502.4 69.0 L 501.6 75.8 L 500.8 81.0 L 500.1 84.6 L 499.3 91.1 L 499.6 96.7 L 500.4 99.2 L 503.2 103.4 L 509.2 107.0 L 512.1 108.6 L 517.7 111.8 L 520.2 113.8 L 524.0 118.7 L 525.7 124.5 L 525.8 127.7 L 524.7 133.9 L 521.6 140.1 L 519.7 143.2 L 516.0 149.4 L 512.9 154.9 L 510.8 158.3 L 506.6 165.3 L 504.4 168.8 L 499.9 176.2 L 495.2 183.8 L 492.9 187.6 L 488.1 195.4 L 483.3 203.3 L 480.9 207.3 L 476.6 214.5 L 475.3 217.4 L 474.2 223.8 L 475.8 230.0 L 477.6 233.8 L 480.5 240.6 L 482.0 247.4 L 481.8 250.9 L 479.2 257.8 L 474.5 264.4 L 472.0 267.5 L 467.4 273.6 L 464.8 276.9 L 459.6 283.6 L 454.1 290.5 L 451.3 294.0 L 445.7 301.0 L 439.8 308.3 L 436.8 312.1 L 430.8 319.5 L 424.1 325.5 L 420.5 327.1 L 410.9 328.1 L 406.2 328.0 L 397.0 328.3 L 388.5 329.9 L 384.5 331.7 L 377.4 337.5 L 372.2 345.1 L 370.2 349.5 L 366.8 358.3 L 363.6 367.1 L 362.5 370.4 L 359.4 379.5 L 357.8 384.1 L 353.9 392.9 L 348.3 400.7 L 344.7 403.9 L 336.4 408.4 L 327.5 410.0 L 322.7 409.8 L 313.2 407.7 L 304.4 404.1 L 300.2 401.9 L 293.2 397.6 L 289.2 395.0 L 281.9 389.2 L 276.8 381.6 L 275.3 377.1 L 274.2 367.7 L 274.9 358.2 L 275.4 355.1 L 276.7 345.8 L 277.5 341.2 L 278.9 331.8 L 280.3 322.4 L 281.0 317.7 L 282.6 308.2 L 284.8 299.6 L 285.9 295.7 L 288.2 289.3 L 291.7 284.4 L 294.0 282.6 L 299.2 280.4 L 302.3 279.9 L 308.9 279.8 L 315.1 279.5 L 318.2 278.9 L 323.9 276.1 L 328.8 271.2 L 330.6 268.2 L 333.0 260.8 L 334.9 253.1 L 335.9 249.3 L 337.9 241.4 L 338.9 237.4 L 340.7 229.4 L 342.6 220.5 L 343.6 216.1 L 345.5 207.4 L 347.5 198.5 L 348.5 194.1 L 350.9 185.2 L 354.5 177.5 L 356.7 174.5 L 361.4 170.2 L 364.0 168.7 L 369.3 167.4 L 374.4 167.7 L 376.7 168.6 L 380.6 171.3 L 383.4 175.3 L 384.4 177.7 L 385.5 183.0 L 385.5 188.3 L 385.1 191.2 L 383.1 197.2 L 381.6 200.2 L 377.8 206.2 L 373.4 212.2 L 371.1 215.4 L 366.3 221.9 L 362.7 229.0 L 361.8 233.1 L 361.1 242.3 L 360.8 246.9 L 359.6 255.8 L 356.0 264.1 L 354.8 265.9 L 349.4 273.6 L 344.0 281.5 L 341.3 285.4 L 335.7 293.3 L 330.3 300.9 L 327.4 304.9 L 321.6 313.0 L 318.7 317.1 L 313.0 325.4 L 306.8 333.3 L 303.6 337.2 L 297.2 345.1 L 293.2 352.4 L 292.3 356.4 L 292.3 363.6 L 294.7 370.3 L 296.5 373.1 L 300.8 377.6 L 303.2 379.3 L 308.7 381.3 L 314.9 381.6 L 318.2 381.0 L 324.3 378.7 L 330.1 374.6 L 332.7 371.9 L 337.1 365.1 L 341.0 357.9 L 342.8 354.2 L 346.3 346.5 L 348.0 342.5 L 351.5 334.5 L 355.0 326.4 L 355.8 324.3 L 359.2 315.9 L 362.7 307.3 L 364.4 303.0 L 367.9 294.2 L 371.5 285.4 L 373.2 280.9 L 376.8 272.0 L 378.6 267.5 L 382.1 258.9 L 385.7 249.8 L 387.6 245.2 L 391.3 236.1 L 395.1 226.9 L 397.0 222.3 L 400.5 213.6 L 404.2 204.3 L 407.4 197.8 Z" fill="none" stroke="#2c2c4a" stroke-width="14" stroke-linejoin="round" stroke-linecap="round"/>
  <path d="M 407.4 197.8 L 409.6 193.3 L 414.1 184.4 L 416.3 179.9 L 420.8 170.9 L 425.2 162.1 L 427.5 157.6 L 432.0 148.4 L 436.4 139.4 L 438.7 134.9 L 442.9 126.3 L 445.1 121.8 L 449.3 112.7 L 453.1 103.3 L 455.0 98.6 L 458.8 89.3 L 462.3 79.9 L 463.8 75.0 L 467.0 65.4 L 470.7 56.3 L 472.7 52.4 L 476.6 46.4 L 478.7 44.1 L 483.1 41.1 L 487.8 40.0 L 490.2 40.2 L 494.6 41.7 L 498.0 44.6 L 499.3 46.4 L 501.2 51.1 L 502.3 56.6 L 502.5 59.6 L 502.6 65.7 L 502.4 69.0 L 501.6 75.8 L 500.8 81.0 L 500.1 84.6 L 499.3 91.1 L 499.6 96.7 L 500.4 99.2 L 503.2 103.4 L 509.2 107.0 L 512.1 108.6 L 517.7 111.8 L 520.2 113.8 L 524.0 118.7 L 525.7 124.5 L 525.8 127.7 L 524.7 133.9 L 521.6 140.1 L 519.7 143.2 L 516.0 149.4 L 512.9 154.9 L 510.8 158.3 L 506.6 165.3 L 504.4 168.8 L 499.9 176.2 L 495.2 183.8 L 492.9 187.6 L 488.1 195.4 L 483.3 203.3 L 480.9 207.3 L 476.6 214.5 L 475.3 217.4 L 474.2 223.8 L 475.8 230.0 L 477.6 233.8 L 480.5 240.6 L 482.0 247.4 L 481.8 250.9 L 479.2 257.8 L 474.5 264.4 L 472.0 267.5 L 467.4 273.6 L 464.8 276.9 L 459.6 283.6 L 454.1 290.5 L 451.3 294.0 L 445.7 301.0 L 439.8 308.3 L 436.8 312.1 L 430.8 319.5 L 424.1 325.5 L 420.5 327.1 L 410.9 328.1 L 406.2 328.0 L 397.0 328.3 L 388.5 329.9 L 384.5 331.7 L 377.4 337.5 L 372.2 345.1 L 370.2 349.5 L 366.8 358.3 L 363.6 367.1 L 362.5 370.4 L 359.4 379.5 L 357.8 384.1 L 353.9 392.9 L 348.3 400.7 L 344.7 403.9 L 336.4 408.4 L 327.5 410.0 L 322.7 409.8 L 313.2 407.7 L 304.4 404.1 L 300.2 401.9 L 293.2 397.6 L 289.2 395.0 L 281.9 389.2 L 276.8 381.6 L 275.3 377.1 L 274.2 367.7 L 274.9 358.2 L 275.4 355.1 L 276.7 345.8 L 277.5 341.2 L 278.9 331.8 L 280.3 322.4 L 281.0 317.7 L 282.6 308.2 L 284.8 299.6 L 285.9 295.7 L 288.2 289.3 L 291.7 284.4 L 294.0 282.6 L 299.2 280.4 L 302.3 279.9 L 308.9 279.8 L 315.1 279.5 L 318.2 278.9 L 323.9 276.1 L 328.8 271.2 L 330.6 268.2 L 333.0 260.8 L 334.9 253.1 L 335.9 249.3 L 337.9 241.4 L 338.9 237.4 L 340.7 229.4 L 342.6 220.5 L 343.6 216.1 L 345.5 207.4 L 347.5 198.5 L 348.5 194.1 L 350.9 185.2 L 354.5 177.5 L 356.7 174.5 L 361.4 170.2 L 364.0 168.7 L 369.3 167.4 L 374.4 167.7 L 376.7 168.6 L 380.6 171.3 L 383.4 175.3 L 384.4 177.7 L 385.5 183.0 L 385.5 188.3 L 385.1 191.2 L 383.1 197.2 L 381.6 200.2 L 377.8 206.2 L 373.4 212.2 L 371.1 215.4 L 366.3 221.9 L 362.7 229.0 L 361.8 233.1 L 361.1 242.3 L 360.8 246.9 L 359.6 255.8 L 356.0 264.1 L 354.8 265.9 L 349.4 273.6 L 344.0 281.5 L 341.3 285.4 L 335.7 293.3 L 330.3 300.9 L 327.4 304.9 L 321.6 313.0 L 318.7 317.1 L 313.0 325.4 L 306.8 333.3 L 303.6 337.2 L 297.2 345.1 L 293.2 352.4 L 292.3 356.4 L 292.3 363.6 L 294.7 370.3 L 296.5 373.1 L 300.8 377.6 L 303.2 379.3 L 308.7 381.3 L 314.9 381.6 L 318.2 381.0 L 324.3 378.7 L 330.1 374.6 L 332.7 371.9 L 337.1 365.1 L 341.0 357.9 L 342.8 354.2 L 346.3 346.5 L 348.0 342.5 L 351.5 334.5 L 355.0 326.4 L 355.8 324.3 L 359.2 315.9 L 362.7 307.3 L 364.4 303.0 L 367.9 294.2 L 371.5 285.4 L 373.2 280.9 L 376.8 272.0 L 378.6 267.5 L 382.1 258.9 L 385.7 249.8 L 387.6 245.2 L 391.3 236.1 L 395.1 226.9 L 397.0 222.3 L 400.5 213.6 L 404.2 204.3 L 407.4 197.8 Z" fill="none" stroke="#e10600" stroke-width="3" stroke-linejoin="round" filter="url(#glow)" opacity="0.85"/>
  <path d="M 407.4 197.8 L 409.6 193.3 L 414.1 184.4 L 416.3 179.9 L 420.8 170.9 L 425.2 162.1 L 427.5 157.6 L 432.0 148.4 L 436.4 139.4 L 438.7 134.9 L 442.9 126.3 L 445.1 121.8 L 449.3 112.7 L 453.1 103.3 L 455.0 98.6 L 458.8 89.3 L 462.3 79.9 L 463.8 75.0 L 467.0 65.4 L 470.7 56.3 L 472.7 52.4 L 476.6 46.4 L 478.7 44.1 L 483.1 41.1 L 487.8 40.0 L 490.2 40.2 L 494.6 41.7 L 498.0 44.6 L 499.3 46.4 L 501.2 51.1 L 502.3 56.6 L 502.5 59.6 L 502.6 65.7 L 502.4 69.0 L 501.6 75.8 L 500.8 81.0 L 500.1 84.6 L 499.3 91.1 L 499.6 96.7 L 500.4 99.2 L 503.2 103.4 L 509.2 107.0 L 512.1 108.6 L 517.7 111.8 L 520.2 113.8 L 524.0 118.7 L 525.7 124.5 L 525.8 127.7 L 524.7 133.9 L 521.6 140.1 L 519.7 143.2 L 516.0 149.4 L 512.9 154.9 L 510.8 158.3 L 506.6 165.3 L 504.4 168.8 L 499.9 176.2 L 495.2 183.8 L 492.9 187.6 L 488.1 195.4 L 483.3 203.3 L 480.9 207.3 L 476.6 214.5 L 475.3 217.4 L 474.2 223.8 L 475.8 230.0 L 477.6 233.8 L 480.5 240.6 L 482.0 247.4 L 481.8 250.9 L 479.2 257.8 L 474.5 264.4 L 472.0 267.5 L 467.4 273.6 L 464.8 276.9 L 459.6 283.6 L 454.1 290.5 L 451.3 294.0 L 445.7 301.0 L 439.8 308.3 L 436.8 312.1 L 430.8 319.5 L 424.1 325.5 L 420.5 327.1 L 410.9 328.1 L 406.2 328.0 L 397.0 328.3 L 388.5 329.9 L 384.5 331.7 L 377.4 337.5 L 372.2 345.1 L 370.2 349.5 L 366.8 358.3 L 363.6 367.1 L 362.5 370.4 L 359.4 379.5 L 357.8 384.1 L 353.9 392.9 L 348.3 400.7 L 344.7 403.9 L 336.4 408.4 L 327.5 410.0 L 322.7 409.8 L 313.2 407.7 L 304.4 404.1 L 300.2 401.9 L 293.2 397.6 L 289.2 395.0 L 281.9 389.2 L 276.8 381.6 L 275.3 377.1 L 274.2 367.7 L 274.9 358.2 L 275.4 355.1 L 276.7 345.8 L 277.5 341.2 L 278.9 331.8 L 280.3 322.4 L 281.0 317.7 L 282.6 308.2 L 284.8 299.6 L 285.9 295.7 L 288.2 289.3 L 291.7 284.4 L 294.0 282.6 L 299.2 280.4 L 302.3 279.9 L 308.9 279.8 L 315.1 279.5 L 318.2 278.9 L 323.9 276.1 L 328.8 271.2 L 330.6 268.2 L 333.0 260.8 L 334.9 253.1 L 335.9 249.3 L 337.9 241.4 L 338.9 237.4 L 340.7 229.4 L 342.6 220.5 L 343.6 216.1 L 345.5 207.4 L 347.5 198.5 L 348.5 194.1 L 350.9 185.2 L 354.5 177.5 L 356.7 174.5 L 361.4 170.2 L 364.0 168.7 L 369.3 167.4 L 374.4 167.7 L 376.7 168.6 L 380.6 171.3 L 383.4 175.3 L 384.4 177.7 L 385.5 183.0 L 385.5 188.3 L 385.1 191.2 L 383.1 197.2 L 381.6 200.2 L 377.8 206.2 L 373.4 212.2 L 371.1 215.4 L 366.3 221.9 L 362.7 229.0 L 361.8 233.1 L 361.1 242.3 L 360.8 246.9 L 359.6 255.8 L 356.0 264.1 L 354.8 265.9 L 349.4 273.6 L 344.0 281.5 L 341.3 285.4 L 335.7 293.3 L 330.3 300.9 L 327.4 304.9 L 321.6 313.0 L 318.7 317.1 L 313.0 325.4 L 306.8 333.3 L 303.6 337.2 L 297.2 345.1 L 293.2 352.4 L 292.3 356.4 L 292.3 363.6 L 294.7 370.3 L 296.5 373.1 L 300.8 377.6 L 303.2 379.3 L 308.7 381.3 L 314.9 381.6 L 318.2 381.0 L 324.3 378.7 L 330.1 374.6 L 332.7 371.9 L 337.1 365.1 L 341.0 357.9 L 342.8 354.2 L 346.3 346.5 L 348.0 342.5 L 351.5 334.5 L 355.0 326.4 L 355.8 324.3 L 359.2 315.9 L 362.7 307.3 L 364.4 303.0 L 367.9 294.2 L 371.5 285.4 L 373.2 280.9 L 376.8 272.0 L 378.6 267.5 L 382.1 258.9 L 385.7 249.8 L 387.6 245.2 L 391.3 236.1 L 395.1 226.9 L 397.0 222.3 L 400.5 213.6 L 404.2 204.3 L 407.4 197.8 Z" fill="none" stroke="#ffffff" stroke-width="0.7" stroke-dasharray="3 6"/>
  <text x="20" y="34" font-family="Inter,system-ui,sans-serif" font-size="14" font-weight="600" fill="#8a8aa3" letter-spacing="2">AUTODROMO INTERNAZIONALE DEL MUGELLO</text>
</svg>
