<svg xmlns="http://www.w3.org/2000/svg" viewBox="0 0 800 450" width="800" height="450">
  <defs>
    <linearGradient id="bg" x1="0" y1="0" x2="0" y2="1">
      <stop offset="0%" stop-color="#1d1d36"/>
      <stop offset="100%" stop-color="#0e0e1a"/>
    </linearGradient>
    <pattern id="grid" width="40" height="40" patternUnits="userSpaceOnUse">
      <circle cx="2" cy="2" r="0.8" fill="#252548" opacity="0.6"/>
    </pattern>
    <filter id="glow">
      <feGaussianBlur stdDeviation="3.5"/>
    </filter>
  </defs>
  <rect width="800" height="450" fill="url(#bg)"/>
  <rect width="800" height="450" fill="url(#grid)"/>
  <path d="M 498.0 102.0 L 495.1 104.8 L 489.2 110.5 L 483.3 116.3 L 477.3 122.1 L 471.2 128.1 L 468.1 131.1 L 461.9 137.1 L 455.6 143.1 L 449.7 149.0 L 443.4 155.0 L 437.1 161.2 L 433.9 164.3 L 427.6 170.5 L 421.2 176.9 L 414.4 182.7 L 407.3 188.0 L 400.9 192.5 L 398.0 194.0 L 393.3 196.5 L 389.5 198.4 L 386.3 199.1 L 383.8 198.5 L 382.2 196.8 L 381.9 195.5 L 382.1 192.6 L 383.0 189.4 L 384.0 186.3 L 385.2 183.0 L 386.8 179.1 L 387.8 176.9 L 389.5 174.1 L 392.4 169.3 L 394.0 164.3 L 393.7 159.0 L 391.8 154.1 L 390.4 152.1 L 386.7 148.8 L 381.6 147.0 L 375.4 146.7 L 369.0 147.4 L 363.2 148.4 L 360.2 149.1 L 353.6 151.2 L 348.3 153.6 L 344.6 156.2 L 342.4 159.3 L 341.4 162.5 L 341.3 164.1 L 342.1 166.8 L 343.6 169.1 L 346.1 170.8 L 349.3 172.1 L 354.3 173.2 L 356.4 173.7 L 360.5 175.2 L 363.6 177.9 L 365.4 181.9 L 365.7 186.5 L 365.4 191.6 L 365.1 194.2 L 364.0 199.8 L 362.7 205.7 L 361.4 211.3 L 359.8 218.0 L 358.2 225.0 L 357.3 228.6 L 355.2 235.9 L 352.8 243.3 L 350.2 250.9 L 347.6 258.6 L 345.0 266.5 L 343.6 270.4 L 340.9 278.2 L 339.7 285.3 L 340.6 291.4 L 343.9 296.9 L 346.3 299.2 L 352.6 302.8 L 358.7 305.8 L 363.6 308.5 L 367.0 311.2 L 368.8 314.7 L 369.2 316.6 L 368.8 320.4 L 367.0 323.8 L 363.6 326.7 L 359.2 329.2 L 354.5 331.7 L 352.0 333.0 L 346.8 335.8 L 341.4 338.7 L 335.5 342.1 L 329.4 346.0 L 323.4 350.3 L 320.3 352.6 L 314.3 357.5 L 309.5 361.6 L 303.5 367.1 L 297.7 372.9 L 292.1 379.2 L 289.4 382.5 L 284.3 389.3 L 279.6 396.1 L 275.5 402.0 L 271.9 406.1 L 268.2 408.6 L 266.2 409.4 L 262.8 410.0 L 259.8 409.2 L 257.6 407.4 L 256.5 404.4 L 256.5 400.8 L 256.9 398.9 L 258.4 395.2 L 261.4 390.6 L 264.8 386.7 L 268.8 382.8 L 273.3 378.7 L 275.7 376.6 L 280.6 372.1 L 285.7 367.4 L 290.9 362.4 L 296.6 357.0 L 302.0 351.8 L 304.8 349.0 L 309.7 343.1 L 313.1 336.1 L 314.4 328.2 L 313.5 319.9 L 312.0 311.6 L 311.9 307.6 L 312.9 299.4 L 315.3 291.4 L 317.9 283.4 L 320.4 275.3 L 322.9 267.2 L 323.7 264.4 L 326.5 256.2 L 329.3 248.0 L 332.0 240.2 L 334.8 232.0 L 337.6 223.7 L 338.8 220.3 L 341.1 213.4 L 342.2 207.9 L 341.4 203.1 L 338.6 199.2 L 336.3 197.7 L 330.4 195.3 L 324.5 193.2 L 318.5 191.1 L 312.3 188.7 L 307.0 185.8 L 304.9 183.9 L 302.3 179.1 L 301.4 173.8 L 302.7 168.4 L 305.6 163.0 L 309.5 157.7 L 311.4 155.0 L 315.5 149.5 L 320.4 143.7 L 325.5 138.2 L 330.7 132.5 L 336.0 126.6 L 338.7 123.6 L 344.2 117.5 L 349.8 111.3 L 355.5 105.1 L 361.4 99.0 L 368.3 94.0 L 372.1 92.0 L 380.0 89.2 L 388.2 87.1 L 396.6 84.7 L 405.1 82.3 L 413.6 80.1 L 417.9 79.0 L 426.3 76.8 L 434.9 74.9 L 443.7 73.3 L 452.4 71.7 L 460.1 70.3 L 463.1 69.7 L 468.1 68.8 L 471.7 67.8 L 473.8 66.4 L 475.0 64.3 L 475.1 61.0 L 475.3 59.0 L 476.7 56.0 L 479.3 53.8 L 482.6 51.8 L 486.2 49.6 L 490.3 47.5 L 492.7 46.5 L 498.1 45.0 L 504.0 43.8 L 509.8 42.9 L 516.6 41.8 L 523.3 40.8 L 526.3 40.3 L 531.6 40.0 L 535.8 41.1 L 539.2 43.5 L 541.7 46.6 L 543.2 50.3 L 543.6 52.3 L 543.5 56.5 L 542.1 60.6 L 538.6 64.7 L 534.6 68.7 L 530.0 72.7 L 527.6 74.9 L 522.7 79.3 L 517.5 83.9 L 512.1 88.7 L 506.4 93.8 L 500.3 99.7 L 498.0 102.0 Z" fill="none" stroke="#2c2c4a" stroke-width="14" stroke-linejoin="round" stroke-linecap="round"/>
  <path d="M 498.0 102.0 L 495.1 104.8 L 489.2 110.5 L 483.3 116.3 L 477.3 122.1 L 471.2 128.1 L 468.1 131.1 L 461.9 137.1 L 455.6 143.1 L 449.7 149.0 L 443.4 155.0 L 437.1 161.2 L 433.9 164.3 L 427.6 170.5 L 421.2 176.9 L 414.4 182.7 L 407.3 188.0 L 400.9 192.5 L 398.0 194.0 L 393.3 196.5 L 389.5 198.4 L 386.3 199.1 L 383.8 198.5 L 382.2 196.8 L 381.9 195.5 L 382.1 192.6 L 383.0 189.4 L 384.0 186.3 L 385.2 183.0 L 386.8 179.1 L 387.8 176.9 L 389.5 174.1 L 392.4 169.3 L 394.0 164.3 L 393.7 159.0 L 391.8 154.1 L 390.4 152.1 L 386.7 148.8 L 381.6 147.0 L 375.4 146.7 L 369.0 147.4 L 363.2 148.4 L 360.2 149.1 L 353.6 151.2 L 348.3 153.6 L 344.6 156.2 L 342.4 159.3 L 341.4 162.5 L 341.3 164.1 L 342.1 166.8 L 343.6 169.1 L 346.1 170.8 L 349.3 172.1 L 354.3 173.2 L 356.4 173.7 L 360.5 175.2 L 363.6 177.9 L 365.4 181.9 L 365.7 186.5 L 365.4 191.6 L 365.1 194.2 L 364.0 199.8 L 362.7 205.7 L 361.4 211.3 L 359.8 218.0 L 358.2 225.0 L 357.3 228.6 L 355.2 235.9 L 352.8 243.3 L 350.2 250.9 L 347.6 258.6 L 345.0 266.5 L 343.6 270.4 L 340.9 278.2 L 339.7 285.3 L 340.6 291.4 L 343.9 296.9 L 346.3 299.2 L 352.6 302.8 L 358.7 305.8 L 363.6 308.5 L 367.0 311.2 L 368.8 314.7 L 369.2 316.6 L 368.8 320.4 L 367.0 323.8 L 363.6 326.7 L 359.2 329.2 L 354.5 331.7 L 352.0 333.0 L 346.8 335.8 L 341.4 338.7 L 335.5 342.1 L 329.4 346.0 L 323.4 350.3 L 320.3 352.6 L 314.3 357.5 L 309.5 361.6 L 303.5 367.1 L 297.7 372.9 L 292.1 379.2 L 289.4 382.5 L 284.3 389.3 L 279.6 396.1 L 275.5 402.0 L 271.9 406.1 L 268.2 408.6 L 266.2 409.4 L 262.8 410.0 L 259.8 409.2 L 257.6 407.4 L 256.5 404.4 L 256.5 400.8 L 256.9 398.9 L 258.4 395.2 L 261.4 390.6 L 264.8 386.7 L 268.8 382.8 L 273.3 378.7 L 275.7 376.6 L 280.6 372.1 L 285.7 367.4 L 290.9 362.4 L 296.6 357.0 L 302.0 351.8 L 304.8 349.0 L 309.7 343.1 L 313.1 336.1 L 314.4 328.2 L 313.5 319.9 L 312.0 311.6 L 311.9 307.6 L 312.9 299.4 L 315.3 291.4 L 317.9 283.4 L 320.4 275.3 L 322.9 267.2 L 323.7 264.4 L 326.5 256.2 L 329.3 248.0 L 332.0 240.2 L 334.8 232.0 L 337.6 223.7 L 338.8 220.3 L 341.1 213.4 L 342.2 207.9 L 341.4 203.1 L 338.6 199.2 L 336.3 197.7 L 330.4 195.3 L 324.5 193.2 L 318.5 191.1 L 312.3 188.7 L 307.0 185.8 L 304.9 183.9 L 302.3 179.1 L 301.4 173.8 L 302.7 168.4 L 305.6 163.0 L 309.5 157.7 L 311.4 155.0 L 315.5 149.5 L 320.4 143.7 L 325.5 138.2 L 330.7 132.5 L 336.0 126.6 L 338.7 123.6 L 344.2 117.5 L 349.8 111.3 L 355.5 105.1 L 361.4 99.0 L 368.3 94.0 L 372.1 92.0 L 380.0 89.2 L 388.2 87.1 L 396.6 84.7 L 405.1 82.3 L 413.6 80.1 L 417.9 79.0 L 426.3 76.8 L 434.9 74.9 L 443.7 73.3 L 452.4 71.7 L 460.1 70.3 L 463.1 69.7 L 468.1 68.8 L 471.7 67.8 L 473.8 66.4 L 475.0 64.3 L 475.1 61.0 L 475.3 59.0 L 476.7 56.0 L 479.3 53.8 L 482.6 51.8 L 486.2 49.6 L 490.3 47.5 L 492.7 46.5 L 498.1 45.0 L 504.0 43.8 L 509.8 42.9 L 516.6 41.8 L 523.3 40.8 L 526.3 40.3 L 531.6 40.0 L 535.8 41.1 L 539.2 43.5 L 541.7 46.6 L 543.2 50.3 L 543.6 52.3 L 543.5 56.5 L 542.1 60.6 L 538.6 64.7 L 534.6 68.7 L 530.0 72.7 L 527.6 74.9 L 522.7 79.3 L 517.5 83.9 L 512.1 88.7 L 506.4 93.8 L 500.3 99.7 L 498.0 102.0 Z" fill="none" stroke="#e10600" stroke-width="3" stroke-linejoin="round" filter="url(#glow)" opacity="0.85"/>
  <path d="M 498.0 102.0 L 495.1 104.8 L 489.2 110.5 L 483.3 116.3 L 477.3 122.1 L 471.2 128.1 L 468.1 131.1 L 461.9 137.1 L 455.6 143.1 L 449.7 149.0 L 443.4 155.0 L 437.1 161.2 L 433.9 164.3 L 427.6 170.5 L 421.2 176.9 L 414.4 182.7 L 407.3 188.0 L 400.9 192.5 L 398.0 194.0 L 393.3 196.5 L 389.5 198.4 L 386.3 199.1 L 383.8 198.5 L 382.2 196.8 L 381.9 195.5 L 382.1 192.6 L 383.0 189.4 L 384.0 186.3 L 385.2 183.0 L 386.8 179.1 L 387.8 176.9 L 389.5 174.1 L 392.4 169.3 L 394.0 164.3 L 393.7 159.0 L 391.8 154.1 L 390.4 152.1 L 386.7 148.8 L 381.6 147.0 L 375.4 146.7 L 369.0 147.4 L 363.2 148.4 L 360.2 149.1 L 353.6 151.2 L 348.3 153.6 L 344.6 156.2 L 342.4 159.3 L 341.4 162.5 L 341.3 164.1 L 342.1 166.8 L 343.6 169.1 L 346.1 170.8 L 349.3 172.1 L 354.3 173.2 L 356.4 173.7 L 360.5 175.2 L 363.6 177.9 L 365.4 181.9 L 365.7 186.5 L 365.4 191.6 L 365.1 194.2 L 364.0 199.8 L 362.7 205.7 L 361.4 211.3 L 359.8 218.0 L 358.2 225.0 L 357.3 228.6 L 355.2 235.9 L 352.8 243.3 L 350.2 250.9 L 347.6 258.6 L 345.0 266.5 L 343.6 270.4 L 340.9 278.2 L 339.7 285.3 L 340.6 291.4 L 343.9 296.9 L 346.3 299.2 L 352.6 302.8 L 358.7 305.8 L 363.6 308.5 L 367.0 311.2 L 368.8 314.7 L 369.2 316.6 L 368.8 320.4 L 367.0 323.8 L 363.6 326.7 L 359.2 329.2 L 354.5 331.7 L 352.0 333.0 L 346.8 335.8 L 341.4 338.7 L 335.5 342.1 L 329.4 346.0 L 323.4 350.3 L 320.3 352.6 L 314.3 357.5 L 309.5 361.6 L 303.5 367.1 L 297.7 372.9 L 292.1 379.2 L 289.4 382.5 L 284.3 389.3 L 279.6 396.1 L 275.5 402.0 L 271.9 406.1 L 268.2 408.6 L 266.2 409.4 L 262.8 410.0 L 259.8 409.2 L 257.6 407.4 L 256.5 404.4 L 256.5 400.8 L 256.9 398.9 L 258.4 395.2 L 261.4 390.6 L 264.8 386.7 L 268.8 382.8 L 273.3 378.7 L 275.7 376.6 L 280.6 372.1 L 285.7 367.4 L 290.9 362.4 L 296.6 357.0 L 302.0 351.8 L 304.8 349.0 L 309.7 343.1 L 313.1 336.1 L 314.4 328.2 L 313.5 319.9 L 312.0 311.6 L 311.9 307.6 L 312.9 299.4 L 315.3 291.4 L 317.9 283.4 L 320.4 275.3 L 322.9 267.2 L 323.7 264.4 L 326.5 256.2 L 329.3 248.0 L 332.0 240.2 L 334.8 232.0 L 337.6 223.7 L 338.8 220.3 L 341.1 213.4 L 342.2 207.9 L 341.4 203.1 L 338.6 199.2 L 336.3 197.7 L 330.4 195.3 L 324.5 193.2 L 318.5 191.1 L 312.3 188.7 L 307.0 185.8 L 304.9 183.9 L 302.3 179.1 L 301.4 173.8 L 302.7 168.4 L 305.6 163.0 L 309.5 157.7 L 311.4 155.0 L 315.5 149.5 L 320.4 143.7 L 325.5 138.2 L 330.7 132.5 L 336.0 126.6 L 338.7 123.6 L 344.2 117.5 L 349.8 111.3 L 355.5 105.1 L 361.4 99.0 L 368.3 94.0 L 372.1 92.0 L 380.0 89.2 L 388.2 87.1 L 396.6 84.7 L 405.1 82.3 L 413.6 80.1 L 417.9 79.0 L 426.3 76.8 L 434.9 74.9 L 443.7 73.3 L 452.4 71.7 L 460.1 70.3 L 463.1 69.7 L 468.1 68.8 L 471.7 67.8 L 473.8 66.4 L 475.0 64.3 L 475.1 61.0 L 475.3 59.0 L 476.7 56.0 L 479.3 53.8 L 482.6 51.8 L 486.2 49.6 L 490.3 47.5 L 492.7 46.5 L 498.1 45.0 L 504.0 43.8 L 509.8 42.9 L 516.6 41.8 L 523.3 40.8 L 526.3 40.3 L 531.6 40.0 L 535.8 41.1 L 539.2 43.5 L 541.7 46.6 L 543.2 50.3 L 543.6 52.3 L 543.5 56.5 L 542.1 60.6 L 538.6 64.7 L 534.6 68.7 L 530.0 72.7 L 527.6 74.9 L 522.7 79.3 L 517.5 83.9 L 512.1 88.7 L 506.4 93.8 L 500.3 99.7 L 498.0 102.0 Z" fill="none" stroke="#ffffff" stroke-width="0.7" stroke-dasharray="3 6"/>
  <text x="20" y="34" font-family="Inter,system-ui,sans-serif" font-size="14" font-weight="600" fill="#8a8aa3" letter-spacing="2">NÜRBURGRING</text>
</svg>
