<svg xmlns="http://www.w3.org/2000/svg" viewBox="0 0 800 450" width="800" height="450">
  <defs>
    <linearGradient id="bg" x1="0" y1="0" x2="0" y2="1">
      <stop offset="0%" stop-color="#1d1d36"/>
      <stop offset="100%" stop-color="#0e0e1a"/>
    </linearGradient>
    <pattern id="grid" width="40" height="40" patternUnits="userSpaceOnUse">
      <circle cx="2" cy="2" r="0.8" fill="#252548" opacity="0.6"/>
    </pattern>
    <filter id="glow">
      <feGaussianBlur stdDeviation="3.5"/>
    </filter>
  </defs>
  <rect width="800" height="450" fill="url(#bg)"/>
  <rect width="800" height="450" fill="url(#grid)"/>
  <path d="M 348.6 274.7 L 347.0 269.2 L 343.6 258.2 L 342.0 252.7 L 338.6 241.6 L 335.2 230.5 L 333.5 225.0 L 330.1 213.9 L 326.7 202.8 L 325.1 197.3 L 321.8 186.7 L 318.4 175.5 L 316.6 169.5 L 312.8 158.2 L 308.9 147.2 L 307.0 141.7 L 303.4 131.1 L 300.3 119.8 L 299.2 113.9 L 297.0 102.4 L 294.9 91.2 L 294.1 86.9 L 292.4 77.6 L 292.6 70.0 L 293.9 66.6 L 300.0 59.4 L 306.9 54.3 L 311.5 52.4 L 318.7 48.6 L 326.8 43.2 L 331.0 41.3 L 341.1 40.0 L 351.2 40.6 L 355.8 41.8 L 364.2 45.0 L 370.3 47.2 L 372.8 48.2 L 376.6 50.4 L 377.8 51.7 L 379.2 54.5 L 379.2 57.6 L 378.7 59.1 L 376.8 61.7 L 373.7 64.2 L 371.9 65.4 L 368.4 68.0 L 364.6 70.8 L 364.1 71.2 L 358.6 74.5 L 352.8 78.2 L 350.3 80.6 L 347.0 87.3 L 346.3 95.6 L 347.1 100.0 L 349.1 108.8 L 351.5 117.3 L 352.9 121.7 L 356.0 130.7 L 359.1 140.1 L 360.7 144.9 L 363.9 154.7 L 367.3 164.7 L 369.0 169.8 L 372.2 179.4 L 375.0 189.4 L 376.4 194.9 L 379.0 205.8 L 381.6 216.9 L 383.0 222.4 L 385.5 233.0 L 387.6 241.6 L 388.5 245.0 L 390.4 250.3 L 392.2 254.6 L 393.1 256.2 L 395.2 258.5 L 396.5 259.2 L 399.4 259.5 L 401.9 259.2 L 403.0 258.5 L 404.9 256.2 L 406.3 252.4 L 406.6 250.1 L 407.4 244.7 L 408.2 237.8 L 408.4 234.6 L 408.6 227.7 L 408.8 220.1 L 408.9 216.1 L 409.2 207.7 L 409.3 198.8 L 409.2 194.3 L 408.5 184.9 L 406.9 175.5 L 405.3 170.8 L 401.2 161.4 L 395.7 152.5 L 392.8 148.2 L 387.1 139.3 L 382.9 130.0 L 382.0 125.6 L 382.9 115.7 L 387.3 106.9 L 390.5 102.8 L 395.8 96.0 L 400.0 90.5 L 400.8 89.5 L 404.6 86.4 L 408.5 85.3 L 410.6 85.5 L 414.5 87.3 L 416.2 88.7 L 418.8 92.1 L 420.8 96.6 L 421.5 99.0 L 422.8 104.4 L 423.7 110.7 L 424.0 114.1 L 424.7 121.0 L 425.5 129.0 L 425.9 133.2 L 427.0 143.4 L 427.9 152.7 L 428.4 157.5 L 429.4 167.5 L 430.4 177.8 L 431.2 183.0 L 434.9 192.6 L 441.4 201.4 L 445.3 205.2 L 454.6 211.1 L 464.7 216.2 L 469.6 218.8 L 479.3 224.0 L 489.0 229.1 L 493.5 231.6 L 500.3 236.4 L 504.9 242.3 L 506.3 245.4 L 507.6 251.8 L 507.8 257.5 L 507.5 260.1 L 505.8 264.5 L 502.6 267.8 L 500.3 269.0 L 494.2 271.0 L 488.1 273.1 L 484.8 274.2 L 478.4 276.0 L 475.8 276.7 L 467.7 278.9 L 459.4 282.0 L 455.3 284.1 L 447.8 289.4 L 441.9 296.5 L 439.4 300.8 L 436.0 309.9 L 434.1 320.1 L 433.3 324.9 L 431.6 333.7 L 430.8 340.5 L 430.6 343.2 L 430.6 347.0 L 431.6 350.5 L 432.7 351.9 L 435.3 354.2 L 438.8 355.4 L 440.6 355.7 L 444.0 355.6 L 447.6 354.3 L 449.4 353.1 L 453.2 349.3 L 456.9 345.2 L 459.0 343.0 L 463.9 337.4 L 468.1 331.2 L 470.3 328.1 L 474.3 322.4 L 477.9 317.6 L 479.8 315.7 L 483.9 313.4 L 488.4 313.1 L 490.6 313.7 L 496.2 318.3 L 498.4 320.9 L 501.0 326.3 L 502.7 332.4 L 503.3 335.8 L 503.8 343.0 L 502.4 350.3 L 500.4 353.8 L 493.9 360.2 L 488.6 365.2 L 485.6 368.8 L 479.5 376.2 L 473.1 383.8 L 469.8 387.7 L 463.0 395.3 L 454.8 401.7 L 450.2 404.3 L 441.2 407.6 L 430.7 409.7 L 425.2 410.0 L 414.3 408.9 L 403.8 405.6 L 398.8 403.2 L 389.7 396.9 L 381.7 388.3 L 379.0 383.5 L 375.3 373.1 L 372.5 362.1 L 371.0 356.7 L 368.1 345.8 L 365.1 334.8 L 363.6 329.4 L 360.7 318.4 L 357.7 307.3 L 356.1 301.7 L 353.1 290.5 L 350.3 280.6 L 348.6 274.7 Z" fill="none" stroke="#2c2c4a" stroke-width="14" stroke-linejoin="round" stroke-linecap="round"/>
  <path d="M 348.6 274.7 L 347.0 269.2 L 343.6 258.2 L 342.0 252.7 L 338.6 241.6 L 335.2 230.5 L 333.5 225.0 L 330.1 213.9 L 326.7 202.8 L 325.1 197.3 L 321.8 186.7 L 318.4 175.5 L 316.6 169.5 L 312.8 158.2 L 308.9 147.2 L 307.0 141.7 L 303.4 131.1 L 300.3 119.8 L 299.2 113.9 L 297.0 102.4 L 294.9 91.2 L 294.1 86.9 L 292.4 77.6 L 292.6 70.0 L 293.9 66.6 L 300.0 59.4 L 306.9 54.3 L 311.5 52.4 L 318.7 48.6 L 326.8 43.2 L 331.0 41.3 L 341.1 40.0 L 351.2 40.6 L 355.8 41.8 L 364.2 45.0 L 370.3 47.2 L 372.8 48.2 L 376.6 50.4 L 377.8 51.7 L 379.2 54.5 L 379.2 57.6 L 378.7 59.1 L 376.8 61.7 L 373.7 64.2 L 371.9 65.4 L 368.4 68.0 L 364.6 70.8 L 364.1 71.2 L 358.6 74.5 L 352.8 78.2 L 350.3 80.6 L 347.0 87.3 L 346.3 95.6 L 347.1 100.0 L 349.1 108.8 L 351.5 117.3 L 352.9 121.7 L 356.0 130.7 L 359.1 140.1 L 360.7 144.9 L 363.9 154.7 L 367.3 164.7 L 369.0 169.8 L 372.2 179.4 L 375.0 189.4 L 376.4 194.9 L 379.0 205.8 L 381.6 216.9 L 383.0 222.4 L 385.5 233.0 L 387.6 241.6 L 388.5 245.0 L 390.4 250.3 L 392.2 254.6 L 393.1 256.2 L 395.2 258.5 L 396.5 259.2 L 399.4 259.5 L 401.9 259.2 L 403.0 258.5 L 404.9 256.2 L 406.3 252.4 L 406.6 250.1 L 407.4 244.7 L 408.2 237.8 L 408.4 234.6 L 408.6 227.7 L 408.8 220.1 L 408.9 216.1 L 409.2 207.7 L 409.3 198.8 L 409.2 194.3 L 408.5 184.9 L 406.9 175.5 L 405.3 170.8 L 401.2 161.4 L 395.7 152.5 L 392.8 148.2 L 387.1 139.3 L 382.9 130.0 L 382.0 125.6 L 382.9 115.7 L 387.3 106.9 L 390.5 102.8 L 395.8 96.0 L 400.0 90.5 L 400.8 89.5 L 404.6 86.4 L 408.5 85.3 L 410.6 85.5 L 414.5 87.3 L 416.2 88.7 L 418.8 92.1 L 420.8 96.6 L 421.5 99.0 L 422.8 104.4 L 423.7 110.7 L 424.0 114.1 L 424.7 121.0 L 425.5 129.0 L 425.9 133.2 L 427.0 143.4 L 427.9 152.7 L 428.4 157.5 L 429.4 167.5 L 430.4 177.8 L 431.2 183.0 L 434.9 192.6 L 441.4 201.4 L 445.3 205.2 L 454.6 211.1 L 464.7 216.2 L 469.6 218.8 L 479.3 224.0 L 489.0 229.1 L 493.5 231.6 L 500.3 236.4 L 504.9 242.3 L 506.3 245.4 L 507.6 251.8 L 507.8 257.5 L 507.5 260.1 L 505.8 264.5 L 502.6 267.8 L 500.3 269.0 L 494.2 271.0 L 488.1 273.1 L 484.8 274.2 L 478.4 276.0 L 475.8 276.7 L 467.7 278.9 L 459.4 282.0 L 455.3 284.1 L 447.8 289.4 L 441.9 296.5 L 439.4 300.8 L 436.0 309.9 L 434.1 320.1 L 433.3 324.9 L 431.6 333.7 L 430.8 340.5 L 430.6 343.2 L 430.6 347.0 L 431.6 350.5 L 432.7 351.9 L 435.3 354.2 L 438.8 355.4 L 440.6 355.7 L 444.0 355.6 L 447.6 354.3 L 449.4 353.1 L 453.2 349.3 L 456.9 345.2 L 459.0 343.0 L 463.9 337.4 L 468.1 331.2 L 470.3 328.1 L 474.3 322.4 L 477.9 317.6 L 479.8 315.7 L 483.9 313.4 L 488.4 313.1 L 490.6 313.7 L 496.2 318.3 L 498.4 320.9 L 501.0 326.3 L 502.7 332.4 L 503.3 335.8 L 503.8 343.0 L 502.4 350.3 L 500.4 353.8 L 493.9 360.2 L 488.6 365.2 L 485.6 368.8 L 479.5 376.2 L 473.1 383.8 L 469.8 387.7 L 463.0 395.3 L 454.8 401.7 L 450.2 404.3 L 441.2 407.6 L 430.7 409.7 L 425.2 410.0 L 414.3 408.9 L 403.8 405.6 L 398.8 403.2 L 389.7 396.9 L 381.7 388.3 L 379.0 383.5 L 375.3 373.1 L 372.5 362.1 L 371.0 356.7 L 368.1 345.8 L 365.1 334.8 L 363.6 329.4 L 360.7 318.4 L 357.7 307.3 L 356.1 301.7 L 353.1 290.5 L 350.3 280.6 L 348.6 274.7 Z" fill="none" stroke="#e10600" stroke-width="3" stroke-linejoin="round" filter="url(#glow)" opacity="0.85"/>
  <path d="M 348.6 274.7 L 347.0 269.2 L 343.6 258.2 L 342.0 252.7 L 338.6 241.6 L 335.2 230.5 L 333.5 225.0 L 330.1 213.9 L 326.7 202.8 L 325.1 197.3 L 321.8 186.7 L 318.4 175.5 L 316.6 169.5 L 312.8 158.2 L 308.9 147.2 L 307.0 141.7 L 303.4 131.1 L 300.3 119.8 L 299.2 113.9 L 297.0 102.4 L 294.9 91.2 L 294.1 86.9 L 292.4 77.6 L 292.6 70.0 L 293.9 66.6 L 300.0 59.4 L 306.9 54.3 L 311.5 52.4 L 318.7 48.6 L 326.8 43.2 L 331.0 41.3 L 341.1 40.0 L 351.2 40.6 L 355.8 41.8 L 364.2 45.0 L 370.3 47.2 L 372.8 48.2 L 376.6 50.4 L 377.8 51.7 L 379.2 54.5 L 379.2 57.6 L 378.7 59.1 L 376.8 61.7 L 373.7 64.2 L 371.9 65.4 L 368.4 68.0 L 364.6 70.8 L 364.1 71.2 L 358.6 74.5 L 352.8 78.2 L 350.3 80.6 L 347.0 87.3 L 346.3 95.6 L 347.1 100.0 L 349.1 108.8 L 351.5 117.3 L 352.9 121.7 L 356.0 130.7 L 359.1 140.1 L 360.7 144.9 L 363.9 154.7 L 367.3 164.7 L 369.0 169.8 L 372.2 179.4 L 375.0 189.4 L 376.4 194.9 L 379.0 205.8 L 381.6 216.9 L 383.0 222.4 L 385.5 233.0 L 387.6 241.6 L 388.5 245.0 L 390.4 250.3 L 392.2 254.6 L 393.1 256.2 L 395.2 258.5 L 396.5 259.2 L 399.4 259.5 L 401.9 259.2 L 403.0 258.5 L 404.9 256.2 L 406.3 252.4 L 406.6 250.1 L 407.4 244.7 L 408.2 237.8 L 408.4 234.6 L 408.6 227.7 L 408.8 220.1 L 408.9 216.1 L 409.2 207.7 L 409.3 198.8 L 409.2 194.3 L 408.5 184.9 L 406.9 175.5 L 405.3 170.8 L 401.2 161.4 L 395.7 152.5 L 392.8 148.2 L 387.1 139.3 L 382.9 130.0 L 382.0 125.6 L 382.9 115.7 L 387.3 106.9 L 390.5 102.8 L 395.8 96.0 L 400.0 90.5 L 400.8 89.5 L 404.6 86.4 L 408.5 85.3 L 410.6 85.5 L 414.5 87.3 L 416.2 88.7 L 418.8 92.1 L 420.8 96.6 L 421.5 99.0 L 422.8 104.4 L 423.7 110.7 L 424.0 114.1 L 424.7 121.0 L 425.5 129.0 L 425.9 133.2 L 427.0 143.4 L 427.9 152.7 L 428.4 157.5 L 429.4 167.5 L 430.4 177.8 L 431.2 183.0 L 434.9 192.6 L 441.4 201.4 L 445.3 205.2 L 454.6 211.1 L 464.7 216.2 L 469.6 218.8 L 479.3 224.0 L 489.0 229.1 L 493.5 231.6 L 500.3 236.4 L 504.9 242.3 L 506.3 245.4 L 507.6 251.8 L 507.8 257.5 L 507.5 260.1 L 505.8 264.5 L 502.6 267.8 L 500.3 269.0 L 494.2 271.0 L 488.1 273.1 L 484.8 274.2 L 478.4 276.0 L 475.8 276.7 L 467.7 278.9 L 459.4 282.0 L 455.3 284.1 L 447.8 289.4 L 441.9 296.5 L 439.4 300.8 L 436.0 309.9 L 434.1 320.1 L 433.3 324.9 L 431.6 333.7 L 430.8 340.5 L 430.6 343.2 L 430.6 347.0 L 431.6 350.5 L 432.7 351.9 L 435.3 354.2 L 438.8 355.4 L 440.6 355.7 L 444.0 355.6 L 447.6 354.3 L 449.4 353.1 L 453.2 349.3 L 456.9 345.2 L 459.0 343.0 L 463.9 337.4 L 468.1 331.2 L 470.3 328.1 L 474.3 322.4 L 477.9 317.6 L 479.8 315.7 L 483.9 313.4 L 488.4 313.1 L 490.6 313.7 L 496.2 318.3 L 498.4 320.9 L 501.0 326.3 L 502.7 332.4 L 503.3 335.8 L 503.8 343.0 L 502.4 350.3 L 500.4 353.8 L 493.9 360.2 L 488.6 365.2 L 485.6 368.8 L 479.5 376.2 L 473.1 383.8 L 469.8 387.7 L 463.0 395.3 L 454.8 401.7 L 450.2 404.3 L 441.2 407.6 L 430.7 409.7 L 425.2 410.0 L 414.3 408.9 L 403.8 405.6 L 398.8 403.2 L 389.7 396.9 L 381.7 388.3 L 379.0 383.5 L 375.3 373.1 L 372.5 362.1 L 371.0 356.7 L 368.1 345.8 L 365.1 334.8 L 363.6 329.4 L 360.7 318.4 L 357.7 307.3 L 356.1 301.7 L 353.1 290.5 L 350.3 280.6 L 348.6 274.7 Z" fill="none" stroke="#ffffff" stroke-width="0.7" stroke-dasharray="3 6"/>
  <text x="20" y="34" font-family="Inter,system-ui,sans-serif" font-size="14" font-weight="600" fill="#8a8aa3" letter-spacing="2">PORTIMÃO</text>
</svg>
