<svg xmlns="http://www.w3.org/2000/svg" viewBox="0 0 800 450" width="800" height="450">
  <defs>
    <linearGradient id="bg" x1="0" y1="0" x2="0" y2="1">
      <stop offset="0%" stop-color="#1d1d36"/>
      <stop offset="100%" stop-color="#0e0e1a"/>
    </linearGradient>
    <pattern id="grid" width="40" height="40" patternUnits="userSpaceOnUse">
      <circle cx="2" cy="2" r="0.8" fill="#252548" opacity="0.6"/>
    </pattern>
    <filter id="glow">
      <feGaussianBlur stdDeviation="3.5"/>
    </filter>
  </defs>
  <rect width="800" height="450" fill="url(#bg)"/>
  <rect width="800" height="450" fill="url(#grid)"/>
  <path d="M 428.4 336.3 L 417.9 339.0 L 407.6 341.5 L 397.6 343.9 L 387.5 346.4 L 372.3 350.1 L 366.6 351.6 L 354.9 354.4 L 346.2 356.6 L 335.4 359.3 L 320.6 362.9 L 308.8 365.8 L 294.6 369.2 L 284.2 371.6 L 276.5 372.9 L 259.9 373.0 L 253.5 371.4 L 245.0 367.2 L 239.3 362.7 L 233.0 353.4 L 230.9 347.0 L 230.4 340.2 L 232.1 332.3 L 233.3 329.6 L 237.5 324.1 L 242.5 320.7 L 245.2 319.9 L 249.1 319.5 L 252.2 320.0 L 255.3 321.4 L 258.9 324.7 L 259.8 326.3 L 261.0 330.5 L 261.1 333.0 L 260.7 336.1 L 259.6 343.1 L 260.3 347.6 L 263.2 352.3 L 265.7 353.8 L 269.4 354.6 L 274.3 353.6 L 276.1 352.5 L 280.7 347.7 L 281.3 346.6 L 284.7 334.7 L 284.4 328.4 L 283.5 324.0 L 281.4 317.8 L 279.1 313.2 L 274.6 306.5 L 269.9 300.9 L 267.4 298.1 L 259.0 288.7 L 256.2 285.8 L 246.1 274.9 L 238.3 266.4 L 235.0 262.7 L 227.7 253.8 L 223.5 248.0 L 216.5 236.4 L 209.8 222.6 L 209.4 221.6 L 204.5 209.1 L 202.7 204.3 L 197.2 188.8 L 193.4 177.9 L 192.5 174.2 L 192.3 169.6 L 192.9 167.3 L 196.0 163.1 L 199.6 161.6 L 201.2 161.4 L 206.4 162.3 L 211.3 164.8 L 214.2 166.9 L 220.3 172.5 L 224.1 176.9 L 229.7 184.7 L 236.9 197.9 L 238.9 202.0 L 244.4 214.4 L 246.7 219.5 L 251.6 230.0 L 259.2 242.5 L 264.0 248.2 L 272.1 255.1 L 277.3 258.2 L 306.9 262.5 L 319.7 257.6 L 326.9 252.4 L 335.3 242.5 L 339.8 234.5 L 347.8 218.3 L 355.2 209.9 L 359.6 206.7 L 368.9 203.1 L 373.6 202.4 L 384.0 204.1 L 392.3 208.9 L 396.2 212.9 L 399.3 217.5 L 400.9 220.7 L 403.7 228.1 L 409.1 237.4 L 411.7 239.8 L 416.8 242.3 L 419.1 242.8 L 426.1 242.2 L 430.2 240.1 L 432.7 238.0 L 435.7 234.6 L 436.9 232.9 L 439.9 226.7 L 441.4 220.0 L 441.6 217.0 L 440.3 208.9 L 438.6 203.9 L 434.0 194.7 L 421.1 174.5 L 417.9 169.4 L 410.2 156.9 L 408.5 153.9 L 398.8 137.5 L 393.7 128.6 L 388.6 119.5 L 381.6 107.0 L 380.0 104.0 L 373.7 92.8 L 370.1 87.2 L 369.0 85.7 L 365.2 82.5 L 362.7 81.4 L 357.3 81.2 L 352.8 83.3 L 351.3 84.5 L 347.8 87.8 L 346.3 88.9 L 341.1 91.4 L 334.1 91.1 L 331.9 90.5 L 325.9 86.4 L 324.4 84.6 L 320.5 76.6 L 319.7 70.1 L 319.9 66.4 L 322.9 57.0 L 327.5 50.5 L 331.3 47.1 L 346.4 40.6 L 356.4 40.0 L 368.3 42.8 L 377.6 47.5 L 381.6 50.6 L 390.1 59.4 L 396.1 68.2 L 402.4 78.2 L 414.2 97.0 L 417.8 102.8 L 425.2 114.5 L 428.9 120.4 L 434.9 130.1 L 441.1 139.9 L 444.7 145.5 L 451.5 156.4 L 452.7 158.3 L 460.8 171.3 L 472.5 189.7 L 477.4 197.5 L 483.9 207.7 L 487.9 214.1 L 495.5 226.1 L 507.0 244.1 L 511.8 251.8 L 516.1 258.6 L 522.6 268.7 L 541.3 297.8 L 551.2 313.0 L 556.6 321.4 L 568.8 340.3 L 574.7 349.3 L 580.9 358.9 L 590.5 373.1 L 593.1 377.0 L 598.8 385.5 L 602.6 391.4 L 605.4 395.8 L 607.4 399.9 L 607.7 401.1 L 607.8 404.3 L 607.2 406.6 L 606.3 408.2 L 603.0 409.9 L 599.8 410.0 L 596.3 409.1 L 593.5 407.8 L 589.9 405.3 L 584.0 400.0 L 580.2 396.1 L 574.8 389.2 L 573.3 387.2 L 568.7 380.5 L 564.1 373.2 L 561.4 368.5 L 556.2 359.6 L 554.0 355.7 L 545.6 341.5 L 536.6 327.9 L 534.2 325.1 L 530.0 321.4 L 525.3 318.8 L 517.8 317.5 L 506.2 319.4 L 502.4 320.2 L 489.5 323.0 L 484.3 324.1 L 471.7 326.8 L 462.4 328.7 L 458.7 329.5 L 445.9 332.3 L 431.8 335.5 L 428.4 336.3 Z" fill="none" stroke="#2c2c4a" stroke-width="14" stroke-linejoin="round" stroke-linecap="round"/>
  <path d="M 428.4 336.3 L 417.9 339.0 L 407.6 341.5 L 397.6 343.9 L 387.5 346.4 L 372.3 350.1 L 366.6 351.6 L 354.9 354.4 L 346.2 356.6 L 335.4 359.3 L 320.6 362.9 L 308.8 365.8 L 294.6 369.2 L 284.2 371.6 L 276.5 372.9 L 259.9 373.0 L 253.5 371.4 L 245.0 367.2 L 239.3 362.7 L 233.0 353.4 L 230.9 347.0 L 230.4 340.2 L 232.1 332.3 L 233.3 329.6 L 237.5 324.1 L 242.5 320.7 L 245.2 319.9 L 249.1 319.5 L 252.2 320.0 L 255.3 321.4 L 258.9 324.7 L 259.8 326.3 L 261.0 330.5 L 261.1 333.0 L 260.7 336.1 L 259.6 343.1 L 260.3 347.6 L 263.2 352.3 L 265.7 353.8 L 269.4 354.6 L 274.3 353.6 L 276.1 352.5 L 280.7 347.7 L 281.3 346.6 L 284.7 334.7 L 284.4 328.4 L 283.5 324.0 L 281.4 317.8 L 279.1 313.2 L 274.6 306.5 L 269.9 300.9 L 267.4 298.1 L 259.0 288.7 L 256.2 285.8 L 246.1 274.9 L 238.3 266.4 L 235.0 262.7 L 227.7 253.8 L 223.5 248.0 L 216.5 236.4 L 209.8 222.6 L 209.4 221.6 L 204.5 209.1 L 202.7 204.3 L 197.2 188.8 L 193.4 177.9 L 192.5 174.2 L 192.3 169.6 L 192.9 167.3 L 196.0 163.1 L 199.6 161.6 L 201.2 161.4 L 206.4 162.3 L 211.3 164.8 L 214.2 166.9 L 220.3 172.5 L 224.1 176.9 L 229.7 184.7 L 236.9 197.9 L 238.9 202.0 L 244.4 214.4 L 246.7 219.5 L 251.6 230.0 L 259.2 242.5 L 264.0 248.2 L 272.1 255.1 L 277.3 258.2 L 306.9 262.5 L 319.7 257.6 L 326.9 252.4 L 335.3 242.5 L 339.8 234.5 L 347.8 218.3 L 355.2 209.9 L 359.6 206.7 L 368.9 203.1 L 373.6 202.4 L 384.0 204.1 L 392.3 208.9 L 396.2 212.9 L 399.3 217.5 L 400.9 220.7 L 403.7 228.1 L 409.1 237.4 L 411.7 239.8 L 416.8 242.3 L 419.1 242.8 L 426.1 242.2 L 430.2 240.1 L 432.7 238.0 L 435.7 234.6 L 436.9 232.9 L 439.9 226.7 L 441.4 220.0 L 441.6 217.0 L 440.3 208.9 L 438.6 203.9 L 434.0 194.7 L 421.1 174.5 L 417.9 169.4 L 410.2 156.9 L 408.5 153.9 L 398.8 137.5 L 393.7 128.6 L 388.6 119.5 L 381.6 107.0 L 380.0 104.0 L 373.7 92.8 L 370.1 87.2 L 369.0 85.7 L 365.2 82.5 L 362.7 81.4 L 357.3 81.2 L 352.8 83.3 L 351.3 84.5 L 347.8 87.8 L 346.3 88.9 L 341.1 91.4 L 334.1 91.1 L 331.9 90.5 L 325.9 86.4 L 324.4 84.6 L 320.5 76.6 L 319.7 70.1 L 319.9 66.4 L 322.9 57.0 L 327.5 50.5 L 331.3 47.1 L 346.4 40.6 L 356.4 40.0 L 368.3 42.8 L 377.6 47.5 L 381.6 50.6 L 390.1 59.4 L 396.1 68.2 L 402.4 78.2 L 414.2 97.0 L 417.8 102.8 L 425.2 114.5 L 428.9 120.4 L 434.9 130.1 L 441.1 139.9 L 444.7 145.5 L 451.5 156.4 L 452.7 158.3 L 460.8 171.3 L 472.5 189.7 L 477.4 197.5 L 483.9 207.7 L 487.9 214.1 L 495.5 226.1 L 507.0 244.1 L 511.8 251.8 L 516.1 258.6 L 522.6 268.7 L 541.3 297.8 L 551.2 313.0 L 556.6 321.4 L 568.8 340.3 L 574.7 349.3 L 580.9 358.9 L 590.5 373.1 L 593.1 377.0 L 598.8 385.5 L 602.6 391.4 L 605.4 395.8 L 607.4 399.9 L 607.7 401.1 L 607.8 404.3 L 607.2 406.6 L 606.3 408.2 L 603.0 409.9 L 599.8 410.0 L 596.3 409.1 L 593.5 407.8 L 589.9 405.3 L 584.0 400.0 L 580.2 396.1 L 574.8 389.2 L 573.3 387.2 L 568.7 380.5 L 564.1 373.2 L 561.4 368.5 L 556.2 359.6 L 554.0 355.7 L 545.6 341.5 L 536.6 327.9 L 534.2 325.1 L 530.0 321.4 L 525.3 318.8 L 517.8 317.5 L 506.2 319.4 L 502.4 320.2 L 489.5 323.0 L 484.3 324.1 L 471.7 326.8 L 462.4 328.7 L 458.7 329.5 L 445.9 332.3 L 431.8 335.5 L 428.4 336.3 Z" fill="none" stroke="#e10600" stroke-width="3" stroke-linejoin="round" filter="url(#glow)" opacity="0.85"/>
  <path d="M 428.4 336.3 L 417.9 339.0 L 407.6 341.5 L 397.6 343.9 L 387.5 346.4 L 372.3 350.1 L 366.6 351.6 L 354.9 354.4 L 346.2 356.6 L 335.4 359.3 L 320.6 362.9 L 308.8 365.8 L 294.6 369.2 L 284.2 371.6 L 276.5 372.9 L 259.9 373.0 L 253.5 371.4 L 245.0 367.2 L 239.3 362.7 L 233.0 353.4 L 230.9 347.0 L 230.4 340.2 L 232.1 332.3 L 233.3 329.6 L 237.5 324.1 L 242.5 320.7 L 245.2 319.9 L 249.1 319.5 L 252.2 320.0 L 255.3 321.4 L 258.9 324.7 L 259.8 326.3 L 261.0 330.5 L 261.1 333.0 L 260.7 336.1 L 259.6 343.1 L 260.3 347.6 L 263.2 352.3 L 265.7 353.8 L 269.4 354.6 L 274.3 353.6 L 276.1 352.5 L 280.7 347.7 L 281.3 346.6 L 284.7 334.7 L 284.4 328.4 L 283.5 324.0 L 281.4 317.8 L 279.1 313.2 L 274.6 306.5 L 269.9 300.9 L 267.4 298.1 L 259.0 288.7 L 256.2 285.8 L 246.1 274.9 L 238.3 266.4 L 235.0 262.7 L 227.7 253.8 L 223.5 248.0 L 216.5 236.4 L 209.8 222.6 L 209.4 221.6 L 204.5 209.1 L 202.7 204.3 L 197.2 188.8 L 193.4 177.9 L 192.5 174.2 L 192.3 169.6 L 192.9 167.3 L 196.0 163.1 L 199.6 161.6 L 201.2 161.4 L 206.4 162.3 L 211.3 164.8 L 214.2 166.9 L 220.3 172.5 L 224.1 176.9 L 229.7 184.7 L 236.9 197.9 L 238.9 202.0 L 244.4 214.4 L 246.7 219.5 L 251.6 230.0 L 259.2 242.5 L 264.0 248.2 L 272.1 255.1 L 277.3 258.2 L 306.9 262.5 L 319.7 257.6 L 326.9 252.4 L 335.3 242.5 L 339.8 234.5 L 347.8 218.3 L 355.2 209.9 L 359.6 206.7 L 368.9 203.1 L 373.6 202.4 L 384.0 204.1 L 392.3 208.9 L 396.2 212.9 L 399.3 217.5 L 400.9 220.7 L 403.7 228.1 L 409.1 237.4 L 411.7 239.8 L 416.8 242.3 L 419.1 242.8 L 426.1 242.2 L 430.2 240.1 L 432.7 238.0 L 435.7 234.6 L 436.9 232.9 L 439.9 226.7 L 441.4 220.0 L 441.6 217.0 L 440.3 208.9 L 438.6 203.9 L 434.0 194.7 L 421.1 174.5 L 417.9 169.4 L 410.2 156.9 L 408.5 153.9 L 398.8 137.5 L 393.7 128.6 L 388.6 119.5 L 381.6 107.0 L 380.0 104.0 L 373.7 92.8 L 370.1 87.2 L 369.0 85.7 L 365.2 82.5 L 362.7 81.4 L 357.3 81.2 L 352.8 83.3 L 351.3 84.5 L 347.8 87.8 L 346.3 88.9 L 341.1 91.4 L 334.1 91.1 L 331.9 90.5 L 325.9 86.4 L 324.4 84.6 L 320.5 76.6 L 319.7 70.1 L 319.9 66.4 L 322.9 57.0 L 327.5 50.5 L 331.3 47.1 L 346.4 40.6 L 356.4 40.0 L 368.3 42.8 L 377.6 47.5 L 381.6 50.6 L 390.1 59.4 L 396.1 68.2 L 402.4 78.2 L 414.2 97.0 L 417.8 102.8 L 425.2 114.5 L 428.9 120.4 L 434.9 130.1 L 441.1 139.9 L 444.7 145.5 L 451.5 156.4 L 452.7 158.3 L 460.8 171.3 L 472.5 189.7 L 477.4 197.5 L 483.9 207.7 L 487.9 214.1 L 495.5 226.1 L 507.0 244.1 L 511.8 251.8 L 516.1 258.6 L 522.6 268.7 L 541.3 297.8 L 551.2 313.0 L 556.6 321.4 L 568.8 340.3 L 574.7 349.3 L 580.9 358.9 L 590.5 373.1 L 593.1 377.0 L 598.8 385.5 L 602.6 391.4 L 605.4 395.8 L 607.4 399.9 L 607.7 401.1 L 607.8 404.3 L 607.2 406.6 L 606.3 408.2 L 603.0 409.9 L 599.8 410.0 L 596.3 409.1 L 593.5 407.8 L 589.9 405.3 L 584.0 400.0 L 580.2 396.1 L 574.8 389.2 L 573.3 387.2 L 568.7 380.5 L 564.1 373.2 L 561.4 368.5 L 556.2 359.6 L 554.0 355.7 L 545.6 341.5 L 536.6 327.9 L 534.2 325.1 L 530.0 321.4 L 525.3 318.8 L 517.8 317.5 L 506.2 319.4 L 502.4 320.2 L 489.5 323.0 L 484.3 324.1 L 471.7 326.8 L 462.4 328.7 L 458.7 329.5 L 445.9 332.3 L 431.8 335.5 L 428.4 336.3 Z" fill="none" stroke="#ffffff" stroke-width="0.7" stroke-dasharray="3 6"/>
  <text x="20" y="34" font-family="Inter,system-ui,sans-serif" font-size="14" font-weight="600" fill="#8a8aa3" letter-spacing="2">SHANGHAI INTERNATIONAL CIRCUIT</text>
</svg>
