<svg xmlns="http://www.w3.org/2000/svg" viewBox="0 0 800 450" width="800" height="450">
  <defs>
    <linearGradient id="bg" x1="0" y1="0" x2="0" y2="1">
      <stop offset="0%" stop-color="#1d1d36"/>
      <stop offset="100%" stop-color="#0e0e1a"/>
    </linearGradient>
    <pattern id="grid" width="40" height="40" patternUnits="userSpaceOnUse">
      <circle cx="2" cy="2" r="0.8" fill="#252548" opacity="0.6"/>
    </pattern>
    <filter id="glow">
      <feGaussianBlur stdDeviation="3.5"/>
    </filter>
  </defs>
  <rect width="800" height="450" fill="url(#bg)"/>
  <rect width="800" height="450" fill="url(#grid)"/>
  <path d="M 303.6 295.5 L 305.7 292.8 L 309.8 287.5 L 311.4 285.5 L 315.1 280.5 L 317.5 277.2 L 321.2 272.1 L 325.1 266.8 L 330.8 258.6 L 334.3 253.4 L 337.2 249.0 L 344.2 239.5 L 346.7 236.5 L 352.0 231.2 L 355.7 228.5 L 364.8 225.2 L 371.6 224.5 L 380.6 225.0 L 386.3 225.8 L 390.2 226.2 L 399.9 225.9 L 404.0 225.1 L 412.9 221.2 L 417.9 217.6 L 423.1 212.7 L 430.9 205.1 L 433.4 202.9 L 439.5 197.8 L 441.0 196.7 L 445.8 194.9 L 447.7 194.9 L 451.2 195.9 L 452.5 196.8 L 455.3 200.1 L 455.9 201.7 L 456.4 203.4 L 456.9 206.7 L 457.0 208.1 L 457.6 212.2 L 457.8 213.1 L 458.7 215.1 L 461.5 218.4 L 462.2 218.9 L 465.1 220.0 L 467.2 219.4 L 469.4 217.7 L 470.7 216.1 L 472.5 213.3 L 473.2 212.0 L 474.4 209.1 L 475.5 205.4 L 475.9 203.8 L 476.9 198.8 L 477.2 194.3 L 476.6 188.3 L 475.7 184.5 L 472.9 178.3 L 468.7 172.2 L 466.2 169.6 L 462.4 166.3 L 459.7 164.2 L 450.4 156.8 L 447.1 154.1 L 442.1 149.8 L 437.6 146.0 L 430.2 139.6 L 425.3 135.4 L 422.7 133.1 L 418.0 129.0 L 415.2 126.5 L 410.7 122.6 L 404.6 117.2 L 399.2 112.5 L 390.3 104.8 L 387.1 101.9 L 380.7 96.2 L 376.9 93.0 L 370.3 88.8 L 368.3 87.9 L 362.0 86.5 L 359.3 86.5 L 355.1 87.1 L 350.5 89.5 L 349.1 91.0 L 346.5 95.8 L 346.0 97.2 L 345.3 102.4 L 345.2 105.3 L 344.8 109.1 L 343.8 112.4 L 341.6 115.5 L 339.1 117.4 L 337.5 118.2 L 333.8 118.9 L 332.2 118.6 L 330.5 117.8 L 328.5 116.3 L 326.6 113.8 L 325.1 110.1 L 324.7 108.3 L 324.6 105.0 L 324.7 103.4 L 325.6 98.1 L 326.7 94.6 L 329.2 89.0 L 334.9 78.6 L 340.9 70.5 L 345.2 66.0 L 347.2 64.0 L 354.1 58.5 L 361.3 54.3 L 370.9 50.6 L 375.4 49.3 L 383.1 47.8 L 391.3 46.7 L 395.4 46.2 L 402.5 45.5 L 408.1 44.9 L 419.1 43.7 L 423.8 43.2 L 438.1 41.4 L 442.8 40.8 L 451.4 40.0 L 455.9 40.1 L 463.0 41.6 L 470.8 45.7 L 473.5 47.8 L 479.2 54.8 L 481.2 58.9 L 484.5 68.4 L 487.6 81.7 L 488.7 87.7 L 490.0 97.7 L 490.5 102.8 L 491.0 112.0 L 491.2 119.7 L 491.9 132.0 L 493.2 139.4 L 496.2 150.7 L 499.2 158.4 L 500.5 161.9 L 502.6 168.5 L 503.0 175.5 L 501.8 182.6 L 501.1 185.6 L 498.8 195.6 L 498.9 206.4 L 500.7 211.2 L 503.7 216.4 L 505.4 219.2 L 507.8 224.9 L 508.5 228.4 L 507.9 233.8 L 507.0 236.6 L 502.6 243.8 L 497.5 247.8 L 494.9 249.3 L 489.9 252.0 L 487.0 254.3 L 479.1 262.8 L 477.0 265.9 L 471.4 275.9 L 470.2 278.2 L 467.0 284.8 L 463.8 291.5 L 462.2 294.9 L 457.2 305.4 L 454.7 310.5 L 449.1 322.0 L 445.3 329.9 L 442.1 336.5 L 434.5 352.1 L 431.0 359.2 L 426.1 368.9 L 423.2 374.5 L 417.2 385.7 L 416.8 386.3 L 412.9 393.1 L 410.4 396.8 L 403.3 404.7 L 393.5 409.5 L 389.9 410.0 L 379.5 407.4 L 377.2 405.9 L 372.7 401.9 L 370.7 399.4 L 367.1 393.6 L 363.7 387.1 L 362.4 385.0 L 358.4 379.0 L 356.4 376.4 L 350.4 368.2 L 348.7 366.0 L 344.9 361.1 L 341.7 357.3 L 336.7 351.8 L 334.3 349.1 L 332.1 346.6 L 328.1 343.0 L 324.9 341.5 L 322.6 341.2 L 321.5 341.2 L 317.7 342.3 L 315.5 343.9 L 314.0 345.0 L 310.5 346.7 L 308.3 346.7 L 304.2 345.5 L 303.1 344.9 L 300.8 343.3 L 298.9 341.2 L 295.6 337.1 L 293.9 333.8 L 293.0 331.4 L 291.9 326.9 L 291.6 324.6 L 292.0 316.4 L 292.7 313.7 L 298.4 302.6 L 302.4 297.1 L 303.6 295.5 Z" fill="none" stroke="#2c2c4a" stroke-width="14" stroke-linejoin="round" stroke-linecap="round"/>
  <path d="M 303.6 295.5 L 305.7 292.8 L 309.8 287.5 L 311.4 285.5 L 315.1 280.5 L 317.5 277.2 L 321.2 272.1 L 325.1 266.8 L 330.8 258.6 L 334.3 253.4 L 337.2 249.0 L 344.2 239.5 L 346.7 236.5 L 352.0 231.2 L 355.7 228.5 L 364.8 225.2 L 371.6 224.5 L 380.6 225.0 L 386.3 225.8 L 390.2 226.2 L 399.9 225.9 L 404.0 225.1 L 412.9 221.2 L 417.9 217.6 L 423.1 212.7 L 430.9 205.1 L 433.4 202.9 L 439.5 197.8 L 441.0 196.7 L 445.8 194.9 L 447.7 194.9 L 451.2 195.9 L 452.5 196.8 L 455.3 200.1 L 455.9 201.7 L 456.4 203.4 L 456.9 206.7 L 457.0 208.1 L 457.6 212.2 L 457.8 213.1 L 458.7 215.1 L 461.5 218.4 L 462.2 218.9 L 465.1 220.0 L 467.2 219.4 L 469.4 217.7 L 470.7 216.1 L 472.5 213.3 L 473.2 212.0 L 474.4 209.1 L 475.5 205.4 L 475.9 203.8 L 476.9 198.8 L 477.2 194.3 L 476.6 188.3 L 475.7 184.5 L 472.9 178.3 L 468.7 172.2 L 466.2 169.6 L 462.4 166.3 L 459.7 164.2 L 450.4 156.8 L 447.1 154.1 L 442.1 149.8 L 437.6 146.0 L 430.2 139.6 L 425.3 135.4 L 422.7 133.1 L 418.0 129.0 L 415.2 126.5 L 410.7 122.6 L 404.6 117.2 L 399.2 112.5 L 390.3 104.8 L 387.1 101.9 L 380.7 96.2 L 376.9 93.0 L 370.3 88.8 L 368.3 87.9 L 362.0 86.5 L 359.3 86.5 L 355.1 87.1 L 350.5 89.5 L 349.1 91.0 L 346.5 95.8 L 346.0 97.2 L 345.3 102.4 L 345.2 105.3 L 344.8 109.1 L 343.8 112.4 L 341.6 115.5 L 339.1 117.4 L 337.5 118.2 L 333.8 118.9 L 332.2 118.6 L 330.5 117.8 L 328.5 116.3 L 326.6 113.8 L 325.1 110.1 L 324.7 108.3 L 324.6 105.0 L 324.7 103.4 L 325.6 98.1 L 326.7 94.6 L 329.2 89.0 L 334.9 78.6 L 340.9 70.5 L 345.2 66.0 L 347.2 64.0 L 354.1 58.5 L 361.3 54.3 L 370.9 50.6 L 375.4 49.3 L 383.1 47.8 L 391.3 46.7 L 395.4 46.2 L 402.5 45.5 L 408.1 44.9 L 419.1 43.7 L 423.8 43.2 L 438.1 41.4 L 442.8 40.8 L 451.4 40.0 L 455.9 40.1 L 463.0 41.6 L 470.8 45.7 L 473.5 47.8 L 479.2 54.8 L 481.2 58.9 L 484.5 68.4 L 487.6 81.7 L 488.7 87.7 L 490.0 97.7 L 490.5 102.8 L 491.0 112.0 L 491.2 119.7 L 491.9 132.0 L 493.2 139.4 L 496.2 150.7 L 499.2 158.4 L 500.5 161.9 L 502.6 168.5 L 503.0 175.5 L 501.8 182.6 L 501.1 185.6 L 498.8 195.6 L 498.9 206.4 L 500.7 211.2 L 503.7 216.4 L 505.4 219.2 L 507.8 224.9 L 508.5 228.4 L 507.9 233.8 L 507.0 236.6 L 502.6 243.8 L 497.5 247.8 L 494.9 249.3 L 489.9 252.0 L 487.0 254.3 L 479.1 262.8 L 477.0 265.9 L 471.4 275.9 L 470.2 278.2 L 467.0 284.8 L 463.8 291.5 L 462.2 294.9 L 457.2 305.4 L 454.7 310.5 L 449.1 322.0 L 445.3 329.9 L 442.1 336.5 L 434.5 352.1 L 431.0 359.2 L 426.1 368.9 L 423.2 374.5 L 417.2 385.7 L 416.8 386.3 L 412.9 393.1 L 410.4 396.8 L 403.3 404.7 L 393.5 409.5 L 389.9 410.0 L 379.5 407.4 L 377.2 405.9 L 372.7 401.9 L 370.7 399.4 L 367.1 393.6 L 363.7 387.1 L 362.4 385.0 L 358.4 379.0 L 356.4 376.4 L 350.4 368.2 L 348.7 366.0 L 344.9 361.1 L 341.7 357.3 L 336.7 351.8 L 334.3 349.1 L 332.1 346.6 L 328.1 343.0 L 324.9 341.5 L 322.6 341.2 L 321.5 341.2 L 317.7 342.3 L 315.5 343.9 L 314.0 345.0 L 310.5 346.7 L 308.3 346.7 L 304.2 345.5 L 303.1 344.9 L 300.8 343.3 L 298.9 341.2 L 295.6 337.1 L 293.9 333.8 L 293.0 331.4 L 291.9 326.9 L 291.6 324.6 L 292.0 316.4 L 292.7 313.7 L 298.4 302.6 L 302.4 297.1 L 303.6 295.5 Z" fill="none" stroke="#e10600" stroke-width="3" stroke-linejoin="round" filter="url(#glow)" opacity="0.85"/>
  <path d="M 303.6 295.5 L 305.7 292.8 L 309.8 287.5 L 311.4 285.5 L 315.1 280.5 L 317.5 277.2 L 321.2 272.1 L 325.1 266.8 L 330.8 258.6 L 334.3 253.4 L 337.2 249.0 L 344.2 239.5 L 346.7 236.5 L 352.0 231.2 L 355.7 228.5 L 364.8 225.2 L 371.6 224.5 L 380.6 225.0 L 386.3 225.8 L 390.2 226.2 L 399.9 225.9 L 404.0 225.1 L 412.9 221.2 L 417.9 217.6 L 423.1 212.7 L 430.9 205.1 L 433.4 202.9 L 439.5 197.8 L 441.0 196.7 L 445.8 194.9 L 447.7 194.9 L 451.2 195.9 L 452.5 196.8 L 455.3 200.1 L 455.9 201.7 L 456.4 203.4 L 456.9 206.7 L 457.0 208.1 L 457.6 212.2 L 457.8 213.1 L 458.7 215.1 L 461.5 218.4 L 462.2 218.9 L 465.1 220.0 L 467.2 219.4 L 469.4 217.7 L 470.7 216.1 L 472.5 213.3 L 473.2 212.0 L 474.4 209.1 L 475.5 205.4 L 475.9 203.8 L 476.9 198.8 L 477.2 194.3 L 476.6 188.3 L 475.7 184.5 L 472.9 178.3 L 468.7 172.2 L 466.2 169.6 L 462.4 166.3 L 459.7 164.2 L 450.4 156.8 L 447.1 154.1 L 442.1 149.8 L 437.6 146.0 L 430.2 139.6 L 425.3 135.4 L 422.7 133.1 L 418.0 129.0 L 415.2 126.5 L 410.7 122.6 L 404.6 117.2 L 399.2 112.5 L 390.3 104.8 L 387.1 101.9 L 380.7 96.2 L 376.9 93.0 L 370.3 88.8 L 368.3 87.9 L 362.0 86.5 L 359.3 86.5 L 355.1 87.1 L 350.5 89.5 L 349.1 91.0 L 346.5 95.8 L 346.0 97.2 L 345.3 102.4 L 345.2 105.3 L 344.8 109.1 L 343.8 112.4 L 341.6 115.5 L 339.1 117.4 L 337.5 118.2 L 333.8 118.9 L 332.2 118.6 L 330.5 117.8 L 328.5 116.3 L 326.6 113.8 L 325.1 110.1 L 324.7 108.3 L 324.6 105.0 L 324.7 103.4 L 325.6 98.1 L 326.7 94.6 L 329.2 89.0 L 334.9 78.6 L 340.9 70.5 L 345.2 66.0 L 347.2 64.0 L 354.1 58.5 L 361.3 54.3 L 370.9 50.6 L 375.4 49.3 L 383.1 47.8 L 391.3 46.7 L 395.4 46.2 L 402.5 45.5 L 408.1 44.9 L 419.1 43.7 L 423.8 43.2 L 438.1 41.4 L 442.8 40.8 L 451.4 40.0 L 455.9 40.1 L 463.0 41.6 L 470.8 45.7 L 473.5 47.8 L 479.2 54.8 L 481.2 58.9 L 484.5 68.4 L 487.6 81.7 L 488.7 87.7 L 490.0 97.7 L 490.5 102.8 L 491.0 112.0 L 491.2 119.7 L 491.9 132.0 L 493.2 139.4 L 496.2 150.7 L 499.2 158.4 L 500.5 161.9 L 502.6 168.5 L 503.0 175.5 L 501.8 182.6 L 501.1 185.6 L 498.8 195.6 L 498.9 206.4 L 500.7 211.2 L 503.7 216.4 L 505.4 219.2 L 507.8 224.9 L 508.5 228.4 L 507.9 233.8 L 507.0 236.6 L 502.6 243.8 L 497.5 247.8 L 494.9 249.3 L 489.9 252.0 L 487.0 254.3 L 479.1 262.8 L 477.0 265.9 L 471.4 275.9 L 470.2 278.2 L 467.0 284.8 L 463.8 291.5 L 462.2 294.9 L 457.2 305.4 L 454.7 310.5 L 449.1 322.0 L 445.3 329.9 L 442.1 336.5 L 434.5 352.1 L 431.0 359.2 L 426.1 368.9 L 423.2 374.5 L 417.2 385.7 L 416.8 386.3 L 412.9 393.1 L 410.4 396.8 L 403.3 404.7 L 393.5 409.5 L 389.9 410.0 L 379.5 407.4 L 377.2 405.9 L 372.7 401.9 L 370.7 399.4 L 367.1 393.6 L 363.7 387.1 L 362.4 385.0 L 358.4 379.0 L 356.4 376.4 L 350.4 368.2 L 348.7 366.0 L 344.9 361.1 L 341.7 357.3 L 336.7 351.8 L 334.3 349.1 L 332.1 346.6 L 328.1 343.0 L 324.9 341.5 L 322.6 341.2 L 321.5 341.2 L 317.7 342.3 L 315.5 343.9 L 314.0 345.0 L 310.5 346.7 L 308.3 346.7 L 304.2 345.5 L 303.1 344.9 L 300.8 343.3 L 298.9 341.2 L 295.6 337.1 L 293.9 333.8 L 293.0 331.4 L 291.9 326.9 L 291.6 324.6 L 292.0 316.4 L 292.7 313.7 L 298.4 302.6 L 302.4 297.1 L 303.6 295.5 Z" fill="none" stroke="#ffffff" stroke-width="0.7" stroke-dasharray="3 6"/>
  <text x="20" y="34" font-family="Inter,system-ui,sans-serif" font-size="14" font-weight="600" fill="#8a8aa3" letter-spacing="2">SILVERSTONE CIRCUIT</text>
</svg>
