<svg xmlns="http://www.w3.org/2000/svg" viewBox="0 0 800 450" width="800" height="450">
  <defs>
    <linearGradient id="bg" x1="0" y1="0" x2="0" y2="1">
      <stop offset="0%" stop-color="#1d1d36"/>
      <stop offset="100%" stop-color="#0e0e1a"/>
    </linearGradient>
    <pattern id="grid" width="40" height="40" patternUnits="userSpaceOnUse">
      <circle cx="2" cy="2" r="0.8" fill="#252548" opacity="0.6"/>
    </pattern>
    <filter id="glow">
      <feGaussianBlur stdDeviation="3.5"/>
    </filter>
  </defs>
  <rect width="800" height="450" fill="url(#bg)"/>
  <rect width="800" height="450" fill="url(#grid)"/>
  <path d="M 690.7 223.9 L 689.3 215.1 L 687.1 201.5 L 686.1 194.9 L 683.8 179.0 L 682.6 170.9 L 681.5 163.4 L 678.8 142.5 L 676.6 124.3 L 675.7 117.2 L 674.2 103.5 L 672.2 87.4 L 671.2 81.7 L 667.8 69.8 L 666.1 66.9 L 660.3 61.5 L 652.7 58.9 L 647.8 57.9 L 637.0 54.0 L 631.5 49.8 L 628.1 46.9 L 623.3 43.0 L 619.0 40.6 L 615.5 40.0 L 610.2 41.2 L 608.3 42.4 L 604.9 46.5 L 602.5 52.5 L 601.7 55.6 L 600.7 62.3 L 600.6 72.5 L 601.0 76.7 L 603.4 87.7 L 607.0 98.0 L 607.2 98.5 L 613.6 114.0 L 617.4 123.1 L 620.2 130.0 L 624.4 142.5 L 625.9 147.9 L 628.3 160.0 L 629.2 171.0 L 629.0 177.2 L 627.4 185.8 L 623.9 191.8 L 621.6 194.0 L 612.3 198.6 L 600.0 201.1 L 595.8 201.6 L 587.7 201.9 L 581.6 201.7 L 565.3 200.4 L 556.5 199.5 L 551.1 199.1 L 540.6 198.2 L 523.5 196.8 L 511.8 196.0 L 500.4 195.1 L 488.8 194.1 L 482.6 193.6 L 464.5 192.1 L 456.9 191.3 L 443.0 189.4 L 426.8 185.2 L 416.0 180.7 L 397.6 170.5 L 389.6 165.7 L 377.8 158.4 L 365.3 150.8 L 349.1 140.3 L 341.9 135.5 L 330.6 127.8 L 321.0 122.9 L 318.4 122.0 L 309.8 120.0 L 305.9 120.1 L 301.6 121.3 L 294.4 126.8 L 292.6 128.7 L 287.6 135.1 L 281.0 145.0 L 280.4 146.1 L 274.9 157.3 L 270.8 166.7 L 268.7 171.6 L 264.9 179.1 L 263.4 181.3 L 258.5 186.0 L 253.1 186.3 L 251.3 185.5 L 246.9 182.2 L 241.4 176.3 L 239.4 173.8 L 236.4 169.8 L 230.9 162.7 L 227.2 158.3 L 222.4 153.2 L 213.0 145.2 L 207.2 142.2 L 201.6 140.5 L 196.6 140.0 L 190.4 141.6 L 181.2 148.4 L 177.9 152.6 L 171.8 162.1 L 167.2 170.7 L 165.6 173.9 L 160.6 184.4 L 155.0 195.4 L 150.7 203.1 L 145.3 212.4 L 142.3 217.6 L 135.8 228.9 L 128.9 241.0 L 123.5 250.2 L 116.5 261.3 L 111.6 269.0 L 107.0 276.7 L 104.0 285.1 L 104.4 292.9 L 105.6 297.2 L 107.4 301.8 L 109.7 305.8 L 114.0 310.7 L 121.8 315.9 L 127.9 318.5 L 133.9 320.5 L 139.0 323.1 L 142.0 326.9 L 144.7 334.5 L 148.0 352.5 L 148.9 355.7 L 153.4 362.1 L 160.7 368.4 L 163.1 370.3 L 175.0 380.1 L 177.8 382.7 L 184.3 389.4 L 189.9 397.5 L 192.0 400.8 L 193.8 403.4 L 197.4 407.4 L 199.7 409.0 L 202.5 410.0 L 206.9 408.7 L 208.4 407.1 L 210.5 403.2 L 211.1 401.4 L 212.5 395.8 L 213.6 389.9 L 214.0 387.5 L 215.2 378.0 L 216.9 365.9 L 217.4 362.5 L 219.5 351.0 L 224.3 325.3 L 224.8 322.7 L 227.3 308.2 L 230.7 290.9 L 232.2 283.5 L 234.6 272.4 L 235.5 268.4 L 239.7 253.0 L 244.2 239.6 L 245.9 234.8 L 251.0 221.0 L 253.8 214.3 L 255.8 210.1 L 258.5 206.2 L 261.7 203.9 L 265.1 202.9 L 271.0 204.0 L 274.3 205.7 L 277.8 208.1 L 282.5 211.8 L 287.0 215.6 L 296.0 223.6 L 305.3 232.3 L 311.7 237.8 L 321.2 245.7 L 333.2 254.9 L 338.2 258.0 L 359.6 266.1 L 367.1 267.2 L 384.1 268.3 L 402.2 269.5 L 413.8 270.3 L 427.6 271.2 L 443.4 272.2 L 454.2 272.8 L 481.4 273.9 L 497.7 274.2 L 504.8 274.5 L 518.2 275.0 L 535.6 276.8 L 538.2 277.5 L 543.0 280.3 L 544.3 282.3 L 547.0 291.2 L 549.8 298.2 L 551.0 300.4 L 554.3 305.0 L 562.7 311.3 L 565.8 312.5 L 578.9 315.1 L 593.0 315.6 L 597.9 315.6 L 608.8 315.8 L 612.9 315.9 L 625.6 316.5 L 642.7 317.6 L 649.4 318.0 L 666.7 317.0 L 680.2 308.8 L 686.0 301.4 L 693.0 287.0 L 695.6 274.8 L 696.0 268.9 L 694.6 247.3 L 691.8 230.4 L 690.7 223.9 Z" fill="none" stroke="#2c2c4a" stroke-width="14" stroke-linejoin="round" stroke-linecap="round"/>
  <path d="M 690.7 223.9 L 689.3 215.1 L 687.1 201.5 L 686.1 194.9 L 683.8 179.0 L 682.6 170.9 L 681.5 163.4 L 678.8 142.5 L 676.6 124.3 L 675.7 117.2 L 674.2 103.5 L 672.2 87.4 L 671.2 81.7 L 667.8 69.8 L 666.1 66.9 L 660.3 61.5 L 652.7 58.9 L 647.8 57.9 L 637.0 54.0 L 631.5 49.8 L 628.1 46.9 L 623.3 43.0 L 619.0 40.6 L 615.5 40.0 L 610.2 41.2 L 608.3 42.4 L 604.9 46.5 L 602.5 52.5 L 601.7 55.6 L 600.7 62.3 L 600.6 72.5 L 601.0 76.7 L 603.4 87.7 L 607.0 98.0 L 607.2 98.5 L 613.6 114.0 L 617.4 123.1 L 620.2 130.0 L 624.4 142.5 L 625.9 147.9 L 628.3 160.0 L 629.2 171.0 L 629.0 177.2 L 627.4 185.8 L 623.9 191.8 L 621.6 194.0 L 612.3 198.6 L 600.0 201.1 L 595.8 201.6 L 587.7 201.9 L 581.6 201.7 L 565.3 200.4 L 556.5 199.5 L 551.1 199.1 L 540.6 198.2 L 523.5 196.8 L 511.8 196.0 L 500.4 195.1 L 488.8 194.1 L 482.6 193.6 L 464.5 192.1 L 456.9 191.3 L 443.0 189.4 L 426.8 185.2 L 416.0 180.7 L 397.6 170.5 L 389.6 165.7 L 377.8 158.4 L 365.3 150.8 L 349.1 140.3 L 341.9 135.5 L 330.6 127.8 L 321.0 122.9 L 318.4 122.0 L 309.8 120.0 L 305.9 120.1 L 301.6 121.3 L 294.4 126.8 L 292.6 128.7 L 287.6 135.1 L 281.0 145.0 L 280.4 146.1 L 274.9 157.3 L 270.8 166.7 L 268.7 171.6 L 264.9 179.1 L 263.4 181.3 L 258.5 186.0 L 253.1 186.3 L 251.3 185.5 L 246.9 182.2 L 241.4 176.3 L 239.4 173.8 L 236.4 169.8 L 230.9 162.7 L 227.2 158.3 L 222.4 153.2 L 213.0 145.2 L 207.2 142.2 L 201.6 140.5 L 196.6 140.0 L 190.4 141.6 L 181.2 148.4 L 177.9 152.6 L 171.8 162.1 L 167.2 170.7 L 165.6 173.9 L 160.6 184.4 L 155.0 195.4 L 150.7 203.1 L 145.3 212.4 L 142.3 217.6 L 135.8 228.9 L 128.9 241.0 L 123.5 250.2 L 116.5 261.3 L 111.6 269.0 L 107.0 276.7 L 104.0 285.1 L 104.4 292.9 L 105.6 297.2 L 107.4 301.8 L 109.7 305.8 L 114.0 310.7 L 121.8 315.9 L 127.9 318.5 L 133.9 320.5 L 139.0 323.1 L 142.0 326.9 L 144.7 334.5 L 148.0 352.5 L 148.9 355.7 L 153.4 362.1 L 160.7 368.4 L 163.1 370.3 L 175.0 380.1 L 177.8 382.7 L 184.3 389.4 L 189.9 397.5 L 192.0 400.8 L 193.8 403.4 L 197.4 407.4 L 199.7 409.0 L 202.5 410.0 L 206.9 408.7 L 208.4 407.1 L 210.5 403.2 L 211.1 401.4 L 212.5 395.8 L 213.6 389.9 L 214.0 387.5 L 215.2 378.0 L 216.9 365.9 L 217.4 362.5 L 219.5 351.0 L 224.3 325.3 L 224.8 322.7 L 227.3 308.2 L 230.7 290.9 L 232.2 283.5 L 234.6 272.4 L 235.5 268.4 L 239.7 253.0 L 244.2 239.6 L 245.9 234.8 L 251.0 221.0 L 253.8 214.3 L 255.8 210.1 L 258.5 206.2 L 261.7 203.9 L 265.1 202.9 L 271.0 204.0 L 274.3 205.7 L 277.8 208.1 L 282.5 211.8 L 287.0 215.6 L 296.0 223.6 L 305.3 232.3 L 311.7 237.8 L 321.2 245.7 L 333.2 254.9 L 338.2 258.0 L 359.6 266.1 L 367.1 267.2 L 384.1 268.3 L 402.2 269.5 L 413.8 270.3 L 427.6 271.2 L 443.4 272.2 L 454.2 272.8 L 481.4 273.9 L 497.7 274.2 L 504.8 274.5 L 518.2 275.0 L 535.6 276.8 L 538.2 277.5 L 543.0 280.3 L 544.3 282.3 L 547.0 291.2 L 549.8 298.2 L 551.0 300.4 L 554.3 305.0 L 562.7 311.3 L 565.8 312.5 L 578.9 315.1 L 593.0 315.6 L 597.9 315.6 L 608.8 315.8 L 612.9 315.9 L 625.6 316.5 L 642.7 317.6 L 649.4 318.0 L 666.7 317.0 L 680.2 308.8 L 686.0 301.4 L 693.0 287.0 L 695.6 274.8 L 696.0 268.9 L 694.6 247.3 L 691.8 230.4 L 690.7 223.9 Z" fill="none" stroke="#e10600" stroke-width="3" stroke-linejoin="round" filter="url(#glow)" opacity="0.85"/>
  <path d="M 690.7 223.9 L 689.3 215.1 L 687.1 201.5 L 686.1 194.9 L 683.8 179.0 L 682.6 170.9 L 681.5 163.4 L 678.8 142.5 L 676.6 124.3 L 675.7 117.2 L 674.2 103.5 L 672.2 87.4 L 671.2 81.7 L 667.8 69.8 L 666.1 66.9 L 660.3 61.5 L 652.7 58.9 L 647.8 57.9 L 637.0 54.0 L 631.5 49.8 L 628.1 46.9 L 623.3 43.0 L 619.0 40.6 L 615.5 40.0 L 610.2 41.2 L 608.3 42.4 L 604.9 46.5 L 602.5 52.5 L 601.7 55.6 L 600.7 62.3 L 600.6 72.5 L 601.0 76.7 L 603.4 87.7 L 607.0 98.0 L 607.2 98.5 L 613.6 114.0 L 617.4 123.1 L 620.2 130.0 L 624.4 142.5 L 625.9 147.9 L 628.3 160.0 L 629.2 171.0 L 629.0 177.2 L 627.4 185.8 L 623.9 191.8 L 621.6 194.0 L 612.3 198.6 L 600.0 201.1 L 595.8 201.6 L 587.7 201.9 L 581.6 201.7 L 565.3 200.4 L 556.5 199.5 L 551.1 199.1 L 540.6 198.2 L 523.5 196.8 L 511.8 196.0 L 500.4 195.1 L 488.8 194.1 L 482.6 193.6 L 464.5 192.1 L 456.9 191.3 L 443.0 189.4 L 426.8 185.2 L 416.0 180.7 L 397.6 170.5 L 389.6 165.7 L 377.8 158.4 L 365.3 150.8 L 349.1 140.3 L 341.9 135.5 L 330.6 127.8 L 321.0 122.9 L 318.4 122.0 L 309.8 120.0 L 305.9 120.1 L 301.6 121.3 L 294.4 126.8 L 292.6 128.7 L 287.6 135.1 L 281.0 145.0 L 280.4 146.1 L 274.9 157.3 L 270.8 166.7 L 268.7 171.6 L 264.9 179.1 L 263.4 181.3 L 258.5 186.0 L 253.1 186.3 L 251.3 185.5 L 246.9 182.2 L 241.4 176.3 L 239.4 173.8 L 236.4 169.8 L 230.9 162.7 L 227.2 158.3 L 222.4 153.2 L 213.0 145.2 L 207.2 142.2 L 201.6 140.5 L 196.6 140.0 L 190.4 141.6 L 181.2 148.4 L 177.9 152.6 L 171.8 162.1 L 167.2 170.7 L 165.6 173.9 L 160.6 184.4 L 155.0 195.4 L 150.7 203.1 L 145.3 212.4 L 142.3 217.6 L 135.8 228.9 L 128.9 241.0 L 123.5 250.2 L 116.5 261.3 L 111.6 269.0 L 107.0 276.7 L 104.0 285.1 L 104.4 292.9 L 105.6 297.2 L 107.4 301.8 L 109.7 305.8 L 114.0 310.7 L 121.8 315.9 L 127.9 318.5 L 133.9 320.5 L 139.0 323.1 L 142.0 326.9 L 144.7 334.5 L 148.0 352.5 L 148.9 355.7 L 153.4 362.1 L 160.7 368.4 L 163.1 370.3 L 175.0 380.1 L 177.8 382.7 L 184.3 389.4 L 189.9 397.5 L 192.0 400.8 L 193.8 403.4 L 197.4 407.4 L 199.7 409.0 L 202.5 410.0 L 206.9 408.7 L 208.4 407.1 L 210.5 403.2 L 211.1 401.4 L 212.5 395.8 L 213.6 389.9 L 214.0 387.5 L 215.2 378.0 L 216.9 365.9 L 217.4 362.5 L 219.5 351.0 L 224.3 325.3 L 224.8 322.7 L 227.3 308.2 L 230.7 290.9 L 232.2 283.5 L 234.6 272.4 L 235.5 268.4 L 239.7 253.0 L 244.2 239.6 L 245.9 234.8 L 251.0 221.0 L 253.8 214.3 L 255.8 210.1 L 258.5 206.2 L 261.7 203.9 L 265.1 202.9 L 271.0 204.0 L 274.3 205.7 L 277.8 208.1 L 282.5 211.8 L 287.0 215.6 L 296.0 223.6 L 305.3 232.3 L 311.7 237.8 L 321.2 245.7 L 333.2 254.9 L 338.2 258.0 L 359.6 266.1 L 367.1 267.2 L 384.1 268.3 L 402.2 269.5 L 413.8 270.3 L 427.6 271.2 L 443.4 272.2 L 454.2 272.8 L 481.4 273.9 L 497.7 274.2 L 504.8 274.5 L 518.2 275.0 L 535.6 276.8 L 538.2 277.5 L 543.0 280.3 L 544.3 282.3 L 547.0 291.2 L 549.8 298.2 L 551.0 300.4 L 554.3 305.0 L 562.7 311.3 L 565.8 312.5 L 578.9 315.1 L 593.0 315.6 L 597.9 315.6 L 608.8 315.8 L 612.9 315.9 L 625.6 316.5 L 642.7 317.6 L 649.4 318.0 L 666.7 317.0 L 680.2 308.8 L 686.0 301.4 L 693.0 287.0 L 695.6 274.8 L 696.0 268.9 L 694.6 247.3 L 691.8 230.4 L 690.7 223.9 Z" fill="none" stroke="#ffffff" stroke-width="0.7" stroke-dasharray="3 6"/>
  <text x="20" y="34" font-family="Inter,system-ui,sans-serif" font-size="14" font-weight="600" fill="#8a8aa3" letter-spacing="2">MARINA BAY STREET CIRCUIT</text>
</svg>
