<svg xmlns="http://www.w3.org/2000/svg" viewBox="0 0 800 450" width="800" height="450">
  <defs>
    <linearGradient id="bg" x1="0" y1="0" x2="0" y2="1">
      <stop offset="0%" stop-color="#1d1d36"/>
      <stop offset="100%" stop-color="#0e0e1a"/>
    </linearGradient>
    <pattern id="grid" width="40" height="40" patternUnits="userSpaceOnUse">
      <circle cx="2" cy="2" r="0.8" fill="#252548" opacity="0.6"/>
    </pattern>
    <filter id="glow">
      <feGaussianBlur stdDeviation="3.5"/>
    </filter>
  </defs>
  <rect width="800" height="450" fill="url(#bg)"/>
  <rect width="800" height="450" fill="url(#grid)"/>
  <path d="M 673.8 87.8 L 669.6 94.1 L 665.1 100.9 L 660.5 108.1 L 655.7 115.6 L 650.8 123.5 L 645.7 131.6 L 640.5 140.0 L 635.2 148.5 L 629.4 157.9 L 623.8 166.7 L 618.0 175.6 L 611.8 184.3 L 604.9 192.7 L 597.6 200.2 L 587.8 208.6 L 578.7 214.9 L 568.9 220.3 L 558.7 225.0 L 548.2 228.9 L 537.5 232.2 L 526.6 235.3 L 515.7 238.2 L 504.8 241.1 L 493.8 243.9 L 482.8 246.8 L 471.8 249.7 L 460.9 252.6 L 450.1 255.6 L 439.9 258.4 L 429.2 261.6 L 420.2 264.2 L 409.6 267.4 L 400.0 270.3 L 392.3 272.6 L 386.3 273.9 L 381.4 274.0 L 376.9 272.7 L 373.4 270.5 L 370.7 267.5 L 368.3 261.7 L 365.2 256.6 L 361.6 251.0 L 357.1 245.2 L 348.6 236.4 L 342.3 230.5 L 335.0 225.2 L 326.9 220.4 L 318.0 216.7 L 308.4 214.4 L 298.0 214.0 L 288.0 214.9 L 278.0 217.6 L 268.5 222.3 L 260.0 228.4 L 252.7 236.1 L 247.0 245.1 L 243.0 255.0 L 241.1 264.6 L 240.5 275.7 L 242.6 286.1 L 246.3 296.1 L 251.2 305.5 L 257.0 314.7 L 261.3 322.7 L 263.8 329.6 L 264.5 335.7 L 263.4 341.7 L 261.2 346.8 L 257.4 351.0 L 250.8 354.7 L 244.1 358.3 L 237.5 362.2 L 231.5 365.9 L 223.9 370.1 L 216.0 374.6 L 208.0 379.4 L 199.8 384.4 L 191.6 389.5 L 183.3 394.7 L 174.4 400.5 L 167.1 405.1 L 161.0 408.3 L 155.6 409.8 L 150.7 409.8 L 146.1 408.5 L 142.2 405.9 L 138.9 401.6 L 135.0 392.4 L 132.2 386.0 L 129.0 379.1 L 125.8 371.8 L 122.4 364.0 L 119.1 355.6 L 116.4 346.7 L 114.3 337.3 L 113.4 327.7 L 113.7 316.8 L 115.0 307.1 L 117.3 298.6 L 119.6 291.8 L 123.0 286.8 L 128.3 283.3 L 134.9 281.1 L 142.4 279.8 L 150.2 279.0 L 158.4 278.4 L 167.0 277.9 L 174.2 277.4 L 183.2 276.7 L 192.4 275.6 L 200.7 274.1 L 207.5 271.8 L 213.0 268.5 L 217.4 263.8 L 220.8 257.6 L 222.7 249.8 L 223.5 241.6 L 222.4 233.3 L 220.3 224.8 L 217.3 217.0 L 213.4 208.4 L 209.0 199.8 L 204.7 191.1 L 199.9 179.6 L 197.2 172.2 L 195.8 166.1 L 195.6 160.9 L 197.0 156.2 L 200.8 150.8 L 205.2 147.2 L 211.3 144.4 L 221.1 141.0 L 228.5 139.0 L 236.5 137.1 L 245.1 135.6 L 254.3 134.5 L 262.9 133.8 L 272.8 133.6 L 283.1 134.3 L 293.6 135.3 L 304.3 136.6 L 315.1 138.3 L 326.1 140.5 L 337.2 143.1 L 348.3 146.2 L 360.0 150.1 L 370.5 154.0 L 381.4 158.4 L 392.3 163.1 L 403.0 167.9 L 413.8 172.7 L 424.6 177.3 L 435.5 181.5 L 446.6 184.9 L 455.7 186.8 L 467.4 188.1 L 478.9 188.4 L 490.3 187.1 L 501.1 184.6 L 510.2 181.8 L 516.6 179.9 L 521.9 179.1 L 526.6 179.3 L 530.2 180.8 L 532.9 183.5 L 534.8 187.0 L 536.0 191.2 L 536.6 196.1 L 537.4 201.4 L 538.8 206.0 L 542.0 208.8 L 547.6 210.3 L 553.2 210.8 L 559.0 210.2 L 565.2 208.1 L 574.6 202.1 L 579.9 196.6 L 584.9 189.9 L 589.6 182.6 L 593.8 176.1 L 597.1 171.0 L 599.2 166.6 L 600.1 162.4 L 600.1 158.6 L 599.3 155.9 L 596.4 153.2 L 592.0 150.5 L 586.8 147.4 L 583.4 143.9 L 581.6 139.8 L 581.4 134.6 L 582.6 129.9 L 585.9 124.4 L 589.8 118.7 L 593.7 112.6 L 597.8 106.1 L 602.4 99.2 L 607.0 91.8 L 611.7 83.7 L 616.4 75.8 L 621.3 67.8 L 626.3 59.7 L 630.8 52.2 L 634.6 46.8 L 638.6 42.8 L 642.8 40.5 L 647.9 40.0 L 653.6 41.1 L 659.8 43.7 L 666.0 46.8 L 672.5 49.7 L 678.3 52.5 L 682.7 55.2 L 685.3 58.6 L 686.6 62.3 L 686.1 66.9 L 684.6 71.9 L 681.7 76.9 L 676.0 84.7 L 673.8 87.8 Z" fill="none" stroke="#2c2c4a" stroke-width="14" stroke-linejoin="round" stroke-linecap="round"/>
  <path d="M 673.8 87.8 L 669.6 94.1 L 665.1 100.9 L 660.5 108.1 L 655.7 115.6 L 650.8 123.5 L 645.7 131.6 L 640.5 140.0 L 635.2 148.5 L 629.4 157.9 L 623.8 166.7 L 618.0 175.6 L 611.8 184.3 L 604.9 192.7 L 597.6 200.2 L 587.8 208.6 L 578.7 214.9 L 568.9 220.3 L 558.7 225.0 L 548.2 228.9 L 537.5 232.2 L 526.6 235.3 L 515.7 238.2 L 504.8 241.1 L 493.8 243.9 L 482.8 246.8 L 471.8 249.7 L 460.9 252.6 L 450.1 255.6 L 439.9 258.4 L 429.2 261.6 L 420.2 264.2 L 409.6 267.4 L 400.0 270.3 L 392.3 272.6 L 386.3 273.9 L 381.4 274.0 L 376.9 272.7 L 373.4 270.5 L 370.7 267.5 L 368.3 261.7 L 365.2 256.6 L 361.6 251.0 L 357.1 245.2 L 348.6 236.4 L 342.3 230.5 L 335.0 225.2 L 326.9 220.4 L 318.0 216.7 L 308.4 214.4 L 298.0 214.0 L 288.0 214.9 L 278.0 217.6 L 268.5 222.3 L 260.0 228.4 L 252.7 236.1 L 247.0 245.1 L 243.0 255.0 L 241.1 264.6 L 240.5 275.7 L 242.6 286.1 L 246.3 296.1 L 251.2 305.5 L 257.0 314.7 L 261.3 322.7 L 263.8 329.6 L 264.5 335.7 L 263.4 341.7 L 261.2 346.8 L 257.4 351.0 L 250.8 354.7 L 244.1 358.3 L 237.5 362.2 L 231.5 365.9 L 223.9 370.1 L 216.0 374.6 L 208.0 379.4 L 199.8 384.4 L 191.6 389.5 L 183.3 394.7 L 174.4 400.5 L 167.1 405.1 L 161.0 408.3 L 155.6 409.8 L 150.7 409.8 L 146.1 408.5 L 142.2 405.9 L 138.9 401.6 L 135.0 392.4 L 132.2 386.0 L 129.0 379.1 L 125.8 371.8 L 122.4 364.0 L 119.1 355.6 L 116.4 346.7 L 114.3 337.3 L 113.4 327.7 L 113.7 316.8 L 115.0 307.1 L 117.3 298.6 L 119.6 291.8 L 123.0 286.8 L 128.3 283.3 L 134.9 281.1 L 142.4 279.8 L 150.2 279.0 L 158.4 278.4 L 167.0 277.9 L 174.2 277.4 L 183.2 276.7 L 192.4 275.6 L 200.7 274.1 L 207.5 271.8 L 213.0 268.5 L 217.4 263.8 L 220.8 257.6 L 222.7 249.8 L 223.5 241.6 L 222.4 233.3 L 220.3 224.8 L 217.3 217.0 L 213.4 208.4 L 209.0 199.8 L 204.7 191.1 L 199.9 179.6 L 197.2 172.2 L 195.8 166.1 L 195.6 160.9 L 197.0 156.2 L 200.8 150.8 L 205.2 147.2 L 211.3 144.4 L 221.1 141.0 L 228.5 139.0 L 236.5 137.1 L 245.1 135.6 L 254.3 134.5 L 262.9 133.8 L 272.8 133.6 L 283.1 134.3 L 293.6 135.3 L 304.3 136.6 L 315.1 138.3 L 326.1 140.5 L 337.2 143.1 L 348.3 146.2 L 360.0 150.1 L 370.5 154.0 L 381.4 158.4 L 392.3 163.1 L 403.0 167.9 L 413.8 172.7 L 424.6 177.3 L 435.5 181.5 L 446.6 184.9 L 455.7 186.8 L 467.4 188.1 L 478.9 188.4 L 490.3 187.1 L 501.1 184.6 L 510.2 181.8 L 516.6 179.9 L 521.9 179.1 L 526.6 179.3 L 530.2 180.8 L 532.9 183.5 L 534.8 187.0 L 536.0 191.2 L 536.6 196.1 L 537.4 201.4 L 538.8 206.0 L 542.0 208.8 L 547.6 210.3 L 553.2 210.8 L 559.0 210.2 L 565.2 208.1 L 574.6 202.1 L 579.9 196.6 L 584.9 189.9 L 589.6 182.6 L 593.8 176.1 L 597.1 171.0 L 599.2 166.6 L 600.1 162.4 L 600.1 158.6 L 599.3 155.9 L 596.4 153.2 L 592.0 150.5 L 586.8 147.4 L 583.4 143.9 L 581.6 139.8 L 581.4 134.6 L 582.6 129.9 L 585.9 124.4 L 589.8 118.7 L 593.7 112.6 L 597.8 106.1 L 602.4 99.2 L 607.0 91.8 L 611.7 83.7 L 616.4 75.8 L 621.3 67.8 L 626.3 59.7 L 630.8 52.2 L 634.6 46.8 L 638.6 42.8 L 642.8 40.5 L 647.9 40.0 L 653.6 41.1 L 659.8 43.7 L 666.0 46.8 L 672.5 49.7 L 678.3 52.5 L 682.7 55.2 L 685.3 58.6 L 686.6 62.3 L 686.1 66.9 L 684.6 71.9 L 681.7 76.9 L 676.0 84.7 L 673.8 87.8 Z" fill="none" stroke="#e10600" stroke-width="3" stroke-linejoin="round" filter="url(#glow)" opacity="0.85"/>
  <path d="M 673.8 87.8 L 669.6 94.1 L 665.1 100.9 L 660.5 108.1 L 655.7 115.6 L 650.8 123.5 L 645.7 131.6 L 640.5 140.0 L 635.2 148.5 L 629.4 157.9 L 623.8 166.7 L 618.0 175.6 L 611.8 184.3 L 604.9 192.7 L 597.6 200.2 L 587.8 208.6 L 578.7 214.9 L 568.9 220.3 L 558.7 225.0 L 548.2 228.9 L 537.5 232.2 L 526.6 235.3 L 515.7 238.2 L 504.8 241.1 L 493.8 243.9 L 482.8 246.8 L 471.8 249.7 L 460.9 252.6 L 450.1 255.6 L 439.9 258.4 L 429.2 261.6 L 420.2 264.2 L 409.6 267.4 L 400.0 270.3 L 392.3 272.6 L 386.3 273.9 L 381.4 274.0 L 376.9 272.7 L 373.4 270.5 L 370.7 267.5 L 368.3 261.7 L 365.2 256.6 L 361.6 251.0 L 357.1 245.2 L 348.6 236.4 L 342.3 230.5 L 335.0 225.2 L 326.9 220.4 L 318.0 216.7 L 308.4 214.4 L 298.0 214.0 L 288.0 214.9 L 278.0 217.6 L 268.5 222.3 L 260.0 228.4 L 252.7 236.1 L 247.0 245.1 L 243.0 255.0 L 241.1 264.6 L 240.5 275.7 L 242.6 286.1 L 246.3 296.1 L 251.2 305.5 L 257.0 314.7 L 261.3 322.7 L 263.8 329.6 L 264.5 335.7 L 263.4 341.7 L 261.2 346.8 L 257.4 351.0 L 250.8 354.7 L 244.1 358.3 L 237.5 362.2 L 231.5 365.9 L 223.9 370.1 L 216.0 374.6 L 208.0 379.4 L 199.8 384.4 L 191.6 389.5 L 183.3 394.7 L 174.4 400.5 L 167.1 405.1 L 161.0 408.3 L 155.6 409.8 L 150.7 409.8 L 146.1 408.5 L 142.2 405.9 L 138.9 401.6 L 135.0 392.4 L 132.2 386.0 L 129.0 379.1 L 125.8 371.8 L 122.4 364.0 L 119.1 355.6 L 116.4 346.7 L 114.3 337.3 L 113.4 327.7 L 113.7 316.8 L 115.0 307.1 L 117.3 298.6 L 119.6 291.8 L 123.0 286.8 L 128.3 283.3 L 134.9 281.1 L 142.4 279.8 L 150.2 279.0 L 158.4 278.4 L 167.0 277.9 L 174.2 277.4 L 183.2 276.7 L 192.4 275.6 L 200.7 274.1 L 207.5 271.8 L 213.0 268.5 L 217.4 263.8 L 220.8 257.6 L 222.7 249.8 L 223.5 241.6 L 222.4 233.3 L 220.3 224.8 L 217.3 217.0 L 213.4 208.4 L 209.0 199.8 L 204.7 191.1 L 199.9 179.6 L 197.2 172.2 L 195.8 166.1 L 195.6 160.9 L 197.0 156.2 L 200.8 150.8 L 205.2 147.2 L 211.3 144.4 L 221.1 141.0 L 228.5 139.0 L 236.5 137.1 L 245.1 135.6 L 254.3 134.5 L 262.9 133.8 L 272.8 133.6 L 283.1 134.3 L 293.6 135.3 L 304.3 136.6 L 315.1 138.3 L 326.1 140.5 L 337.2 143.1 L 348.3 146.2 L 360.0 150.1 L 370.5 154.0 L 381.4 158.4 L 392.3 163.1 L 403.0 167.9 L 413.8 172.7 L 424.6 177.3 L 435.5 181.5 L 446.6 184.9 L 455.7 186.8 L 467.4 188.1 L 478.9 188.4 L 490.3 187.1 L 501.1 184.6 L 510.2 181.8 L 516.6 179.9 L 521.9 179.1 L 526.6 179.3 L 530.2 180.8 L 532.9 183.5 L 534.8 187.0 L 536.0 191.2 L 536.6 196.1 L 537.4 201.4 L 538.8 206.0 L 542.0 208.8 L 547.6 210.3 L 553.2 210.8 L 559.0 210.2 L 565.2 208.1 L 574.6 202.1 L 579.9 196.6 L 584.9 189.9 L 589.6 182.6 L 593.8 176.1 L 597.1 171.0 L 599.2 166.6 L 600.1 162.4 L 600.1 158.6 L 599.3 155.9 L 596.4 153.2 L 592.0 150.5 L 586.8 147.4 L 583.4 143.9 L 581.6 139.8 L 581.4 134.6 L 582.6 129.9 L 585.9 124.4 L 589.8 118.7 L 593.7 112.6 L 597.8 106.1 L 602.4 99.2 L 607.0 91.8 L 611.7 83.7 L 616.4 75.8 L 621.3 67.8 L 626.3 59.7 L 630.8 52.2 L 634.6 46.8 L 638.6 42.8 L 642.8 40.5 L 647.9 40.0 L 653.6 41.1 L 659.8 43.7 L 666.0 46.8 L 672.5 49.7 L 678.3 52.5 L 682.7 55.2 L 685.3 58.6 L 686.6 62.3 L 686.1 66.9 L 684.6 71.9 L 681.7 76.9 L 676.0 84.7 L 673.8 87.8 Z" fill="none" stroke="#ffffff" stroke-width="0.7" stroke-dasharray="3 6"/>
  <text x="20" y="34" font-family="Inter,system-ui,sans-serif" font-size="14" font-weight="600" fill="#8a8aa3" letter-spacing="2">SOCHI</text>
</svg>
