<svg xmlns="http://www.w3.org/2000/svg" viewBox="0 0 800 450" width="800" height="450">
  <defs>
    <linearGradient id="bg" x1="0" y1="0" x2="0" y2="1">
      <stop offset="0%" stop-color="#1d1d36"/>
      <stop offset="100%" stop-color="#0e0e1a"/>
    </linearGradient>
    <pattern id="grid" width="40" height="40" patternUnits="userSpaceOnUse">
      <circle cx="2" cy="2" r="0.8" fill="#252548" opacity="0.6"/>
    </pattern>
    <filter id="glow">
      <feGaussianBlur stdDeviation="3.5"/>
    </filter>
  </defs>
  <rect width="800" height="450" fill="url(#bg)"/>
  <rect width="800" height="450" fill="url(#grid)"/>
  <path d="M 353.2 95.1 L 351.9 93.1 L 347.8 86.9 L 344.8 82.4 L 340.9 76.5 L 339.0 73.6 L 334.6 67.0 L 332.5 63.7 L 327.7 56.6 L 325.8 53.7 L 323.8 50.4 L 322.3 47.0 L 321.7 43.6 L 325.5 40.0 L 326.0 40.0 L 327.7 40.4 L 331.5 41.8 L 335.0 43.4 L 337.5 44.7 L 343.2 47.6 L 346.4 49.3 L 352.2 52.4 L 353.5 53.1 L 361.0 57.8 L 366.8 62.0 L 370.9 65.3 L 377.5 71.5 L 380.7 74.7 L 385.4 79.6 L 388.9 83.2 L 393.5 88.2 L 396.6 91.5 L 402.2 97.6 L 408.4 104.6 L 415.0 111.3 L 423.9 116.2 L 428.8 119.9 L 433.6 127.9 L 435.7 135.2 L 436.6 140.7 L 438.7 146.7 L 442.2 152.8 L 446.1 158.8 L 449.9 163.8 L 451.8 166.3 L 458.3 175.2 L 461.9 180.4 L 467.0 188.5 L 472.7 200.0 L 478.7 217.7 L 480.8 223.8 L 483.5 231.9 L 486.6 241.3 L 487.4 243.8 L 490.1 251.8 L 494.0 263.3 L 497.0 272.3 L 499.6 280.0 L 501.3 285.0 L 505.2 296.5 L 507.4 303.3 L 510.5 312.5 L 511.6 315.8 L 514.1 323.4 L 515.1 328.3 L 515.0 331.6 L 514.7 332.9 L 512.5 337.0 L 509.8 339.8 L 506.4 344.5 L 505.6 348.4 L 505.8 351.3 L 507.8 357.7 L 509.3 361.8 L 510.3 367.1 L 509.8 370.5 L 507.7 375.3 L 504.6 379.0 L 499.2 383.0 L 497.0 384.4 L 491.9 387.9 L 476.6 399.5 L 471.8 403.2 L 468.2 405.7 L 466.2 406.9 L 462.2 409.0 L 458.1 410.0 L 454.2 409.0 L 452.9 408.1 L 450.7 405.5 L 449.7 402.6 L 449.7 401.0 L 450.3 398.4 L 451.6 395.9 L 454.7 392.5 L 459.6 389.2 L 465.7 385.9 L 467.3 385.0 L 471.9 381.3 L 474.9 376.4 L 475.2 370.6 L 475.0 369.6 L 473.4 364.2 L 470.9 358.1 L 467.4 349.5 L 465.6 344.5 L 464.8 341.7 L 462.1 331.1 L 460.6 324.2 L 458.8 315.7 L 458.2 312.9 L 454.7 297.1 L 452.4 290.6 L 448.9 285.2 L 446.9 283.2 L 442.5 280.3 L 437.0 278.7 L 428.5 278.3 L 421.5 278.9 L 416.9 280.4 L 411.0 284.2 L 407.5 287.2 L 402.0 294.6 L 400.4 297.7 L 397.5 304.9 L 395.4 311.6 L 393.4 317.7 L 391.0 325.4 L 390.0 328.3 L 388.0 334.5 L 385.2 343.2 L 383.2 348.4 L 382.1 350.5 L 379.2 354.4 L 375.4 357.4 L 370.6 358.7 L 368.5 358.7 L 365.0 358.1 L 361.1 356.1 L 355.7 353.9 L 351.8 353.5 L 347.9 354.2 L 343.7 356.3 L 340.6 359.0 L 337.4 363.0 L 336.2 364.9 L 333.8 369.2 L 331.7 373.5 L 329.6 378.0 L 327.2 382.6 L 323.5 388.7 L 319.7 392.3 L 313.8 393.8 L 310.9 393.4 L 308.2 392.5 L 303.2 389.8 L 299.0 387.1 L 295.7 384.7 L 293.8 383.1 L 290.2 379.4 L 285.7 371.5 L 284.9 363.0 L 285.9 356.7 L 287.0 352.6 L 289.8 345.7 L 293.5 339.2 L 298.3 332.4 L 301.8 328.1 L 305.1 324.3 L 312.9 316.5 L 316.6 313.3 L 319.6 310.8 L 323.6 307.9 L 329.8 303.9 L 334.5 301.3 L 341.0 297.5 L 343.7 295.9 L 351.6 291.3 L 359.6 286.1 L 369.2 277.0 L 371.0 274.7 L 374.5 269.3 L 378.7 261.0 L 382.0 253.4 L 383.1 250.7 L 385.7 243.8 L 387.9 234.8 L 388.2 228.5 L 386.5 219.7 L 384.6 214.3 L 381.4 206.3 L 379.3 201.4 L 375.6 192.9 L 374.2 189.7 L 371.3 182.2 L 369.4 175.8 L 367.7 167.9 L 365.9 158.4 L 365.6 156.8 L 364.3 148.5 L 363.9 136.5 L 364.6 134.9 L 365.2 134.1 L 367.2 133.0 L 368.8 132.9 L 370.5 132.8 L 372.0 132.3 L 373.2 131.1 L 373.7 129.7 L 373.7 127.7 L 373.2 125.9 L 372.7 124.8 L 371.7 122.9 L 370.3 120.8 L 368.2 117.6 L 368.0 117.4 L 364.6 112.3 L 362.2 108.7 L 359.2 104.1 L 355.5 98.5 L 353.2 95.1 Z" fill="none" stroke="#2c2c4a" stroke-width="14" stroke-linejoin="round" stroke-linecap="round"/>
  <path d="M 353.2 95.1 L 351.9 93.1 L 347.8 86.9 L 344.8 82.4 L 340.9 76.5 L 339.0 73.6 L 334.6 67.0 L 332.5 63.7 L 327.7 56.6 L 325.8 53.7 L 323.8 50.4 L 322.3 47.0 L 321.7 43.6 L 325.5 40.0 L 326.0 40.0 L 327.7 40.4 L 331.5 41.8 L 335.0 43.4 L 337.5 44.7 L 343.2 47.6 L 346.4 49.3 L 352.2 52.4 L 353.5 53.1 L 361.0 57.8 L 366.8 62.0 L 370.9 65.3 L 377.5 71.5 L 380.7 74.7 L 385.4 79.6 L 388.9 83.2 L 393.5 88.2 L 396.6 91.5 L 402.2 97.6 L 408.4 104.6 L 415.0 111.3 L 423.9 116.2 L 428.8 119.9 L 433.6 127.9 L 435.7 135.2 L 436.6 140.7 L 438.7 146.7 L 442.2 152.8 L 446.1 158.8 L 449.9 163.8 L 451.8 166.3 L 458.3 175.2 L 461.9 180.4 L 467.0 188.5 L 472.7 200.0 L 478.7 217.7 L 480.8 223.8 L 483.5 231.9 L 486.6 241.3 L 487.4 243.8 L 490.1 251.8 L 494.0 263.3 L 497.0 272.3 L 499.6 280.0 L 501.3 285.0 L 505.2 296.5 L 507.4 303.3 L 510.5 312.5 L 511.6 315.8 L 514.1 323.4 L 515.1 328.3 L 515.0 331.6 L 514.7 332.9 L 512.5 337.0 L 509.8 339.8 L 506.4 344.5 L 505.6 348.4 L 505.8 351.3 L 507.8 357.7 L 509.3 361.8 L 510.3 367.1 L 509.8 370.5 L 507.7 375.3 L 504.6 379.0 L 499.2 383.0 L 497.0 384.4 L 491.9 387.9 L 476.6 399.5 L 471.8 403.2 L 468.2 405.7 L 466.2 406.9 L 462.2 409.0 L 458.1 410.0 L 454.2 409.0 L 452.9 408.1 L 450.7 405.5 L 449.7 402.6 L 449.7 401.0 L 450.3 398.4 L 451.6 395.9 L 454.7 392.5 L 459.6 389.2 L 465.7 385.9 L 467.3 385.0 L 471.9 381.3 L 474.9 376.4 L 475.2 370.6 L 475.0 369.6 L 473.4 364.2 L 470.9 358.1 L 467.4 349.5 L 465.6 344.5 L 464.8 341.7 L 462.1 331.1 L 460.6 324.2 L 458.8 315.7 L 458.2 312.9 L 454.7 297.1 L 452.4 290.6 L 448.9 285.2 L 446.9 283.2 L 442.5 280.3 L 437.0 278.7 L 428.5 278.3 L 421.5 278.9 L 416.9 280.4 L 411.0 284.2 L 407.5 287.2 L 402.0 294.6 L 400.4 297.7 L 397.5 304.9 L 395.4 311.6 L 393.4 317.7 L 391.0 325.4 L 390.0 328.3 L 388.0 334.5 L 385.2 343.2 L 383.2 348.4 L 382.1 350.5 L 379.2 354.4 L 375.4 357.4 L 370.6 358.7 L 368.5 358.7 L 365.0 358.1 L 361.1 356.1 L 355.7 353.9 L 351.8 353.5 L 347.9 354.2 L 343.7 356.3 L 340.6 359.0 L 337.4 363.0 L 336.2 364.9 L 333.8 369.2 L 331.7 373.5 L 329.6 378.0 L 327.2 382.6 L 323.5 388.7 L 319.7 392.3 L 313.8 393.8 L 310.9 393.4 L 308.2 392.5 L 303.2 389.8 L 299.0 387.1 L 295.7 384.7 L 293.8 383.1 L 290.2 379.4 L 285.7 371.5 L 284.9 363.0 L 285.9 356.7 L 287.0 352.6 L 289.8 345.7 L 293.5 339.2 L 298.3 332.4 L 301.8 328.1 L 305.1 324.3 L 312.9 316.5 L 316.6 313.3 L 319.6 310.8 L 323.6 307.9 L 329.8 303.9 L 334.5 301.3 L 341.0 297.5 L 343.7 295.9 L 351.6 291.3 L 359.6 286.1 L 369.2 277.0 L 371.0 274.7 L 374.5 269.3 L 378.7 261.0 L 382.0 253.4 L 383.1 250.7 L 385.7 243.8 L 387.9 234.8 L 388.2 228.5 L 386.5 219.7 L 384.6 214.3 L 381.4 206.3 L 379.3 201.4 L 375.6 192.9 L 374.2 189.7 L 371.3 182.2 L 369.4 175.8 L 367.7 167.9 L 365.9 158.4 L 365.6 156.8 L 364.3 148.5 L 363.9 136.5 L 364.6 134.9 L 365.2 134.1 L 367.2 133.0 L 368.8 132.9 L 370.5 132.8 L 372.0 132.3 L 373.2 131.1 L 373.7 129.7 L 373.7 127.7 L 373.2 125.9 L 372.7 124.8 L 371.7 122.9 L 370.3 120.8 L 368.2 117.6 L 368.0 117.4 L 364.6 112.3 L 362.2 108.7 L 359.2 104.1 L 355.5 98.5 L 353.2 95.1 Z" fill="none" stroke="#e10600" stroke-width="3" stroke-linejoin="round" filter="url(#glow)" opacity="0.85"/>
  <path d="M 353.2 95.1 L 351.9 93.1 L 347.8 86.9 L 344.8 82.4 L 340.9 76.5 L 339.0 73.6 L 334.6 67.0 L 332.5 63.7 L 327.7 56.6 L 325.8 53.7 L 323.8 50.4 L 322.3 47.0 L 321.7 43.6 L 325.5 40.0 L 326.0 40.0 L 327.7 40.4 L 331.5 41.8 L 335.0 43.4 L 337.5 44.7 L 343.2 47.6 L 346.4 49.3 L 352.2 52.4 L 353.5 53.1 L 361.0 57.8 L 366.8 62.0 L 370.9 65.3 L 377.5 71.5 L 380.7 74.7 L 385.4 79.6 L 388.9 83.2 L 393.5 88.2 L 396.6 91.5 L 402.2 97.6 L 408.4 104.6 L 415.0 111.3 L 423.9 116.2 L 428.8 119.9 L 433.6 127.9 L 435.7 135.2 L 436.6 140.7 L 438.7 146.7 L 442.2 152.8 L 446.1 158.8 L 449.9 163.8 L 451.8 166.3 L 458.3 175.2 L 461.9 180.4 L 467.0 188.5 L 472.7 200.0 L 478.7 217.7 L 480.8 223.8 L 483.5 231.9 L 486.6 241.3 L 487.4 243.8 L 490.1 251.8 L 494.0 263.3 L 497.0 272.3 L 499.6 280.0 L 501.3 285.0 L 505.2 296.5 L 507.4 303.3 L 510.5 312.5 L 511.6 315.8 L 514.1 323.4 L 515.1 328.3 L 515.0 331.6 L 514.7 332.9 L 512.5 337.0 L 509.8 339.8 L 506.4 344.5 L 505.6 348.4 L 505.8 351.3 L 507.8 357.7 L 509.3 361.8 L 510.3 367.1 L 509.8 370.5 L 507.7 375.3 L 504.6 379.0 L 499.2 383.0 L 497.0 384.4 L 491.9 387.9 L 476.6 399.5 L 471.8 403.2 L 468.2 405.7 L 466.2 406.9 L 462.2 409.0 L 458.1 410.0 L 454.2 409.0 L 452.9 408.1 L 450.7 405.5 L 449.7 402.6 L 449.7 401.0 L 450.3 398.4 L 451.6 395.9 L 454.7 392.5 L 459.6 389.2 L 465.7 385.9 L 467.3 385.0 L 471.9 381.3 L 474.9 376.4 L 475.2 370.6 L 475.0 369.6 L 473.4 364.2 L 470.9 358.1 L 467.4 349.5 L 465.6 344.5 L 464.8 341.7 L 462.1 331.1 L 460.6 324.2 L 458.8 315.7 L 458.2 312.9 L 454.7 297.1 L 452.4 290.6 L 448.9 285.2 L 446.9 283.2 L 442.5 280.3 L 437.0 278.7 L 428.5 278.3 L 421.5 278.9 L 416.9 280.4 L 411.0 284.2 L 407.5 287.2 L 402.0 294.6 L 400.4 297.7 L 397.5 304.9 L 395.4 311.6 L 393.4 317.7 L 391.0 325.4 L 390.0 328.3 L 388.0 334.5 L 385.2 343.2 L 383.2 348.4 L 382.1 350.5 L 379.2 354.4 L 375.4 357.4 L 370.6 358.7 L 368.5 358.7 L 365.0 358.1 L 361.1 356.1 L 355.7 353.9 L 351.8 353.5 L 347.9 354.2 L 343.7 356.3 L 340.6 359.0 L 337.4 363.0 L 336.2 364.9 L 333.8 369.2 L 331.7 373.5 L 329.6 378.0 L 327.2 382.6 L 323.5 388.7 L 319.7 392.3 L 313.8 393.8 L 310.9 393.4 L 308.2 392.5 L 303.2 389.8 L 299.0 387.1 L 295.7 384.7 L 293.8 383.1 L 290.2 379.4 L 285.7 371.5 L 284.9 363.0 L 285.9 356.7 L 287.0 352.6 L 289.8 345.7 L 293.5 339.2 L 298.3 332.4 L 301.8 328.1 L 305.1 324.3 L 312.9 316.5 L 316.6 313.3 L 319.6 310.8 L 323.6 307.9 L 329.8 303.9 L 334.5 301.3 L 341.0 297.5 L 343.7 295.9 L 351.6 291.3 L 359.6 286.1 L 369.2 277.0 L 371.0 274.7 L 374.5 269.3 L 378.7 261.0 L 382.0 253.4 L 383.1 250.7 L 385.7 243.8 L 387.9 234.8 L 388.2 228.5 L 386.5 219.7 L 384.6 214.3 L 381.4 206.3 L 379.3 201.4 L 375.6 192.9 L 374.2 189.7 L 371.3 182.2 L 369.4 175.8 L 367.7 167.9 L 365.9 158.4 L 365.6 156.8 L 364.3 148.5 L 363.9 136.5 L 364.6 134.9 L 365.2 134.1 L 367.2 133.0 L 368.8 132.9 L 370.5 132.8 L 372.0 132.3 L 373.2 131.1 L 373.7 129.7 L 373.7 127.7 L 373.2 125.9 L 372.7 124.8 L 371.7 122.9 L 370.3 120.8 L 368.2 117.6 L 368.0 117.4 L 364.6 112.3 L 362.2 108.7 L 359.2 104.1 L 355.5 98.5 L 353.2 95.1 Z" fill="none" stroke="#ffffff" stroke-width="0.7" stroke-dasharray="3 6"/>
  <text x="20" y="34" font-family="Inter,system-ui,sans-serif" font-size="14" font-weight="600" fill="#8a8aa3" letter-spacing="2">CIRCUIT DE SPA-FRANCORCHAMPS</text>
</svg>
