<svg xmlns="http://www.w3.org/2000/svg" viewBox="0 0 800 450" width="800" height="450">
  <defs>
    <linearGradient id="bg" x1="0" y1="0" x2="0" y2="1">
      <stop offset="0%" stop-color="#1d1d36"/>
      <stop offset="100%" stop-color="#0e0e1a"/>
    </linearGradient>
    <pattern id="grid" width="40" height="40" patternUnits="userSpaceOnUse">
      <circle cx="2" cy="2" r="0.8" fill="#252548" opacity="0.6"/>
    </pattern>
    <filter id="glow">
      <feGaussianBlur stdDeviation="3.5"/>
    </filter>
  </defs>
  <rect width="800" height="450" fill="url(#bg)"/>
  <rect width="800" height="450" fill="url(#grid)"/>
  <path d="M 538.0 363.4 L 529.4 365.8 L 523.6 367.3 L 511.1 370.7 L 506.7 371.9 L 489.7 376.5 L 483.7 378.1 L 469.3 382.0 L 455.6 385.7 L 444.9 388.6 L 425.2 394.0 L 411.6 397.8 L 404.1 399.9 L 395.3 402.3 L 382.6 405.7 L 367.1 409.4 L 363.8 409.9 L 359.5 410.0 L 355.4 409.7 L 351.9 409.0 L 344.7 405.6 L 341.8 403.2 L 338.0 398.6 L 336.6 396.0 L 334.8 392.3 L 330.4 384.4 L 319.5 368.1 L 315.2 361.7 L 313.7 359.5 L 308.2 351.2 L 300.4 339.5 L 295.4 331.8 L 292.6 327.6 L 289.8 323.3 L 285.4 316.7 L 274.2 299.7 L 270.1 293.2 L 266.6 287.7 L 263.6 282.8 L 252.9 263.5 L 249.2 256.2 L 245.1 248.1 L 242.0 242.0 L 235.1 228.1 L 222.6 201.7 L 220.5 197.4 L 216.8 189.3 L 211.8 179.1 L 206.2 168.2 L 190.2 143.2 L 181.5 132.2 L 175.9 126.1 L 167.9 117.7 L 165.6 115.4 L 150.1 100.0 L 145.0 95.0 L 138.6 88.8 L 133.7 84.1 L 126.8 77.6 L 120.0 71.2 L 114.4 65.7 L 111.8 62.7 L 110.3 60.4 L 109.1 57.7 L 108.7 53.5 L 109.0 51.8 L 109.6 50.4 L 112.0 47.5 L 113.3 46.6 L 118.6 44.4 L 120.9 43.9 L 125.2 43.1 L 127.3 42.8 L 133.8 42.0 L 136.2 41.7 L 139.5 41.4 L 142.6 41.1 L 147.9 40.7 L 156.5 40.2 L 164.9 40.0 L 169.3 40.0 L 174.4 40.0 L 179.6 40.2 L 196.0 41.2 L 204.4 42.1 L 210.6 42.7 L 218.2 43.7 L 224.0 44.5 L 244.7 47.9 L 250.2 49.0 L 264.2 51.7 L 281.5 55.2 L 291.0 57.1 L 310.1 60.9 L 318.4 62.5 L 328.5 64.1 L 336.3 65.3 L 342.7 66.2 L 363.3 69.1 L 364.1 69.1 L 382.5 71.3 L 390.4 71.9 L 401.0 72.5 L 419.5 73.2 L 430.8 73.5 L 438.2 73.7 L 444.4 73.8 L 449.3 74.0 L 463.2 74.6 L 468.4 75.6 L 470.9 76.6 L 474.5 78.5 L 479.4 83.1 L 481.3 88.5 L 481.7 93.6 L 481.7 94.1 L 481.3 97.0 L 479.1 102.9 L 476.9 107.0 L 476.3 107.9 L 473.2 112.4 L 469.3 117.3 L 459.0 127.2 L 453.4 131.2 L 447.1 134.9 L 440.4 138.2 L 434.1 140.7 L 412.7 145.9 L 404.0 146.7 L 397.0 146.6 L 389.8 146.1 L 383.3 145.5 L 371.4 143.8 L 361.5 142.1 L 350.9 140.1 L 338.2 137.7 L 328.7 136.3 L 312.3 135.0 L 304.3 135.5 L 297.3 136.8 L 290.4 139.2 L 285.1 142.1 L 275.7 151.3 L 272.8 156.6 L 270.6 163.3 L 269.9 168.1 L 270.0 180.4 L 271.8 189.6 L 275.1 199.4 L 280.3 209.0 L 283.4 214.2 L 293.2 230.0 L 296.9 235.7 L 300.4 241.0 L 303.7 245.5 L 308.9 251.5 L 320.9 261.3 L 323.8 262.8 L 330.9 265.2 L 335.6 265.8 L 341.0 265.4 L 355.0 260.7 L 359.8 257.8 L 365.4 253.6 L 372.6 247.3 L 378.8 241.7 L 390.6 230.9 L 396.0 226.4 L 406.6 219.1 L 411.2 216.6 L 416.7 214.4 L 436.7 210.4 L 449.3 209.7 L 457.1 209.5 L 459.9 209.4 L 468.5 209.2 L 483.7 209.0 L 493.2 208.9 L 502.1 208.8 L 517.0 208.7 L 523.8 208.7 L 543.0 208.4 L 549.9 208.2 L 565.2 207.8 L 579.0 207.4 L 598.2 206.8 L 609.6 206.6 L 615.8 206.6 L 629.0 207.2 L 637.3 208.1 L 649.4 211.0 L 658.4 215.3 L 663.3 218.8 L 668.1 223.5 L 670.4 226.3 L 677.5 243.5 L 678.5 247.2 L 680.5 253.8 L 683.1 262.2 L 685.6 270.2 L 688.9 281.2 L 690.4 287.4 L 691.4 294.6 L 691.3 299.8 L 691.0 301.5 L 685.4 313.3 L 681.7 317.3 L 674.5 322.1 L 669.5 324.7 L 662.7 327.8 L 651.5 332.3 L 644.4 334.7 L 635.8 337.2 L 621.4 341.0 L 613.3 343.1 L 588.5 349.8 L 579.2 352.3 L 572.3 354.1 L 565.2 356.1 L 547.6 360.8 L 538.0 363.4 Z" fill="none" stroke="#2c2c4a" stroke-width="14" stroke-linejoin="round" stroke-linecap="round"/>
  <path d="M 538.0 363.4 L 529.4 365.8 L 523.6 367.3 L 511.1 370.7 L 506.7 371.9 L 489.7 376.5 L 483.7 378.1 L 469.3 382.0 L 455.6 385.7 L 444.9 388.6 L 425.2 394.0 L 411.6 397.8 L 404.1 399.9 L 395.3 402.3 L 382.6 405.7 L 367.1 409.4 L 363.8 409.9 L 359.5 410.0 L 355.4 409.7 L 351.9 409.0 L 344.7 405.6 L 341.8 403.2 L 338.0 398.6 L 336.6 396.0 L 334.8 392.3 L 330.4 384.4 L 319.5 368.1 L 315.2 361.7 L 313.7 359.5 L 308.2 351.2 L 300.4 339.5 L 295.4 331.8 L 292.6 327.6 L 289.8 323.3 L 285.4 316.7 L 274.2 299.7 L 270.1 293.2 L 266.6 287.7 L 263.6 282.8 L 252.9 263.5 L 249.2 256.2 L 245.1 248.1 L 242.0 242.0 L 235.1 228.1 L 222.6 201.7 L 220.5 197.4 L 216.8 189.3 L 211.8 179.1 L 206.2 168.2 L 190.2 143.2 L 181.5 132.2 L 175.9 126.1 L 167.9 117.7 L 165.6 115.4 L 150.1 100.0 L 145.0 95.0 L 138.6 88.8 L 133.7 84.1 L 126.8 77.6 L 120.0 71.2 L 114.4 65.7 L 111.8 62.7 L 110.3 60.4 L 109.1 57.7 L 108.7 53.5 L 109.0 51.8 L 109.6 50.4 L 112.0 47.5 L 113.3 46.6 L 118.6 44.4 L 120.9 43.9 L 125.2 43.1 L 127.3 42.8 L 133.8 42.0 L 136.2 41.7 L 139.5 41.4 L 142.6 41.1 L 147.9 40.7 L 156.5 40.2 L 164.9 40.0 L 169.3 40.0 L 174.4 40.0 L 179.6 40.2 L 196.0 41.2 L 204.4 42.1 L 210.6 42.7 L 218.2 43.7 L 224.0 44.5 L 244.7 47.9 L 250.2 49.0 L 264.2 51.7 L 281.5 55.2 L 291.0 57.1 L 310.1 60.9 L 318.4 62.5 L 328.5 64.1 L 336.3 65.3 L 342.7 66.2 L 363.3 69.1 L 364.1 69.1 L 382.5 71.3 L 390.4 71.9 L 401.0 72.5 L 419.5 73.2 L 430.8 73.5 L 438.2 73.7 L 444.4 73.8 L 449.3 74.0 L 463.2 74.6 L 468.4 75.6 L 470.9 76.6 L 474.5 78.5 L 479.4 83.1 L 481.3 88.5 L 481.7 93.6 L 481.7 94.1 L 481.3 97.0 L 479.1 102.9 L 476.9 107.0 L 476.3 107.9 L 473.2 112.4 L 469.3 117.3 L 459.0 127.2 L 453.4 131.2 L 447.1 134.9 L 440.4 138.2 L 434.1 140.7 L 412.7 145.9 L 404.0 146.7 L 397.0 146.6 L 389.8 146.1 L 383.3 145.5 L 371.4 143.8 L 361.5 142.1 L 350.9 140.1 L 338.2 137.7 L 328.7 136.3 L 312.3 135.0 L 304.3 135.5 L 297.3 136.8 L 290.4 139.2 L 285.1 142.1 L 275.7 151.3 L 272.8 156.6 L 270.6 163.3 L 269.9 168.1 L 270.0 180.4 L 271.8 189.6 L 275.1 199.4 L 280.3 209.0 L 283.4 214.2 L 293.2 230.0 L 296.9 235.7 L 300.4 241.0 L 303.7 245.5 L 308.9 251.5 L 320.9 261.3 L 323.8 262.8 L 330.9 265.2 L 335.6 265.8 L 341.0 265.4 L 355.0 260.7 L 359.8 257.8 L 365.4 253.6 L 372.6 247.3 L 378.8 241.7 L 390.6 230.9 L 396.0 226.4 L 406.6 219.1 L 411.2 216.6 L 416.7 214.4 L 436.7 210.4 L 449.3 209.7 L 457.1 209.5 L 459.9 209.4 L 468.5 209.2 L 483.7 209.0 L 493.2 208.9 L 502.1 208.8 L 517.0 208.7 L 523.8 208.7 L 543.0 208.4 L 549.9 208.2 L 565.2 207.8 L 579.0 207.4 L 598.2 206.8 L 609.6 206.6 L 615.8 206.6 L 629.0 207.2 L 637.3 208.1 L 649.4 211.0 L 658.4 215.3 L 663.3 218.8 L 668.1 223.5 L 670.4 226.3 L 677.5 243.5 L 678.5 247.2 L 680.5 253.8 L 683.1 262.2 L 685.6 270.2 L 688.9 281.2 L 690.4 287.4 L 691.4 294.6 L 691.3 299.8 L 691.0 301.5 L 685.4 313.3 L 681.7 317.3 L 674.5 322.1 L 669.5 324.7 L 662.7 327.8 L 651.5 332.3 L 644.4 334.7 L 635.8 337.2 L 621.4 341.0 L 613.3 343.1 L 588.5 349.8 L 579.2 352.3 L 572.3 354.1 L 565.2 356.1 L 547.6 360.8 L 538.0 363.4 Z" fill="none" stroke="#e10600" stroke-width="3" stroke-linejoin="round" filter="url(#glow)" opacity="0.85"/>
  <path d="M 538.0 363.4 L 529.4 365.8 L 523.6 367.3 L 511.1 370.7 L 506.7 371.9 L 489.7 376.5 L 483.7 378.1 L 469.3 382.0 L 455.6 385.7 L 444.9 388.6 L 425.2 394.0 L 411.6 397.8 L 404.1 399.9 L 395.3 402.3 L 382.6 405.7 L 367.1 409.4 L 363.8 409.9 L 359.5 410.0 L 355.4 409.7 L 351.9 409.0 L 344.7 405.6 L 341.8 403.2 L 338.0 398.6 L 336.6 396.0 L 334.8 392.3 L 330.4 384.4 L 319.5 368.1 L 315.2 361.7 L 313.7 359.5 L 308.2 351.2 L 300.4 339.5 L 295.4 331.8 L 292.6 327.6 L 289.8 323.3 L 285.4 316.7 L 274.2 299.7 L 270.1 293.2 L 266.6 287.7 L 263.6 282.8 L 252.9 263.5 L 249.2 256.2 L 245.1 248.1 L 242.0 242.0 L 235.1 228.1 L 222.6 201.7 L 220.5 197.4 L 216.8 189.3 L 211.8 179.1 L 206.2 168.2 L 190.2 143.2 L 181.5 132.2 L 175.9 126.1 L 167.9 117.7 L 165.6 115.4 L 150.1 100.0 L 145.0 95.0 L 138.6 88.8 L 133.7 84.1 L 126.8 77.6 L 120.0 71.2 L 114.4 65.7 L 111.8 62.7 L 110.3 60.4 L 109.1 57.7 L 108.7 53.5 L 109.0 51.8 L 109.6 50.4 L 112.0 47.5 L 113.3 46.6 L 118.6 44.4 L 120.9 43.9 L 125.2 43.1 L 127.3 42.8 L 133.8 42.0 L 136.2 41.7 L 139.5 41.4 L 142.6 41.1 L 147.9 40.7 L 156.5 40.2 L 164.9 40.0 L 169.3 40.0 L 174.4 40.0 L 179.6 40.2 L 196.0 41.2 L 204.4 42.1 L 210.6 42.7 L 218.2 43.7 L 224.0 44.5 L 244.7 47.9 L 250.2 49.0 L 264.2 51.7 L 281.5 55.2 L 291.0 57.1 L 310.1 60.9 L 318.4 62.5 L 328.5 64.1 L 336.3 65.3 L 342.7 66.2 L 363.3 69.1 L 364.1 69.1 L 382.5 71.3 L 390.4 71.9 L 401.0 72.5 L 419.5 73.2 L 430.8 73.5 L 438.2 73.7 L 444.4 73.8 L 449.3 74.0 L 463.2 74.6 L 468.4 75.6 L 470.9 76.6 L 474.5 78.5 L 479.4 83.1 L 481.3 88.5 L 481.7 93.6 L 481.7 94.1 L 481.3 97.0 L 479.1 102.9 L 476.9 107.0 L 476.3 107.9 L 473.2 112.4 L 469.3 117.3 L 459.0 127.2 L 453.4 131.2 L 447.1 134.9 L 440.4 138.2 L 434.1 140.7 L 412.7 145.9 L 404.0 146.7 L 397.0 146.6 L 389.8 146.1 L 383.3 145.5 L 371.4 143.8 L 361.5 142.1 L 350.9 140.1 L 338.2 137.7 L 328.7 136.3 L 312.3 135.0 L 304.3 135.5 L 297.3 136.8 L 290.4 139.2 L 285.1 142.1 L 275.7 151.3 L 272.8 156.6 L 270.6 163.3 L 269.9 168.1 L 270.0 180.4 L 271.8 189.6 L 275.1 199.4 L 280.3 209.0 L 283.4 214.2 L 293.2 230.0 L 296.9 235.7 L 300.4 241.0 L 303.7 245.5 L 308.9 251.5 L 320.9 261.3 L 323.8 262.8 L 330.9 265.2 L 335.6 265.8 L 341.0 265.4 L 355.0 260.7 L 359.8 257.8 L 365.4 253.6 L 372.6 247.3 L 378.8 241.7 L 390.6 230.9 L 396.0 226.4 L 406.6 219.1 L 411.2 216.6 L 416.7 214.4 L 436.7 210.4 L 449.3 209.7 L 457.1 209.5 L 459.9 209.4 L 468.5 209.2 L 483.7 209.0 L 493.2 208.9 L 502.1 208.8 L 517.0 208.7 L 523.8 208.7 L 543.0 208.4 L 549.9 208.2 L 565.2 207.8 L 579.0 207.4 L 598.2 206.8 L 609.6 206.6 L 615.8 206.6 L 629.0 207.2 L 637.3 208.1 L 649.4 211.0 L 658.4 215.3 L 663.3 218.8 L 668.1 223.5 L 670.4 226.3 L 677.5 243.5 L 678.5 247.2 L 680.5 253.8 L 683.1 262.2 L 685.6 270.2 L 688.9 281.2 L 690.4 287.4 L 691.4 294.6 L 691.3 299.8 L 691.0 301.5 L 685.4 313.3 L 681.7 317.3 L 674.5 322.1 L 669.5 324.7 L 662.7 327.8 L 651.5 332.3 L 644.4 334.7 L 635.8 337.2 L 621.4 341.0 L 613.3 343.1 L 588.5 349.8 L 579.2 352.3 L 572.3 354.1 L 565.2 356.1 L 547.6 360.8 L 538.0 363.4 Z" fill="none" stroke="#ffffff" stroke-width="0.7" stroke-dasharray="3 6"/>
  <text x="20" y="34" font-family="Inter,system-ui,sans-serif" font-size="14" font-weight="600" fill="#8a8aa3" letter-spacing="2">RED BULL RING</text>
</svg>
