<svg xmlns="http://www.w3.org/2000/svg" viewBox="0 0 800 450" width="800" height="450">
  <defs>
    <linearGradient id="bg" x1="0" y1="0" x2="0" y2="1">
      <stop offset="0%" stop-color="#1d1d36"/>
      <stop offset="100%" stop-color="#0e0e1a"/>
    </linearGradient>
    <pattern id="grid" width="40" height="40" patternUnits="userSpaceOnUse">
      <circle cx="2" cy="2" r="0.8" fill="#252548" opacity="0.6"/>
    </pattern>
    <filter id="glow">
      <feGaussianBlur stdDeviation="3.5"/>
    </filter>
  </defs>
  <rect width="800" height="450" fill="url(#bg)"/>
  <rect width="800" height="450" fill="url(#grid)"/>
  <path d="M 603.7 177.1 L 607.0 180.9 L 617.4 193.1 L 623.1 199.7 L 633.0 211.3 L 642.3 222.1 L 646.6 227.1 L 658.0 240.5 L 662.0 245.1 L 670.4 255.0 L 684.9 272.0 L 690.1 278.2 L 697.0 286.3 L 700.7 290.6 L 713.8 306.0 L 726.6 321.0 L 730.8 326.0 L 738.6 335.2 L 742.3 339.6 L 755.2 356.2 L 760.0 372.5 L 759.6 379.6 L 756.6 391.4 L 755.8 394.0 L 751.6 402.0 L 745.8 406.9 L 742.2 408.5 L 730.3 409.7 L 723.3 407.8 L 711.0 396.1 L 705.0 386.3 L 701.7 380.4 L 697.9 373.7 L 694.6 368.0 L 689.3 360.4 L 677.7 348.2 L 668.5 343.5 L 656.0 341.6 L 646.7 340.6 L 640.7 338.6 L 632.9 333.3 L 626.7 324.5 L 623.9 315.8 L 622.7 311.8 L 619.6 300.7 L 615.0 291.4 L 610.7 286.9 L 605.6 283.2 L 595.7 279.5 L 584.0 278.4 L 569.7 276.7 L 563.5 274.4 L 547.5 259.9 L 545.3 255.4 L 543.9 247.1 L 548.0 233.0 L 551.5 224.4 L 555.0 215.3 L 556.6 208.3 L 554.7 197.5 L 547.4 187.0 L 539.8 181.8 L 525.6 175.3 L 521.3 173.7 L 509.5 170.6 L 499.0 169.2 L 494.2 169.0 L 481.2 169.6 L 476.9 170.2 L 465.7 173.7 L 453.5 179.6 L 450.5 181.3 L 440.0 189.2 L 430.5 200.4 L 425.6 207.0 L 416.8 218.7 L 412.4 224.3 L 401.5 237.1 L 393.3 242.4 L 385.9 243.9 L 370.6 246.4 L 363.8 247.5 L 353.1 248.2 L 345.4 247.4 L 342.7 246.5 L 336.8 241.3 L 335.0 237.8 L 333.0 230.2 L 332.4 224.4 L 331.7 219.8 L 329.7 210.2 L 328.8 206.0 L 327.3 199.3 L 325.0 188.9 L 324.9 188.0 L 321.3 171.4 L 320.3 166.5 L 318.7 158.6 L 316.5 146.5 L 315.6 139.3 L 318.4 120.8 L 322.6 110.8 L 326.1 103.4 L 328.9 96.1 L 329.2 92.8 L 327.3 87.0 L 325.3 85.2 L 323.6 84.4 L 319.8 84.2 L 319.1 84.3 L 316.3 85.5 L 314.7 86.7 L 312.1 89.6 L 309.5 94.1 L 308.7 95.8 L 306.5 99.9 L 304.6 103.3 L 299.4 112.3 L 292.2 123.4 L 291.6 124.4 L 286.4 132.0 L 280.8 138.8 L 269.5 148.8 L 257.1 155.4 L 248.6 157.5 L 241.3 158.4 L 231.5 159.2 L 214.7 158.3 L 199.0 155.1 L 194.7 153.9 L 186.0 151.0 L 180.1 148.8 L 163.7 141.7 L 152.4 134.5 L 145.9 129.5 L 132.6 115.4 L 128.3 109.1 L 120.3 93.0 L 114.0 78.1 L 112.0 73.5 L 107.7 64.3 L 103.3 55.9 L 97.0 47.2 L 87.0 41.5 L 81.6 40.5 L 74.3 40.3 L 61.4 42.0 L 56.0 43.7 L 49.0 47.2 L 44.7 51.2 L 40.3 61.3 L 40.2 68.7 L 41.4 73.5 L 43.7 79.2 L 45.4 82.2 L 51.7 89.9 L 61.4 98.7 L 67.7 103.5 L 79.8 112.3 L 83.2 114.7 L 91.6 120.2 L 101.3 126.3 L 106.8 129.6 L 115.3 134.4 L 120.5 137.3 L 134.4 144.6 L 148.2 151.2 L 152.4 153.0 L 185.3 165.4 L 192.0 167.7 L 206.8 172.7 L 244.3 185.3 L 249.0 186.8 L 260.6 190.8 L 268.3 193.4 L 277.2 196.3 L 290.2 200.7 L 296.8 202.9 L 307.5 206.5 L 315.2 209.1 L 333.7 215.3 L 343.5 218.2 L 348.7 218.5 L 368.2 213.3 L 375.6 210.2 L 389.8 202.5 L 396.2 198.3 L 405.0 191.7 L 415.1 182.7 L 420.5 177.7 L 433.3 165.4 L 443.4 155.2 L 450.9 147.8 L 460.9 139.0 L 465.4 136.6 L 468.1 135.7 L 474.0 135.0 L 476.3 135.6 L 479.5 137.5 L 481.2 138.9 L 486.4 142.3 L 489.7 142.8 L 492.3 142.6 L 496.1 141.3 L 498.7 139.6 L 502.0 136.6 L 505.5 133.3 L 508.0 131.2 L 517.0 126.8 L 519.7 126.2 L 530.0 125.8 L 537.0 126.5 L 542.5 127.7 L 552.9 131.2 L 560.6 134.8 L 567.6 139.3 L 579.0 149.1 L 584.2 154.4 L 591.8 163.1 L 601.6 174.5 L 603.7 177.1 Z" fill="none" stroke="#2c2c4a" stroke-width="14" stroke-linejoin="round" stroke-linecap="round"/>
  <path d="M 603.7 177.1 L 607.0 180.9 L 617.4 193.1 L 623.1 199.7 L 633.0 211.3 L 642.3 222.1 L 646.6 227.1 L 658.0 240.5 L 662.0 245.1 L 670.4 255.0 L 684.9 272.0 L 690.1 278.2 L 697.0 286.3 L 700.7 290.6 L 713.8 306.0 L 726.6 321.0 L 730.8 326.0 L 738.6 335.2 L 742.3 339.6 L 755.2 356.2 L 760.0 372.5 L 759.6 379.6 L 756.6 391.4 L 755.8 394.0 L 751.6 402.0 L 745.8 406.9 L 742.2 408.5 L 730.3 409.7 L 723.3 407.8 L 711.0 396.1 L 705.0 386.3 L 701.7 380.4 L 697.9 373.7 L 694.6 368.0 L 689.3 360.4 L 677.7 348.2 L 668.5 343.5 L 656.0 341.6 L 646.7 340.6 L 640.7 338.6 L 632.9 333.3 L 626.7 324.5 L 623.9 315.8 L 622.7 311.8 L 619.6 300.7 L 615.0 291.4 L 610.7 286.9 L 605.6 283.2 L 595.7 279.5 L 584.0 278.4 L 569.7 276.7 L 563.5 274.4 L 547.5 259.9 L 545.3 255.4 L 543.9 247.1 L 548.0 233.0 L 551.5 224.4 L 555.0 215.3 L 556.6 208.3 L 554.7 197.5 L 547.4 187.0 L 539.8 181.8 L 525.6 175.3 L 521.3 173.7 L 509.5 170.6 L 499.0 169.2 L 494.2 169.0 L 481.2 169.6 L 476.9 170.2 L 465.7 173.7 L 453.5 179.6 L 450.5 181.3 L 440.0 189.2 L 430.5 200.4 L 425.6 207.0 L 416.8 218.7 L 412.4 224.3 L 401.5 237.1 L 393.3 242.4 L 385.9 243.9 L 370.6 246.4 L 363.8 247.5 L 353.1 248.2 L 345.4 247.4 L 342.7 246.5 L 336.8 241.3 L 335.0 237.8 L 333.0 230.2 L 332.4 224.4 L 331.7 219.8 L 329.7 210.2 L 328.8 206.0 L 327.3 199.3 L 325.0 188.9 L 324.9 188.0 L 321.3 171.4 L 320.3 166.5 L 318.7 158.6 L 316.5 146.5 L 315.6 139.3 L 318.4 120.8 L 322.6 110.8 L 326.1 103.4 L 328.9 96.1 L 329.2 92.8 L 327.3 87.0 L 325.3 85.2 L 323.6 84.4 L 319.8 84.2 L 319.1 84.3 L 316.3 85.5 L 314.7 86.7 L 312.1 89.6 L 309.5 94.1 L 308.7 95.8 L 306.5 99.9 L 304.6 103.3 L 299.4 112.3 L 292.2 123.4 L 291.6 124.4 L 286.4 132.0 L 280.8 138.8 L 269.5 148.8 L 257.1 155.4 L 248.6 157.5 L 241.3 158.4 L 231.5 159.2 L 214.7 158.3 L 199.0 155.1 L 194.7 153.9 L 186.0 151.0 L 180.1 148.8 L 163.7 141.7 L 152.4 134.5 L 145.9 129.5 L 132.6 115.4 L 128.3 109.1 L 120.3 93.0 L 114.0 78.1 L 112.0 73.5 L 107.7 64.3 L 103.3 55.9 L 97.0 47.2 L 87.0 41.5 L 81.6 40.5 L 74.3 40.3 L 61.4 42.0 L 56.0 43.7 L 49.0 47.2 L 44.7 51.2 L 40.3 61.3 L 40.2 68.7 L 41.4 73.5 L 43.7 79.2 L 45.4 82.2 L 51.7 89.9 L 61.4 98.7 L 67.7 103.5 L 79.8 112.3 L 83.2 114.7 L 91.6 120.2 L 101.3 126.3 L 106.8 129.6 L 115.3 134.4 L 120.5 137.3 L 134.4 144.6 L 148.2 151.2 L 152.4 153.0 L 185.3 165.4 L 192.0 167.7 L 206.8 172.7 L 244.3 185.3 L 249.0 186.8 L 260.6 190.8 L 268.3 193.4 L 277.2 196.3 L 290.2 200.7 L 296.8 202.9 L 307.5 206.5 L 315.2 209.1 L 333.7 215.3 L 343.5 218.2 L 348.7 218.5 L 368.2 213.3 L 375.6 210.2 L 389.8 202.5 L 396.2 198.3 L 405.0 191.7 L 415.1 182.7 L 420.5 177.7 L 433.3 165.4 L 443.4 155.2 L 450.9 147.8 L 460.9 139.0 L 465.4 136.6 L 468.1 135.7 L 474.0 135.0 L 476.3 135.6 L 479.5 137.5 L 481.2 138.9 L 486.4 142.3 L 489.7 142.8 L 492.3 142.6 L 496.1 141.3 L 498.7 139.6 L 502.0 136.6 L 505.5 133.3 L 508.0 131.2 L 517.0 126.8 L 519.7 126.2 L 530.0 125.8 L 537.0 126.5 L 542.5 127.7 L 552.9 131.2 L 560.6 134.8 L 567.6 139.3 L 579.0 149.1 L 584.2 154.4 L 591.8 163.1 L 601.6 174.5 L 603.7 177.1 Z" fill="none" stroke="#e10600" stroke-width="3" stroke-linejoin="round" filter="url(#glow)" opacity="0.85"/>
  <path d="M 603.7 177.1 L 607.0 180.9 L 617.4 193.1 L 623.1 199.7 L 633.0 211.3 L 642.3 222.1 L 646.6 227.1 L 658.0 240.5 L 662.0 245.1 L 670.4 255.0 L 684.9 272.0 L 690.1 278.2 L 697.0 286.3 L 700.7 290.6 L 713.8 306.0 L 726.6 321.0 L 730.8 326.0 L 738.6 335.2 L 742.3 339.6 L 755.2 356.2 L 760.0 372.5 L 759.6 379.6 L 756.6 391.4 L 755.8 394.0 L 751.6 402.0 L 745.8 406.9 L 742.2 408.5 L 730.3 409.7 L 723.3 407.8 L 711.0 396.1 L 705.0 386.3 L 701.7 380.4 L 697.9 373.7 L 694.6 368.0 L 689.3 360.4 L 677.7 348.2 L 668.5 343.5 L 656.0 341.6 L 646.7 340.6 L 640.7 338.6 L 632.9 333.3 L 626.7 324.5 L 623.9 315.8 L 622.7 311.8 L 619.6 300.7 L 615.0 291.4 L 610.7 286.9 L 605.6 283.2 L 595.7 279.5 L 584.0 278.4 L 569.7 276.7 L 563.5 274.4 L 547.5 259.9 L 545.3 255.4 L 543.9 247.1 L 548.0 233.0 L 551.5 224.4 L 555.0 215.3 L 556.6 208.3 L 554.7 197.5 L 547.4 187.0 L 539.8 181.8 L 525.6 175.3 L 521.3 173.7 L 509.5 170.6 L 499.0 169.2 L 494.2 169.0 L 481.2 169.6 L 476.9 170.2 L 465.7 173.7 L 453.5 179.6 L 450.5 181.3 L 440.0 189.2 L 430.5 200.4 L 425.6 207.0 L 416.8 218.7 L 412.4 224.3 L 401.5 237.1 L 393.3 242.4 L 385.9 243.9 L 370.6 246.4 L 363.8 247.5 L 353.1 248.2 L 345.4 247.4 L 342.7 246.5 L 336.8 241.3 L 335.0 237.8 L 333.0 230.2 L 332.4 224.4 L 331.7 219.8 L 329.7 210.2 L 328.8 206.0 L 327.3 199.3 L 325.0 188.9 L 324.9 188.0 L 321.3 171.4 L 320.3 166.5 L 318.7 158.6 L 316.5 146.5 L 315.6 139.3 L 318.4 120.8 L 322.6 110.8 L 326.1 103.4 L 328.9 96.1 L 329.2 92.8 L 327.3 87.0 L 325.3 85.2 L 323.6 84.4 L 319.8 84.2 L 319.1 84.3 L 316.3 85.5 L 314.7 86.7 L 312.1 89.6 L 309.5 94.1 L 308.7 95.8 L 306.5 99.9 L 304.6 103.3 L 299.4 112.3 L 292.2 123.4 L 291.6 124.4 L 286.4 132.0 L 280.8 138.8 L 269.5 148.8 L 257.1 155.4 L 248.6 157.5 L 241.3 158.4 L 231.5 159.2 L 214.7 158.3 L 199.0 155.1 L 194.7 153.9 L 186.0 151.0 L 180.1 148.8 L 163.7 141.7 L 152.4 134.5 L 145.9 129.5 L 132.6 115.4 L 128.3 109.1 L 120.3 93.0 L 114.0 78.1 L 112.0 73.5 L 107.7 64.3 L 103.3 55.9 L 97.0 47.2 L 87.0 41.5 L 81.6 40.5 L 74.3 40.3 L 61.4 42.0 L 56.0 43.7 L 49.0 47.2 L 44.7 51.2 L 40.3 61.3 L 40.2 68.7 L 41.4 73.5 L 43.7 79.2 L 45.4 82.2 L 51.7 89.9 L 61.4 98.7 L 67.7 103.5 L 79.8 112.3 L 83.2 114.7 L 91.6 120.2 L 101.3 126.3 L 106.8 129.6 L 115.3 134.4 L 120.5 137.3 L 134.4 144.6 L 148.2 151.2 L 152.4 153.0 L 185.3 165.4 L 192.0 167.7 L 206.8 172.7 L 244.3 185.3 L 249.0 186.8 L 260.6 190.8 L 268.3 193.4 L 277.2 196.3 L 290.2 200.7 L 296.8 202.9 L 307.5 206.5 L 315.2 209.1 L 333.7 215.3 L 343.5 218.2 L 348.7 218.5 L 368.2 213.3 L 375.6 210.2 L 389.8 202.5 L 396.2 198.3 L 405.0 191.7 L 415.1 182.7 L 420.5 177.7 L 433.3 165.4 L 443.4 155.2 L 450.9 147.8 L 460.9 139.0 L 465.4 136.6 L 468.1 135.7 L 474.0 135.0 L 476.3 135.6 L 479.5 137.5 L 481.2 138.9 L 486.4 142.3 L 489.7 142.8 L 492.3 142.6 L 496.1 141.3 L 498.7 139.6 L 502.0 136.6 L 505.5 133.3 L 508.0 131.2 L 517.0 126.8 L 519.7 126.2 L 530.0 125.8 L 537.0 126.5 L 542.5 127.7 L 552.9 131.2 L 560.6 134.8 L 567.6 139.3 L 579.0 149.1 L 584.2 154.4 L 591.8 163.1 L 601.6 174.5 L 603.7 177.1 Z" fill="none" stroke="#ffffff" stroke-width="0.7" stroke-dasharray="3 6"/>
  <text x="20" y="34" font-family="Inter,system-ui,sans-serif" font-size="14" font-weight="600" fill="#8a8aa3" letter-spacing="2">SUZUKA INTERNATIONAL RACING COURSE</text>
</svg>
