<svg xmlns="http://www.w3.org/2000/svg" viewBox="0 0 800 450" width="800" height="450">
  <defs>
    <linearGradient id="bg" x1="0" y1="0" x2="0" y2="1">
      <stop offset="0%" stop-color="#1d1d36"/>
      <stop offset="100%" stop-color="#0e0e1a"/>
    </linearGradient>
    <pattern id="grid" width="40" height="40" patternUnits="userSpaceOnUse">
      <circle cx="2" cy="2" r="0.8" fill="#252548" opacity="0.6"/>
    </pattern>
    <filter id="glow">
      <feGaussianBlur stdDeviation="3.5"/>
    </filter>
  </defs>
  <rect width="800" height="450" fill="url(#bg)"/>
  <rect width="800" height="450" fill="url(#grid)"/>
  <path d="M 470.5 395.3 L 471.7 394.0 L 480.5 383.6 L 483.1 380.8 L 486.6 376.8 L 490.6 372.4 L 498.7 363.4 L 500.2 361.7 L 503.8 357.8 L 506.6 354.5 L 507.8 352.5 L 508.6 348.5 L 507.5 344.9 L 506.0 342.8 L 503.5 340.9 L 500.4 339.8 L 499.0 339.6 L 496.2 339.5 L 492.3 340.4 L 488.1 342.5 L 485.3 344.4 L 479.4 349.9 L 474.7 353.8 L 472.1 354.8 L 468.1 355.4 L 461.8 354.0 L 460.1 353.3 L 452.9 348.1 L 449.4 342.6 L 448.0 338.7 L 447.5 335.2 L 446.5 325.4 L 446.4 322.5 L 446.1 317.6 L 445.6 308.7 L 445.4 305.1 L 445.0 294.9 L 444.7 287.0 L 444.4 279.2 L 444.2 274.0 L 444.0 268.7 L 443.7 259.8 L 443.4 251.4 L 443.1 240.5 L 442.7 229.5 L 442.6 227.8 L 442.2 217.6 L 441.9 207.3 L 441.7 201.3 L 441.5 195.9 L 441.4 192.1 L 441.3 190.0 L 441.2 185.6 L 441.6 182.3 L 441.8 181.7 L 442.8 178.6 L 445.1 175.4 L 448.5 174.1 L 450.0 174.1 L 453.5 174.1 L 457.2 174.1 L 461.7 174.1 L 468.7 174.0 L 474.3 174.0 L 477.0 173.9 L 480.9 173.6 L 488.7 171.3 L 490.9 170.2 L 498.5 165.2 L 504.4 158.5 L 506.1 155.8 L 508.2 151.6 L 509.5 147.7 L 510.2 142.5 L 509.8 140.2 L 509.4 139.2 L 507.4 135.9 L 506.8 135.5 L 503.7 134.4 L 501.3 133.2 L 500.7 132.5 L 499.5 130.3 L 499.2 128.4 L 499.3 127.3 L 500.5 123.9 L 502.1 121.2 L 502.8 119.9 L 504.1 117.3 L 505.0 114.8 L 505.1 113.8 L 505.1 111.3 L 504.4 108.9 L 501.8 106.5 L 500.3 106.2 L 497.1 106.1 L 493.7 106.2 L 491.0 106.3 L 486.9 106.4 L 481.1 106.5 L 477.7 106.5 L 473.6 106.7 L 467.9 106.7 L 465.9 106.7 L 458.1 106.7 L 452.7 106.7 L 450.1 106.7 L 442.5 106.6 L 437.6 106.1 L 434.7 105.7 L 429.8 104.7 L 421.9 101.9 L 414.1 97.3 L 412.4 95.9 L 408.4 91.6 L 404.4 85.8 L 402.6 82.4 L 399.4 75.5 L 396.2 68.4 L 394.3 64.7 L 389.0 56.8 L 382.8 50.9 L 378.1 47.7 L 374.7 45.9 L 367.8 43.3 L 365.7 42.8 L 359.8 41.5 L 356.0 40.7 L 354.0 40.4 L 351.8 40.1 L 349.4 40.2 L 346.6 42.1 L 344.8 46.2 L 343.9 49.9 L 342.4 53.5 L 340.8 56.9 L 338.2 62.5 L 335.4 68.2 L 333.3 72.0 L 330.5 77.1 L 327.6 82.1 L 326.4 84.2 L 322.6 91.3 L 319.8 96.6 L 319.4 97.4 L 316.0 103.6 L 313.8 107.9 L 310.8 114.6 L 309.8 116.8 L 305.8 127.1 L 303.3 135.0 L 302.2 139.1 L 299.1 149.8 L 297.1 157.8 L 296.1 162.1 L 294.6 169.5 L 292.6 182.2 L 292.1 186.6 L 291.2 196.2 L 290.7 204.1 L 290.6 207.5 L 290.5 215.2 L 290.6 228.5 L 290.6 232.7 L 290.7 242.1 L 290.7 247.0 L 290.8 255.1 L 290.8 258.2 L 290.8 269.4 L 290.8 280.4 L 290.8 282.8 L 290.7 292.1 L 290.7 298.5 L 290.7 303.1 L 290.6 315.9 L 290.5 324.1 L 290.5 328.4 L 290.4 335.9 L 290.3 342.3 L 290.3 349.1 L 290.2 354.5 L 290.1 365.3 L 290.0 371.6 L 289.9 380.9 L 289.8 388.4 L 289.9 391.3 L 290.1 392.8 L 290.8 395.4 L 292.0 397.8 L 292.6 398.7 L 294.0 400.1 L 296.7 401.3 L 297.7 401.4 L 300.4 401.9 L 304.1 404.1 L 305.0 404.8 L 308.4 407.4 L 312.6 409.3 L 315.4 409.7 L 319.0 409.8 L 325.5 410.0 L 331.5 409.8 L 339.2 409.7 L 347.6 409.4 L 354.7 409.3 L 355.6 409.2 L 363.6 409.0 L 370.8 408.8 L 372.7 408.7 L 381.1 408.5 L 388.8 408.6 L 401.4 408.7 L 411.9 408.7 L 418.5 408.7 L 422.2 408.6 L 429.2 408.4 L 437.5 408.1 L 440.2 408.0 L 450.5 406.9 L 463.2 401.4 L 468.5 397.3 L 470.5 395.3 Z" fill="none" stroke="#2c2c4a" stroke-width="14" stroke-linejoin="round" stroke-linecap="round"/>
  <path d="M 470.5 395.3 L 471.7 394.0 L 480.5 383.6 L 483.1 380.8 L 486.6 376.8 L 490.6 372.4 L 498.7 363.4 L 500.2 361.7 L 503.8 357.8 L 506.6 354.5 L 507.8 352.5 L 508.6 348.5 L 507.5 344.9 L 506.0 342.8 L 503.5 340.9 L 500.4 339.8 L 499.0 339.6 L 496.2 339.5 L 492.3 340.4 L 488.1 342.5 L 485.3 344.4 L 479.4 349.9 L 474.7 353.8 L 472.1 354.8 L 468.1 355.4 L 461.8 354.0 L 460.1 353.3 L 452.9 348.1 L 449.4 342.6 L 448.0 338.7 L 447.5 335.2 L 446.5 325.4 L 446.4 322.5 L 446.1 317.6 L 445.6 308.7 L 445.4 305.1 L 445.0 294.9 L 444.7 287.0 L 444.4 279.2 L 444.2 274.0 L 444.0 268.7 L 443.7 259.8 L 443.4 251.4 L 443.1 240.5 L 442.7 229.5 L 442.6 227.8 L 442.2 217.6 L 441.9 207.3 L 441.7 201.3 L 441.5 195.9 L 441.4 192.1 L 441.3 190.0 L 441.2 185.6 L 441.6 182.3 L 441.8 181.7 L 442.8 178.6 L 445.1 175.4 L 448.5 174.1 L 450.0 174.1 L 453.5 174.1 L 457.2 174.1 L 461.7 174.1 L 468.7 174.0 L 474.3 174.0 L 477.0 173.9 L 480.9 173.6 L 488.7 171.3 L 490.9 170.2 L 498.5 165.2 L 504.4 158.5 L 506.1 155.8 L 508.2 151.6 L 509.5 147.7 L 510.2 142.5 L 509.8 140.2 L 509.4 139.2 L 507.4 135.9 L 506.8 135.5 L 503.7 134.4 L 501.3 133.2 L 500.7 132.5 L 499.5 130.3 L 499.2 128.4 L 499.3 127.3 L 500.5 123.9 L 502.1 121.2 L 502.8 119.9 L 504.1 117.3 L 505.0 114.8 L 505.1 113.8 L 505.1 111.3 L 504.4 108.9 L 501.8 106.5 L 500.3 106.2 L 497.1 106.1 L 493.7 106.2 L 491.0 106.3 L 486.9 106.4 L 481.1 106.5 L 477.7 106.5 L 473.6 106.7 L 467.9 106.7 L 465.9 106.7 L 458.1 106.7 L 452.7 106.7 L 450.1 106.7 L 442.5 106.6 L 437.6 106.1 L 434.7 105.7 L 429.8 104.7 L 421.9 101.9 L 414.1 97.3 L 412.4 95.9 L 408.4 91.6 L 404.4 85.8 L 402.6 82.4 L 399.4 75.5 L 396.2 68.4 L 394.3 64.7 L 389.0 56.8 L 382.8 50.9 L 378.1 47.7 L 374.7 45.9 L 367.8 43.3 L 365.7 42.8 L 359.8 41.5 L 356.0 40.7 L 354.0 40.4 L 351.8 40.1 L 349.4 40.2 L 346.6 42.1 L 344.8 46.2 L 343.9 49.9 L 342.4 53.5 L 340.8 56.9 L 338.2 62.5 L 335.4 68.2 L 333.3 72.0 L 330.5 77.1 L 327.6 82.1 L 326.4 84.2 L 322.6 91.3 L 319.8 96.6 L 319.4 97.4 L 316.0 103.6 L 313.8 107.9 L 310.8 114.6 L 309.8 116.8 L 305.8 127.1 L 303.3 135.0 L 302.2 139.1 L 299.1 149.8 L 297.1 157.8 L 296.1 162.1 L 294.6 169.5 L 292.6 182.2 L 292.1 186.6 L 291.2 196.2 L 290.7 204.1 L 290.6 207.5 L 290.5 215.2 L 290.6 228.5 L 290.6 232.7 L 290.7 242.1 L 290.7 247.0 L 290.8 255.1 L 290.8 258.2 L 290.8 269.4 L 290.8 280.4 L 290.8 282.8 L 290.7 292.1 L 290.7 298.5 L 290.7 303.1 L 290.6 315.9 L 290.5 324.1 L 290.5 328.4 L 290.4 335.9 L 290.3 342.3 L 290.3 349.1 L 290.2 354.5 L 290.1 365.3 L 290.0 371.6 L 289.9 380.9 L 289.8 388.4 L 289.9 391.3 L 290.1 392.8 L 290.8 395.4 L 292.0 397.8 L 292.6 398.7 L 294.0 400.1 L 296.7 401.3 L 297.7 401.4 L 300.4 401.9 L 304.1 404.1 L 305.0 404.8 L 308.4 407.4 L 312.6 409.3 L 315.4 409.7 L 319.0 409.8 L 325.5 410.0 L 331.5 409.8 L 339.2 409.7 L 347.6 409.4 L 354.7 409.3 L 355.6 409.2 L 363.6 409.0 L 370.8 408.8 L 372.7 408.7 L 381.1 408.5 L 388.8 408.6 L 401.4 408.7 L 411.9 408.7 L 418.5 408.7 L 422.2 408.6 L 429.2 408.4 L 437.5 408.1 L 440.2 408.0 L 450.5 406.9 L 463.2 401.4 L 468.5 397.3 L 470.5 395.3 Z" fill="none" stroke="#e10600" stroke-width="3" stroke-linejoin="round" filter="url(#glow)" opacity="0.85"/>
  <path d="M 470.5 395.3 L 471.7 394.0 L 480.5 383.6 L 483.1 380.8 L 486.6 376.8 L 490.6 372.4 L 498.7 363.4 L 500.2 361.7 L 503.8 357.8 L 506.6 354.5 L 507.8 352.5 L 508.6 348.5 L 507.5 344.9 L 506.0 342.8 L 503.5 340.9 L 500.4 339.8 L 499.0 339.6 L 496.2 339.5 L 492.3 340.4 L 488.1 342.5 L 485.3 344.4 L 479.4 349.9 L 474.7 353.8 L 472.1 354.8 L 468.1 355.4 L 461.8 354.0 L 460.1 353.3 L 452.9 348.1 L 449.4 342.6 L 448.0 338.7 L 447.5 335.2 L 446.5 325.4 L 446.4 322.5 L 446.1 317.6 L 445.6 308.7 L 445.4 305.1 L 445.0 294.9 L 444.7 287.0 L 444.4 279.2 L 444.2 274.0 L 444.0 268.7 L 443.7 259.8 L 443.4 251.4 L 443.1 240.5 L 442.7 229.5 L 442.6 227.8 L 442.2 217.6 L 441.9 207.3 L 441.7 201.3 L 441.5 195.9 L 441.4 192.1 L 441.3 190.0 L 441.2 185.6 L 441.6 182.3 L 441.8 181.7 L 442.8 178.6 L 445.1 175.4 L 448.5 174.1 L 450.0 174.1 L 453.5 174.1 L 457.2 174.1 L 461.7 174.1 L 468.7 174.0 L 474.3 174.0 L 477.0 173.9 L 480.9 173.6 L 488.7 171.3 L 490.9 170.2 L 498.5 165.2 L 504.4 158.5 L 506.1 155.8 L 508.2 151.6 L 509.5 147.7 L 510.2 142.5 L 509.8 140.2 L 509.4 139.2 L 507.4 135.9 L 506.8 135.5 L 503.7 134.4 L 501.3 133.2 L 500.7 132.5 L 499.5 130.3 L 499.2 128.4 L 499.3 127.3 L 500.5 123.9 L 502.1 121.2 L 502.8 119.9 L 504.1 117.3 L 505.0 114.8 L 505.1 113.8 L 505.1 111.3 L 504.4 108.9 L 501.8 106.5 L 500.3 106.2 L 497.1 106.1 L 493.7 106.2 L 491.0 106.3 L 486.9 106.4 L 481.1 106.5 L 477.7 106.5 L 473.6 106.7 L 467.9 106.7 L 465.9 106.7 L 458.1 106.7 L 452.7 106.7 L 450.1 106.7 L 442.5 106.6 L 437.6 106.1 L 434.7 105.7 L 429.8 104.7 L 421.9 101.9 L 414.1 97.3 L 412.4 95.9 L 408.4 91.6 L 404.4 85.8 L 402.6 82.4 L 399.4 75.5 L 396.2 68.4 L 394.3 64.7 L 389.0 56.8 L 382.8 50.9 L 378.1 47.7 L 374.7 45.9 L 367.8 43.3 L 365.7 42.8 L 359.8 41.5 L 356.0 40.7 L 354.0 40.4 L 351.8 40.1 L 349.4 40.2 L 346.6 42.1 L 344.8 46.2 L 343.9 49.9 L 342.4 53.5 L 340.8 56.9 L 338.2 62.5 L 335.4 68.2 L 333.3 72.0 L 330.5 77.1 L 327.6 82.1 L 326.4 84.2 L 322.6 91.3 L 319.8 96.6 L 319.4 97.4 L 316.0 103.6 L 313.8 107.9 L 310.8 114.6 L 309.8 116.8 L 305.8 127.1 L 303.3 135.0 L 302.2 139.1 L 299.1 149.8 L 297.1 157.8 L 296.1 162.1 L 294.6 169.5 L 292.6 182.2 L 292.1 186.6 L 291.2 196.2 L 290.7 204.1 L 290.6 207.5 L 290.5 215.2 L 290.6 228.5 L 290.6 232.7 L 290.7 242.1 L 290.7 247.0 L 290.8 255.1 L 290.8 258.2 L 290.8 269.4 L 290.8 280.4 L 290.8 282.8 L 290.7 292.1 L 290.7 298.5 L 290.7 303.1 L 290.6 315.9 L 290.5 324.1 L 290.5 328.4 L 290.4 335.9 L 290.3 342.3 L 290.3 349.1 L 290.2 354.5 L 290.1 365.3 L 290.0 371.6 L 289.9 380.9 L 289.8 388.4 L 289.9 391.3 L 290.1 392.8 L 290.8 395.4 L 292.0 397.8 L 292.6 398.7 L 294.0 400.1 L 296.7 401.3 L 297.7 401.4 L 300.4 401.9 L 304.1 404.1 L 305.0 404.8 L 308.4 407.4 L 312.6 409.3 L 315.4 409.7 L 319.0 409.8 L 325.5 410.0 L 331.5 409.8 L 339.2 409.7 L 347.6 409.4 L 354.7 409.3 L 355.6 409.2 L 363.6 409.0 L 370.8 408.8 L 372.7 408.7 L 381.1 408.5 L 388.8 408.6 L 401.4 408.7 L 411.9 408.7 L 418.5 408.7 L 422.2 408.6 L 429.2 408.4 L 437.5 408.1 L 440.2 408.0 L 450.5 406.9 L 463.2 401.4 L 468.5 397.3 L 470.5 395.3 Z" fill="none" stroke="#ffffff" stroke-width="0.7" stroke-dasharray="3 6"/>
  <text x="20" y="34" font-family="Inter,system-ui,sans-serif" font-size="14" font-weight="600" fill="#8a8aa3" letter-spacing="2">LAS VEGAS STRIP CIRCUIT</text>
</svg>
