<svg xmlns="http://www.w3.org/2000/svg" viewBox="0 0 800 450" width="800" height="450">
  <defs>
    <linearGradient id="bg" x1="0" y1="0" x2="0" y2="1">
      <stop offset="0%" stop-color="#1d1d36"/>
      <stop offset="100%" stop-color="#0e0e1a"/>
    </linearGradient>
    <pattern id="grid" width="40" height="40" patternUnits="userSpaceOnUse">
      <circle cx="2" cy="2" r="0.8" fill="#252548" opacity="0.6"/>
    </pattern>
    <filter id="glow">
      <feGaussianBlur stdDeviation="3.5"/>
    </filter>
  </defs>
  <rect width="800" height="450" fill="url(#bg)"/>
  <rect width="800" height="450" fill="url(#grid)"/>
  <path d="M 389.9 247.6 L 392.4 247.3 L 398.3 246.7 L 407.7 245.6 L 411.6 245.2 L 422.3 244.0 L 427.0 243.4 L 434.1 242.6 L 439.4 242.1 L 446.3 241.4 L 450.5 240.1 L 453.7 237.6 L 454.8 235.8 L 456.0 230.9 L 456.1 227.3 L 455.7 221.9 L 455.4 219.6 L 454.4 213.6 L 454.0 211.9 L 451.6 202.1 L 450.9 199.7 L 448.8 193.0 L 447.4 189.5 L 442.3 183.1 L 438.3 180.8 L 429.2 177.8 L 424.4 176.1 L 417.6 173.2 L 413.2 169.1 L 408.0 159.0 L 407.4 155.1 L 407.7 148.7 L 408.1 145.4 L 408.7 141.7 L 410.2 132.9 L 411.0 128.2 L 412.0 122.5 L 412.9 115.7 L 413.4 104.9 L 413.3 100.0 L 413.1 91.0 L 412.8 84.3 L 412.2 76.4 L 411.9 72.5 L 411.1 62.8 L 410.9 60.6 L 410.0 53.7 L 409.6 51.4 L 407.2 45.0 L 405.1 42.2 L 401.3 40.1 L 399.8 40.0 L 395.9 41.7 L 394.5 42.9 L 392.6 45.4 L 391.9 46.7 L 388.3 56.7 L 387.7 58.6 L 386.1 63.6 L 385.4 65.8 L 383.9 70.8 L 383.1 73.1 L 380.9 80.2 L 379.8 83.6 L 379.0 85.9 L 377.3 90.8 L 376.3 93.8 L 373.5 101.8 L 372.3 105.2 L 369.7 112.5 L 367.7 118.2 L 364.9 126.4 L 362.9 132.0 L 360.5 139.0 L 359.7 141.4 L 357.3 148.1 L 356.1 151.5 L 353.1 160.1 L 351.7 164.2 L 348.0 174.6 L 347.2 177.0 L 342.8 189.7 L 341.6 192.9 L 338.8 201.0 L 337.2 205.6 L 334.7 212.7 L 333.2 216.9 L 330.1 225.5 L 328.9 228.7 L 325.0 239.4 L 323.7 242.9 L 320.1 252.4 L 318.7 256.1 L 316.8 261.8 L 315.4 266.3 L 314.4 269.5 L 313.7 273.7 L 313.6 276.5 L 313.9 278.8 L 314.6 280.6 L 317.1 282.2 L 318.3 282.2 L 320.7 281.7 L 322.0 281.5 L 324.9 281.4 L 326.5 282.0 L 328.3 283.8 L 329.0 285.1 L 330.4 289.0 L 330.9 290.9 L 332.1 296.0 L 332.4 297.1 L 333.5 301.5 L 334.3 304.1 L 336.0 308.4 L 336.9 310.7 L 339.6 315.9 L 341.7 319.5 L 345.4 324.6 L 347.4 327.2 L 349.8 329.9 L 352.3 332.6 L 360.8 340.2 L 362.2 341.4 L 367.2 345.6 L 371.0 348.9 L 373.8 351.2 L 381.2 357.4 L 392.5 367.0 L 401.5 374.5 L 406.8 378.7 L 414.2 384.0 L 417.2 386.0 L 429.1 393.0 L 431.7 394.3 L 441.0 398.5 L 446.8 401.0 L 452.4 403.3 L 457.1 405.1 L 466.0 408.6 L 468.9 409.6 L 473.4 410.0 L 476.7 409.3 L 480.6 407.3 L 482.1 406.1 L 484.9 402.5 L 485.9 399.9 L 485.8 392.2 L 485.0 389.9 L 480.7 382.6 L 479.4 381.2 L 472.8 377.4 L 471.5 377.1 L 464.4 376.3 L 461.7 375.9 L 454.5 374.7 L 450.0 374.2 L 443.9 373.7 L 437.0 373.2 L 431.6 372.7 L 424.3 371.5 L 421.5 370.6 L 411.4 365.0 L 408.6 363.0 L 402.1 357.3 L 400.0 354.4 L 397.5 348.9 L 396.7 346.1 L 395.3 338.8 L 395.1 336.1 L 395.3 331.2 L 395.9 328.6 L 398.0 325.8 L 400.1 325.0 L 402.7 324.7 L 405.7 324.9 L 409.3 325.2 L 412.8 324.5 L 416.8 321.8 L 418.2 320.4 L 420.4 316.1 L 420.8 313.7 L 421.1 308.9 L 421.0 306.8 L 420.0 302.6 L 418.9 300.6 L 416.0 297.6 L 414.7 296.8 L 413.0 295.8 L 409.7 294.8 L 406.4 294.7 L 400.4 295.3 L 397.5 295.7 L 391.6 296.6 L 386.0 297.3 L 379.4 298.4 L 374.8 299.2 L 365.6 300.2 L 361.5 299.6 L 354.2 296.3 L 352.7 295.2 L 348.5 290.0 L 346.7 286.9 L 343.8 282.2 L 342.0 279.2 L 339.0 272.8 L 338.2 270.8 L 337.2 266.4 L 336.9 263.2 L 336.9 259.8 L 337.0 258.6 L 337.9 255.3 L 338.6 254.2 L 343.7 252.0 L 346.6 251.7 L 349.4 251.5 L 352.8 251.0 L 358.8 250.6 L 362.2 250.5 L 370.0 250.0 L 389.9 247.6 Z" fill="none" stroke="#2c2c4a" stroke-width="14" stroke-linejoin="round" stroke-linecap="round"/>
  <path d="M 389.9 247.6 L 392.4 247.3 L 398.3 246.7 L 407.7 245.6 L 411.6 245.2 L 422.3 244.0 L 427.0 243.4 L 434.1 242.6 L 439.4 242.1 L 446.3 241.4 L 450.5 240.1 L 453.7 237.6 L 454.8 235.8 L 456.0 230.9 L 456.1 227.3 L 455.7 221.9 L 455.4 219.6 L 454.4 213.6 L 454.0 211.9 L 451.6 202.1 L 450.9 199.7 L 448.8 193.0 L 447.4 189.5 L 442.3 183.1 L 438.3 180.8 L 429.2 177.8 L 424.4 176.1 L 417.6 173.2 L 413.2 169.1 L 408.0 159.0 L 407.4 155.1 L 407.7 148.7 L 408.1 145.4 L 408.7 141.7 L 410.2 132.9 L 411.0 128.2 L 412.0 122.5 L 412.9 115.7 L 413.4 104.9 L 413.3 100.0 L 413.1 91.0 L 412.8 84.3 L 412.2 76.4 L 411.9 72.5 L 411.1 62.8 L 410.9 60.6 L 410.0 53.7 L 409.6 51.4 L 407.2 45.0 L 405.1 42.2 L 401.3 40.1 L 399.8 40.0 L 395.9 41.7 L 394.5 42.9 L 392.6 45.4 L 391.9 46.7 L 388.3 56.7 L 387.7 58.6 L 386.1 63.6 L 385.4 65.8 L 383.9 70.8 L 383.1 73.1 L 380.9 80.2 L 379.8 83.6 L 379.0 85.9 L 377.3 90.8 L 376.3 93.8 L 373.5 101.8 L 372.3 105.2 L 369.7 112.5 L 367.7 118.2 L 364.9 126.4 L 362.9 132.0 L 360.5 139.0 L 359.7 141.4 L 357.3 148.1 L 356.1 151.5 L 353.1 160.1 L 351.7 164.2 L 348.0 174.6 L 347.2 177.0 L 342.8 189.7 L 341.6 192.9 L 338.8 201.0 L 337.2 205.6 L 334.7 212.7 L 333.2 216.9 L 330.1 225.5 L 328.9 228.7 L 325.0 239.4 L 323.7 242.9 L 320.1 252.4 L 318.7 256.1 L 316.8 261.8 L 315.4 266.3 L 314.4 269.5 L 313.7 273.7 L 313.6 276.5 L 313.9 278.8 L 314.6 280.6 L 317.1 282.2 L 318.3 282.2 L 320.7 281.7 L 322.0 281.5 L 324.9 281.4 L 326.5 282.0 L 328.3 283.8 L 329.0 285.1 L 330.4 289.0 L 330.9 290.9 L 332.1 296.0 L 332.4 297.1 L 333.5 301.5 L 334.3 304.1 L 336.0 308.4 L 336.9 310.7 L 339.6 315.9 L 341.7 319.5 L 345.4 324.6 L 347.4 327.2 L 349.8 329.9 L 352.3 332.6 L 360.8 340.2 L 362.2 341.4 L 367.2 345.6 L 371.0 348.9 L 373.8 351.2 L 381.2 357.4 L 392.5 367.0 L 401.5 374.5 L 406.8 378.7 L 414.2 384.0 L 417.2 386.0 L 429.1 393.0 L 431.7 394.3 L 441.0 398.5 L 446.8 401.0 L 452.4 403.3 L 457.1 405.1 L 466.0 408.6 L 468.9 409.6 L 473.4 410.0 L 476.7 409.3 L 480.6 407.3 L 482.1 406.1 L 484.9 402.5 L 485.9 399.9 L 485.8 392.2 L 485.0 389.9 L 480.7 382.6 L 479.4 381.2 L 472.8 377.4 L 471.5 377.1 L 464.4 376.3 L 461.7 375.9 L 454.5 374.7 L 450.0 374.2 L 443.9 373.7 L 437.0 373.2 L 431.6 372.7 L 424.3 371.5 L 421.5 370.6 L 411.4 365.0 L 408.6 363.0 L 402.1 357.3 L 400.0 354.4 L 397.5 348.9 L 396.7 346.1 L 395.3 338.8 L 395.1 336.1 L 395.3 331.2 L 395.9 328.6 L 398.0 325.8 L 400.1 325.0 L 402.7 324.7 L 405.7 324.9 L 409.3 325.2 L 412.8 324.5 L 416.8 321.8 L 418.2 320.4 L 420.4 316.1 L 420.8 313.7 L 421.1 308.9 L 421.0 306.8 L 420.0 302.6 L 418.9 300.6 L 416.0 297.6 L 414.7 296.8 L 413.0 295.8 L 409.7 294.8 L 406.4 294.7 L 400.4 295.3 L 397.5 295.7 L 391.6 296.6 L 386.0 297.3 L 379.4 298.4 L 374.8 299.2 L 365.6 300.2 L 361.5 299.6 L 354.2 296.3 L 352.7 295.2 L 348.5 290.0 L 346.7 286.9 L 343.8 282.2 L 342.0 279.2 L 339.0 272.8 L 338.2 270.8 L 337.2 266.4 L 336.9 263.2 L 336.9 259.8 L 337.0 258.6 L 337.9 255.3 L 338.6 254.2 L 343.7 252.0 L 346.6 251.7 L 349.4 251.5 L 352.8 251.0 L 358.8 250.6 L 362.2 250.5 L 370.0 250.0 L 389.9 247.6 Z" fill="none" stroke="#e10600" stroke-width="3" stroke-linejoin="round" filter="url(#glow)" opacity="0.85"/>
  <path d="M 389.9 247.6 L 392.4 247.3 L 398.3 246.7 L 407.7 245.6 L 411.6 245.2 L 422.3 244.0 L 427.0 243.4 L 434.1 242.6 L 439.4 242.1 L 446.3 241.4 L 450.5 240.1 L 453.7 237.6 L 454.8 235.8 L 456.0 230.9 L 456.1 227.3 L 455.7 221.9 L 455.4 219.6 L 454.4 213.6 L 454.0 211.9 L 451.6 202.1 L 450.9 199.7 L 448.8 193.0 L 447.4 189.5 L 442.3 183.1 L 438.3 180.8 L 429.2 177.8 L 424.4 176.1 L 417.6 173.2 L 413.2 169.1 L 408.0 159.0 L 407.4 155.1 L 407.7 148.7 L 408.1 145.4 L 408.7 141.7 L 410.2 132.9 L 411.0 128.2 L 412.0 122.5 L 412.9 115.7 L 413.4 104.9 L 413.3 100.0 L 413.1 91.0 L 412.8 84.3 L 412.2 76.4 L 411.9 72.5 L 411.1 62.8 L 410.9 60.6 L 410.0 53.7 L 409.6 51.4 L 407.2 45.0 L 405.1 42.2 L 401.3 40.1 L 399.8 40.0 L 395.9 41.7 L 394.5 42.9 L 392.6 45.4 L 391.9 46.7 L 388.3 56.7 L 387.7 58.6 L 386.1 63.6 L 385.4 65.8 L 383.9 70.8 L 383.1 73.1 L 380.9 80.2 L 379.8 83.6 L 379.0 85.9 L 377.3 90.8 L 376.3 93.8 L 373.5 101.8 L 372.3 105.2 L 369.7 112.5 L 367.7 118.2 L 364.9 126.4 L 362.9 132.0 L 360.5 139.0 L 359.7 141.4 L 357.3 148.1 L 356.1 151.5 L 353.1 160.1 L 351.7 164.2 L 348.0 174.6 L 347.2 177.0 L 342.8 189.7 L 341.6 192.9 L 338.8 201.0 L 337.2 205.6 L 334.7 212.7 L 333.2 216.9 L 330.1 225.5 L 328.9 228.7 L 325.0 239.4 L 323.7 242.9 L 320.1 252.4 L 318.7 256.1 L 316.8 261.8 L 315.4 266.3 L 314.4 269.5 L 313.7 273.7 L 313.6 276.5 L 313.9 278.8 L 314.6 280.6 L 317.1 282.2 L 318.3 282.2 L 320.7 281.7 L 322.0 281.5 L 324.9 281.4 L 326.5 282.0 L 328.3 283.8 L 329.0 285.1 L 330.4 289.0 L 330.9 290.9 L 332.1 296.0 L 332.4 297.1 L 333.5 301.5 L 334.3 304.1 L 336.0 308.4 L 336.9 310.7 L 339.6 315.9 L 341.7 319.5 L 345.4 324.6 L 347.4 327.2 L 349.8 329.9 L 352.3 332.6 L 360.8 340.2 L 362.2 341.4 L 367.2 345.6 L 371.0 348.9 L 373.8 351.2 L 381.2 357.4 L 392.5 367.0 L 401.5 374.5 L 406.8 378.7 L 414.2 384.0 L 417.2 386.0 L 429.1 393.0 L 431.7 394.3 L 441.0 398.5 L 446.8 401.0 L 452.4 403.3 L 457.1 405.1 L 466.0 408.6 L 468.9 409.6 L 473.4 410.0 L 476.7 409.3 L 480.6 407.3 L 482.1 406.1 L 484.9 402.5 L 485.9 399.9 L 485.8 392.2 L 485.0 389.9 L 480.7 382.6 L 479.4 381.2 L 472.8 377.4 L 471.5 377.1 L 464.4 376.3 L 461.7 375.9 L 454.5 374.7 L 450.0 374.2 L 443.9 373.7 L 437.0 373.2 L 431.6 372.7 L 424.3 371.5 L 421.5 370.6 L 411.4 365.0 L 408.6 363.0 L 402.1 357.3 L 400.0 354.4 L 397.5 348.9 L 396.7 346.1 L 395.3 338.8 L 395.1 336.1 L 395.3 331.2 L 395.9 328.6 L 398.0 325.8 L 400.1 325.0 L 402.7 324.7 L 405.7 324.9 L 409.3 325.2 L 412.8 324.5 L 416.8 321.8 L 418.2 320.4 L 420.4 316.1 L 420.8 313.7 L 421.1 308.9 L 421.0 306.8 L 420.0 302.6 L 418.9 300.6 L 416.0 297.6 L 414.7 296.8 L 413.0 295.8 L 409.7 294.8 L 406.4 294.7 L 400.4 295.3 L 397.5 295.7 L 391.6 296.6 L 386.0 297.3 L 379.4 298.4 L 374.8 299.2 L 365.6 300.2 L 361.5 299.6 L 354.2 296.3 L 352.7 295.2 L 348.5 290.0 L 346.7 286.9 L 343.8 282.2 L 342.0 279.2 L 339.0 272.8 L 338.2 270.8 L 337.2 266.4 L 336.9 263.2 L 336.9 259.8 L 337.0 258.6 L 337.9 255.3 L 338.6 254.2 L 343.7 252.0 L 346.6 251.7 L 349.4 251.5 L 352.8 251.0 L 358.8 250.6 L 362.2 250.5 L 370.0 250.0 L 389.9 247.6 Z" fill="none" stroke="#ffffff" stroke-width="0.7" stroke-dasharray="3 6"/>
  <text x="20" y="34" font-family="Inter,system-ui,sans-serif" font-size="14" font-weight="600" fill="#8a8aa3" letter-spacing="2">YAS MARINA CIRCUIT</text>
</svg>
