<svg xmlns="http://www.w3.org/2000/svg" viewBox="0 0 800 450" width="800" height="450">
  <defs>
    <linearGradient id="bg" x1="0" y1="0" x2="0" y2="1">
      <stop offset="0%" stop-color="#1d1d36"/>
      <stop offset="100%" stop-color="#0e0e1a"/>
    </linearGradient>
    <pattern id="grid" width="40" height="40" patternUnits="userSpaceOnUse">
      <circle cx="2" cy="2" r="0.8" fill="#252548" opacity="0.6"/>
    </pattern>
    <filter id="glow">
      <feGaussianBlur stdDeviation="3.5"/>
    </filter>
  </defs>
  <rect width="800" height="450" fill="url(#bg)"/>
  <rect width="800" height="450" fill="url(#grid)"/>
  <path d="M 251.4 170.1 L 254.3 163.2 L 257.5 155.5 L 259.7 149.9 L 264.4 138.6 L 268.1 129.5 L 274.7 113.2 L 281.1 97.2 L 283.3 90.7 L 284.9 85.3 L 287.7 75.3 L 290.2 66.2 L 293.4 56.4 L 295.3 52.4 L 298.2 47.8 L 301.4 44.4 L 304.0 42.5 L 307.8 40.8 L 312.2 40.0 L 315.5 40.1 L 317.9 40.6 L 327.4 47.5 L 329.2 50.7 L 330.6 55.5 L 331.0 59.3 L 330.3 66.6 L 329.4 70.2 L 327.5 76.5 L 323.9 86.6 L 322.1 91.0 L 319.7 96.4 L 318.0 100.1 L 310.7 117.6 L 307.9 129.7 L 307.6 136.8 L 308.4 148.3 L 309.0 157.2 L 308.2 165.0 L 306.5 169.6 L 298.3 178.4 L 290.1 182.7 L 280.4 186.4 L 263.5 194.5 L 261.1 197.0 L 259.3 199.9 L 257.6 205.3 L 258.0 211.7 L 260.6 217.0 L 263.7 219.8 L 271.5 223.1 L 275.6 223.4 L 279.1 222.9 L 283.7 221.8 L 293.0 219.0 L 297.1 217.8 L 301.1 216.3 L 316.3 210.7 L 319.9 209.5 L 327.4 207.3 L 339.3 204.6 L 349.4 203.5 L 358.7 203.2 L 364.3 203.4 L 379.6 205.0 L 381.5 205.4 L 389.9 206.9 L 396.4 208.2 L 410.3 210.6 L 415.7 211.1 L 423.9 211.5 L 440.8 209.2 L 444.2 208.3 L 454.0 204.4 L 471.9 194.3 L 476.2 191.7 L 486.2 186.1 L 495.2 182.1 L 518.4 177.6 L 531.6 177.0 L 540.9 176.9 L 565.3 177.4 L 571.1 177.8 L 577.2 178.4 L 582.5 179.5 L 601.1 188.8 L 605.0 192.6 L 610.3 199.7 L 616.4 222.5 L 615.5 232.5 L 613.7 238.9 L 608.2 249.9 L 600.4 262.3 L 594.1 272.3 L 587.7 283.1 L 577.9 303.4 L 573.7 312.7 L 571.1 318.1 L 563.8 328.1 L 549.5 334.5 L 540.2 335.5 L 532.9 335.4 L 521.0 334.2 L 515.6 333.1 L 511.2 332.0 L 504.6 329.9 L 493.8 325.0 L 488.3 321.5 L 485.5 319.2 L 479.5 313.4 L 477.0 310.0 L 474.7 305.3 L 474.2 302.2 L 477.2 293.9 L 477.9 293.0 L 480.0 290.5 L 484.6 286.4 L 487.5 284.4 L 490.1 282.8 L 492.9 281.3 L 501.2 277.9 L 503.7 277.1 L 506.2 276.5 L 517.4 274.4 L 526.0 273.2 L 529.3 272.6 L 532.8 271.9 L 546.4 267.8 L 552.8 264.5 L 556.0 261.8 L 560.5 253.8 L 561.0 250.1 L 560.9 246.6 L 560.4 243.9 L 557.8 237.8 L 556.0 235.2 L 554.7 233.6 L 548.0 228.7 L 544.1 227.1 L 535.9 225.2 L 528.1 224.0 L 515.6 222.3 L 511.5 221.9 L 505.9 221.3 L 496.0 220.9 L 484.9 221.0 L 477.7 221.5 L 461.8 223.2 L 457.1 224.0 L 448.2 225.7 L 437.4 228.3 L 426.4 231.3 L 411.1 236.4 L 402.5 239.6 L 384.9 245.6 L 374.0 249.0 L 365.0 252.0 L 359.9 253.8 L 337.1 263.7 L 330.6 267.0 L 327.5 268.3 L 319.6 269.4 L 317.4 268.5 L 314.2 266.0 L 311.0 263.2 L 304.0 259.3 L 300.3 258.6 L 296.6 258.6 L 290.9 260.2 L 290.0 260.7 L 288.0 262.0 L 286.2 263.7 L 283.3 268.7 L 282.5 272.5 L 282.5 275.3 L 283.6 283.8 L 284.3 287.7 L 285.2 293.1 L 286.0 297.4 L 287.7 306.9 L 289.2 315.7 L 290.1 321.2 L 293.0 337.3 L 293.7 341.7 L 294.9 348.3 L 295.6 352.3 L 297.9 365.6 L 298.8 370.9 L 299.9 378.3 L 300.1 386.2 L 298.0 395.1 L 294.0 401.7 L 287.6 406.9 L 279.3 409.6 L 269.9 410.0 L 267.7 409.9 L 251.6 409.1 L 246.0 408.6 L 237.4 407.3 L 232.2 406.1 L 220.7 402.2 L 210.3 396.9 L 207.1 394.8 L 195.9 384.4 L 191.7 378.7 L 186.6 368.9 L 184.7 363.4 L 184.9 342.2 L 189.0 330.1 L 193.2 320.6 L 201.9 297.9 L 205.2 289.4 L 207.3 284.1 L 210.1 276.7 L 219.3 253.0 L 221.4 247.6 L 224.5 239.3 L 232.6 218.6 L 235.5 210.9 L 237.7 205.4 L 246.0 183.7 L 251.4 170.1 Z" fill="none" stroke="#2c2c4a" stroke-width="14" stroke-linejoin="round" stroke-linecap="round"/>
  <path d="M 251.4 170.1 L 254.3 163.2 L 257.5 155.5 L 259.7 149.9 L 264.4 138.6 L 268.1 129.5 L 274.7 113.2 L 281.1 97.2 L 283.3 90.7 L 284.9 85.3 L 287.7 75.3 L 290.2 66.2 L 293.4 56.4 L 295.3 52.4 L 298.2 47.8 L 301.4 44.4 L 304.0 42.5 L 307.8 40.8 L 312.2 40.0 L 315.5 40.1 L 317.9 40.6 L 327.4 47.5 L 329.2 50.7 L 330.6 55.5 L 331.0 59.3 L 330.3 66.6 L 329.4 70.2 L 327.5 76.5 L 323.9 86.6 L 322.1 91.0 L 319.7 96.4 L 318.0 100.1 L 310.7 117.6 L 307.9 129.7 L 307.6 136.8 L 308.4 148.3 L 309.0 157.2 L 308.2 165.0 L 306.5 169.6 L 298.3 178.4 L 290.1 182.7 L 280.4 186.4 L 263.5 194.5 L 261.1 197.0 L 259.3 199.9 L 257.6 205.3 L 258.0 211.7 L 260.6 217.0 L 263.7 219.8 L 271.5 223.1 L 275.6 223.4 L 279.1 222.9 L 283.7 221.8 L 293.0 219.0 L 297.1 217.8 L 301.1 216.3 L 316.3 210.7 L 319.9 209.5 L 327.4 207.3 L 339.3 204.6 L 349.4 203.5 L 358.7 203.2 L 364.3 203.4 L 379.6 205.0 L 381.5 205.4 L 389.9 206.9 L 396.4 208.2 L 410.3 210.6 L 415.7 211.1 L 423.9 211.5 L 440.8 209.2 L 444.2 208.3 L 454.0 204.4 L 471.9 194.3 L 476.2 191.7 L 486.2 186.1 L 495.2 182.1 L 518.4 177.6 L 531.6 177.0 L 540.9 176.9 L 565.3 177.4 L 571.1 177.8 L 577.2 178.4 L 582.5 179.5 L 601.1 188.8 L 605.0 192.6 L 610.3 199.7 L 616.4 222.5 L 615.5 232.5 L 613.7 238.9 L 608.2 249.9 L 600.4 262.3 L 594.1 272.3 L 587.7 283.1 L 577.9 303.4 L 573.7 312.7 L 571.1 318.1 L 563.8 328.1 L 549.5 334.5 L 540.2 335.5 L 532.9 335.4 L 521.0 334.2 L 515.6 333.1 L 511.2 332.0 L 504.6 329.9 L 493.8 325.0 L 488.3 321.5 L 485.5 319.2 L 479.5 313.4 L 477.0 310.0 L 474.7 305.3 L 474.2 302.2 L 477.2 293.9 L 477.9 293.0 L 480.0 290.5 L 484.6 286.4 L 487.5 284.4 L 490.1 282.8 L 492.9 281.3 L 501.2 277.9 L 503.7 277.1 L 506.2 276.5 L 517.4 274.4 L 526.0 273.2 L 529.3 272.6 L 532.8 271.9 L 546.4 267.8 L 552.8 264.5 L 556.0 261.8 L 560.5 253.8 L 561.0 250.1 L 560.9 246.6 L 560.4 243.9 L 557.8 237.8 L 556.0 235.2 L 554.7 233.6 L 548.0 228.7 L 544.1 227.1 L 535.9 225.2 L 528.1 224.0 L 515.6 222.3 L 511.5 221.9 L 505.9 221.3 L 496.0 220.9 L 484.9 221.0 L 477.7 221.5 L 461.8 223.2 L 457.1 224.0 L 448.2 225.7 L 437.4 228.3 L 426.4 231.3 L 411.1 236.4 L 402.5 239.6 L 384.9 245.6 L 374.0 249.0 L 365.0 252.0 L 359.9 253.8 L 337.1 263.7 L 330.6 267.0 L 327.5 268.3 L 319.6 269.4 L 317.4 268.5 L 314.2 266.0 L 311.0 263.2 L 304.0 259.3 L 300.3 258.6 L 296.6 258.6 L 290.9 260.2 L 290.0 260.7 L 288.0 262.0 L 286.2 263.7 L 283.3 268.7 L 282.5 272.5 L 282.5 275.3 L 283.6 283.8 L 284.3 287.7 L 285.2 293.1 L 286.0 297.4 L 287.7 306.9 L 289.2 315.7 L 290.1 321.2 L 293.0 337.3 L 293.7 341.7 L 294.9 348.3 L 295.6 352.3 L 297.9 365.6 L 298.8 370.9 L 299.9 378.3 L 300.1 386.2 L 298.0 395.1 L 294.0 401.7 L 287.6 406.9 L 279.3 409.6 L 269.9 410.0 L 267.7 409.9 L 251.6 409.1 L 246.0 408.6 L 237.4 407.3 L 232.2 406.1 L 220.7 402.2 L 210.3 396.9 L 207.1 394.8 L 195.9 384.4 L 191.7 378.7 L 186.6 368.9 L 184.7 363.4 L 184.9 342.2 L 189.0 330.1 L 193.2 320.6 L 201.9 297.9 L 205.2 289.4 L 207.3 284.1 L 210.1 276.7 L 219.3 253.0 L 221.4 247.6 L 224.5 239.3 L 232.6 218.6 L 235.5 210.9 L 237.7 205.4 L 246.0 183.7 L 251.4 170.1 Z" fill="none" stroke="#e10600" stroke-width="3" stroke-linejoin="round" filter="url(#glow)" opacity="0.85"/>
  <path d="M 251.4 170.1 L 254.3 163.2 L 257.5 155.5 L 259.7 149.9 L 264.4 138.6 L 268.1 129.5 L 274.7 113.2 L 281.1 97.2 L 283.3 90.7 L 284.9 85.3 L 287.7 75.3 L 290.2 66.2 L 293.4 56.4 L 295.3 52.4 L 298.2 47.8 L 301.4 44.4 L 304.0 42.5 L 307.8 40.8 L 312.2 40.0 L 315.5 40.1 L 317.9 40.6 L 327.4 47.5 L 329.2 50.7 L 330.6 55.5 L 331.0 59.3 L 330.3 66.6 L 329.4 70.2 L 327.5 76.5 L 323.9 86.6 L 322.1 91.0 L 319.7 96.4 L 318.0 100.1 L 310.7 117.6 L 307.9 129.7 L 307.6 136.8 L 308.4 148.3 L 309.0 157.2 L 308.2 165.0 L 306.5 169.6 L 298.3 178.4 L 290.1 182.7 L 280.4 186.4 L 263.5 194.5 L 261.1 197.0 L 259.3 199.9 L 257.6 205.3 L 258.0 211.7 L 260.6 217.0 L 263.7 219.8 L 271.5 223.1 L 275.6 223.4 L 279.1 222.9 L 283.7 221.8 L 293.0 219.0 L 297.1 217.8 L 301.1 216.3 L 316.3 210.7 L 319.9 209.5 L 327.4 207.3 L 339.3 204.6 L 349.4 203.5 L 358.7 203.2 L 364.3 203.4 L 379.6 205.0 L 381.5 205.4 L 389.9 206.9 L 396.4 208.2 L 410.3 210.6 L 415.7 211.1 L 423.9 211.5 L 440.8 209.2 L 444.2 208.3 L 454.0 204.4 L 471.9 194.3 L 476.2 191.7 L 486.2 186.1 L 495.2 182.1 L 518.4 177.6 L 531.6 177.0 L 540.9 176.9 L 565.3 177.4 L 571.1 177.8 L 577.2 178.4 L 582.5 179.5 L 601.1 188.8 L 605.0 192.6 L 610.3 199.7 L 616.4 222.5 L 615.5 232.5 L 613.7 238.9 L 608.2 249.9 L 600.4 262.3 L 594.1 272.3 L 587.7 283.1 L 577.9 303.4 L 573.7 312.7 L 571.1 318.1 L 563.8 328.1 L 549.5 334.5 L 540.2 335.5 L 532.9 335.4 L 521.0 334.2 L 515.6 333.1 L 511.2 332.0 L 504.6 329.9 L 493.8 325.0 L 488.3 321.5 L 485.5 319.2 L 479.5 313.4 L 477.0 310.0 L 474.7 305.3 L 474.2 302.2 L 477.2 293.9 L 477.9 293.0 L 480.0 290.5 L 484.6 286.4 L 487.5 284.4 L 490.1 282.8 L 492.9 281.3 L 501.2 277.9 L 503.7 277.1 L 506.2 276.5 L 517.4 274.4 L 526.0 273.2 L 529.3 272.6 L 532.8 271.9 L 546.4 267.8 L 552.8 264.5 L 556.0 261.8 L 560.5 253.8 L 561.0 250.1 L 560.9 246.6 L 560.4 243.9 L 557.8 237.8 L 556.0 235.2 L 554.7 233.6 L 548.0 228.7 L 544.1 227.1 L 535.9 225.2 L 528.1 224.0 L 515.6 222.3 L 511.5 221.9 L 505.9 221.3 L 496.0 220.9 L 484.9 221.0 L 477.7 221.5 L 461.8 223.2 L 457.1 224.0 L 448.2 225.7 L 437.4 228.3 L 426.4 231.3 L 411.1 236.4 L 402.5 239.6 L 384.9 245.6 L 374.0 249.0 L 365.0 252.0 L 359.9 253.8 L 337.1 263.7 L 330.6 267.0 L 327.5 268.3 L 319.6 269.4 L 317.4 268.5 L 314.2 266.0 L 311.0 263.2 L 304.0 259.3 L 300.3 258.6 L 296.6 258.6 L 290.9 260.2 L 290.0 260.7 L 288.0 262.0 L 286.2 263.7 L 283.3 268.7 L 282.5 272.5 L 282.5 275.3 L 283.6 283.8 L 284.3 287.7 L 285.2 293.1 L 286.0 297.4 L 287.7 306.9 L 289.2 315.7 L 290.1 321.2 L 293.0 337.3 L 293.7 341.7 L 294.9 348.3 L 295.6 352.3 L 297.9 365.6 L 298.8 370.9 L 299.9 378.3 L 300.1 386.2 L 298.0 395.1 L 294.0 401.7 L 287.6 406.9 L 279.3 409.6 L 269.9 410.0 L 267.7 409.9 L 251.6 409.1 L 246.0 408.6 L 237.4 407.3 L 232.2 406.1 L 220.7 402.2 L 210.3 396.9 L 207.1 394.8 L 195.9 384.4 L 191.7 378.7 L 186.6 368.9 L 184.7 363.4 L 184.9 342.2 L 189.0 330.1 L 193.2 320.6 L 201.9 297.9 L 205.2 289.4 L 207.3 284.1 L 210.1 276.7 L 219.3 253.0 L 221.4 247.6 L 224.5 239.3 L 232.6 218.6 L 235.5 210.9 L 237.7 205.4 L 246.0 183.7 L 251.4 170.1 Z" fill="none" stroke="#ffffff" stroke-width="0.7" stroke-dasharray="3 6"/>
  <text x="20" y="34" font-family="Inter,system-ui,sans-serif" font-size="14" font-weight="600" fill="#8a8aa3" letter-spacing="2">CIRCUIT ZANDVOORT</text>
</svg>
